M48
;Layer_Color=9474304
;FILE_FORMAT=4:4
METRIC,LZ
;TYPE=PLATED
T1F00S00C0.2000
T2F00S00C0.2500
T3F00S00C0.2750
T4F00S00C0.3000
T5F00S00C0.3810
T6F00S00C0.5000
T7F00S00C0.7000
T8F00S00C1.0000
T9F00S00C1.5240
;TYPE=NON_PLATED
T10F00S00C0.6000
T11F00S00C1.7018
T12F00S00C2.4000
T13F00S00C3.0480
T14F00S00C3.9878
T15F00S00C4.0640
%
T01
X01615742Y01316
X0162283
Y01336
X01615742
X0161675Y01365329
X0162175
X01626721Y013653
X00415Y01363286
Y013585
T02
X00459086Y0123
X00455Y01235
X00450435Y0124
X00412999Y01328997
Y01348997
X00408496Y013835
X004035Y013885
X00397341Y013935
X00463Y014175
X004675Y014225
X003925Y013985
T03
X0026511Y0017475
X0036036Y0036525
X0050324Y0017475
X0057468Y0055575
X0052705Y0074625
X00754759Y00438069
X0031274Y0055575
X003025Y00785
X003125Y01042262
X004318Y0093675
X0126Y0133934
X01245Y01357749
X012525Y0136895
T04
X025725Y0043731
X023338Y004505
X0212059Y0043756
X0195271Y0045025
X0173968Y0043781
X015718Y004505
X0135859Y0043756
X0119071Y0045025
X009775Y0043731
X0080962Y0045
X0066Y0081955
X0060275Y00835
X0044331Y0112725
X0082431
X0081915Y0082
X0104
X0120015
X0142155
X0158115
X0158631Y0112725
X0120531
X0196731
X0196215Y0082
X0180255
X0218355
X0234315
X0234831Y0112725
X0272931
X0256455Y0082
X0311031Y0112725
X0164675Y01345
X013625Y0133525
X0137445Y0131205
X01316448Y01321448
X01329305Y013439
X01147098Y01318152
X0112871Y0132925
X010825Y01339187
X01095Y0127025
X008975Y0147
Y01491
X006975Y014145
Y014025
Y013905
Y013785
X0065571Y01365
X00645Y0137
X0056Y013785
X005395Y013905
X005Y014145
X00505Y013485
X00535Y0132
X005825Y014625
X005945Y014745
X00400874Y01404126
T05
X001397Y004142
X001714Y004064
X002159Y0105
X00225Y01087
X002425Y011684
X00287337
X01313434Y00864
X01341434Y00836
X02076Y00863437
X02103Y00836437
X02466434Y00854
X02484434Y00836
X005075Y01327363
X005075Y01408372
X0047308Y014282
X00401635Y0143
X00413999Y01337997
X00375Y01414
T06
X00252812Y001375
X0039013Y00143
X00490935Y001375
X0062825Y00143
X0072906Y001375
X0134263Y00143
X01443435Y001375
X0203319Y00143
X02134002Y001375
X0222369Y00143
X02324503Y001375
X0241419Y00143
X02515Y001375
X02604691Y00143
X027055Y001375
X02691997Y003352
X02536043Y002975
X0279519Y00143
X02896Y001375
X02985691Y00143
X030865Y001375
X030865Y00328472
X02999813Y002875
X0298569Y00524
X0311031Y00706
X02776942Y005185
X02687643Y0052
X0246738Y005185
X0236657Y00524
X0227688Y005185
X0217607Y00524
X02086378Y005185
X0198557Y00524
X01895877Y005185
X0179507Y00524
X01705378Y005185
X0160457Y00524
X01514877Y005185
X0141407Y00524
X01324377Y005185
X0122357Y00524
X01133877Y005185
X0103307Y00524
X0094338Y005185
X0084257Y00524
X0075288Y005185
X0065207Y00524
X0046157
X00222621Y005185
X00271462Y008995
X0031869Y00905
X00141106Y00899148
X00271462Y01106
X0046196
X0065221
X006991Y00905
X0061Y008995
X005086Y00905
X0046196Y008995
X00800497
X00889938Y00905
X00991Y008995
X01080438Y00905
X01181497Y008995
X0103346Y01106
X00842707
X01223957
X0141446
X0146169Y00905
X01372Y008995
X0127119Y00905
X01562497Y008995
X01651938Y00905
X01753Y008995
X01842438Y00905
X01943497Y008995
X0179546Y01106
X01604957
X01985957
X0217621
X02366707
X02324495Y008995
X0222369Y00905
X02133997Y008995
X0203319Y00905
X0241419
X02515Y008995
X0269994Y00905
X0274796Y01109472
X0255746
X0293821Y01106
X0311031Y01085
X030865Y00899148
X0298569Y00905
X0280075Y008995
X0164675Y01309815
X0159175
X0057Y0136895
Y0142368
T07
X0184Y014165
X0186
T08
X00214312Y0007
X0303Y0007127
Y0137
X001775Y01345
T09
X00176213Y002159
X00239713Y002413
X00414335Y002159
X00477835Y002413
X00652465Y002159
X00715965Y002413
X01366835Y002159
X01430335Y002413
X02057402Y002159
X02120903Y002413
X022479Y002159
X023114Y002413
X024384Y002159
X025019Y002413
X026289Y002159
X026924Y002413
X028194Y002159
X028829Y002413
X030099Y002159
X030734Y002413
Y004318
X030099Y004064
X028829Y004318
X028194Y004064
X030099Y005969
X030734Y006223
X030099Y007874
X02771775
X02763842Y006223
X02700343Y005969
X02620957Y004318
X02557457Y004064
X0245428Y006223
X0239078Y005969
X0253365Y007874
X0234315
X0215265
X0220028Y005969
X0226378Y006223
X0207328
X0200978Y005969
X0210502Y004064
X0216852Y004318
X0229552Y004064
X0235902Y004318
X0197802
X0191452Y004064
X0178752Y004318
X0172402Y004064
X0159702Y004318
X0162878Y005969
X0169228Y006223
X0181928Y005969
X0188278Y006223
X0196215Y007874
X0177165
X0158115
X0139065
X0120015
X0124778Y005969
X0131128Y006223
X0143828Y005969
X0150178Y006223
X0153352Y004064
X0140652Y004318
X0134302Y004064
X0121602Y004318
X0115252Y004064
X0102552Y004318
X0096202Y004064
X0083502Y004318
X0086678Y005969
X0093028Y006223
X0105728Y005969
X0112078Y006223
X0100965Y007874
X0081915
X0062865
X0043815
X0048578Y005969
X0054928Y006223
X0067628Y005969
X0073978Y006223
X0077152Y004064
X00644522Y004318
X00581022Y004064
X00334963Y004318
X00271462Y004064
X00287337Y006223
X00223838Y005969
X00200025Y007874
X00263525Y008128
X002159Y010033
X001524Y009779
Y011684
X003429
Y009779
X004064Y010033
X005334Y009779
X005969Y010033
X007239Y009779
X007874Y010033
X007239Y011684
X005334
X0050165Y008128
X0069215
X0088265
X0107315
X011049Y009779
X011684Y010033
X009779
X009144Y009779
Y011684
X011049
X012954
X014859
Y009779
X015494Y010033
X013589
X012954Y009779
X0126365Y008128
X0145415
X0164465
X0183515
X018669Y009779
X019304Y010033
X017399
X016764Y009779
Y011684
X018669
X020574
X022479
Y009779
X023114Y010033
X021209
X020574Y009779
X0202565Y008128
X0221615
X0240665
X0259715
X025019Y010033
X024384Y009779
Y011684
X026289
X0272415Y009779
X0278765Y010033
X028194Y011684
X030099
Y009779
X030734Y010033
Y008128
X02835275
X028829Y011938
X030734
X026924
X025019
X023114
X021209
X019304
X017399
X015494
X013589
X011684
X009779
X007874
X005969
X004064
X002159
T10
X0166245Y013629
Y014165
X0157605
Y013629
T11
X00163512Y001905
X00265112
X00258762Y00381
X00360363
X00568322
X00669922
X0075882
X00741365Y001905
X00639765
X00503235
X00401635
X0086042Y00381
X0094932
X0105092
X0113982
X0124142
X0133032
X0143192
X0152082
X01455735Y001905
X01354135
X0162242Y00381
X0171132
X0181292
X0190182
X0200342
X0209232
X0219392
X0228282
X022352Y001905
X02146302
X02044702
X023368
X024257
X025273
X026162
X027178
X02646357Y00381
X02544757
X0238442
X028067
X029083
X029972
X030988
Y001905
X029972
X029083
X028067
X02789243Y005715
X029972
X030988
Y00762
X029972
X02860675
X02759075
X0262255
X0252095
X0243205
X0247968Y005715
X02687643
X0237808
X0228918
X0218758
X0209868
X0199708
X0205105Y00762
X0213995
X0224155
X0233045
X0194945
X0186055
X0175895
X0167005
X0171768Y005715
X0180658
X0190818
X0161608
X0152718
X0142558
X0133668
X0123508
X0128905Y00762
X0137795
X0147955
X0156845
X0118745
X0109855
X0099695
X0090805
X0080645
X0085408Y005715
X0095568
X0104458
X0114618
X0076518
X0066358
X0057468
X0047308
X0042545Y00762
X0052705
X0061595
X0071755
X00288925
X00187325
X00211138Y005715
X00312738
X003302Y009525
X002413
X001397
Y01143
X002413
X003302
X004318
X005207
X006223
X007112
Y009525
X006223
X005207
X004318
X008128
X009017
X010033
X010922
Y01143
X010033
X009017
X008128
X011938
X012827
X013843
X014732
X015748
Y009525
X014732
X013843
X012827
X011938
X016637
X017653
X018542
X019558
Y01143
X018542
X017653
X016637
X020447
X021463
X022352
X023368
Y009525
X022352
X021463
X020447
X024257
X025273
X0271145
X027178Y01143
X026162
X025273
X024257
X028067
X029083
X029972
X030988
Y009525
X029972
X0281305
T12
X0013Y0005
X031
Y014
X0013
T13
X00190182Y0031115
X00428942
X00904935Y0012065
X01904935
X02857823Y0050165
X02619062
X0264287Y0088265
X0288163
T14
X00904935Y0027305
X01904935
X02857823Y0065405
X02619062
X00428942Y0046355
X00190182
X0264287Y0103505
X0288163
T15
X00214312Y001905
X00309562Y00381
X00619123
X00690565Y001905
X00452435
X0080962Y00381
X0100012
X0119062
X0138112
X0157162
X01404935Y001905
X0176212Y00381
X0195262
X0214312
X0233362
X02286Y001905
X02095502
X024765
X02667
X02595557Y00381
X028575
X03048
Y001905
X028575
X03048Y005715
Y00762
X02809875
X0257175
X0238125
X0242888Y005715
X02738443
X0223838
X0204788
X0200025Y00762
X0219075
X0180975
X0161925
X0166688Y005715
X0185738
X0147638
X0128588
X0123825Y00762
X0142875
X0104775
X0085725
X0090488Y005715
X0109538
X0071438
X0052388
X0047625Y00762
X0066675
X00238125
X00261938Y005715
X001905Y009525
Y01143
X00381
Y009525
X005715
Y01143
X00762
Y009525
X009525
Y01143
X01143
Y009525
X013335
Y01143
X01524
Y009525
X017145
Y01143
X01905
Y009525
X020955
Y01143
X02286
Y009525
X024765
Y01143
X02667
X0276225Y009525
X028575Y01143
X03048
Y009525
M30
