M48
;Layer_Color=9474304
;FILE_FORMAT=4:4
METRIC,LZ
;TYPE=PLATED
;TYPE=NON_PLATED
T16F00S00C5.0750
%
T16
X00214312Y001375
X00309562Y00328
X00619123
X0069056Y001375
X00452435
X0080962Y00328
X0100012
X0119062
X0138112
X0157162
X01404935Y001375
X0176212Y00328
X0195262
X0214312
X0233362
X02286Y001375
X02095502
X024765
X02667
X0259556Y00328
X028575
Y001375
X03048
Y00328
Y005185
Y00709
X0280988
X0257175
X0238125
X0242888Y005185
X02738443
X0223838
X0204788
X0200025Y00709
X0219075
X0180975
X0161925
X0166688Y005185
X0185738
X0147638
X0128588
X0123825Y00709
X0142875
X0104775
X0085725
X0090488Y005185
X0109538
X0071438
X0052388
X0047625Y00709
X0066675
X00238125
X00261938Y005185
X001905Y008995
X00381
Y0109
X001905
X005715
Y008995
X00762
Y0109
X009525
Y008995
X01143
Y0109
X013335
Y008995
X01524
Y0109
X017145
Y008995
X01905
Y0109
X020955
X02286
Y008995
X02095502
X024765
Y0109
X02667
X0276225Y008995
X03048
Y0109
X028575
M30
