G04*
G04 #@! TF.GenerationSoftware,Altium Limited,Altium Designer,18.1.9 (240)*
G04*
G04 Layer_Color=32896*
%FSLAX44Y44*%
%MOMM*%
G71*
G01*
G75*
%ADD10C,0.1270*%
%ADD113C,0.0000*%
%ADD115C,0.2000*%
%ADD116C,0.1524*%
%ADD121C,0.0010*%
%ADD122C,0.0500*%
D10*
X433300Y1249700D02*
Y1280300D01*
X415700D02*
X433300D01*
X415700Y1249700D02*
Y1280300D01*
Y1249700D02*
X433300D01*
Y1280300D01*
X415700D02*
X433300D01*
X415700Y1249700D02*
Y1280300D01*
Y1249700D02*
X433300D01*
X1879500Y1354000D02*
Y1430000D01*
X1820500D02*
X1879500D01*
X1820500Y1354000D02*
Y1430000D01*
Y1354000D02*
X1879500D01*
Y1430000D01*
X1820500D02*
X1879500D01*
X1820500Y1354000D02*
Y1430000D01*
Y1354000D02*
X1879500D01*
D113*
X1266952Y1327544D02*
G03*
X1273048Y1327544I3048J0D01*
G01*
X1266952D02*
G03*
X1273048Y1327544I3048J0D01*
G01*
D115*
X450500Y1275000D02*
G03*
X450500Y1275000I-1000J0D01*
G01*
D02*
G03*
X450500Y1275000I-1000J0D01*
G01*
X1841000Y1435500D02*
G03*
X1841000Y1435500I-1000J0D01*
G01*
D02*
G03*
X1841000Y1435500I-1000J0D01*
G01*
D116*
X1261110Y1296556D02*
X1278890D01*
X1261110D02*
Y1300112D01*
Y1305192D01*
Y1318908D01*
Y1327544D02*
X1266952D01*
X1273048D01*
X1278890D01*
Y1323988D02*
Y1327544D01*
Y1318908D02*
Y1323988D01*
Y1314590D02*
Y1318908D01*
Y1309510D02*
Y1314590D01*
Y1305192D02*
Y1309510D01*
Y1323988D02*
X1286002D01*
Y1318908D02*
Y1323988D01*
X1278890Y1318908D02*
X1286002D01*
X1278890Y1314590D02*
X1286002D01*
Y1309510D02*
Y1314590D01*
X1278890Y1309510D02*
X1286002D01*
X1278890Y1296556D02*
Y1300112D01*
Y1305192D01*
X1286002D01*
Y1300112D02*
Y1305192D01*
X1278890Y1300112D02*
X1286002D01*
X1253998D02*
X1261110D01*
X1253998D02*
Y1305192D01*
X1261110D01*
Y1323988D02*
Y1327544D01*
Y1318908D02*
Y1323988D01*
X1253998Y1318908D02*
X1261110D01*
X1253998D02*
Y1323988D01*
X1261110D01*
Y1296556D02*
X1278890D01*
X1261110D02*
Y1300112D01*
Y1305192D01*
Y1318908D01*
Y1327544D02*
X1266952D01*
X1273048D01*
X1278890D01*
Y1323988D02*
Y1327544D01*
Y1318908D02*
Y1323988D01*
Y1314590D02*
Y1318908D01*
Y1309510D02*
Y1314590D01*
Y1305192D02*
Y1309510D01*
Y1323988D02*
X1286002D01*
Y1318908D02*
Y1323988D01*
X1278890Y1318908D02*
X1286002D01*
X1278890Y1314590D02*
X1286002D01*
Y1309510D02*
Y1314590D01*
X1278890Y1309510D02*
X1286002D01*
X1278890Y1296556D02*
Y1300112D01*
Y1305192D01*
X1286002D01*
Y1300112D02*
Y1305192D01*
X1278890Y1300112D02*
X1286002D01*
X1253998D02*
X1261110D01*
X1253998D02*
Y1305192D01*
X1261110D01*
Y1323988D02*
Y1327544D01*
Y1318908D02*
Y1323988D01*
X1253998Y1318908D02*
X1261110D01*
X1253998D02*
Y1323988D01*
X1261110D01*
D121*
X1662450Y1427000D02*
G03*
X1659450Y1424000I0J-3000D01*
G01*
X1665450D02*
G03*
X1662450Y1427000I-3000J0D01*
G01*
Y1406000D02*
G03*
X1665450Y1409000I0J3000D01*
G01*
X1659450D02*
G03*
X1662450Y1406000I3000J0D01*
G01*
X1576050Y1427000D02*
G03*
X1573050Y1424000I0J-3000D01*
G01*
X1579050D02*
G03*
X1576050Y1427000I-3000J0D01*
G01*
Y1406000D02*
G03*
X1579050Y1409000I0J3000D01*
G01*
X1573050D02*
G03*
X1576050Y1406000I3000J0D01*
G01*
X1662450Y1370900D02*
G03*
X1659450Y1367900I0J-3000D01*
G01*
X1665450D02*
G03*
X1662450Y1370900I-3000J0D01*
G01*
Y1354900D02*
G03*
X1665450Y1357900I0J3000D01*
G01*
X1659450D02*
G03*
X1662450Y1354900I3000J0D01*
G01*
X1576050Y1370900D02*
G03*
X1573050Y1367900I0J-3000D01*
G01*
X1579050D02*
G03*
X1576050Y1370900I-3000J0D01*
G01*
Y1354900D02*
G03*
X1579050Y1357900I0J3000D01*
G01*
X1573050D02*
G03*
X1576050Y1354900I3000J0D01*
G01*
X1659450Y1409000D02*
Y1424000D01*
X1665450Y1409000D02*
Y1424000D01*
X1573050Y1409000D02*
Y1424000D01*
X1579050Y1409000D02*
Y1424000D01*
X1659450Y1357900D02*
Y1367900D01*
X1665450Y1357900D02*
Y1367900D01*
X1573050Y1357900D02*
Y1367900D01*
X1579050Y1357900D02*
Y1367900D01*
D122*
X1235158Y1340700D02*
Y1366100D01*
X1214838Y1340700D02*
X1235158D01*
X1214838D02*
Y1366100D01*
X1235158D01*
Y1340700D02*
Y1366100D01*
X1214838Y1340700D02*
X1235158D01*
X1214838D02*
Y1366100D01*
X1235158D01*
X1568250Y1349900D02*
Y1438400D01*
X1670250D01*
Y1349900D02*
Y1438400D01*
X1568250Y1349900D02*
X1670250D01*
M02*
