G04*
G04 #@! TF.GenerationSoftware,Altium Limited,Altium Designer,18.1.9 (240)*
G04*
G04 Layer_Color=255*
%FSLAX44Y44*%
%MOMM*%
G71*
G01*
G75*
%ADD13C,2.4000*%
%ADD14C,4.0640*%
%ADD15C,1.7018*%
%ADD17C,3.9878*%
%ADD18C,3.0480*%
%ADD33C,2.2860*%
%ADD34R,1.2080X1.2080*%
%ADD35C,1.2080*%
%ADD36C,0.6000*%
D13*
X130000Y50000D02*
D03*
X3100000D02*
D03*
Y1400000D02*
D03*
X130000D02*
D03*
D14*
X381000Y1143000D02*
D03*
X2571750Y762000D02*
D03*
X690565Y190500D02*
D03*
X452435D02*
D03*
X214312D02*
D03*
X309562Y381000D02*
D03*
X261938Y571500D02*
D03*
X238125Y762000D02*
D03*
X2762250Y952500D02*
D03*
X2809875Y762000D02*
D03*
X2738443Y571500D02*
D03*
X2595557Y381000D02*
D03*
X1404935Y190500D02*
D03*
X190500Y1143000D02*
D03*
X571500D02*
D03*
X762000D02*
D03*
X952500D02*
D03*
X1143000D02*
D03*
X1333500D02*
D03*
X1524000D02*
D03*
X1714500D02*
D03*
X1905000D02*
D03*
X2095500D02*
D03*
X2286000D02*
D03*
X2476500D02*
D03*
X2667000D02*
D03*
X2857500D02*
D03*
X3048000D02*
D03*
X381000Y952500D02*
D03*
X190500D02*
D03*
X571500D02*
D03*
X762000D02*
D03*
X952500D02*
D03*
X1143000D02*
D03*
X1333500D02*
D03*
X1524000D02*
D03*
X1714500D02*
D03*
X1905000D02*
D03*
X2095500D02*
D03*
X2286000D02*
D03*
X2476500D02*
D03*
X3048000D02*
D03*
X476250Y762000D02*
D03*
X666750D02*
D03*
X857250D02*
D03*
X1047750D02*
D03*
X1238250D02*
D03*
X1428750D02*
D03*
X1619250D02*
D03*
X1809750D02*
D03*
X2000250D02*
D03*
X2190750D02*
D03*
X2381250D02*
D03*
X3048000D02*
D03*
X523880Y571500D02*
D03*
X714380D02*
D03*
X904880D02*
D03*
X1095380D02*
D03*
X1285880D02*
D03*
X1476380D02*
D03*
X1666880D02*
D03*
X1857380D02*
D03*
X2047880D02*
D03*
X2238380D02*
D03*
X2428880D02*
D03*
X3048000D02*
D03*
X619123Y381000D02*
D03*
X809620D02*
D03*
X1000120D02*
D03*
X1190620D02*
D03*
X1381120D02*
D03*
X1571620D02*
D03*
X1762120D02*
D03*
X1952620D02*
D03*
X2143120D02*
D03*
X2333620D02*
D03*
X2857500D02*
D03*
X3048000D02*
D03*
X2095502Y190500D02*
D03*
X2286000D02*
D03*
X2476500D02*
D03*
X2667000D02*
D03*
X2857500D02*
D03*
X3048000D02*
D03*
D15*
X431800Y1143000D02*
D03*
X330200D02*
D03*
X2622550Y762000D02*
D03*
X2520950D02*
D03*
X639765Y190500D02*
D03*
X741365D02*
D03*
X401635D02*
D03*
X503235D02*
D03*
X163512D02*
D03*
X265112D02*
D03*
X360363Y381000D02*
D03*
X258762D02*
D03*
X312738Y571500D02*
D03*
X211138D02*
D03*
X288925Y762000D02*
D03*
X187325D02*
D03*
X2711450Y952500D02*
D03*
X2813050D02*
D03*
X2860675Y762000D02*
D03*
X2759075D02*
D03*
X2789243Y571500D02*
D03*
X2687643D02*
D03*
X2646357Y381000D02*
D03*
X2544757D02*
D03*
X1455735Y190500D02*
D03*
X1354135D02*
D03*
X139700Y1143000D02*
D03*
X241300D02*
D03*
X520700D02*
D03*
X622300D02*
D03*
X711200D02*
D03*
X812800D02*
D03*
X901700D02*
D03*
X1003300D02*
D03*
X1092200D02*
D03*
X1193800D02*
D03*
X1282700D02*
D03*
X1384300D02*
D03*
X1473200D02*
D03*
X1574800D02*
D03*
X1663700D02*
D03*
X1765300D02*
D03*
X1854200D02*
D03*
X1955800D02*
D03*
X2044700D02*
D03*
X2146300D02*
D03*
X2235200D02*
D03*
X2336800D02*
D03*
X2425700D02*
D03*
X2527300D02*
D03*
X2616200D02*
D03*
X2717800D02*
D03*
X2806700D02*
D03*
X2908300D02*
D03*
X2997200D02*
D03*
X3098800D02*
D03*
X330200Y952500D02*
D03*
X431800D02*
D03*
X139700D02*
D03*
X241300D02*
D03*
X520700D02*
D03*
X622300D02*
D03*
X711200D02*
D03*
X812800D02*
D03*
X901700D02*
D03*
X1003300D02*
D03*
X1092200D02*
D03*
X1193800D02*
D03*
X1282700D02*
D03*
X1384300D02*
D03*
X1473200D02*
D03*
X1574800D02*
D03*
X1663700D02*
D03*
X1765300D02*
D03*
X1854200D02*
D03*
X1955800D02*
D03*
X2044700D02*
D03*
X2146300D02*
D03*
X2235200D02*
D03*
X2336800D02*
D03*
X2425700D02*
D03*
X2527300D02*
D03*
X2997200D02*
D03*
X3098800D02*
D03*
X425450Y762000D02*
D03*
X527050D02*
D03*
X615950D02*
D03*
X717550D02*
D03*
X806450D02*
D03*
X908050D02*
D03*
X996950D02*
D03*
X1098550D02*
D03*
X1187450D02*
D03*
X1289050D02*
D03*
X1377950D02*
D03*
X1479550D02*
D03*
X1568450D02*
D03*
X1670050D02*
D03*
X1758950D02*
D03*
X1860550D02*
D03*
X1949450D02*
D03*
X2051050D02*
D03*
X2139950D02*
D03*
X2241550D02*
D03*
X2330450D02*
D03*
X2432050D02*
D03*
X2997200D02*
D03*
X3098800D02*
D03*
X473080Y571500D02*
D03*
X574680D02*
D03*
X663580D02*
D03*
X765180D02*
D03*
X854080D02*
D03*
X955680D02*
D03*
X1044580D02*
D03*
X1146180D02*
D03*
X1235080D02*
D03*
X1336680D02*
D03*
X1425580D02*
D03*
X1527180D02*
D03*
X1616080D02*
D03*
X1717680D02*
D03*
X1806580D02*
D03*
X1908180D02*
D03*
X1997080D02*
D03*
X2098680D02*
D03*
X2187580D02*
D03*
X2289180D02*
D03*
X2378080D02*
D03*
X2479680D02*
D03*
X2997200D02*
D03*
X3098800D02*
D03*
X568322Y381000D02*
D03*
X669922D02*
D03*
X758820D02*
D03*
X860420D02*
D03*
X949320D02*
D03*
X1050920D02*
D03*
X1139820D02*
D03*
X1241420D02*
D03*
X1330320D02*
D03*
X1431920D02*
D03*
X1520820D02*
D03*
X1622420D02*
D03*
X1711320D02*
D03*
X1812920D02*
D03*
X1901820D02*
D03*
X2003420D02*
D03*
X2092320D02*
D03*
X2193920D02*
D03*
X2282820D02*
D03*
X2384420D02*
D03*
X2806700D02*
D03*
X2908300D02*
D03*
X2997200D02*
D03*
X3098800D02*
D03*
X2044702Y190500D02*
D03*
X2146302D02*
D03*
X2235200D02*
D03*
X2336800D02*
D03*
X2425700D02*
D03*
X2527300D02*
D03*
X2616200D02*
D03*
X2717800D02*
D03*
X2806700D02*
D03*
X2908300D02*
D03*
X2997200D02*
D03*
X3098800D02*
D03*
D17*
X190182Y463550D02*
D03*
X428942D02*
D03*
X2881630Y1035050D02*
D03*
X2642870D02*
D03*
X2619062Y654050D02*
D03*
X2857823D02*
D03*
X904935Y273050D02*
D03*
X1904935D02*
D03*
D18*
X190182Y311150D02*
D03*
X428942D02*
D03*
X2881630Y882650D02*
D03*
X2642870D02*
D03*
X2619062Y501650D02*
D03*
X2857823D02*
D03*
X904935Y120650D02*
D03*
X1904935D02*
D03*
D33*
X406400Y1193800D02*
D03*
X342900Y1168400D02*
D03*
X2597150Y812800D02*
D03*
X2533650Y787400D02*
D03*
X652465Y215900D02*
D03*
X715965Y241300D02*
D03*
X414335Y215900D02*
D03*
X477835Y241300D02*
D03*
X176213Y215900D02*
D03*
X239713Y241300D02*
D03*
X334963Y431800D02*
D03*
X271462Y406400D02*
D03*
X287337Y622300D02*
D03*
X223838Y596900D02*
D03*
X263525Y812800D02*
D03*
X200025Y787400D02*
D03*
X2724150Y977900D02*
D03*
X2787650Y1003300D02*
D03*
X2835275Y812800D02*
D03*
X2771775Y787400D02*
D03*
X2763842Y622300D02*
D03*
X2700343Y596900D02*
D03*
X2620957Y431800D02*
D03*
X2557457Y406400D02*
D03*
X1430335Y241300D02*
D03*
X1366835Y215900D02*
D03*
X152400Y1168400D02*
D03*
X215900Y1193800D02*
D03*
X533400Y1168400D02*
D03*
X596900Y1193800D02*
D03*
X723900Y1168400D02*
D03*
X787400Y1193800D02*
D03*
X914400Y1168400D02*
D03*
X977900Y1193800D02*
D03*
X1104900Y1168400D02*
D03*
X1168400Y1193800D02*
D03*
X1295400Y1168400D02*
D03*
X1358900Y1193800D02*
D03*
X1485900Y1168400D02*
D03*
X1549400Y1193800D02*
D03*
X1676400Y1168400D02*
D03*
X1739900Y1193800D02*
D03*
X1866900Y1168400D02*
D03*
X1930400Y1193800D02*
D03*
X2057400Y1168400D02*
D03*
X2120900Y1193800D02*
D03*
X2247900Y1168400D02*
D03*
X2311400Y1193800D02*
D03*
X2438400Y1168400D02*
D03*
X2501900Y1193800D02*
D03*
X2628900Y1168400D02*
D03*
X2692400Y1193800D02*
D03*
X2819400Y1168400D02*
D03*
X2882900Y1193800D02*
D03*
X3009900Y1168400D02*
D03*
X3073400Y1193800D02*
D03*
X342900Y977900D02*
D03*
X406400Y1003300D02*
D03*
X152400Y977900D02*
D03*
X215900Y1003300D02*
D03*
X533400Y977900D02*
D03*
X596900Y1003300D02*
D03*
X723900Y977900D02*
D03*
X787400Y1003300D02*
D03*
X914400Y977900D02*
D03*
X977900Y1003300D02*
D03*
X1104900Y977900D02*
D03*
X1168400Y1003300D02*
D03*
X1295400Y977900D02*
D03*
X1358900Y1003300D02*
D03*
X1485900Y977900D02*
D03*
X1549400Y1003300D02*
D03*
X1676400Y977900D02*
D03*
X1739900Y1003300D02*
D03*
X1866900Y977900D02*
D03*
X1930400Y1003300D02*
D03*
X2057400Y977900D02*
D03*
X2120900Y1003300D02*
D03*
X2247900Y977900D02*
D03*
X2311400Y1003300D02*
D03*
X2438400Y977900D02*
D03*
X2501900Y1003300D02*
D03*
X3009900Y977900D02*
D03*
X3073400Y1003300D02*
D03*
X438150Y787400D02*
D03*
X501650Y812800D02*
D03*
X628650Y787400D02*
D03*
X692150Y812800D02*
D03*
X819150Y787400D02*
D03*
X882650Y812800D02*
D03*
X1009650Y787400D02*
D03*
X1073150Y812800D02*
D03*
X1200150Y787400D02*
D03*
X1263650Y812800D02*
D03*
X1390650Y787400D02*
D03*
X1454150Y812800D02*
D03*
X1581150Y787400D02*
D03*
X1644650Y812800D02*
D03*
X1771650Y787400D02*
D03*
X1835150Y812800D02*
D03*
X1962150Y787400D02*
D03*
X2025650Y812800D02*
D03*
X2152650Y787400D02*
D03*
X2216150Y812800D02*
D03*
X2343150Y787400D02*
D03*
X2406650Y812800D02*
D03*
X3009900Y787400D02*
D03*
X3073400Y812800D02*
D03*
X485780Y596900D02*
D03*
X549280Y622300D02*
D03*
X676280Y596900D02*
D03*
X739780Y622300D02*
D03*
X866780Y596900D02*
D03*
X930280Y622300D02*
D03*
X1057280Y596900D02*
D03*
X1120780Y622300D02*
D03*
X1247780Y596900D02*
D03*
X1311280Y622300D02*
D03*
X1438280Y596900D02*
D03*
X1501780Y622300D02*
D03*
X1628780Y596900D02*
D03*
X1692280Y622300D02*
D03*
X1819280Y596900D02*
D03*
X1882780Y622300D02*
D03*
X2009780Y596900D02*
D03*
X2073280Y622300D02*
D03*
X2200280Y596900D02*
D03*
X2263780Y622300D02*
D03*
X2390780Y596900D02*
D03*
X2454280Y622300D02*
D03*
X3009900Y596900D02*
D03*
X3073400Y622300D02*
D03*
X581022Y406400D02*
D03*
X644522Y431800D02*
D03*
X771520Y406400D02*
D03*
X835020Y431800D02*
D03*
X962020Y406400D02*
D03*
X1025520Y431800D02*
D03*
X1152520Y406400D02*
D03*
X1216020Y431800D02*
D03*
X1343020Y406400D02*
D03*
X1406520Y431800D02*
D03*
X1533520Y406400D02*
D03*
X1597020Y431800D02*
D03*
X1724020Y406400D02*
D03*
X1787520Y431800D02*
D03*
X1914520Y406400D02*
D03*
X1978020Y431800D02*
D03*
X2105020Y406400D02*
D03*
X2168520Y431800D02*
D03*
X2295520Y406400D02*
D03*
X2359020Y431800D02*
D03*
X2819400Y406400D02*
D03*
X2882900Y431800D02*
D03*
X3009900Y406400D02*
D03*
X3073400Y431800D02*
D03*
X2057402Y215900D02*
D03*
X2120903Y241300D02*
D03*
X2247900Y215900D02*
D03*
X2311400Y241300D02*
D03*
X2438400Y215900D02*
D03*
X2501900Y241300D02*
D03*
X2628900Y215900D02*
D03*
X2692400Y241300D02*
D03*
X2819400Y215900D02*
D03*
X2882900Y241300D02*
D03*
X3009900Y215900D02*
D03*
X3073400Y241300D02*
D03*
D34*
X1840000Y1416500D02*
D03*
D35*
X1860000D02*
D03*
D36*
X1662450D02*
D03*
X1576050D02*
D03*
X1662450Y1362900D02*
D03*
X1576050D02*
D03*
M02*
