G04*
G04 #@! TF.GenerationSoftware,Altium Limited,Altium Designer,18.1.9 (240)*
G04*
G04 Layer_Color=128*
%FSLAX44Y44*%
%MOMM*%
G71*
G01*
G75*
%ADD126C,0.0508*%
D126*
X118000Y50000D02*
X142000D01*
X130000Y38000D02*
Y62000D01*
X3088000Y50000D02*
X3112000D01*
X3100000Y38000D02*
Y62000D01*
X3088000Y1400000D02*
X3112000D01*
X3100000Y1388000D02*
Y1412000D01*
X118000Y1400000D02*
X142000D01*
X130000Y1388000D02*
Y1412000D01*
X360680Y1143000D02*
X401320D01*
X381000Y1122680D02*
Y1163320D01*
X423291Y1143000D02*
X440309D01*
X431800Y1134491D02*
Y1151509D01*
X321691Y1143000D02*
X338709D01*
X330200Y1134491D02*
Y1151509D01*
X398780Y1193800D02*
X414020D01*
X406400Y1186180D02*
Y1201420D01*
X335280Y1168400D02*
X350520D01*
X342900Y1160780D02*
Y1176020D01*
X2551430Y762000D02*
X2592070D01*
X2571750Y741680D02*
Y782320D01*
X2614041Y762000D02*
X2631059D01*
X2622550Y753491D02*
Y770509D01*
X2512441Y762000D02*
X2529459D01*
X2520950Y753491D02*
Y770509D01*
X2589530Y812800D02*
X2604770D01*
X2597150Y805180D02*
Y820420D01*
X2526030Y787400D02*
X2541270D01*
X2533650Y779780D02*
Y795020D01*
X644845Y215900D02*
X660085D01*
X652465Y208280D02*
Y223520D01*
X708345Y241300D02*
X723585D01*
X715965Y233680D02*
Y248920D01*
X631256Y190500D02*
X648274D01*
X639765Y181991D02*
Y199009D01*
X732856Y190500D02*
X749874D01*
X741365Y181991D02*
Y199009D01*
X670245Y190500D02*
X710885D01*
X690565Y170180D02*
Y210820D01*
X406715Y215900D02*
X421955D01*
X414335Y208280D02*
Y223520D01*
X470215Y241300D02*
X485455D01*
X477835Y233680D02*
Y248920D01*
X393126Y190500D02*
X410144D01*
X401635Y181991D02*
Y199009D01*
X494726Y190500D02*
X511744D01*
X503235Y181991D02*
Y199009D01*
X432115Y190500D02*
X472755D01*
X452435Y170180D02*
Y210820D01*
X168592Y215900D02*
X183832D01*
X176213Y208280D02*
Y223520D01*
X232092Y241300D02*
X247332D01*
X239713Y233680D02*
Y248920D01*
X155003Y190500D02*
X172022D01*
X163512Y181991D02*
Y199009D01*
X256604Y190500D02*
X273622D01*
X265112Y181991D02*
Y199009D01*
X193993Y190500D02*
X234632D01*
X214312Y170180D02*
Y210820D01*
X170243Y463550D02*
X210121D01*
X190182Y443611D02*
Y483489D01*
X289242Y381000D02*
X329883D01*
X309562Y360680D02*
Y401320D01*
X351853Y381000D02*
X368871D01*
X360363Y372491D02*
Y389509D01*
X250254Y381000D02*
X267271D01*
X258762Y372491D02*
Y389509D01*
X327342Y431800D02*
X342583D01*
X334963Y424180D02*
Y439420D01*
X263843Y406400D02*
X279083D01*
X271462Y398780D02*
Y414020D01*
X174942Y311150D02*
X205422D01*
X190182Y295910D02*
Y326390D01*
X409003Y463550D02*
X448881D01*
X428942Y443611D02*
Y483489D01*
X413703Y311150D02*
X444183D01*
X428942Y295910D02*
Y326390D01*
X241618Y571500D02*
X282257D01*
X261938Y551180D02*
Y591820D01*
X304228Y571500D02*
X321246D01*
X312738Y562991D02*
Y580009D01*
X202628Y571500D02*
X219646D01*
X211138Y562991D02*
Y580009D01*
X279718Y622300D02*
X294958D01*
X287337Y614680D02*
Y629920D01*
X216217Y596900D02*
X231458D01*
X223838Y589280D02*
Y604520D01*
X217805Y762000D02*
X258445D01*
X238125Y741680D02*
Y782320D01*
X280416Y762000D02*
X297434D01*
X288925Y753491D02*
Y770509D01*
X178816Y762000D02*
X195834D01*
X187325Y753491D02*
Y770509D01*
X255905Y812800D02*
X271145D01*
X263525Y805180D02*
Y820420D01*
X192405Y787400D02*
X207645D01*
X200025Y779780D02*
Y795020D01*
X2866390Y882650D02*
X2896870D01*
X2881630Y867410D02*
Y897890D01*
X2861691Y1035050D02*
X2901569D01*
X2881630Y1015111D02*
Y1054989D01*
X2627630Y882650D02*
X2658110D01*
X2642870Y867410D02*
Y897890D01*
X2622931Y1035050D02*
X2662809D01*
X2642870Y1015111D02*
Y1054989D01*
X2716530Y977900D02*
X2731770D01*
X2724150Y970280D02*
Y985520D01*
X2780030Y1003300D02*
X2795270D01*
X2787650Y995680D02*
Y1010920D01*
X2702941Y952500D02*
X2719959D01*
X2711450Y943991D02*
Y961009D01*
X2804541Y952500D02*
X2821559D01*
X2813050Y943991D02*
Y961009D01*
X2741930Y952500D02*
X2782570D01*
X2762250Y932180D02*
Y972820D01*
X2789555Y762000D02*
X2830195D01*
X2809875Y741680D02*
Y782320D01*
X2852166Y762000D02*
X2869184D01*
X2860675Y753491D02*
Y770509D01*
X2750566Y762000D02*
X2767584D01*
X2759075Y753491D02*
Y770509D01*
X2827655Y812800D02*
X2842895D01*
X2835275Y805180D02*
Y820420D01*
X2764155Y787400D02*
X2779395D01*
X2771775Y779780D02*
Y795020D01*
X2599124Y654050D02*
X2639001D01*
X2619062Y634111D02*
Y673989D01*
X2718123Y571500D02*
X2758763D01*
X2738443Y551180D02*
Y591820D01*
X2780734Y571500D02*
X2797751D01*
X2789243Y562991D02*
Y580009D01*
X2679134Y571500D02*
X2696152D01*
X2687643Y562991D02*
Y580009D01*
X2756223Y622300D02*
X2771463D01*
X2763842Y614680D02*
Y629920D01*
X2692722Y596900D02*
X2707963D01*
X2700343Y589280D02*
Y604520D01*
X2603823Y501650D02*
X2634303D01*
X2619062Y486410D02*
Y516890D01*
X2837884Y654050D02*
X2877762D01*
X2857823Y634111D02*
Y673989D01*
X2842583Y501650D02*
X2873063D01*
X2857823Y486410D02*
Y516890D01*
X2575237Y381000D02*
X2615877D01*
X2595557Y360680D02*
Y401320D01*
X2637849Y381000D02*
X2654866D01*
X2646357Y372491D02*
Y389509D01*
X2536248Y381000D02*
X2553266D01*
X2544757Y372491D02*
Y389509D01*
X2613337Y431800D02*
X2628577D01*
X2620957Y424180D02*
Y439420D01*
X2549837Y406400D02*
X2565078D01*
X2557457Y398780D02*
Y414020D01*
X1384615Y190500D02*
X1425255D01*
X1404935Y170180D02*
Y210820D01*
X1447226Y190500D02*
X1464244D01*
X1455735Y181991D02*
Y199009D01*
X1345626Y190500D02*
X1362644D01*
X1354135Y181991D02*
Y199009D01*
X1422715Y241300D02*
X1437955D01*
X1430335Y233680D02*
Y248920D01*
X1359215Y215900D02*
X1374455D01*
X1366835Y208280D02*
Y223520D01*
X884996Y273050D02*
X924874D01*
X904935Y253111D02*
Y292989D01*
X889695Y120650D02*
X920175D01*
X904935Y105410D02*
Y135890D01*
X1884996Y273050D02*
X1924874D01*
X1904935Y253111D02*
Y292989D01*
X1889695Y120650D02*
X1920175D01*
X1904935Y105410D02*
Y135890D01*
X144780Y1168400D02*
X160020D01*
X152400Y1160780D02*
Y1176020D01*
X208280Y1193800D02*
X223520D01*
X215900Y1186180D02*
Y1201420D01*
X131191Y1143000D02*
X148209D01*
X139700Y1134491D02*
Y1151509D01*
X232791Y1143000D02*
X249809D01*
X241300Y1134491D02*
Y1151509D01*
X170180Y1143000D02*
X210820D01*
X190500Y1122680D02*
Y1163320D01*
X525780Y1168400D02*
X541020D01*
X533400Y1160780D02*
Y1176020D01*
X589280Y1193800D02*
X604520D01*
X596900Y1186180D02*
Y1201420D01*
X512191Y1143000D02*
X529209D01*
X520700Y1134491D02*
Y1151509D01*
X613791Y1143000D02*
X630809D01*
X622300Y1134491D02*
Y1151509D01*
X551180Y1143000D02*
X591820D01*
X571500Y1122680D02*
Y1163320D01*
X716280Y1168400D02*
X731520D01*
X723900Y1160780D02*
Y1176020D01*
X779780Y1193800D02*
X795020D01*
X787400Y1186180D02*
Y1201420D01*
X702691Y1143000D02*
X719709D01*
X711200Y1134491D02*
Y1151509D01*
X804291Y1143000D02*
X821309D01*
X812800Y1134491D02*
Y1151509D01*
X741680Y1143000D02*
X782320D01*
X762000Y1122680D02*
Y1163320D01*
X906780Y1168400D02*
X922020D01*
X914400Y1160780D02*
Y1176020D01*
X970280Y1193800D02*
X985520D01*
X977900Y1186180D02*
Y1201420D01*
X893191Y1143000D02*
X910209D01*
X901700Y1134491D02*
Y1151509D01*
X994791Y1143000D02*
X1011809D01*
X1003300Y1134491D02*
Y1151509D01*
X932180Y1143000D02*
X972820D01*
X952500Y1122680D02*
Y1163320D01*
X1097280Y1168400D02*
X1112520D01*
X1104900Y1160780D02*
Y1176020D01*
X1160780Y1193800D02*
X1176020D01*
X1168400Y1186180D02*
Y1201420D01*
X1083691Y1143000D02*
X1100709D01*
X1092200Y1134491D02*
Y1151509D01*
X1185291Y1143000D02*
X1202309D01*
X1193800Y1134491D02*
Y1151509D01*
X1122680Y1143000D02*
X1163320D01*
X1143000Y1122680D02*
Y1163320D01*
X1287780Y1168400D02*
X1303020D01*
X1295400Y1160780D02*
Y1176020D01*
X1351280Y1193800D02*
X1366520D01*
X1358900Y1186180D02*
Y1201420D01*
X1274191Y1143000D02*
X1291209D01*
X1282700Y1134491D02*
Y1151509D01*
X1375791Y1143000D02*
X1392809D01*
X1384300Y1134491D02*
Y1151509D01*
X1313180Y1143000D02*
X1353820D01*
X1333500Y1122680D02*
Y1163320D01*
X1478280Y1168400D02*
X1493520D01*
X1485900Y1160780D02*
Y1176020D01*
X1541780Y1193800D02*
X1557020D01*
X1549400Y1186180D02*
Y1201420D01*
X1464691Y1143000D02*
X1481709D01*
X1473200Y1134491D02*
Y1151509D01*
X1566291Y1143000D02*
X1583309D01*
X1574800Y1134491D02*
Y1151509D01*
X1503680Y1143000D02*
X1544320D01*
X1524000Y1122680D02*
Y1163320D01*
X1668780Y1168400D02*
X1684020D01*
X1676400Y1160780D02*
Y1176020D01*
X1732280Y1193800D02*
X1747520D01*
X1739900Y1186180D02*
Y1201420D01*
X1655191Y1143000D02*
X1672209D01*
X1663700Y1134491D02*
Y1151509D01*
X1756791Y1143000D02*
X1773809D01*
X1765300Y1134491D02*
Y1151509D01*
X1694180Y1143000D02*
X1734820D01*
X1714500Y1122680D02*
Y1163320D01*
X1859280Y1168400D02*
X1874520D01*
X1866900Y1160780D02*
Y1176020D01*
X1922780Y1193800D02*
X1938020D01*
X1930400Y1186180D02*
Y1201420D01*
X1845691Y1143000D02*
X1862709D01*
X1854200Y1134491D02*
Y1151509D01*
X1947291Y1143000D02*
X1964309D01*
X1955800Y1134491D02*
Y1151509D01*
X1884680Y1143000D02*
X1925320D01*
X1905000Y1122680D02*
Y1163320D01*
X2049780Y1168400D02*
X2065020D01*
X2057400Y1160780D02*
Y1176020D01*
X2113280Y1193800D02*
X2128520D01*
X2120900Y1186180D02*
Y1201420D01*
X2036191Y1143000D02*
X2053209D01*
X2044700Y1134491D02*
Y1151509D01*
X2137791Y1143000D02*
X2154809D01*
X2146300Y1134491D02*
Y1151509D01*
X2075180Y1143000D02*
X2115820D01*
X2095500Y1122680D02*
Y1163320D01*
X2240280Y1168400D02*
X2255520D01*
X2247900Y1160780D02*
Y1176020D01*
X2303780Y1193800D02*
X2319020D01*
X2311400Y1186180D02*
Y1201420D01*
X2226691Y1143000D02*
X2243709D01*
X2235200Y1134491D02*
Y1151509D01*
X2328291Y1143000D02*
X2345309D01*
X2336800Y1134491D02*
Y1151509D01*
X2265680Y1143000D02*
X2306320D01*
X2286000Y1122680D02*
Y1163320D01*
X2430780Y1168400D02*
X2446020D01*
X2438400Y1160780D02*
Y1176020D01*
X2494280Y1193800D02*
X2509520D01*
X2501900Y1186180D02*
Y1201420D01*
X2417191Y1143000D02*
X2434209D01*
X2425700Y1134491D02*
Y1151509D01*
X2518791Y1143000D02*
X2535809D01*
X2527300Y1134491D02*
Y1151509D01*
X2456180Y1143000D02*
X2496820D01*
X2476500Y1122680D02*
Y1163320D01*
X2621280Y1168400D02*
X2636520D01*
X2628900Y1160780D02*
Y1176020D01*
X2684780Y1193800D02*
X2700020D01*
X2692400Y1186180D02*
Y1201420D01*
X2607691Y1143000D02*
X2624709D01*
X2616200Y1134491D02*
Y1151509D01*
X2709291Y1143000D02*
X2726309D01*
X2717800Y1134491D02*
Y1151509D01*
X2646680Y1143000D02*
X2687320D01*
X2667000Y1122680D02*
Y1163320D01*
X2811780Y1168400D02*
X2827020D01*
X2819400Y1160780D02*
Y1176020D01*
X2875280Y1193800D02*
X2890520D01*
X2882900Y1186180D02*
Y1201420D01*
X2798191Y1143000D02*
X2815209D01*
X2806700Y1134491D02*
Y1151509D01*
X2899791Y1143000D02*
X2916809D01*
X2908300Y1134491D02*
Y1151509D01*
X2837180Y1143000D02*
X2877820D01*
X2857500Y1122680D02*
Y1163320D01*
X3002280Y1168400D02*
X3017520D01*
X3009900Y1160780D02*
Y1176020D01*
X3065780Y1193800D02*
X3081020D01*
X3073400Y1186180D02*
Y1201420D01*
X2988691Y1143000D02*
X3005709D01*
X2997200Y1134491D02*
Y1151509D01*
X3090291Y1143000D02*
X3107309D01*
X3098800Y1134491D02*
Y1151509D01*
X3027680Y1143000D02*
X3068320D01*
X3048000Y1122680D02*
Y1163320D01*
X335280Y977900D02*
X350520D01*
X342900Y970280D02*
Y985520D01*
X398780Y1003300D02*
X414020D01*
X406400Y995680D02*
Y1010920D01*
X321691Y952500D02*
X338709D01*
X330200Y943991D02*
Y961009D01*
X423291Y952500D02*
X440309D01*
X431800Y943991D02*
Y961009D01*
X360680Y952500D02*
X401320D01*
X381000Y932180D02*
Y972820D01*
X144780Y977900D02*
X160020D01*
X152400Y970280D02*
Y985520D01*
X208280Y1003300D02*
X223520D01*
X215900Y995680D02*
Y1010920D01*
X131191Y952500D02*
X148209D01*
X139700Y943991D02*
Y961009D01*
X232791Y952500D02*
X249809D01*
X241300Y943991D02*
Y961009D01*
X170180Y952500D02*
X210820D01*
X190500Y932180D02*
Y972820D01*
X525780Y977900D02*
X541020D01*
X533400Y970280D02*
Y985520D01*
X589280Y1003300D02*
X604520D01*
X596900Y995680D02*
Y1010920D01*
X512191Y952500D02*
X529209D01*
X520700Y943991D02*
Y961009D01*
X613791Y952500D02*
X630809D01*
X622300Y943991D02*
Y961009D01*
X551180Y952500D02*
X591820D01*
X571500Y932180D02*
Y972820D01*
X716280Y977900D02*
X731520D01*
X723900Y970280D02*
Y985520D01*
X779780Y1003300D02*
X795020D01*
X787400Y995680D02*
Y1010920D01*
X702691Y952500D02*
X719709D01*
X711200Y943991D02*
Y961009D01*
X804291Y952500D02*
X821309D01*
X812800Y943991D02*
Y961009D01*
X741680Y952500D02*
X782320D01*
X762000Y932180D02*
Y972820D01*
X906780Y977900D02*
X922020D01*
X914400Y970280D02*
Y985520D01*
X970280Y1003300D02*
X985520D01*
X977900Y995680D02*
Y1010920D01*
X893191Y952500D02*
X910209D01*
X901700Y943991D02*
Y961009D01*
X994791Y952500D02*
X1011809D01*
X1003300Y943991D02*
Y961009D01*
X932180Y952500D02*
X972820D01*
X952500Y932180D02*
Y972820D01*
X1097280Y977900D02*
X1112520D01*
X1104900Y970280D02*
Y985520D01*
X1160780Y1003300D02*
X1176020D01*
X1168400Y995680D02*
Y1010920D01*
X1083691Y952500D02*
X1100709D01*
X1092200Y943991D02*
Y961009D01*
X1185291Y952500D02*
X1202309D01*
X1193800Y943991D02*
Y961009D01*
X1122680Y952500D02*
X1163320D01*
X1143000Y932180D02*
Y972820D01*
X1287780Y977900D02*
X1303020D01*
X1295400Y970280D02*
Y985520D01*
X1351280Y1003300D02*
X1366520D01*
X1358900Y995680D02*
Y1010920D01*
X1274191Y952500D02*
X1291209D01*
X1282700Y943991D02*
Y961009D01*
X1375791Y952500D02*
X1392809D01*
X1384300Y943991D02*
Y961009D01*
X1313180Y952500D02*
X1353820D01*
X1333500Y932180D02*
Y972820D01*
X1478280Y977900D02*
X1493520D01*
X1485900Y970280D02*
Y985520D01*
X1541780Y1003300D02*
X1557020D01*
X1549400Y995680D02*
Y1010920D01*
X1464691Y952500D02*
X1481709D01*
X1473200Y943991D02*
Y961009D01*
X1566291Y952500D02*
X1583309D01*
X1574800Y943991D02*
Y961009D01*
X1503680Y952500D02*
X1544320D01*
X1524000Y932180D02*
Y972820D01*
X1668780Y977900D02*
X1684020D01*
X1676400Y970280D02*
Y985520D01*
X1732280Y1003300D02*
X1747520D01*
X1739900Y995680D02*
Y1010920D01*
X1655191Y952500D02*
X1672209D01*
X1663700Y943991D02*
Y961009D01*
X1756791Y952500D02*
X1773809D01*
X1765300Y943991D02*
Y961009D01*
X1694180Y952500D02*
X1734820D01*
X1714500Y932180D02*
Y972820D01*
X1859280Y977900D02*
X1874520D01*
X1866900Y970280D02*
Y985520D01*
X1922780Y1003300D02*
X1938020D01*
X1930400Y995680D02*
Y1010920D01*
X1845691Y952500D02*
X1862709D01*
X1854200Y943991D02*
Y961009D01*
X1947291Y952500D02*
X1964309D01*
X1955800Y943991D02*
Y961009D01*
X1884680Y952500D02*
X1925320D01*
X1905000Y932180D02*
Y972820D01*
X2049780Y977900D02*
X2065020D01*
X2057400Y970280D02*
Y985520D01*
X2113280Y1003300D02*
X2128520D01*
X2120900Y995680D02*
Y1010920D01*
X2036191Y952500D02*
X2053209D01*
X2044700Y943991D02*
Y961009D01*
X2137791Y952500D02*
X2154809D01*
X2146300Y943991D02*
Y961009D01*
X2075180Y952500D02*
X2115820D01*
X2095500Y932180D02*
Y972820D01*
X2240280Y977900D02*
X2255520D01*
X2247900Y970280D02*
Y985520D01*
X2303780Y1003300D02*
X2319020D01*
X2311400Y995680D02*
Y1010920D01*
X2226691Y952500D02*
X2243709D01*
X2235200Y943991D02*
Y961009D01*
X2328291Y952500D02*
X2345309D01*
X2336800Y943991D02*
Y961009D01*
X2265680Y952500D02*
X2306320D01*
X2286000Y932180D02*
Y972820D01*
X2430780Y977900D02*
X2446020D01*
X2438400Y970280D02*
Y985520D01*
X2494280Y1003300D02*
X2509520D01*
X2501900Y995680D02*
Y1010920D01*
X2417191Y952500D02*
X2434209D01*
X2425700Y943991D02*
Y961009D01*
X2518791Y952500D02*
X2535809D01*
X2527300Y943991D02*
Y961009D01*
X2456180Y952500D02*
X2496820D01*
X2476500Y932180D02*
Y972820D01*
X3002280Y977900D02*
X3017520D01*
X3009900Y970280D02*
Y985520D01*
X3065780Y1003300D02*
X3081020D01*
X3073400Y995680D02*
Y1010920D01*
X2988691Y952500D02*
X3005709D01*
X2997200Y943991D02*
Y961009D01*
X3090291Y952500D02*
X3107309D01*
X3098800Y943991D02*
Y961009D01*
X3027680Y952500D02*
X3068320D01*
X3048000Y932180D02*
Y972820D01*
X430530Y787400D02*
X445770D01*
X438150Y779780D02*
Y795020D01*
X494030Y812800D02*
X509270D01*
X501650Y805180D02*
Y820420D01*
X416941Y762000D02*
X433959D01*
X425450Y753491D02*
Y770509D01*
X518541Y762000D02*
X535559D01*
X527050Y753491D02*
Y770509D01*
X455930Y762000D02*
X496570D01*
X476250Y741680D02*
Y782320D01*
X621030Y787400D02*
X636270D01*
X628650Y779780D02*
Y795020D01*
X684530Y812800D02*
X699770D01*
X692150Y805180D02*
Y820420D01*
X607441Y762000D02*
X624459D01*
X615950Y753491D02*
Y770509D01*
X709041Y762000D02*
X726059D01*
X717550Y753491D02*
Y770509D01*
X646430Y762000D02*
X687070D01*
X666750Y741680D02*
Y782320D01*
X811530Y787400D02*
X826770D01*
X819150Y779780D02*
Y795020D01*
X875030Y812800D02*
X890270D01*
X882650Y805180D02*
Y820420D01*
X797941Y762000D02*
X814959D01*
X806450Y753491D02*
Y770509D01*
X899541Y762000D02*
X916559D01*
X908050Y753491D02*
Y770509D01*
X836930Y762000D02*
X877570D01*
X857250Y741680D02*
Y782320D01*
X1002030Y787400D02*
X1017270D01*
X1009650Y779780D02*
Y795020D01*
X1065530Y812800D02*
X1080770D01*
X1073150Y805180D02*
Y820420D01*
X988441Y762000D02*
X1005459D01*
X996950Y753491D02*
Y770509D01*
X1090041Y762000D02*
X1107059D01*
X1098550Y753491D02*
Y770509D01*
X1027430Y762000D02*
X1068070D01*
X1047750Y741680D02*
Y782320D01*
X1192530Y787400D02*
X1207770D01*
X1200150Y779780D02*
Y795020D01*
X1256030Y812800D02*
X1271270D01*
X1263650Y805180D02*
Y820420D01*
X1178941Y762000D02*
X1195959D01*
X1187450Y753491D02*
Y770509D01*
X1280541Y762000D02*
X1297559D01*
X1289050Y753491D02*
Y770509D01*
X1217930Y762000D02*
X1258570D01*
X1238250Y741680D02*
Y782320D01*
X1383030Y787400D02*
X1398270D01*
X1390650Y779780D02*
Y795020D01*
X1446530Y812800D02*
X1461770D01*
X1454150Y805180D02*
Y820420D01*
X1369441Y762000D02*
X1386459D01*
X1377950Y753491D02*
Y770509D01*
X1471041Y762000D02*
X1488059D01*
X1479550Y753491D02*
Y770509D01*
X1408430Y762000D02*
X1449070D01*
X1428750Y741680D02*
Y782320D01*
X1573530Y787400D02*
X1588770D01*
X1581150Y779780D02*
Y795020D01*
X1637030Y812800D02*
X1652270D01*
X1644650Y805180D02*
Y820420D01*
X1559941Y762000D02*
X1576959D01*
X1568450Y753491D02*
Y770509D01*
X1661541Y762000D02*
X1678559D01*
X1670050Y753491D02*
Y770509D01*
X1598930Y762000D02*
X1639570D01*
X1619250Y741680D02*
Y782320D01*
X1764030Y787400D02*
X1779270D01*
X1771650Y779780D02*
Y795020D01*
X1827530Y812800D02*
X1842770D01*
X1835150Y805180D02*
Y820420D01*
X1750441Y762000D02*
X1767459D01*
X1758950Y753491D02*
Y770509D01*
X1852041Y762000D02*
X1869059D01*
X1860550Y753491D02*
Y770509D01*
X1789430Y762000D02*
X1830070D01*
X1809750Y741680D02*
Y782320D01*
X1954530Y787400D02*
X1969770D01*
X1962150Y779780D02*
Y795020D01*
X2018030Y812800D02*
X2033270D01*
X2025650Y805180D02*
Y820420D01*
X1940941Y762000D02*
X1957959D01*
X1949450Y753491D02*
Y770509D01*
X2042541Y762000D02*
X2059559D01*
X2051050Y753491D02*
Y770509D01*
X1979930Y762000D02*
X2020570D01*
X2000250Y741680D02*
Y782320D01*
X2145030Y787400D02*
X2160270D01*
X2152650Y779780D02*
Y795020D01*
X2208530Y812800D02*
X2223770D01*
X2216150Y805180D02*
Y820420D01*
X2131441Y762000D02*
X2148459D01*
X2139950Y753491D02*
Y770509D01*
X2233041Y762000D02*
X2250059D01*
X2241550Y753491D02*
Y770509D01*
X2170430Y762000D02*
X2211070D01*
X2190750Y741680D02*
Y782320D01*
X2335530Y787400D02*
X2350770D01*
X2343150Y779780D02*
Y795020D01*
X2399030Y812800D02*
X2414270D01*
X2406650Y805180D02*
Y820420D01*
X2321941Y762000D02*
X2338959D01*
X2330450Y753491D02*
Y770509D01*
X2423541Y762000D02*
X2440559D01*
X2432050Y753491D02*
Y770509D01*
X2360930Y762000D02*
X2401570D01*
X2381250Y741680D02*
Y782320D01*
X3002280Y787400D02*
X3017520D01*
X3009900Y779780D02*
Y795020D01*
X3065780Y812800D02*
X3081020D01*
X3073400Y805180D02*
Y820420D01*
X2988691Y762000D02*
X3005709D01*
X2997200Y753491D02*
Y770509D01*
X3090291Y762000D02*
X3107309D01*
X3098800Y753491D02*
Y770509D01*
X3027680Y762000D02*
X3068320D01*
X3048000Y741680D02*
Y782320D01*
X478160Y596900D02*
X493400D01*
X485780Y589280D02*
Y604520D01*
X541660Y622300D02*
X556900D01*
X549280Y614680D02*
Y629920D01*
X464571Y571500D02*
X481589D01*
X473080Y562991D02*
Y580009D01*
X566171Y571500D02*
X583189D01*
X574680Y562991D02*
Y580009D01*
X503560Y571500D02*
X544200D01*
X523880Y551180D02*
Y591820D01*
X668660Y596900D02*
X683900D01*
X676280Y589280D02*
Y604520D01*
X732160Y622300D02*
X747400D01*
X739780Y614680D02*
Y629920D01*
X655071Y571500D02*
X672089D01*
X663580Y562991D02*
Y580009D01*
X756671Y571500D02*
X773689D01*
X765180Y562991D02*
Y580009D01*
X694060Y571500D02*
X734700D01*
X714380Y551180D02*
Y591820D01*
X859160Y596900D02*
X874400D01*
X866780Y589280D02*
Y604520D01*
X922660Y622300D02*
X937900D01*
X930280Y614680D02*
Y629920D01*
X845571Y571500D02*
X862589D01*
X854080Y562991D02*
Y580009D01*
X947171Y571500D02*
X964189D01*
X955680Y562991D02*
Y580009D01*
X884560Y571500D02*
X925200D01*
X904880Y551180D02*
Y591820D01*
X1049660Y596900D02*
X1064900D01*
X1057280Y589280D02*
Y604520D01*
X1113160Y622300D02*
X1128400D01*
X1120780Y614680D02*
Y629920D01*
X1036071Y571500D02*
X1053089D01*
X1044580Y562991D02*
Y580009D01*
X1137671Y571500D02*
X1154689D01*
X1146180Y562991D02*
Y580009D01*
X1075060Y571500D02*
X1115700D01*
X1095380Y551180D02*
Y591820D01*
X1240160Y596900D02*
X1255400D01*
X1247780Y589280D02*
Y604520D01*
X1303660Y622300D02*
X1318900D01*
X1311280Y614680D02*
Y629920D01*
X1226571Y571500D02*
X1243589D01*
X1235080Y562991D02*
Y580009D01*
X1328171Y571500D02*
X1345189D01*
X1336680Y562991D02*
Y580009D01*
X1265560Y571500D02*
X1306200D01*
X1285880Y551180D02*
Y591820D01*
X1430660Y596900D02*
X1445900D01*
X1438280Y589280D02*
Y604520D01*
X1494160Y622300D02*
X1509400D01*
X1501780Y614680D02*
Y629920D01*
X1417071Y571500D02*
X1434089D01*
X1425580Y562991D02*
Y580009D01*
X1518671Y571500D02*
X1535689D01*
X1527180Y562991D02*
Y580009D01*
X1456060Y571500D02*
X1496700D01*
X1476380Y551180D02*
Y591820D01*
X1621160Y596900D02*
X1636400D01*
X1628780Y589280D02*
Y604520D01*
X1684660Y622300D02*
X1699900D01*
X1692280Y614680D02*
Y629920D01*
X1607571Y571500D02*
X1624589D01*
X1616080Y562991D02*
Y580009D01*
X1709171Y571500D02*
X1726189D01*
X1717680Y562991D02*
Y580009D01*
X1646560Y571500D02*
X1687200D01*
X1666880Y551180D02*
Y591820D01*
X1811660Y596900D02*
X1826900D01*
X1819280Y589280D02*
Y604520D01*
X1875160Y622300D02*
X1890400D01*
X1882780Y614680D02*
Y629920D01*
X1798071Y571500D02*
X1815089D01*
X1806580Y562991D02*
Y580009D01*
X1899671Y571500D02*
X1916689D01*
X1908180Y562991D02*
Y580009D01*
X1837060Y571500D02*
X1877700D01*
X1857380Y551180D02*
Y591820D01*
X2002160Y596900D02*
X2017400D01*
X2009780Y589280D02*
Y604520D01*
X2065660Y622300D02*
X2080900D01*
X2073280Y614680D02*
Y629920D01*
X1988571Y571500D02*
X2005589D01*
X1997080Y562991D02*
Y580009D01*
X2090171Y571500D02*
X2107189D01*
X2098680Y562991D02*
Y580009D01*
X2027560Y571500D02*
X2068200D01*
X2047880Y551180D02*
Y591820D01*
X2192660Y596900D02*
X2207900D01*
X2200280Y589280D02*
Y604520D01*
X2256160Y622300D02*
X2271400D01*
X2263780Y614680D02*
Y629920D01*
X2179071Y571500D02*
X2196089D01*
X2187580Y562991D02*
Y580009D01*
X2280671Y571500D02*
X2297689D01*
X2289180Y562991D02*
Y580009D01*
X2218060Y571500D02*
X2258700D01*
X2238380Y551180D02*
Y591820D01*
X2383160Y596900D02*
X2398400D01*
X2390780Y589280D02*
Y604520D01*
X2446660Y622300D02*
X2461900D01*
X2454280Y614680D02*
Y629920D01*
X2369571Y571500D02*
X2386589D01*
X2378080Y562991D02*
Y580009D01*
X2471171Y571500D02*
X2488189D01*
X2479680Y562991D02*
Y580009D01*
X2408560Y571500D02*
X2449200D01*
X2428880Y551180D02*
Y591820D01*
X3002280Y596900D02*
X3017520D01*
X3009900Y589280D02*
Y604520D01*
X3065780Y622300D02*
X3081020D01*
X3073400Y614680D02*
Y629920D01*
X2988691Y571500D02*
X3005709D01*
X2997200Y562991D02*
Y580009D01*
X3090291Y571500D02*
X3107309D01*
X3098800Y562991D02*
Y580009D01*
X3027680Y571500D02*
X3068320D01*
X3048000Y551180D02*
Y591820D01*
X573402Y406400D02*
X588643D01*
X581022Y398780D02*
Y414020D01*
X636903Y431800D02*
X652142D01*
X644522Y424180D02*
Y439420D01*
X559813Y381000D02*
X576832D01*
X568322Y372491D02*
Y389509D01*
X661413Y381000D02*
X678431D01*
X669922Y372491D02*
Y389509D01*
X598802Y381000D02*
X639442D01*
X619123Y360680D02*
Y401320D01*
X763900Y406400D02*
X779140D01*
X771520Y398780D02*
Y414020D01*
X827400Y431800D02*
X842640D01*
X835020Y424180D02*
Y439420D01*
X750311Y381000D02*
X767329D01*
X758820Y372491D02*
Y389509D01*
X851911Y381000D02*
X868929D01*
X860420Y372491D02*
Y389509D01*
X789300Y381000D02*
X829940D01*
X809620Y360680D02*
Y401320D01*
X954400Y406400D02*
X969640D01*
X962020Y398780D02*
Y414020D01*
X1017900Y431800D02*
X1033140D01*
X1025520Y424180D02*
Y439420D01*
X940811Y381000D02*
X957829D01*
X949320Y372491D02*
Y389509D01*
X1042411Y381000D02*
X1059429D01*
X1050920Y372491D02*
Y389509D01*
X979800Y381000D02*
X1020440D01*
X1000120Y360680D02*
Y401320D01*
X1144900Y406400D02*
X1160140D01*
X1152520Y398780D02*
Y414020D01*
X1208400Y431800D02*
X1223640D01*
X1216020Y424180D02*
Y439420D01*
X1131311Y381000D02*
X1148329D01*
X1139820Y372491D02*
Y389509D01*
X1232911Y381000D02*
X1249929D01*
X1241420Y372491D02*
Y389509D01*
X1170300Y381000D02*
X1210940D01*
X1190620Y360680D02*
Y401320D01*
X1335400Y406400D02*
X1350640D01*
X1343020Y398780D02*
Y414020D01*
X1398900Y431800D02*
X1414140D01*
X1406520Y424180D02*
Y439420D01*
X1321811Y381000D02*
X1338829D01*
X1330320Y372491D02*
Y389509D01*
X1423411Y381000D02*
X1440429D01*
X1431920Y372491D02*
Y389509D01*
X1360800Y381000D02*
X1401440D01*
X1381120Y360680D02*
Y401320D01*
X1525900Y406400D02*
X1541140D01*
X1533520Y398780D02*
Y414020D01*
X1589400Y431800D02*
X1604640D01*
X1597020Y424180D02*
Y439420D01*
X1512311Y381000D02*
X1529329D01*
X1520820Y372491D02*
Y389509D01*
X1613911Y381000D02*
X1630929D01*
X1622420Y372491D02*
Y389509D01*
X1551300Y381000D02*
X1591940D01*
X1571620Y360680D02*
Y401320D01*
X1716400Y406400D02*
X1731640D01*
X1724020Y398780D02*
Y414020D01*
X1779900Y431800D02*
X1795140D01*
X1787520Y424180D02*
Y439420D01*
X1702811Y381000D02*
X1719829D01*
X1711320Y372491D02*
Y389509D01*
X1804411Y381000D02*
X1821429D01*
X1812920Y372491D02*
Y389509D01*
X1741800Y381000D02*
X1782440D01*
X1762120Y360680D02*
Y401320D01*
X1906900Y406400D02*
X1922140D01*
X1914520Y398780D02*
Y414020D01*
X1970400Y431800D02*
X1985640D01*
X1978020Y424180D02*
Y439420D01*
X1893311Y381000D02*
X1910329D01*
X1901820Y372491D02*
Y389509D01*
X1994911Y381000D02*
X2011929D01*
X2003420Y372491D02*
Y389509D01*
X1932300Y381000D02*
X1972940D01*
X1952620Y360680D02*
Y401320D01*
X2097400Y406400D02*
X2112640D01*
X2105020Y398780D02*
Y414020D01*
X2160900Y431800D02*
X2176140D01*
X2168520Y424180D02*
Y439420D01*
X2083811Y381000D02*
X2100829D01*
X2092320Y372491D02*
Y389509D01*
X2185411Y381000D02*
X2202429D01*
X2193920Y372491D02*
Y389509D01*
X2122800Y381000D02*
X2163440D01*
X2143120Y360680D02*
Y401320D01*
X2287900Y406400D02*
X2303140D01*
X2295520Y398780D02*
Y414020D01*
X2351400Y431800D02*
X2366640D01*
X2359020Y424180D02*
Y439420D01*
X2274311Y381000D02*
X2291329D01*
X2282820Y372491D02*
Y389509D01*
X2375911Y381000D02*
X2392929D01*
X2384420Y372491D02*
Y389509D01*
X2313300Y381000D02*
X2353940D01*
X2333620Y360680D02*
Y401320D01*
X2811780Y406400D02*
X2827020D01*
X2819400Y398780D02*
Y414020D01*
X2875280Y431800D02*
X2890520D01*
X2882900Y424180D02*
Y439420D01*
X2798191Y381000D02*
X2815209D01*
X2806700Y372491D02*
Y389509D01*
X2899791Y381000D02*
X2916809D01*
X2908300Y372491D02*
Y389509D01*
X2837180Y381000D02*
X2877820D01*
X2857500Y360680D02*
Y401320D01*
X3002280Y406400D02*
X3017520D01*
X3009900Y398780D02*
Y414020D01*
X3065780Y431800D02*
X3081020D01*
X3073400Y424180D02*
Y439420D01*
X2988691Y381000D02*
X3005709D01*
X2997200Y372491D02*
Y389509D01*
X3090291Y381000D02*
X3107309D01*
X3098800Y372491D02*
Y389509D01*
X3027680Y381000D02*
X3068320D01*
X3048000Y360680D02*
Y401320D01*
X2049783Y215900D02*
X2065022D01*
X2057402Y208280D02*
Y223520D01*
X2113282Y241300D02*
X2128522D01*
X2120903Y233680D02*
Y248920D01*
X2036194Y190500D02*
X2053212D01*
X2044702Y181991D02*
Y199009D01*
X2137793Y190500D02*
X2154812D01*
X2146302Y181991D02*
Y199009D01*
X2075182Y190500D02*
X2115822D01*
X2095502Y170180D02*
Y210820D01*
X2240280Y215900D02*
X2255520D01*
X2247900Y208280D02*
Y223520D01*
X2303780Y241300D02*
X2319020D01*
X2311400Y233680D02*
Y248920D01*
X2226691Y190500D02*
X2243709D01*
X2235200Y181991D02*
Y199009D01*
X2328291Y190500D02*
X2345309D01*
X2336800Y181991D02*
Y199009D01*
X2265680Y190500D02*
X2306320D01*
X2286000Y170180D02*
Y210820D01*
X2430780Y215900D02*
X2446020D01*
X2438400Y208280D02*
Y223520D01*
X2494280Y241300D02*
X2509520D01*
X2501900Y233680D02*
Y248920D01*
X2417191Y190500D02*
X2434209D01*
X2425700Y181991D02*
Y199009D01*
X2518791Y190500D02*
X2535809D01*
X2527300Y181991D02*
Y199009D01*
X2456180Y190500D02*
X2496820D01*
X2476500Y170180D02*
Y210820D01*
X2621280Y215900D02*
X2636520D01*
X2628900Y208280D02*
Y223520D01*
X2684780Y241300D02*
X2700020D01*
X2692400Y233680D02*
Y248920D01*
X2607691Y190500D02*
X2624709D01*
X2616200Y181991D02*
Y199009D01*
X2709291Y190500D02*
X2726309D01*
X2717800Y181991D02*
Y199009D01*
X2646680Y190500D02*
X2687320D01*
X2667000Y170180D02*
Y210820D01*
X2811780Y215900D02*
X2827020D01*
X2819400Y208280D02*
Y223520D01*
X2875280Y241300D02*
X2890520D01*
X2882900Y233680D02*
Y248920D01*
X2798191Y190500D02*
X2815209D01*
X2806700Y181991D02*
Y199009D01*
X2899791Y190500D02*
X2916809D01*
X2908300Y181991D02*
Y199009D01*
X2837180Y190500D02*
X2877820D01*
X2857500Y170180D02*
Y210820D01*
X3002280Y215900D02*
X3017520D01*
X3009900Y208280D02*
Y223520D01*
X3065780Y241300D02*
X3081020D01*
X3073400Y233680D02*
Y248920D01*
X2988691Y190500D02*
X3005709D01*
X2997200Y181991D02*
Y199009D01*
X3090291Y190500D02*
X3107309D01*
X3098800Y181991D02*
Y199009D01*
X3027680Y190500D02*
X3068320D01*
X3048000Y170180D02*
Y210820D01*
X1836500Y1416500D02*
X1843500D01*
X1840000Y1413000D02*
Y1420000D01*
X1856500Y1416500D02*
X1863500D01*
X1860000Y1413000D02*
Y1420000D01*
X1659450Y1416500D02*
X1665450D01*
X1662450Y1413500D02*
Y1419500D01*
X1573050Y1416500D02*
X1579050D01*
X1576050Y1413500D02*
Y1419500D01*
X1659450Y1362900D02*
X1665450D01*
X1662450Y1359900D02*
Y1365900D01*
X1573050Y1362900D02*
X1579050D01*
X1576050Y1359900D02*
Y1365900D01*
X188937Y137500D02*
X239688D01*
X214312Y112125D02*
Y162875D01*
X427060Y137500D02*
X477810D01*
X452435Y112125D02*
Y162875D01*
X665185Y137500D02*
X715935D01*
X690560Y112125D02*
Y162875D01*
X1379560Y137500D02*
X1430310D01*
X1404935Y112125D02*
Y162875D01*
X2070128Y137500D02*
X2120878D01*
X2095502Y112125D02*
Y162875D01*
X2260625Y137500D02*
X2311375D01*
X2286000Y112125D02*
Y162875D01*
X2451125Y137500D02*
X2501875D01*
X2476500Y112125D02*
Y162875D01*
X2641625Y137500D02*
X2692375D01*
X2667000Y112125D02*
Y162875D01*
X974745Y328000D02*
X1025495D01*
X1000120Y302625D02*
Y353375D01*
X2570185Y328000D02*
X2620935D01*
X2595560Y302625D02*
Y353375D01*
X2308245Y328000D02*
X2358995D01*
X2333620Y302625D02*
Y353375D01*
X2117745Y328000D02*
X2168495D01*
X2143120Y302625D02*
Y353375D01*
X1927245Y328000D02*
X1977995D01*
X1952620Y302625D02*
Y353375D01*
X1736745Y328000D02*
X1787495D01*
X1762120Y302625D02*
Y353375D01*
X2832125Y137500D02*
X2882875D01*
X2857500Y112125D02*
Y162875D01*
X3022625Y137500D02*
X3073375D01*
X3048000Y112125D02*
Y162875D01*
X3022625Y328000D02*
X3073375D01*
X3048000Y302625D02*
Y353375D01*
X2832125Y328000D02*
X2882875D01*
X2857500Y302625D02*
Y353375D01*
X1546245Y328000D02*
X1596995D01*
X1571620Y302625D02*
Y353375D01*
X1355745Y328000D02*
X1406495D01*
X1381120Y302625D02*
Y353375D01*
X1165245Y328000D02*
X1215995D01*
X1190620Y302625D02*
Y353375D01*
X1832005Y518500D02*
X1882755D01*
X1857380Y493125D02*
Y543875D01*
X784245Y328000D02*
X834995D01*
X809620Y302625D02*
Y353375D01*
X284188Y328000D02*
X334938D01*
X309562Y302625D02*
Y353375D01*
X593747Y328000D02*
X644497D01*
X619123Y302625D02*
Y353375D01*
X1260505Y518500D02*
X1311255D01*
X1285880Y493125D02*
Y543875D01*
X1070005Y518500D02*
X1120755D01*
X1095380Y493125D02*
Y543875D01*
X879505Y518500D02*
X930255D01*
X904880Y493125D02*
Y543875D01*
X1641505Y518500D02*
X1692255D01*
X1666880Y493125D02*
Y543875D01*
X1451005Y518500D02*
X1501755D01*
X1476380Y493125D02*
Y543875D01*
X689005Y518500D02*
X739755D01*
X714380Y493125D02*
Y543875D01*
X498505Y518500D02*
X549255D01*
X523880Y493125D02*
Y543875D01*
X236562Y518500D02*
X287313D01*
X261938Y493125D02*
Y543875D01*
X2022505Y518500D02*
X2073255D01*
X2047880Y493125D02*
Y543875D01*
X2403505Y518500D02*
X2454255D01*
X2428880Y493125D02*
Y543875D01*
X2213005Y518500D02*
X2263755D01*
X2238380Y493125D02*
Y543875D01*
X2713068Y518500D02*
X2763818D01*
X2738443Y493125D02*
Y543875D01*
X3022625Y518500D02*
X3073375D01*
X3048000Y493125D02*
Y543875D01*
X3022625Y709000D02*
X3073375D01*
X3048000Y683625D02*
Y734375D01*
X2784505Y709000D02*
X2835255D01*
X2809880Y683625D02*
Y734375D01*
X2546375Y709000D02*
X2597125D01*
X2571750Y683625D02*
Y734375D01*
X1784375Y709000D02*
X1835125D01*
X1809750Y683625D02*
Y734375D01*
X1593875Y709000D02*
X1644625D01*
X1619250Y683625D02*
Y734375D01*
X1403375Y709000D02*
X1454125D01*
X1428750Y683625D02*
Y734375D01*
X641375Y709000D02*
X692125D01*
X666750Y683625D02*
Y734375D01*
X1212875Y709000D02*
X1263625D01*
X1238250Y683625D02*
Y734375D01*
X1022375Y709000D02*
X1073125D01*
X1047750Y683625D02*
Y734375D01*
X831875Y709000D02*
X882625D01*
X857250Y683625D02*
Y734375D01*
X2355875Y709000D02*
X2406625D01*
X2381250Y683625D02*
Y734375D01*
X2165375Y709000D02*
X2216125D01*
X2190750Y683625D02*
Y734375D01*
X1974875Y709000D02*
X2025625D01*
X2000250Y683625D02*
Y734375D01*
X2070128Y899500D02*
X2120878D01*
X2095502Y874125D02*
Y924875D01*
X2736875Y899500D02*
X2787625D01*
X2762250Y874125D02*
Y924875D01*
X450875Y709000D02*
X501625D01*
X476250Y683625D02*
Y734375D01*
X165125Y899500D02*
X215875D01*
X190500Y874125D02*
Y924875D01*
X212750Y709000D02*
X263500D01*
X238125Y683625D02*
Y734375D01*
X355625Y899500D02*
X406375D01*
X381000Y874125D02*
Y924875D01*
X927125Y899500D02*
X977875D01*
X952500Y874125D02*
Y924875D01*
X736625Y899500D02*
X787375D01*
X762000Y874125D02*
Y924875D01*
X546125Y899500D02*
X596875D01*
X571500Y874125D02*
Y924875D01*
X1498625Y899500D02*
X1549375D01*
X1524000Y874125D02*
Y924875D01*
X1689125Y899500D02*
X1739875D01*
X1714500Y874125D02*
Y924875D01*
X2451125Y899500D02*
X2501875D01*
X2476500Y874125D02*
Y924875D01*
X3022625Y899500D02*
X3073375D01*
X3048000Y874125D02*
Y924875D01*
X2260625Y899500D02*
X2311375D01*
X2286000Y874125D02*
Y924875D01*
X1879625Y899500D02*
X1930375D01*
X1905000Y874125D02*
Y924875D01*
X1308125Y899500D02*
X1358875D01*
X1333500Y874125D02*
Y924875D01*
X1117625Y899500D02*
X1168375D01*
X1143000Y874125D02*
Y924875D01*
X2832125Y1090000D02*
X2882875D01*
X2857500Y1064625D02*
Y1115375D01*
X2451125Y1090000D02*
X2501875D01*
X2476500Y1064625D02*
Y1115375D01*
X927125Y1090000D02*
X977875D01*
X952500Y1064625D02*
Y1115375D01*
X2260625Y1090000D02*
X2311375D01*
X2286000Y1064625D02*
Y1115375D01*
X1879625Y1090000D02*
X1930375D01*
X1905000Y1064625D02*
Y1115375D01*
X2070125Y1090000D02*
X2120875D01*
X2095500Y1064625D02*
Y1115375D01*
X1117625Y1090000D02*
X1168375D01*
X1143000Y1064625D02*
Y1115375D01*
X1498625Y1090000D02*
X1549375D01*
X1524000Y1064625D02*
Y1115375D01*
X736625Y1090000D02*
X787375D01*
X762000Y1064625D02*
Y1115375D01*
X355625Y1090000D02*
X406375D01*
X381000Y1064625D02*
Y1115375D01*
X3022625Y1090000D02*
X3073375D01*
X3048000Y1064625D02*
Y1115375D01*
X2641625Y1090000D02*
X2692375D01*
X2667000Y1064625D02*
Y1115375D01*
X1689125Y1090000D02*
X1739875D01*
X1714500Y1064625D02*
Y1115375D01*
X1308125Y1090000D02*
X1358875D01*
X1333500Y1064625D02*
Y1115375D01*
X546125Y1090000D02*
X596875D01*
X571500Y1064625D02*
Y1115375D01*
X165125Y1090000D02*
X215875D01*
X190500Y1064625D02*
Y1115375D01*
X1614742Y1316000D02*
X1616742D01*
X1615742Y1315000D02*
Y1317000D01*
X1621830Y1316000D02*
X1623830D01*
X1622830Y1315000D02*
Y1317000D01*
X414000Y1363286D02*
X416000D01*
X415000Y1362286D02*
Y1364286D01*
X414000Y1358500D02*
X416000D01*
X415000Y1357500D02*
Y1359500D01*
X1615750Y1365329D02*
X1617750D01*
X1616750Y1364329D02*
Y1366329D01*
X1620750Y1365329D02*
X1622750D01*
X1621750Y1364329D02*
Y1366329D01*
X1614742Y1336000D02*
X1616742D01*
X1615742Y1335000D02*
Y1337000D01*
X1621830Y1336000D02*
X1623830D01*
X1622830Y1335000D02*
Y1337000D01*
X1625721Y1365300D02*
X1627721D01*
X1626721Y1364300D02*
Y1366300D01*
X402250Y1388500D02*
X404750D01*
X403500Y1387250D02*
Y1389750D01*
X412094Y1337997D02*
X415904D01*
X413999Y1336092D02*
Y1339902D01*
X407246Y1383500D02*
X409746D01*
X408496Y1382250D02*
Y1384750D01*
X411749Y1328997D02*
X414249D01*
X412999Y1327747D02*
Y1330247D01*
X411749Y1348997D02*
X414249D01*
X412999Y1347747D02*
Y1350247D01*
X1314948Y1321448D02*
X1317948D01*
X1316448Y1319948D02*
Y1322948D01*
X1327805Y1343900D02*
X1330805D01*
X1329305Y1342400D02*
Y1345400D01*
X1258625Y1339340D02*
X1261375D01*
X1260000Y1337965D02*
Y1340715D01*
X1644250Y1309815D02*
X1649250D01*
X1646750Y1307315D02*
Y1312315D01*
X1589250Y1309815D02*
X1594250D01*
X1591750Y1307315D02*
Y1312315D01*
X1081000Y1339187D02*
X1084000D01*
X1082500Y1337687D02*
Y1340687D01*
X1127210Y1329250D02*
X1130210D01*
X1128710Y1327750D02*
Y1330750D01*
X3084000Y328472D02*
X3089000D01*
X3086500Y325972D02*
Y330972D01*
X2997313Y287500D02*
X3002313D01*
X2999813Y285000D02*
Y290000D01*
X2689497Y335200D02*
X2694497D01*
X2691997Y332700D02*
Y337700D01*
X2533543Y297500D02*
X2538543D01*
X2536043Y295000D02*
Y300000D01*
X172500Y1345000D02*
X182500D01*
X177500Y1340000D02*
Y1350000D01*
X209312Y70000D02*
X219312D01*
X214312Y65000D02*
Y75000D01*
X3025000Y71270D02*
X3035000D01*
X3030000Y66270D02*
Y76270D01*
X3025000Y1370000D02*
X3035000D01*
X3030000Y1365000D02*
Y1375000D01*
X373095Y1414000D02*
X376905D01*
X375000Y1412095D02*
Y1415905D01*
X223095Y1087000D02*
X226905D01*
X225000Y1085095D02*
Y1088905D01*
X213995Y1050000D02*
X217805D01*
X215900Y1048095D02*
Y1051905D01*
X3084000Y137500D02*
X3089000D01*
X3086500Y135000D02*
Y140000D01*
X2893500Y137500D02*
X2898500D01*
X2896000Y135000D02*
Y140000D01*
X2983191Y143000D02*
X2988191D01*
X2985691Y140500D02*
Y145500D01*
X2792690Y143000D02*
X2797690D01*
X2795190Y140500D02*
Y145500D01*
X2703000Y137500D02*
X2708000D01*
X2705500Y135000D02*
Y140000D01*
X2512500Y137500D02*
X2517500D01*
X2515000Y135000D02*
Y140000D01*
X2602191Y143000D02*
X2607191D01*
X2604691Y140500D02*
Y145500D01*
X2411691Y143000D02*
X2416690D01*
X2414190Y140500D02*
Y145500D01*
X2322003Y137500D02*
X2327003D01*
X2324503Y135000D02*
Y140000D01*
X2131502Y137500D02*
X2136502D01*
X2134002Y135000D02*
Y140000D01*
X2221190Y143000D02*
X2226190D01*
X2223690Y140500D02*
Y145500D01*
X2030690Y143000D02*
X2035690D01*
X2033190Y140500D02*
Y145500D01*
X1440935Y137500D02*
X1445935D01*
X1443435Y135000D02*
Y140000D01*
X1340130Y143000D02*
X1345130D01*
X1342630Y140500D02*
Y145500D01*
X726560Y137500D02*
X731560D01*
X729060Y135000D02*
Y140000D01*
X625750Y143000D02*
X630750D01*
X628250Y140500D02*
Y145500D01*
X488435Y137500D02*
X493435D01*
X490935Y135000D02*
Y140000D01*
X387630Y143000D02*
X392630D01*
X390130Y140500D02*
Y145500D01*
X250312Y137500D02*
X255312D01*
X252812Y135000D02*
Y140000D01*
X3107810Y706000D02*
X3112810D01*
X3110310Y703500D02*
Y708500D01*
X2983190Y524000D02*
X2988190D01*
X2985690Y521500D02*
Y526500D01*
X2685143Y520000D02*
X2690143D01*
X2687643Y517500D02*
Y522500D01*
X2464880Y518500D02*
X2469880D01*
X2467380Y516000D02*
Y521000D01*
X2274380Y518500D02*
X2279380D01*
X2276880Y516000D02*
Y521000D01*
X2364070Y524000D02*
X2369070D01*
X2366570Y521500D02*
Y526500D01*
X2173570Y524000D02*
X2178570D01*
X2176070Y521500D02*
Y526500D01*
X2083878Y518500D02*
X2088878D01*
X2086378Y516000D02*
Y521000D01*
X1893377Y518500D02*
X1898377D01*
X1895877Y516000D02*
Y521000D01*
X1983070Y524000D02*
X1988070D01*
X1985570Y521500D02*
Y526500D01*
X1792570Y524000D02*
X1797570D01*
X1795070Y521500D02*
Y526500D01*
X1702878Y518500D02*
X1707878D01*
X1705378Y516000D02*
Y521000D01*
X1512377Y518500D02*
X1517377D01*
X1514877Y516000D02*
Y521000D01*
X1602070Y524000D02*
X1607070D01*
X1604570Y521500D02*
Y526500D01*
X1411570Y524000D02*
X1416570D01*
X1414070Y521500D02*
Y526500D01*
X1321877Y518500D02*
X1326877D01*
X1324377Y516000D02*
Y521000D01*
X1131377Y518500D02*
X1136377D01*
X1133877Y516000D02*
Y521000D01*
X1221070Y524000D02*
X1226070D01*
X1223570Y521500D02*
Y526500D01*
X1030570Y524000D02*
X1035570D01*
X1033070Y521500D02*
Y526500D01*
X940880Y518500D02*
X945880D01*
X943380Y516000D02*
Y521000D01*
X750380Y518500D02*
X755380D01*
X752880Y516000D02*
Y521000D01*
X840070Y524000D02*
X845070D01*
X842570Y521500D02*
Y526500D01*
X649570Y524000D02*
X654570D01*
X652070Y521500D02*
Y526500D01*
X459070Y524000D02*
X464070D01*
X461570Y521500D02*
Y526500D01*
X220121Y518500D02*
X225121D01*
X222621Y516000D02*
Y521000D01*
X2774442Y518500D02*
X2779442D01*
X2776942Y516000D02*
Y521000D01*
X316190Y905000D02*
X321190D01*
X318690Y902500D02*
Y907500D01*
X138606Y899148D02*
X143606D01*
X141106Y896648D02*
Y901648D01*
X696600Y905000D02*
X701600D01*
X699100Y902500D02*
Y907500D01*
X506100Y905000D02*
X511100D01*
X508600Y902500D02*
Y907500D01*
X1077938Y905000D02*
X1082938D01*
X1080438Y902500D02*
Y907500D01*
X887438Y905000D02*
X892438D01*
X889938Y902500D02*
Y907500D01*
X1459191Y905000D02*
X1464190D01*
X1461690Y902500D02*
Y907500D01*
X1268690Y905000D02*
X1273690D01*
X1271190Y902500D02*
Y907500D01*
X1839938Y905000D02*
X1844938D01*
X1842438Y902500D02*
Y907500D01*
X1649438Y905000D02*
X1654438D01*
X1651938Y902500D02*
Y907500D01*
X2030690Y905000D02*
X2035690D01*
X2033190Y902500D02*
Y907500D01*
X2221190Y905000D02*
X2226190D01*
X2223690Y902500D02*
Y907500D01*
X2411691Y905000D02*
X2416690D01*
X2414190Y902500D02*
Y907500D01*
X2697440Y905000D02*
X2702440D01*
X2699940Y902500D02*
Y907500D01*
X2983191Y905000D02*
X2988190D01*
X2985690Y902500D02*
Y907500D01*
X3084000Y899148D02*
X3089000D01*
X3086500Y896648D02*
Y901648D01*
X2798250Y899500D02*
X2803250D01*
X2800750Y897000D02*
Y902000D01*
X2512500Y899500D02*
X2517500D01*
X2515000Y897000D02*
Y902000D01*
X2131497Y899500D02*
X2136497D01*
X2133997Y897000D02*
Y902000D01*
X2321995Y899500D02*
X2326995D01*
X2324495Y897000D02*
Y902000D01*
X1750500Y899500D02*
X1755500D01*
X1753000Y897000D02*
Y902000D01*
X1940997Y899500D02*
X1945997D01*
X1943497Y897000D02*
Y902000D01*
X1369500Y899500D02*
X1374500D01*
X1372000Y897000D02*
Y902000D01*
X1559997Y899500D02*
X1564997D01*
X1562497Y897000D02*
Y902000D01*
X988500Y899500D02*
X993500D01*
X991000Y897000D02*
Y902000D01*
X1178997Y899500D02*
X1183997D01*
X1181497Y897000D02*
Y902000D01*
X607500Y899500D02*
X612500D01*
X610000Y897000D02*
Y902000D01*
X797997Y899500D02*
X802997D01*
X800497Y897000D02*
Y902000D01*
X268962Y899500D02*
X273962D01*
X271462Y897000D02*
Y902000D01*
X459460Y899500D02*
X464460D01*
X461960Y897000D02*
Y902000D01*
X3107810Y1085000D02*
X3112810D01*
X3110310Y1082500D02*
Y1087500D01*
X2935710Y1106000D02*
X2940710D01*
X2938210Y1103500D02*
Y1108500D01*
X2554960Y1109472D02*
X2559960D01*
X2557460Y1106972D02*
Y1111972D01*
X2745460Y1109472D02*
X2750460D01*
X2747960Y1106972D02*
Y1111972D01*
X2173710Y1106000D02*
X2178710D01*
X2176210Y1103500D02*
Y1108500D01*
X2364207Y1106000D02*
X2369207D01*
X2366707Y1103500D02*
Y1108500D01*
X1792960Y1106000D02*
X1797960D01*
X1795460Y1103500D02*
Y1108500D01*
X1983457Y1106000D02*
X1988457D01*
X1985957Y1103500D02*
Y1108500D01*
X1411960Y1106000D02*
X1416960D01*
X1414460Y1103500D02*
Y1108500D01*
X1602457Y1106000D02*
X1607457D01*
X1604957Y1103500D02*
Y1108500D01*
X1030960Y1106000D02*
X1035960D01*
X1033460Y1103500D02*
Y1108500D01*
X1221457Y1106000D02*
X1226457D01*
X1223957Y1103500D02*
Y1108500D01*
X649710Y1106000D02*
X654710D01*
X652210Y1103500D02*
Y1108500D01*
X840207Y1106000D02*
X845207D01*
X842707Y1103500D02*
Y1108500D01*
X459460Y1106000D02*
X464460D01*
X461960Y1103500D02*
Y1108500D01*
X268962Y1106000D02*
X273962D01*
X271462Y1103500D02*
Y1108500D01*
X169495Y406400D02*
X173305D01*
X171400Y404495D02*
Y408305D01*
X137795Y414200D02*
X141605D01*
X139700Y412295D02*
Y416105D01*
X285432Y1168400D02*
X289242D01*
X287337Y1166495D02*
Y1170305D01*
X240595Y1168400D02*
X244405D01*
X242500Y1166495D02*
Y1170305D01*
X558500Y1378500D02*
X561500D01*
X560000Y1377000D02*
Y1380000D01*
X567500Y1368950D02*
X572500D01*
X570000Y1366450D02*
Y1371450D01*
X567500Y1423680D02*
X572500D01*
X570000Y1421180D02*
Y1426180D01*
X399730Y1430000D02*
X403540D01*
X401635Y1428095D02*
Y1431905D01*
X505595Y1408372D02*
X509405D01*
X507500Y1406467D02*
Y1410277D01*
X471175Y1428200D02*
X474985D01*
X473080Y1426295D02*
Y1430105D01*
X505595Y1327363D02*
X509405D01*
X507500Y1325458D02*
Y1329268D01*
X593000Y1474500D02*
X596000D01*
X594500Y1473000D02*
Y1476000D01*
X581000Y1462500D02*
X584000D01*
X582500Y1461000D02*
Y1464000D01*
X466250Y1422500D02*
X468750D01*
X467500Y1421250D02*
Y1423750D01*
X263735Y174750D02*
X266485D01*
X265110Y173375D02*
Y176125D01*
X501865Y174750D02*
X504615D01*
X503240Y173375D02*
Y176125D01*
X461750Y1417500D02*
X464250D01*
X463000Y1416250D02*
Y1418750D01*
X391250Y1398500D02*
X393750D01*
X392500Y1397250D02*
Y1399750D01*
X358985Y365250D02*
X361735D01*
X360360Y363875D02*
Y366625D01*
X396091Y1393500D02*
X398591D01*
X397341Y1392250D02*
Y1394750D01*
X753384Y438069D02*
X756134D01*
X754759Y436694D02*
Y439444D01*
X311365Y555750D02*
X314115D01*
X312740Y554375D02*
Y557125D01*
X573305Y555750D02*
X576055D01*
X574680Y554375D02*
Y557125D01*
X301125Y785000D02*
X303875D01*
X302500Y783625D02*
Y786375D01*
X449185Y1240000D02*
X451685D01*
X450435Y1238750D02*
Y1241250D01*
X525675Y746250D02*
X528425D01*
X527050Y744875D02*
Y747625D01*
X453750Y1235000D02*
X456250D01*
X455000Y1233750D02*
Y1236250D01*
X311125Y1042262D02*
X313875D01*
X312500Y1040888D02*
Y1043637D01*
X457836Y1230000D02*
X460336D01*
X459086Y1228750D02*
Y1231250D01*
X430425Y936750D02*
X433175D01*
X431800Y935375D02*
Y938125D01*
X441810Y1127250D02*
X444810D01*
X443310Y1125750D02*
Y1128750D01*
X503500Y1348500D02*
X506500D01*
X505000Y1347000D02*
Y1350000D01*
X533500Y1320000D02*
X536500D01*
X535000Y1318500D02*
Y1321500D01*
X1339529Y836000D02*
X1343339D01*
X1341434Y834095D02*
Y837905D01*
X1311529Y864000D02*
X1315339D01*
X1313434Y862095D02*
Y865905D01*
X2074095Y863437D02*
X2077905D01*
X2076000Y861532D02*
Y865342D01*
X2101095Y836437D02*
X2104905D01*
X2103000Y834532D02*
Y838342D01*
X399374Y1404126D02*
X402374D01*
X400874Y1402626D02*
Y1405626D01*
X1093500Y1270250D02*
X1096500D01*
X1095000Y1268750D02*
Y1271750D01*
X538000Y1390500D02*
X541000D01*
X539500Y1389000D02*
Y1392000D01*
X696000Y1378500D02*
X699000D01*
X697500Y1377000D02*
Y1380000D01*
X696000Y1390500D02*
X699000D01*
X697500Y1389000D02*
Y1392000D01*
X696000Y1402500D02*
X699000D01*
X697500Y1401000D02*
Y1404000D01*
X498500Y1414500D02*
X501500D01*
X500000Y1413000D02*
Y1416000D01*
X696000Y1414500D02*
X699000D01*
X697500Y1413000D02*
Y1416000D01*
X1372950Y1312050D02*
X1375950D01*
X1374450Y1310550D02*
Y1313550D01*
X1361000Y1335250D02*
X1364000D01*
X1362500Y1333750D02*
Y1336750D01*
X654210Y1365000D02*
X657210D01*
X655710Y1363500D02*
Y1366500D01*
X896000Y1491000D02*
X899000D01*
X897500Y1489500D02*
Y1492500D01*
X643500Y1370000D02*
X646500D01*
X645000Y1368500D02*
Y1371500D01*
X896000Y1470000D02*
X899000D01*
X897500Y1468500D02*
Y1471500D01*
X1243625Y1357749D02*
X1246375D01*
X1245000Y1356374D02*
Y1359124D01*
X1145598Y1318152D02*
X1148598D01*
X1147098Y1316652D02*
Y1319652D01*
X1251125Y1368950D02*
X1253875D01*
X1252500Y1367575D02*
Y1370325D01*
X1645250Y1345000D02*
X1648250D01*
X1646750Y1343500D02*
Y1346500D01*
X2571000Y437310D02*
X2574000D01*
X2572500Y435810D02*
Y438810D01*
X2332300Y450500D02*
X2335300D01*
X2333800Y449000D02*
Y452000D01*
X1951210Y450250D02*
X1954210D01*
X1952710Y448750D02*
Y451750D01*
X2119090Y437560D02*
X2122090D01*
X2120590Y436060D02*
Y439060D01*
X1570300Y450500D02*
X1573300D01*
X1571800Y449000D02*
Y452000D01*
X1738180Y437810D02*
X1741180D01*
X1739680Y436310D02*
Y439310D01*
X1189210Y450250D02*
X1192210D01*
X1190710Y448750D02*
Y451750D01*
X1357090Y437560D02*
X1360090D01*
X1358590Y436060D02*
Y439060D01*
X976000Y437310D02*
X979000D01*
X977500Y435810D02*
Y438810D01*
X808120Y450000D02*
X811120D01*
X809620Y448500D02*
Y451500D01*
X2482529Y836000D02*
X2486339D01*
X2484434Y834095D02*
Y837905D01*
X2464529Y854000D02*
X2468339D01*
X2466434Y852095D02*
Y855905D01*
X2563050Y820000D02*
X2566050D01*
X2564550Y818500D02*
Y821500D01*
X2182050Y820000D02*
X2185050D01*
X2183550Y818500D02*
Y821500D01*
X1801050Y820000D02*
X1804050D01*
X1802550Y818500D02*
Y821500D01*
X1420050Y820000D02*
X1423050D01*
X1421550Y818500D02*
Y821500D01*
X1038500Y820000D02*
X1041500D01*
X1040000Y818500D02*
Y821500D01*
X658500Y819550D02*
X661500D01*
X660000Y818050D02*
Y821050D01*
X2341650Y820000D02*
X2344650D01*
X2343150Y818500D02*
Y821500D01*
X1960650Y820000D02*
X1963650D01*
X1962150Y818500D02*
Y821500D01*
X1579650Y820000D02*
X1582650D01*
X1581150Y818500D02*
Y821500D01*
X1198650Y820000D02*
X1201650D01*
X1200150Y818500D02*
Y821500D01*
X817650Y820000D02*
X820650D01*
X819150Y818500D02*
Y821500D01*
X601250Y835000D02*
X604250D01*
X602750Y833500D02*
Y836500D01*
X822810Y1127250D02*
X825810D01*
X824310Y1125750D02*
Y1128750D01*
X1203810Y1127250D02*
X1206810D01*
X1205310Y1125750D02*
Y1128750D01*
X1584810Y1127250D02*
X1587810D01*
X1586310Y1125750D02*
Y1128750D01*
X1965810Y1127250D02*
X1968810D01*
X1967310Y1125750D02*
Y1128750D01*
X2346810Y1127250D02*
X2349810D01*
X2348310Y1125750D02*
Y1128750D01*
X2727810Y1127250D02*
X2730810D01*
X2729310Y1125750D02*
Y1128750D01*
X3108810Y1127250D02*
X3111810D01*
X3110310Y1125750D02*
Y1128750D01*
M02*
