G04*
G04 #@! TF.GenerationSoftware,Altium Limited,Altium Designer,18.1.9 (240)*
G04*
G04 Layer_Color=255*
%FSLAX44Y44*%
%MOMM*%
G71*
G01*
G75*
%ADD13C,2.4000*%
%ADD14C,4.0640*%
%ADD15C,1.7018*%
%ADD17C,3.9878*%
%ADD18C,3.0480*%
%ADD33C,2.2860*%
%ADD34R,1.2080X1.2080*%
%ADD35C,1.2080*%
%ADD36C,0.6000*%
%ADD37R,1.3208X0.5588*%
%ADD38R,2.1804X1.5284*%
%ADD39R,0.3000X0.7000*%
%ADD40R,0.3000X0.4900*%
%ADD41R,0.3000X0.5200*%
G04:AMPARAMS|DCode=42|XSize=1.4mm|YSize=2.1mm|CornerRadius=0.35mm|HoleSize=0mm|Usage=FLASHONLY|Rotation=0.000|XOffset=0mm|YOffset=0mm|HoleType=Round|Shape=RoundedRectangle|*
%AMROUNDEDRECTD42*
21,1,1.4000,1.4000,0,0,0.0*
21,1,0.7000,2.1000,0,0,0.0*
1,1,0.7000,0.3500,-0.7000*
1,1,0.7000,-0.3500,-0.7000*
1,1,0.7000,-0.3500,0.7000*
1,1,0.7000,0.3500,0.7000*
%
%ADD42ROUNDEDRECTD42*%
%ADD43R,0.7500X0.6000*%
%ADD44R,0.8000X0.8000*%
%ADD45O,0.7600X1.2700*%
%ADD46O,1.5000X0.8000*%
%ADD47O,0.8000X1.5000*%
%ADD48R,1.2100X0.5900*%
%ADD49R,0.6000X0.6400*%
%ADD50R,1.0000X0.9000*%
%ADD51R,1.4000X1.2000*%
%ADD52R,5.0800X5.0800*%
%ADD53R,1.0000X0.3000*%
%ADD54R,0.3000X1.0000*%
%ADD55R,0.8500X0.9500*%
%ADD56R,2.5500X1.0000*%
%ADD57R,1.7000X1.7000*%
G04:AMPARAMS|DCode=58|XSize=1.6mm|YSize=2.19mm|CornerRadius=0.4mm|HoleSize=0mm|Usage=FLASHONLY|Rotation=270.000|XOffset=0mm|YOffset=0mm|HoleType=Round|Shape=RoundedRectangle|*
%AMROUNDEDRECTD58*
21,1,1.6000,1.3900,0,0,270.0*
21,1,0.8000,2.1900,0,0,270.0*
1,1,0.8000,-0.6950,-0.4000*
1,1,0.8000,-0.6950,0.4000*
1,1,0.8000,0.6950,0.4000*
1,1,0.8000,0.6950,-0.4000*
%
%ADD58ROUNDEDRECTD58*%
%ADD59R,0.3500X0.4000*%
%ADD60R,0.6000X0.7500*%
%ADD61R,1.6000X0.5000*%
%ADD62R,2.4500X2.5500*%
%ADD63R,1.3716X0.4572*%
%ADD64R,2.0000X0.6000*%
%ADD65R,1.1684X0.4572*%
%ADD66R,0.6400X0.6000*%
%ADD67R,1.2000X1.2000*%
%ADD68R,1.2000X1.2000*%
%ADD69R,0.5000X0.8100*%
%ADD70R,0.5500X0.3000*%
%ADD71R,0.1000X0.2000*%
%ADD72R,1.0000X0.7000*%
%ADD73R,0.9500X0.8500*%
%ADD74R,2.3000X1.0000*%
%ADD75R,0.9500X0.9000*%
D13*
X130000Y50000D02*
D03*
X3100000D02*
D03*
Y1400000D02*
D03*
X130000D02*
D03*
D14*
X381000Y1143000D02*
D03*
X2571750Y762000D02*
D03*
X690565Y190500D02*
D03*
X452435D02*
D03*
X214312D02*
D03*
X309562Y381000D02*
D03*
X261938Y571500D02*
D03*
X238125Y762000D02*
D03*
X2762250Y952500D02*
D03*
X2809875Y762000D02*
D03*
X2738443Y571500D02*
D03*
X2595557Y381000D02*
D03*
X1404935Y190500D02*
D03*
X190500Y1143000D02*
D03*
X571500D02*
D03*
X762000D02*
D03*
X952500D02*
D03*
X1143000D02*
D03*
X1333500D02*
D03*
X1524000D02*
D03*
X1714500D02*
D03*
X1905000D02*
D03*
X2095500D02*
D03*
X2286000D02*
D03*
X2476500D02*
D03*
X2667000D02*
D03*
X2857500D02*
D03*
X3048000D02*
D03*
X381000Y952500D02*
D03*
X190500D02*
D03*
X571500D02*
D03*
X762000D02*
D03*
X952500D02*
D03*
X1143000D02*
D03*
X1333500D02*
D03*
X1524000D02*
D03*
X1714500D02*
D03*
X1905000D02*
D03*
X2095500D02*
D03*
X2286000D02*
D03*
X2476500D02*
D03*
X3048000D02*
D03*
X476250Y762000D02*
D03*
X666750D02*
D03*
X857250D02*
D03*
X1047750D02*
D03*
X1238250D02*
D03*
X1428750D02*
D03*
X1619250D02*
D03*
X1809750D02*
D03*
X2000250D02*
D03*
X2190750D02*
D03*
X2381250D02*
D03*
X3048000D02*
D03*
X523880Y571500D02*
D03*
X714380D02*
D03*
X904880D02*
D03*
X1095380D02*
D03*
X1285880D02*
D03*
X1476380D02*
D03*
X1666880D02*
D03*
X1857380D02*
D03*
X2047880D02*
D03*
X2238380D02*
D03*
X2428880D02*
D03*
X3048000D02*
D03*
X619123Y381000D02*
D03*
X809620D02*
D03*
X1000120D02*
D03*
X1190620D02*
D03*
X1381120D02*
D03*
X1571620D02*
D03*
X1762120D02*
D03*
X1952620D02*
D03*
X2143120D02*
D03*
X2333620D02*
D03*
X2857500D02*
D03*
X3048000D02*
D03*
X2095502Y190500D02*
D03*
X2286000D02*
D03*
X2476500D02*
D03*
X2667000D02*
D03*
X2857500D02*
D03*
X3048000D02*
D03*
D15*
X431800Y1143000D02*
D03*
X330200D02*
D03*
X2622550Y762000D02*
D03*
X2520950D02*
D03*
X639765Y190500D02*
D03*
X741365D02*
D03*
X401635D02*
D03*
X503235D02*
D03*
X163512D02*
D03*
X265112D02*
D03*
X360363Y381000D02*
D03*
X258762D02*
D03*
X312738Y571500D02*
D03*
X211138D02*
D03*
X288925Y762000D02*
D03*
X187325D02*
D03*
X2711450Y952500D02*
D03*
X2813050D02*
D03*
X2860675Y762000D02*
D03*
X2759075D02*
D03*
X2789243Y571500D02*
D03*
X2687643D02*
D03*
X2646357Y381000D02*
D03*
X2544757D02*
D03*
X1455735Y190500D02*
D03*
X1354135D02*
D03*
X139700Y1143000D02*
D03*
X241300D02*
D03*
X520700D02*
D03*
X622300D02*
D03*
X711200D02*
D03*
X812800D02*
D03*
X901700D02*
D03*
X1003300D02*
D03*
X1092200D02*
D03*
X1193800D02*
D03*
X1282700D02*
D03*
X1384300D02*
D03*
X1473200D02*
D03*
X1574800D02*
D03*
X1663700D02*
D03*
X1765300D02*
D03*
X1854200D02*
D03*
X1955800D02*
D03*
X2044700D02*
D03*
X2146300D02*
D03*
X2235200D02*
D03*
X2336800D02*
D03*
X2425700D02*
D03*
X2527300D02*
D03*
X2616200D02*
D03*
X2717800D02*
D03*
X2806700D02*
D03*
X2908300D02*
D03*
X2997200D02*
D03*
X3098800D02*
D03*
X330200Y952500D02*
D03*
X431800D02*
D03*
X139700D02*
D03*
X241300D02*
D03*
X520700D02*
D03*
X622300D02*
D03*
X711200D02*
D03*
X812800D02*
D03*
X901700D02*
D03*
X1003300D02*
D03*
X1092200D02*
D03*
X1193800D02*
D03*
X1282700D02*
D03*
X1384300D02*
D03*
X1473200D02*
D03*
X1574800D02*
D03*
X1663700D02*
D03*
X1765300D02*
D03*
X1854200D02*
D03*
X1955800D02*
D03*
X2044700D02*
D03*
X2146300D02*
D03*
X2235200D02*
D03*
X2336800D02*
D03*
X2425700D02*
D03*
X2527300D02*
D03*
X2997200D02*
D03*
X3098800D02*
D03*
X425450Y762000D02*
D03*
X527050D02*
D03*
X615950D02*
D03*
X717550D02*
D03*
X806450D02*
D03*
X908050D02*
D03*
X996950D02*
D03*
X1098550D02*
D03*
X1187450D02*
D03*
X1289050D02*
D03*
X1377950D02*
D03*
X1479550D02*
D03*
X1568450D02*
D03*
X1670050D02*
D03*
X1758950D02*
D03*
X1860550D02*
D03*
X1949450D02*
D03*
X2051050D02*
D03*
X2139950D02*
D03*
X2241550D02*
D03*
X2330450D02*
D03*
X2432050D02*
D03*
X2997200D02*
D03*
X3098800D02*
D03*
X473080Y571500D02*
D03*
X574680D02*
D03*
X663580D02*
D03*
X765180D02*
D03*
X854080D02*
D03*
X955680D02*
D03*
X1044580D02*
D03*
X1146180D02*
D03*
X1235080D02*
D03*
X1336680D02*
D03*
X1425580D02*
D03*
X1527180D02*
D03*
X1616080D02*
D03*
X1717680D02*
D03*
X1806580D02*
D03*
X1908180D02*
D03*
X1997080D02*
D03*
X2098680D02*
D03*
X2187580D02*
D03*
X2289180D02*
D03*
X2378080D02*
D03*
X2479680D02*
D03*
X2997200D02*
D03*
X3098800D02*
D03*
X568322Y381000D02*
D03*
X669922D02*
D03*
X758820D02*
D03*
X860420D02*
D03*
X949320D02*
D03*
X1050920D02*
D03*
X1139820D02*
D03*
X1241420D02*
D03*
X1330320D02*
D03*
X1431920D02*
D03*
X1520820D02*
D03*
X1622420D02*
D03*
X1711320D02*
D03*
X1812920D02*
D03*
X1901820D02*
D03*
X2003420D02*
D03*
X2092320D02*
D03*
X2193920D02*
D03*
X2282820D02*
D03*
X2384420D02*
D03*
X2806700D02*
D03*
X2908300D02*
D03*
X2997200D02*
D03*
X3098800D02*
D03*
X2044702Y190500D02*
D03*
X2146302D02*
D03*
X2235200D02*
D03*
X2336800D02*
D03*
X2425700D02*
D03*
X2527300D02*
D03*
X2616200D02*
D03*
X2717800D02*
D03*
X2806700D02*
D03*
X2908300D02*
D03*
X2997200D02*
D03*
X3098800D02*
D03*
D17*
X190182Y463550D02*
D03*
X428942D02*
D03*
X2881630Y1035050D02*
D03*
X2642870D02*
D03*
X2619062Y654050D02*
D03*
X2857823D02*
D03*
X904935Y273050D02*
D03*
X1904935D02*
D03*
D18*
X190182Y311150D02*
D03*
X428942D02*
D03*
X2881630Y882650D02*
D03*
X2642870D02*
D03*
X2619062Y501650D02*
D03*
X2857823D02*
D03*
X904935Y120650D02*
D03*
X1904935D02*
D03*
D33*
X406400Y1193800D02*
D03*
X342900Y1168400D02*
D03*
X2597150Y812800D02*
D03*
X2533650Y787400D02*
D03*
X652465Y215900D02*
D03*
X715965Y241300D02*
D03*
X414335Y215900D02*
D03*
X477835Y241300D02*
D03*
X176213Y215900D02*
D03*
X239713Y241300D02*
D03*
X334963Y431800D02*
D03*
X271462Y406400D02*
D03*
X287337Y622300D02*
D03*
X223838Y596900D02*
D03*
X263525Y812800D02*
D03*
X200025Y787400D02*
D03*
X2724150Y977900D02*
D03*
X2787650Y1003300D02*
D03*
X2835275Y812800D02*
D03*
X2771775Y787400D02*
D03*
X2763842Y622300D02*
D03*
X2700343Y596900D02*
D03*
X2620957Y431800D02*
D03*
X2557457Y406400D02*
D03*
X1430335Y241300D02*
D03*
X1366835Y215900D02*
D03*
X152400Y1168400D02*
D03*
X215900Y1193800D02*
D03*
X533400Y1168400D02*
D03*
X596900Y1193800D02*
D03*
X723900Y1168400D02*
D03*
X787400Y1193800D02*
D03*
X914400Y1168400D02*
D03*
X977900Y1193800D02*
D03*
X1104900Y1168400D02*
D03*
X1168400Y1193800D02*
D03*
X1295400Y1168400D02*
D03*
X1358900Y1193800D02*
D03*
X1485900Y1168400D02*
D03*
X1549400Y1193800D02*
D03*
X1676400Y1168400D02*
D03*
X1739900Y1193800D02*
D03*
X1866900Y1168400D02*
D03*
X1930400Y1193800D02*
D03*
X2057400Y1168400D02*
D03*
X2120900Y1193800D02*
D03*
X2247900Y1168400D02*
D03*
X2311400Y1193800D02*
D03*
X2438400Y1168400D02*
D03*
X2501900Y1193800D02*
D03*
X2628900Y1168400D02*
D03*
X2692400Y1193800D02*
D03*
X2819400Y1168400D02*
D03*
X2882900Y1193800D02*
D03*
X3009900Y1168400D02*
D03*
X3073400Y1193800D02*
D03*
X342900Y977900D02*
D03*
X406400Y1003300D02*
D03*
X152400Y977900D02*
D03*
X215900Y1003300D02*
D03*
X533400Y977900D02*
D03*
X596900Y1003300D02*
D03*
X723900Y977900D02*
D03*
X787400Y1003300D02*
D03*
X914400Y977900D02*
D03*
X977900Y1003300D02*
D03*
X1104900Y977900D02*
D03*
X1168400Y1003300D02*
D03*
X1295400Y977900D02*
D03*
X1358900Y1003300D02*
D03*
X1485900Y977900D02*
D03*
X1549400Y1003300D02*
D03*
X1676400Y977900D02*
D03*
X1739900Y1003300D02*
D03*
X1866900Y977900D02*
D03*
X1930400Y1003300D02*
D03*
X2057400Y977900D02*
D03*
X2120900Y1003300D02*
D03*
X2247900Y977900D02*
D03*
X2311400Y1003300D02*
D03*
X2438400Y977900D02*
D03*
X2501900Y1003300D02*
D03*
X3009900Y977900D02*
D03*
X3073400Y1003300D02*
D03*
X438150Y787400D02*
D03*
X501650Y812800D02*
D03*
X628650Y787400D02*
D03*
X692150Y812800D02*
D03*
X819150Y787400D02*
D03*
X882650Y812800D02*
D03*
X1009650Y787400D02*
D03*
X1073150Y812800D02*
D03*
X1200150Y787400D02*
D03*
X1263650Y812800D02*
D03*
X1390650Y787400D02*
D03*
X1454150Y812800D02*
D03*
X1581150Y787400D02*
D03*
X1644650Y812800D02*
D03*
X1771650Y787400D02*
D03*
X1835150Y812800D02*
D03*
X1962150Y787400D02*
D03*
X2025650Y812800D02*
D03*
X2152650Y787400D02*
D03*
X2216150Y812800D02*
D03*
X2343150Y787400D02*
D03*
X2406650Y812800D02*
D03*
X3009900Y787400D02*
D03*
X3073400Y812800D02*
D03*
X485780Y596900D02*
D03*
X549280Y622300D02*
D03*
X676280Y596900D02*
D03*
X739780Y622300D02*
D03*
X866780Y596900D02*
D03*
X930280Y622300D02*
D03*
X1057280Y596900D02*
D03*
X1120780Y622300D02*
D03*
X1247780Y596900D02*
D03*
X1311280Y622300D02*
D03*
X1438280Y596900D02*
D03*
X1501780Y622300D02*
D03*
X1628780Y596900D02*
D03*
X1692280Y622300D02*
D03*
X1819280Y596900D02*
D03*
X1882780Y622300D02*
D03*
X2009780Y596900D02*
D03*
X2073280Y622300D02*
D03*
X2200280Y596900D02*
D03*
X2263780Y622300D02*
D03*
X2390780Y596900D02*
D03*
X2454280Y622300D02*
D03*
X3009900Y596900D02*
D03*
X3073400Y622300D02*
D03*
X581022Y406400D02*
D03*
X644522Y431800D02*
D03*
X771520Y406400D02*
D03*
X835020Y431800D02*
D03*
X962020Y406400D02*
D03*
X1025520Y431800D02*
D03*
X1152520Y406400D02*
D03*
X1216020Y431800D02*
D03*
X1343020Y406400D02*
D03*
X1406520Y431800D02*
D03*
X1533520Y406400D02*
D03*
X1597020Y431800D02*
D03*
X1724020Y406400D02*
D03*
X1787520Y431800D02*
D03*
X1914520Y406400D02*
D03*
X1978020Y431800D02*
D03*
X2105020Y406400D02*
D03*
X2168520Y431800D02*
D03*
X2295520Y406400D02*
D03*
X2359020Y431800D02*
D03*
X2819400Y406400D02*
D03*
X2882900Y431800D02*
D03*
X3009900Y406400D02*
D03*
X3073400Y431800D02*
D03*
X2057402Y215900D02*
D03*
X2120903Y241300D02*
D03*
X2247900Y215900D02*
D03*
X2311400Y241300D02*
D03*
X2438400Y215900D02*
D03*
X2501900Y241300D02*
D03*
X2628900Y215900D02*
D03*
X2692400Y241300D02*
D03*
X2819400Y215900D02*
D03*
X2882900Y241300D02*
D03*
X3009900Y215900D02*
D03*
X3073400Y241300D02*
D03*
D34*
X1840000Y1416500D02*
D03*
D35*
X1860000D02*
D03*
D36*
X1662450D02*
D03*
X1576050D02*
D03*
X1662450Y1362900D02*
D03*
X1576050D02*
D03*
D37*
X1283716Y1321448D02*
D03*
Y1312050D02*
D03*
Y1302652D02*
D03*
X1256284D02*
D03*
Y1321448D02*
D03*
D38*
X1110000Y1358900D02*
D03*
X1147144D02*
D03*
D39*
X1614250Y1358800D02*
D03*
X1624250D02*
D03*
X1621750Y1371800D02*
D03*
X1616750D02*
D03*
X1596750D02*
D03*
X1601750D02*
D03*
X1606750D02*
D03*
X1611750D02*
D03*
X1626750D02*
D03*
X1631750D02*
D03*
X1636750D02*
D03*
X1641750D02*
D03*
X1649250Y1358800D02*
D03*
X1644250D02*
D03*
X1639250D02*
D03*
X1634250D02*
D03*
X1629250D02*
D03*
X1609250D02*
D03*
X1604250D02*
D03*
X1599250D02*
D03*
X1594250D02*
D03*
X1589250D02*
D03*
D40*
X1245000Y1343900D02*
D03*
X1250000D02*
D03*
X1255000D02*
D03*
Y1351599D02*
D03*
X1250000D02*
D03*
D41*
X1245000D02*
D03*
D42*
X943000Y1335500D02*
D03*
X898000D02*
D03*
Y1426500D02*
D03*
X943000D02*
D03*
D43*
X898000Y1453500D02*
D03*
X909500D02*
D03*
X649750Y1433500D02*
D03*
X661250D02*
D03*
X649750Y1474500D02*
D03*
X661250D02*
D03*
X684000Y1462500D02*
D03*
X695500D02*
D03*
X684000Y1486500D02*
D03*
X695500D02*
D03*
X754000Y1308000D02*
D03*
X765500D02*
D03*
X883750Y1470000D02*
D03*
X872250D02*
D03*
X883750Y1491000D02*
D03*
X872250D02*
D03*
X1114402Y1315250D02*
D03*
X1102902D02*
D03*
X1401000Y1313000D02*
D03*
X1389500D02*
D03*
X1264250Y1286000D02*
D03*
X1275750D02*
D03*
Y1271000D02*
D03*
X1264250D02*
D03*
D44*
X630500Y1474500D02*
D03*
X615500D02*
D03*
X663000Y1450500D02*
D03*
X648000D02*
D03*
X718000Y1308000D02*
D03*
X733000D02*
D03*
D45*
X624150Y1349000D02*
D03*
X611450D02*
D03*
Y1308000D02*
D03*
X624150D02*
D03*
X649550Y1308000D02*
D03*
X636850D02*
D03*
X649550Y1349000D02*
D03*
X636850D02*
D03*
D46*
X850500Y1510500D02*
D03*
Y1498500D02*
D03*
Y1486500D02*
D03*
Y1474500D02*
D03*
Y1462500D02*
D03*
Y1450500D02*
D03*
Y1438500D02*
D03*
Y1426500D02*
D03*
Y1414500D02*
D03*
Y1402500D02*
D03*
Y1390500D02*
D03*
Y1378500D02*
D03*
X717500D02*
D03*
Y1390500D02*
D03*
Y1402500D02*
D03*
Y1414500D02*
D03*
Y1426500D02*
D03*
Y1438500D02*
D03*
Y1450500D02*
D03*
Y1462500D02*
D03*
Y1474500D02*
D03*
Y1486500D02*
D03*
Y1498500D02*
D03*
Y1510500D02*
D03*
D47*
X752500Y1350500D02*
D03*
X814500D02*
D03*
X765500D02*
D03*
X742500D02*
D03*
X789500D02*
D03*
X777500D02*
D03*
X824500D02*
D03*
X801500D02*
D03*
D48*
X437050Y1274500D02*
D03*
Y1265000D02*
D03*
Y1255500D02*
D03*
X411950D02*
D03*
Y1274500D02*
D03*
D49*
X424200Y1306000D02*
D03*
X433000D02*
D03*
X424200Y1323500D02*
D03*
X433000D02*
D03*
X431100Y1423500D02*
D03*
X439900D02*
D03*
X491800Y1323500D02*
D03*
X483000D02*
D03*
X517400Y1398500D02*
D03*
X508600D02*
D03*
X383600Y1373500D02*
D03*
X392400D02*
D03*
X1138298Y1329250D02*
D03*
X1147098D02*
D03*
X1111702D02*
D03*
X1102902D02*
D03*
D50*
X420500Y1470250D02*
D03*
Y1456750D02*
D03*
X490500D02*
D03*
Y1470250D02*
D03*
X1184850Y1325500D02*
D03*
Y1311999D02*
D03*
D51*
X444500Y1471500D02*
D03*
Y1455500D02*
D03*
X466500Y1471500D02*
D03*
Y1455500D02*
D03*
D52*
X458000Y1373500D02*
D03*
D53*
X424500Y1348500D02*
D03*
Y1353500D02*
D03*
Y1358500D02*
D03*
Y1363500D02*
D03*
Y1368500D02*
D03*
Y1373500D02*
D03*
Y1378500D02*
D03*
Y1383500D02*
D03*
Y1388500D02*
D03*
Y1393500D02*
D03*
Y1398500D02*
D03*
X491500D02*
D03*
Y1393500D02*
D03*
Y1388500D02*
D03*
Y1383500D02*
D03*
Y1378500D02*
D03*
Y1373500D02*
D03*
Y1368500D02*
D03*
Y1363500D02*
D03*
Y1358500D02*
D03*
Y1353500D02*
D03*
Y1348500D02*
D03*
D54*
X433000Y1407000D02*
D03*
X438000D02*
D03*
X443000D02*
D03*
X448000D02*
D03*
X453000D02*
D03*
X458000D02*
D03*
X463000D02*
D03*
X468000D02*
D03*
X473000D02*
D03*
X478000D02*
D03*
X483000D02*
D03*
Y1340000D02*
D03*
X478000D02*
D03*
X473000D02*
D03*
X468000D02*
D03*
X463000D02*
D03*
X458000D02*
D03*
X453000D02*
D03*
X448000D02*
D03*
X443000D02*
D03*
X438000D02*
D03*
X433000D02*
D03*
D55*
X362655Y1328500D02*
D03*
X349655D02*
D03*
X362655Y1368500D02*
D03*
X349655D02*
D03*
D56*
X314400D02*
D03*
Y1348500D02*
D03*
Y1328500D02*
D03*
D57*
X279650Y1299500D02*
D03*
Y1397500D02*
D03*
D58*
X257705Y1478500D02*
D03*
X349605D02*
D03*
D59*
X1205000Y1350100D02*
D03*
Y1343900D02*
D03*
X1260000Y1368950D02*
D03*
Y1362750D02*
D03*
D60*
X1082500Y1284500D02*
D03*
Y1295999D02*
D03*
X1067500D02*
D03*
Y1284500D02*
D03*
X1082500Y1315250D02*
D03*
Y1326750D02*
D03*
X1456000Y1307250D02*
D03*
Y1318750D02*
D03*
X1225000Y1321448D02*
D03*
Y1309948D02*
D03*
X1471000Y1318750D02*
D03*
Y1330250D02*
D03*
X1542500Y1336000D02*
D03*
Y1324500D02*
D03*
X1527500D02*
D03*
Y1336000D02*
D03*
X1591750Y1335250D02*
D03*
Y1323750D02*
D03*
X1646750Y1335250D02*
D03*
Y1323750D02*
D03*
D61*
X1184850Y1358900D02*
D03*
Y1343900D02*
D03*
D62*
X1032500Y1345000D02*
D03*
Y1284500D02*
D03*
D63*
X1102902Y1280598D02*
D03*
Y1286948D02*
D03*
Y1293552D02*
D03*
Y1299902D02*
D03*
X1147098D02*
D03*
Y1293552D02*
D03*
Y1286948D02*
D03*
Y1280598D02*
D03*
D64*
X1225000Y1362899D02*
D03*
Y1343900D02*
D03*
D65*
X1420094Y1313000D02*
D03*
X1437620Y1306500D02*
D03*
Y1319500D02*
D03*
X1490954Y1330250D02*
D03*
X1508480Y1323749D02*
D03*
Y1336750D02*
D03*
D66*
X1305000Y1293852D02*
D03*
Y1302652D02*
D03*
X1240000Y1293852D02*
D03*
Y1302652D02*
D03*
X152000Y121500D02*
D03*
Y130300D02*
D03*
X2033190Y121500D02*
D03*
Y130300D02*
D03*
X1342630Y121500D02*
D03*
Y130300D02*
D03*
X628250Y121500D02*
D03*
Y130300D02*
D03*
X390130Y121500D02*
D03*
Y130300D02*
D03*
X2414190Y121500D02*
D03*
Y130300D02*
D03*
X2223690Y121500D02*
D03*
Y130300D02*
D03*
X2604690Y121500D02*
D03*
Y130300D02*
D03*
X2985690Y121500D02*
D03*
Y130300D02*
D03*
X2795190Y121500D02*
D03*
Y130300D02*
D03*
X2657870Y344000D02*
D03*
Y335200D02*
D03*
X2919810Y344000D02*
D03*
Y335200D02*
D03*
X3110310Y344000D02*
D03*
Y335200D02*
D03*
X2014930Y344000D02*
D03*
Y335200D02*
D03*
X2205430Y344000D02*
D03*
Y335200D02*
D03*
X2395930Y344000D02*
D03*
Y335200D02*
D03*
X1443430Y344000D02*
D03*
Y335200D02*
D03*
X1633930Y344000D02*
D03*
Y335200D02*
D03*
X1824430Y344000D02*
D03*
Y335200D02*
D03*
X1252930Y344000D02*
D03*
Y335200D02*
D03*
X871930Y344000D02*
D03*
Y335200D02*
D03*
X199630Y502500D02*
D03*
Y511300D02*
D03*
X371870Y344000D02*
D03*
Y335200D02*
D03*
X681430Y344000D02*
D03*
Y335200D02*
D03*
X1033070Y502500D02*
D03*
Y511300D02*
D03*
X842570Y502500D02*
D03*
Y511300D02*
D03*
X652070Y502500D02*
D03*
Y511300D02*
D03*
X461570Y502500D02*
D03*
Y511300D02*
D03*
X1604570Y502500D02*
D03*
Y511300D02*
D03*
X1414070Y502500D02*
D03*
Y511300D02*
D03*
X1223570Y502500D02*
D03*
Y511300D02*
D03*
X1795070Y502500D02*
D03*
Y511300D02*
D03*
X1985570Y502500D02*
D03*
Y511300D02*
D03*
X2176070Y502500D02*
D03*
Y511300D02*
D03*
X2985690Y502500D02*
D03*
Y511300D02*
D03*
X2676130Y502500D02*
D03*
Y511300D02*
D03*
X2366570Y502500D02*
D03*
Y511300D02*
D03*
X2443560Y725000D02*
D03*
Y716200D02*
D03*
X2634060Y725000D02*
D03*
Y716200D02*
D03*
X2872190Y725000D02*
D03*
Y716200D02*
D03*
X3110310Y725000D02*
D03*
Y716200D02*
D03*
X1872060Y725000D02*
D03*
Y716200D02*
D03*
X2062560Y725000D02*
D03*
Y716200D02*
D03*
X2253060Y725000D02*
D03*
Y716200D02*
D03*
X919560Y725000D02*
D03*
Y716200D02*
D03*
X1110060Y725000D02*
D03*
Y716200D02*
D03*
X1300560Y725000D02*
D03*
Y716200D02*
D03*
X1491060Y725000D02*
D03*
Y716200D02*
D03*
X1681560Y725000D02*
D03*
Y716200D02*
D03*
X729060Y725000D02*
D03*
Y716200D02*
D03*
X128190Y883500D02*
D03*
Y892300D02*
D03*
X300430Y725000D02*
D03*
Y716200D02*
D03*
X538560Y725000D02*
D03*
Y716200D02*
D03*
X699690Y883500D02*
D03*
Y892300D02*
D03*
X509190Y883500D02*
D03*
Y892300D02*
D03*
X318690Y883500D02*
D03*
Y892300D02*
D03*
X1271190Y883500D02*
D03*
Y892300D02*
D03*
X1080690Y883500D02*
D03*
Y892300D02*
D03*
X890190Y883500D02*
D03*
Y892300D02*
D03*
X2033190Y883500D02*
D03*
Y892300D02*
D03*
X1842690Y883500D02*
D03*
Y892300D02*
D03*
X1652190Y883500D02*
D03*
Y892300D02*
D03*
X1461690Y883500D02*
D03*
Y892300D02*
D03*
X2699940Y883500D02*
D03*
Y892300D02*
D03*
X2414190Y883500D02*
D03*
Y892300D02*
D03*
X2223690Y883500D02*
D03*
Y892300D02*
D03*
X2985690Y883500D02*
D03*
Y892300D02*
D03*
X2729310Y1106000D02*
D03*
Y1097200D02*
D03*
X2919810Y1106000D02*
D03*
Y1097200D02*
D03*
X3110310Y1106000D02*
D03*
Y1097200D02*
D03*
X2157810Y1106000D02*
D03*
Y1097200D02*
D03*
X2348310Y1106000D02*
D03*
Y1097200D02*
D03*
X2538810Y1106000D02*
D03*
Y1097200D02*
D03*
X1586310Y1106000D02*
D03*
Y1097200D02*
D03*
X1776810Y1106000D02*
D03*
Y1097200D02*
D03*
X1967310Y1106000D02*
D03*
Y1097200D02*
D03*
X824310Y1106000D02*
D03*
Y1097200D02*
D03*
X1014810Y1106000D02*
D03*
Y1097200D02*
D03*
X1205310Y1106000D02*
D03*
Y1097200D02*
D03*
X1395810Y1106000D02*
D03*
Y1097200D02*
D03*
X443310Y1106000D02*
D03*
Y1097200D02*
D03*
X633810Y1106000D02*
D03*
Y1097200D02*
D03*
X252812Y1106000D02*
D03*
Y1097200D02*
D03*
X1062430Y335200D02*
D03*
Y344000D02*
D03*
D67*
X1361800Y1312050D02*
D03*
X1278780Y1372750D02*
D03*
Y1347750D02*
D03*
D68*
X1333200Y1312050D02*
D03*
X1307380Y1372750D02*
D03*
Y1347750D02*
D03*
D69*
X1347500Y1332750D02*
D03*
D70*
X1354750Y1335250D02*
D03*
Y1330250D02*
D03*
X1340000Y1335250D02*
D03*
Y1330250D02*
D03*
D71*
X1666250Y1416500D02*
D03*
X1572250D02*
D03*
X1658250Y1362500D02*
D03*
X1572250D02*
D03*
D72*
X1588250Y1371800D02*
D03*
X1650250D02*
D03*
D73*
X1606750Y1336000D02*
D03*
Y1323000D02*
D03*
X1631750Y1336000D02*
D03*
Y1323000D02*
D03*
D74*
X252812Y153500D02*
D03*
X175813D02*
D03*
X252812Y121500D02*
D03*
X175813D02*
D03*
X490935Y153500D02*
D03*
X413935D02*
D03*
X490935Y121500D02*
D03*
X413935D02*
D03*
X729060Y153500D02*
D03*
X652060D02*
D03*
X729060Y121500D02*
D03*
X652060D02*
D03*
X1443435Y153500D02*
D03*
X1366435D02*
D03*
X1443435Y121500D02*
D03*
X1366435D02*
D03*
X2134002Y153500D02*
D03*
X2057003D02*
D03*
X2134002Y121500D02*
D03*
X2057003D02*
D03*
X2324500Y153500D02*
D03*
X2247500D02*
D03*
X2324500Y121500D02*
D03*
X2247500D02*
D03*
X2515000Y153500D02*
D03*
X2438000D02*
D03*
X2515000Y121500D02*
D03*
X2438000D02*
D03*
X2705500Y153500D02*
D03*
X2628500D02*
D03*
X2705500Y121500D02*
D03*
X2628500D02*
D03*
X961620Y312000D02*
D03*
X1038620D02*
D03*
X961620Y344000D02*
D03*
X1038620D02*
D03*
X2557060Y312000D02*
D03*
X2634060D02*
D03*
X2557060Y344000D02*
D03*
X2634060D02*
D03*
X2295120Y312000D02*
D03*
X2372120D02*
D03*
X2295120Y344000D02*
D03*
X2372120D02*
D03*
X2104620Y312000D02*
D03*
X2181620D02*
D03*
X2104620Y344000D02*
D03*
X2181620D02*
D03*
X1914120Y312000D02*
D03*
X1991120D02*
D03*
X1914120Y344000D02*
D03*
X1991120D02*
D03*
X1723620Y312000D02*
D03*
X1800620D02*
D03*
X1723620Y344000D02*
D03*
X1800620D02*
D03*
X2896000Y153500D02*
D03*
X2819000D02*
D03*
X2896000Y121500D02*
D03*
X2819000D02*
D03*
X3086500Y153500D02*
D03*
X3009500D02*
D03*
X3086500Y121500D02*
D03*
X3009500D02*
D03*
Y312000D02*
D03*
X3086500D02*
D03*
X3009500Y344000D02*
D03*
X3086500D02*
D03*
X2819000Y312000D02*
D03*
X2896000D02*
D03*
X2819000Y344000D02*
D03*
X2896000D02*
D03*
X1533120Y312000D02*
D03*
X1610120D02*
D03*
X1533120Y344000D02*
D03*
X1610120D02*
D03*
X1342620Y312000D02*
D03*
X1419620D02*
D03*
X1342620Y344000D02*
D03*
X1419620D02*
D03*
X1152120Y312000D02*
D03*
X1229120D02*
D03*
X1152120Y344000D02*
D03*
X1229120D02*
D03*
X1895880Y534500D02*
D03*
X1818880D02*
D03*
X1895880Y502500D02*
D03*
X1818880D02*
D03*
X771120Y312000D02*
D03*
X848120D02*
D03*
X771120Y344000D02*
D03*
X848120D02*
D03*
X271063Y312000D02*
D03*
X348062D02*
D03*
X271063Y344000D02*
D03*
X348062D02*
D03*
X580623Y312000D02*
D03*
X657623D02*
D03*
X580623Y344000D02*
D03*
X657623D02*
D03*
X1324380Y534500D02*
D03*
X1247380D02*
D03*
X1324380Y502500D02*
D03*
X1247380D02*
D03*
X1133880Y534500D02*
D03*
X1056880D02*
D03*
X1133880Y502500D02*
D03*
X1056880D02*
D03*
X943380Y534500D02*
D03*
X866380D02*
D03*
X943380Y502500D02*
D03*
X866380D02*
D03*
X1705380Y534500D02*
D03*
X1628380D02*
D03*
X1705380Y502500D02*
D03*
X1628380D02*
D03*
X1514880Y534500D02*
D03*
X1437880D02*
D03*
X1514880Y502500D02*
D03*
X1437880D02*
D03*
X752880Y534500D02*
D03*
X675880D02*
D03*
X752880Y502500D02*
D03*
X675880D02*
D03*
X562380Y534500D02*
D03*
X485380D02*
D03*
X562380Y502500D02*
D03*
X485380D02*
D03*
X300437Y534500D02*
D03*
X223438D02*
D03*
X300437Y502500D02*
D03*
X223438D02*
D03*
X2086380Y534500D02*
D03*
X2009380D02*
D03*
X2086380Y502500D02*
D03*
X2009380D02*
D03*
X2467380Y534500D02*
D03*
X2390380D02*
D03*
X2467380Y502500D02*
D03*
X2390380D02*
D03*
X2276880Y534500D02*
D03*
X2199880D02*
D03*
X2276880Y502500D02*
D03*
X2199880D02*
D03*
X2776942Y534500D02*
D03*
X2699942D02*
D03*
X2776942Y502500D02*
D03*
X2699942D02*
D03*
X3086500Y534500D02*
D03*
X3009500D02*
D03*
X3086500Y502500D02*
D03*
X3009500D02*
D03*
Y693000D02*
D03*
X3086500D02*
D03*
X3009500Y725000D02*
D03*
X3086500D02*
D03*
X2771380Y693000D02*
D03*
X2848380D02*
D03*
X2771380Y725000D02*
D03*
X2848380D02*
D03*
X2533250Y693000D02*
D03*
X2610250D02*
D03*
X2533250Y725000D02*
D03*
X2610250D02*
D03*
X1771250Y693000D02*
D03*
X1848250D02*
D03*
X1771250Y725000D02*
D03*
X1848250D02*
D03*
X1580750Y693000D02*
D03*
X1657750D02*
D03*
X1580750Y725000D02*
D03*
X1657750D02*
D03*
X1390250Y693000D02*
D03*
X1467250D02*
D03*
X1390250Y725000D02*
D03*
X1467250D02*
D03*
X628250Y693000D02*
D03*
X705250D02*
D03*
X628250Y725000D02*
D03*
X705250D02*
D03*
X1199750Y693000D02*
D03*
X1276750D02*
D03*
X1199750Y725000D02*
D03*
X1276750D02*
D03*
X1009250Y693000D02*
D03*
X1086250D02*
D03*
X1009250Y725000D02*
D03*
X1086250D02*
D03*
X818750Y693000D02*
D03*
X895750D02*
D03*
X818750Y725000D02*
D03*
X895750D02*
D03*
X2342750Y693000D02*
D03*
X2419750D02*
D03*
X2342750Y725000D02*
D03*
X2419750D02*
D03*
X2152250Y693000D02*
D03*
X2229250D02*
D03*
X2152250Y725000D02*
D03*
X2229250D02*
D03*
X1961750Y693000D02*
D03*
X2038750D02*
D03*
X1961750Y725000D02*
D03*
X2038750D02*
D03*
X2134002Y915500D02*
D03*
X2057003D02*
D03*
X2134002Y883500D02*
D03*
X2057003D02*
D03*
X2800750Y915500D02*
D03*
X2723750D02*
D03*
X2800750Y883500D02*
D03*
X2723750D02*
D03*
X437750Y693000D02*
D03*
X514750D02*
D03*
X437750Y725000D02*
D03*
X514750D02*
D03*
X229000Y915500D02*
D03*
X152000D02*
D03*
X229000Y883500D02*
D03*
X152000D02*
D03*
X199625Y693000D02*
D03*
X276625D02*
D03*
X199625Y725000D02*
D03*
X276625D02*
D03*
X419500Y915500D02*
D03*
X342500D02*
D03*
X419500Y883500D02*
D03*
X342500D02*
D03*
X991000Y915500D02*
D03*
X914000D02*
D03*
X991000Y883500D02*
D03*
X914000D02*
D03*
X800500Y915500D02*
D03*
X723500D02*
D03*
X800500Y883500D02*
D03*
X723500D02*
D03*
X610000Y915500D02*
D03*
X533000D02*
D03*
X610000Y883500D02*
D03*
X533000D02*
D03*
X1562500Y915500D02*
D03*
X1485500D02*
D03*
X1562500Y883500D02*
D03*
X1485500D02*
D03*
X1753000Y915500D02*
D03*
X1676000D02*
D03*
X1753000Y883500D02*
D03*
X1676000D02*
D03*
X2515000Y915500D02*
D03*
X2438000D02*
D03*
X2515000Y883500D02*
D03*
X2438000D02*
D03*
X3086500Y915500D02*
D03*
X3009500D02*
D03*
X3086500Y883500D02*
D03*
X3009500D02*
D03*
X2324500Y915500D02*
D03*
X2247500D02*
D03*
X2324500Y883500D02*
D03*
X2247500D02*
D03*
X1943500Y915500D02*
D03*
X1866500D02*
D03*
X1943500Y883500D02*
D03*
X1866500D02*
D03*
X1372000Y915500D02*
D03*
X1295000D02*
D03*
X1372000Y883500D02*
D03*
X1295000D02*
D03*
X1181500Y915500D02*
D03*
X1104500D02*
D03*
X1181500Y883500D02*
D03*
X1104500D02*
D03*
X2819000Y1074000D02*
D03*
X2896000D02*
D03*
X2819000Y1106000D02*
D03*
X2896000D02*
D03*
X2438000Y1074000D02*
D03*
X2515000D02*
D03*
X2438000Y1106000D02*
D03*
X2515000D02*
D03*
X914000Y1074000D02*
D03*
X991000D02*
D03*
X914000Y1106000D02*
D03*
X991000D02*
D03*
X2247500Y1074000D02*
D03*
X2324500D02*
D03*
X2247500Y1106000D02*
D03*
X2324500D02*
D03*
X1866500Y1074000D02*
D03*
X1943500D02*
D03*
X1866500Y1106000D02*
D03*
X1943500D02*
D03*
X2057000Y1074000D02*
D03*
X2134000D02*
D03*
X2057000Y1106000D02*
D03*
X2134000D02*
D03*
X1104500Y1074000D02*
D03*
X1181500D02*
D03*
X1104500Y1106000D02*
D03*
X1181500D02*
D03*
X1485500Y1074000D02*
D03*
X1562500D02*
D03*
X1485500Y1106000D02*
D03*
X1562500D02*
D03*
X723500Y1074000D02*
D03*
X800500D02*
D03*
X723500Y1106000D02*
D03*
X800500D02*
D03*
X342500Y1074000D02*
D03*
X419500D02*
D03*
X342500Y1106000D02*
D03*
X419500D02*
D03*
X3009500Y1074000D02*
D03*
X3086500D02*
D03*
X3009500Y1106000D02*
D03*
X3086500D02*
D03*
X2628500Y1074000D02*
D03*
X2705500D02*
D03*
X2628500Y1106000D02*
D03*
X2705500D02*
D03*
X1676000Y1074000D02*
D03*
X1753000D02*
D03*
X1676000Y1106000D02*
D03*
X1753000D02*
D03*
X1295000Y1074000D02*
D03*
X1372000D02*
D03*
X1295000Y1106000D02*
D03*
X1372000D02*
D03*
X533000Y1074000D02*
D03*
X610000D02*
D03*
X533000Y1106000D02*
D03*
X610000D02*
D03*
X152000Y1074000D02*
D03*
X229000D02*
D03*
X152000Y1106000D02*
D03*
X229000D02*
D03*
D75*
X2224090Y365250D02*
D03*
Y396750D02*
D03*
X2938465Y365250D02*
D03*
Y396750D02*
D03*
X2676520Y365250D02*
D03*
Y396750D02*
D03*
X1462090Y365250D02*
D03*
Y396750D02*
D03*
X1081090Y365250D02*
D03*
Y396750D02*
D03*
X700090Y365250D02*
D03*
Y396750D02*
D03*
X1843090Y365250D02*
D03*
Y396750D02*
D03*
X3128960Y365250D02*
D03*
Y396750D02*
D03*
X2414590Y365250D02*
D03*
Y396750D02*
D03*
X390520Y365250D02*
D03*
Y396750D02*
D03*
X1652590Y365250D02*
D03*
Y396750D02*
D03*
X1271590Y365250D02*
D03*
Y396750D02*
D03*
X2033590Y365250D02*
D03*
Y396750D02*
D03*
X890590Y365250D02*
D03*
Y396750D02*
D03*
X1747840Y555750D02*
D03*
Y587250D02*
D03*
X2509840Y555750D02*
D03*
Y587250D02*
D03*
X2128840Y555750D02*
D03*
Y587250D02*
D03*
X604840Y555750D02*
D03*
Y587250D02*
D03*
X1366840Y555750D02*
D03*
Y587250D02*
D03*
X985840Y555750D02*
D03*
Y587250D02*
D03*
X842960Y936750D02*
D03*
Y968250D02*
D03*
X461960Y936750D02*
D03*
Y968250D02*
D03*
X2938460Y174750D02*
D03*
Y206250D02*
D03*
X2557470Y174750D02*
D03*
Y206250D02*
D03*
X2176470Y174750D02*
D03*
Y206250D02*
D03*
X1485910Y174750D02*
D03*
Y206250D02*
D03*
X771520Y174750D02*
D03*
Y206250D02*
D03*
X295270Y174750D02*
D03*
Y206250D02*
D03*
X3128960Y174750D02*
D03*
Y206250D02*
D03*
X2747957Y174750D02*
D03*
Y206250D02*
D03*
X2366960Y174750D02*
D03*
Y206250D02*
D03*
X533400Y174750D02*
D03*
Y206250D02*
D03*
X2319340Y555750D02*
D03*
Y587250D02*
D03*
X1938340Y555750D02*
D03*
Y587250D02*
D03*
X1557340Y555750D02*
D03*
Y587250D02*
D03*
X1176340Y555750D02*
D03*
Y587250D02*
D03*
X795340Y555750D02*
D03*
Y587250D02*
D03*
X342900Y555750D02*
D03*
Y587250D02*
D03*
X3128960Y555750D02*
D03*
Y587250D02*
D03*
X2819400Y555750D02*
D03*
Y587250D02*
D03*
X2462210Y746250D02*
D03*
Y777750D02*
D03*
X1128710Y746250D02*
D03*
Y777750D02*
D03*
X747710Y746250D02*
D03*
Y777750D02*
D03*
X1890710Y746250D02*
D03*
Y777750D02*
D03*
X1509710Y746250D02*
D03*
Y777750D02*
D03*
X319080Y746250D02*
D03*
Y777750D02*
D03*
X1700210Y746250D02*
D03*
Y777750D02*
D03*
X1319210Y746250D02*
D03*
Y777750D02*
D03*
X3128960Y746250D02*
D03*
Y777750D02*
D03*
X557210Y746250D02*
D03*
Y777750D02*
D03*
X2081210Y746250D02*
D03*
Y777750D02*
D03*
X2271710Y746250D02*
D03*
Y777750D02*
D03*
X2890840Y746250D02*
D03*
Y777750D02*
D03*
X938210Y746250D02*
D03*
Y777750D02*
D03*
X2652710Y746250D02*
D03*
Y777750D02*
D03*
X1795460Y936750D02*
D03*
Y968250D02*
D03*
X2557460Y936750D02*
D03*
Y968250D02*
D03*
X2176460Y936750D02*
D03*
Y968250D02*
D03*
X652460Y936750D02*
D03*
Y968250D02*
D03*
X1414460Y936750D02*
D03*
Y968250D02*
D03*
X1033460Y936750D02*
D03*
Y968250D02*
D03*
X2366960Y936750D02*
D03*
Y968250D02*
D03*
X2843210Y936750D02*
D03*
Y968250D02*
D03*
X3128960Y936750D02*
D03*
Y968250D02*
D03*
X1223960Y936750D02*
D03*
Y968250D02*
D03*
X271462Y936750D02*
D03*
Y968250D02*
D03*
X1985960Y936750D02*
D03*
Y968250D02*
D03*
X1604960Y936750D02*
D03*
Y968250D02*
D03*
X2557460Y1127250D02*
D03*
Y1158750D02*
D03*
X1795460Y1127250D02*
D03*
Y1158750D02*
D03*
X2938460Y1127250D02*
D03*
Y1158750D02*
D03*
X1414460Y1127250D02*
D03*
Y1158750D02*
D03*
X2176460Y1127250D02*
D03*
Y1158750D02*
D03*
X1033460Y1127250D02*
D03*
Y1158750D02*
D03*
X652460Y1127250D02*
D03*
Y1158750D02*
D03*
X1985960Y1127250D02*
D03*
Y1158750D02*
D03*
X2747960Y1127250D02*
D03*
Y1158750D02*
D03*
X2366960Y1127250D02*
D03*
Y1158750D02*
D03*
X3128960Y1127250D02*
D03*
Y1158750D02*
D03*
X461960Y1127250D02*
D03*
Y1158750D02*
D03*
X1223960Y1127250D02*
D03*
Y1158750D02*
D03*
X1604960Y1127250D02*
D03*
Y1158750D02*
D03*
X842960Y1127250D02*
D03*
Y1158750D02*
D03*
X271462Y1127250D02*
D03*
Y1158750D02*
D03*
M02*
