G04*
G04 #@! TF.GenerationSoftware,Altium Limited,Altium Designer,18.1.9 (240)*
G04*
G04 Layer_Color=2752767*
%FSLAX44Y44*%
%MOMM*%
G71*
G01*
G75*
%ADD126C,0.0508*%
%ADD127C,0.0677*%
%ADD128C,0.0339*%
D126*
X127968Y47968D02*
Y52032D01*
X132032D01*
Y47968D01*
X127968D01*
X3097968D02*
Y52032D01*
X3102032D01*
Y47968D01*
X3097968D01*
Y1397968D02*
Y1402032D01*
X3102032D01*
Y1397968D01*
X3097968D01*
X127968D02*
Y1402032D01*
X132032D01*
Y1397968D01*
X127968D01*
X431800Y1140968D02*
X429768Y1145032D01*
X433832D01*
X431800Y1140968D01*
X330200D02*
X328168Y1145032D01*
X332232D01*
X330200Y1140968D01*
X406400Y1191768D02*
X407416Y1192784D01*
X408432D01*
X407416Y1193800D01*
X408432Y1194816D01*
X407416D01*
X406400Y1195832D01*
X405384Y1194816D01*
X404368D01*
X405384Y1193800D01*
X404368Y1192784D01*
X405384D01*
X406400Y1191768D01*
X342900Y1166368D02*
X343916Y1167384D01*
X344932D01*
X343916Y1168400D01*
X344932Y1169416D01*
X343916D01*
X342900Y1170432D01*
X341884Y1169416D01*
X340868D01*
X341884Y1168400D01*
X340868Y1167384D01*
X341884D01*
X342900Y1166368D01*
X2622550Y759968D02*
X2620518Y764032D01*
X2624582D01*
X2622550Y759968D01*
X2520950D02*
X2518918Y764032D01*
X2522982D01*
X2520950Y759968D01*
X2597150Y810768D02*
X2598166Y811784D01*
X2599182D01*
X2598166Y812800D01*
X2599182Y813816D01*
X2598166D01*
X2597150Y814832D01*
X2596134Y813816D01*
X2595118D01*
X2596134Y812800D01*
X2595118Y811784D01*
X2596134D01*
X2597150Y810768D01*
X2533650Y785368D02*
X2534666Y786384D01*
X2535682D01*
X2534666Y787400D01*
X2535682Y788416D01*
X2534666D01*
X2533650Y789432D01*
X2532634Y788416D01*
X2531618D01*
X2532634Y787400D01*
X2531618Y786384D01*
X2532634D01*
X2533650Y785368D01*
X652465Y213868D02*
X653481Y214884D01*
X654497D01*
X653481Y215900D01*
X654497Y216916D01*
X653481D01*
X652465Y217932D01*
X651449Y216916D01*
X650433D01*
X651449Y215900D01*
X650433Y214884D01*
X651449D01*
X652465Y213868D01*
X715965Y239268D02*
X716981Y240284D01*
X717997D01*
X716981Y241300D01*
X717997Y242316D01*
X716981D01*
X715965Y243332D01*
X714949Y242316D01*
X713933D01*
X714949Y241300D01*
X713933Y240284D01*
X714949D01*
X715965Y239268D01*
X639765Y188468D02*
X637733Y192532D01*
X641797D01*
X639765Y188468D01*
X741365D02*
X739333Y192532D01*
X743397D01*
X741365Y188468D01*
X414335Y213868D02*
X415351Y214884D01*
X416367D01*
X415351Y215900D01*
X416367Y216916D01*
X415351D01*
X414335Y217932D01*
X413319Y216916D01*
X412303D01*
X413319Y215900D01*
X412303Y214884D01*
X413319D01*
X414335Y213868D01*
X477835Y239268D02*
X478851Y240284D01*
X479867D01*
X478851Y241300D01*
X479867Y242316D01*
X478851D01*
X477835Y243332D01*
X476819Y242316D01*
X475803D01*
X476819Y241300D01*
X475803Y240284D01*
X476819D01*
X477835Y239268D01*
X401635Y188468D02*
X399603Y192532D01*
X403667D01*
X401635Y188468D01*
X503235D02*
X501203Y192532D01*
X505267D01*
X503235Y188468D01*
X176213Y213868D02*
X177229Y214884D01*
X178244D01*
X177229Y215900D01*
X178244Y216916D01*
X177229D01*
X176213Y217932D01*
X175196Y216916D01*
X174181D01*
X175196Y215900D01*
X174181Y214884D01*
X175196D01*
X176213Y213868D01*
X239713Y239268D02*
X240728Y240284D01*
X241744D01*
X240728Y241300D01*
X241744Y242316D01*
X240728D01*
X239713Y243332D01*
X238696Y242316D01*
X237680D01*
X238696Y241300D01*
X237680Y240284D01*
X238696D01*
X239713Y239268D01*
X163512Y188468D02*
X161481Y192532D01*
X165544D01*
X163512Y188468D01*
X265112D02*
X263081Y192532D01*
X267145D01*
X265112Y188468D01*
X188151Y461518D02*
X189167Y463550D01*
X188151Y465582D01*
X190182Y464566D01*
X192215Y465582D01*
X191199Y463550D01*
X192215Y461518D01*
X190182Y462534D01*
X188151Y461518D01*
X360363Y378968D02*
X358330Y383032D01*
X362394D01*
X360363Y378968D01*
X258762D02*
X256730Y383032D01*
X260795D01*
X258762Y378968D01*
X334963Y429768D02*
X335979Y430784D01*
X336995D01*
X335979Y431800D01*
X336995Y432816D01*
X335979D01*
X334963Y433832D01*
X333946Y432816D01*
X332930D01*
X333946Y431800D01*
X332930Y430784D01*
X333946D01*
X334963Y429768D01*
X271462Y404368D02*
X272479Y405384D01*
X273494D01*
X272479Y406400D01*
X273494Y407416D01*
X272479D01*
X271462Y408432D01*
X270446Y407416D01*
X269431D01*
X270446Y406400D01*
X269431Y405384D01*
X270446D01*
X271462Y404368D01*
X189167Y310134D02*
Y309118D01*
X191199D01*
Y310134D01*
X192215D01*
Y312166D01*
X191199D01*
Y313182D01*
X189167D01*
Y312166D01*
X188151D01*
Y310134D01*
X189167D01*
X426911Y461518D02*
X427926Y463550D01*
X426911Y465582D01*
X428942Y464566D01*
X430975Y465582D01*
X429958Y463550D01*
X430975Y461518D01*
X428942Y462534D01*
X426911Y461518D01*
X427926Y310134D02*
Y309118D01*
X429958D01*
Y310134D01*
X430975D01*
Y312166D01*
X429958D01*
Y313182D01*
X427926D01*
Y312166D01*
X426911D01*
Y310134D01*
X427926D01*
X312738Y569468D02*
X310706Y573532D01*
X314769D01*
X312738Y569468D01*
X211138D02*
X209105Y573532D01*
X213169D01*
X211138Y569468D01*
X287337Y620268D02*
X288354Y621284D01*
X289370D01*
X288354Y622300D01*
X289370Y623316D01*
X288354D01*
X287337Y624332D01*
X286322Y623316D01*
X285306D01*
X286322Y622300D01*
X285306Y621284D01*
X286322D01*
X287337Y620268D01*
X223838Y594868D02*
X224853Y595884D01*
X225870D01*
X224853Y596900D01*
X225870Y597916D01*
X224853D01*
X223838Y598932D01*
X222822Y597916D01*
X221805D01*
X222822Y596900D01*
X221805Y595884D01*
X222822D01*
X223838Y594868D01*
X288925Y759968D02*
X286893Y764032D01*
X290957D01*
X288925Y759968D01*
X187325D02*
X185293Y764032D01*
X189357D01*
X187325Y759968D01*
X263525Y810768D02*
X264541Y811784D01*
X265557D01*
X264541Y812800D01*
X265557Y813816D01*
X264541D01*
X263525Y814832D01*
X262509Y813816D01*
X261493D01*
X262509Y812800D01*
X261493Y811784D01*
X262509D01*
X263525Y810768D01*
X200025Y785368D02*
X201041Y786384D01*
X202057D01*
X201041Y787400D01*
X202057Y788416D01*
X201041D01*
X200025Y789432D01*
X199009Y788416D01*
X197993D01*
X199009Y787400D01*
X197993Y786384D01*
X199009D01*
X200025Y785368D01*
X2880614Y881634D02*
Y880618D01*
X2882646D01*
Y881634D01*
X2883662D01*
Y883666D01*
X2882646D01*
Y884682D01*
X2880614D01*
Y883666D01*
X2879598D01*
Y881634D01*
X2880614D01*
X2879598Y1033018D02*
X2880614Y1035050D01*
X2879598Y1037082D01*
X2881630Y1036066D01*
X2883662Y1037082D01*
X2882646Y1035050D01*
X2883662Y1033018D01*
X2881630Y1034034D01*
X2879598Y1033018D01*
X2641854Y881634D02*
Y880618D01*
X2643886D01*
Y881634D01*
X2644902D01*
Y883666D01*
X2643886D01*
Y884682D01*
X2641854D01*
Y883666D01*
X2640838D01*
Y881634D01*
X2641854D01*
X2640838Y1033018D02*
X2641854Y1035050D01*
X2640838Y1037082D01*
X2642870Y1036066D01*
X2644902Y1037082D01*
X2643886Y1035050D01*
X2644902Y1033018D01*
X2642870Y1034034D01*
X2640838Y1033018D01*
X2724150Y975868D02*
X2725166Y976884D01*
X2726182D01*
X2725166Y977900D01*
X2726182Y978916D01*
X2725166D01*
X2724150Y979932D01*
X2723134Y978916D01*
X2722118D01*
X2723134Y977900D01*
X2722118Y976884D01*
X2723134D01*
X2724150Y975868D01*
X2787650Y1001268D02*
X2788666Y1002284D01*
X2789682D01*
X2788666Y1003300D01*
X2789682Y1004316D01*
X2788666D01*
X2787650Y1005332D01*
X2786634Y1004316D01*
X2785618D01*
X2786634Y1003300D01*
X2785618Y1002284D01*
X2786634D01*
X2787650Y1001268D01*
X2711450Y950468D02*
X2709418Y954532D01*
X2713482D01*
X2711450Y950468D01*
X2813050D02*
X2811018Y954532D01*
X2815082D01*
X2813050Y950468D01*
X2860675Y759968D02*
X2858643Y764032D01*
X2862707D01*
X2860675Y759968D01*
X2759075D02*
X2757043Y764032D01*
X2761107D01*
X2759075Y759968D01*
X2835275Y810768D02*
X2836291Y811784D01*
X2837307D01*
X2836291Y812800D01*
X2837307Y813816D01*
X2836291D01*
X2835275Y814832D01*
X2834259Y813816D01*
X2833243D01*
X2834259Y812800D01*
X2833243Y811784D01*
X2834259D01*
X2835275Y810768D01*
X2771775Y785368D02*
X2772791Y786384D01*
X2773807D01*
X2772791Y787400D01*
X2773807Y788416D01*
X2772791D01*
X2771775Y789432D01*
X2770759Y788416D01*
X2769743D01*
X2770759Y787400D01*
X2769743Y786384D01*
X2770759D01*
X2771775Y785368D01*
X2617031Y652018D02*
X2618047Y654050D01*
X2617031Y656082D01*
X2619062Y655066D01*
X2621095Y656082D01*
X2620079Y654050D01*
X2621095Y652018D01*
X2619062Y653034D01*
X2617031Y652018D01*
X2789243Y569468D02*
X2787211Y573532D01*
X2791275D01*
X2789243Y569468D01*
X2687643D02*
X2685611Y573532D01*
X2689675D01*
X2687643Y569468D01*
X2763842Y620268D02*
X2764859Y621284D01*
X2765875D01*
X2764859Y622300D01*
X2765875Y623316D01*
X2764859D01*
X2763842Y624332D01*
X2762827Y623316D01*
X2761811D01*
X2762827Y622300D01*
X2761811Y621284D01*
X2762827D01*
X2763842Y620268D01*
X2700343Y594868D02*
X2701359Y595884D01*
X2702375D01*
X2701359Y596900D01*
X2702375Y597916D01*
X2701359D01*
X2700343Y598932D01*
X2699326Y597916D01*
X2698311D01*
X2699326Y596900D01*
X2698311Y595884D01*
X2699326D01*
X2700343Y594868D01*
X2618047Y500634D02*
Y499618D01*
X2620079D01*
Y500634D01*
X2621095D01*
Y502666D01*
X2620079D01*
Y503682D01*
X2618047D01*
Y502666D01*
X2617031D01*
Y500634D01*
X2618047D01*
X2855791Y652018D02*
X2856807Y654050D01*
X2855791Y656082D01*
X2857823Y655066D01*
X2859855Y656082D01*
X2858839Y654050D01*
X2859855Y652018D01*
X2857823Y653034D01*
X2855791Y652018D01*
X2856807Y500634D02*
Y499618D01*
X2858839D01*
Y500634D01*
X2859855D01*
Y502666D01*
X2858839D01*
Y503682D01*
X2856807D01*
Y502666D01*
X2855791D01*
Y500634D01*
X2856807D01*
X2646357Y378968D02*
X2644325Y383032D01*
X2648389D01*
X2646357Y378968D01*
X2544757D02*
X2542725Y383032D01*
X2546789D01*
X2544757Y378968D01*
X2620957Y429768D02*
X2621973Y430784D01*
X2622990D01*
X2621973Y431800D01*
X2622990Y432816D01*
X2621973D01*
X2620957Y433832D01*
X2619941Y432816D01*
X2618925D01*
X2619941Y431800D01*
X2618925Y430784D01*
X2619941D01*
X2620957Y429768D01*
X2557457Y404368D02*
X2558473Y405384D01*
X2559489D01*
X2558473Y406400D01*
X2559489Y407416D01*
X2558473D01*
X2557457Y408432D01*
X2556441Y407416D01*
X2555425D01*
X2556441Y406400D01*
X2555425Y405384D01*
X2556441D01*
X2557457Y404368D01*
X1455735Y188468D02*
X1453703Y192532D01*
X1457767D01*
X1455735Y188468D01*
X1354135D02*
X1352103Y192532D01*
X1356167D01*
X1354135Y188468D01*
X1430335Y239268D02*
X1431351Y240284D01*
X1432367D01*
X1431351Y241300D01*
X1432367Y242316D01*
X1431351D01*
X1430335Y243332D01*
X1429319Y242316D01*
X1428303D01*
X1429319Y241300D01*
X1428303Y240284D01*
X1429319D01*
X1430335Y239268D01*
X1366835Y213868D02*
X1367851Y214884D01*
X1368867D01*
X1367851Y215900D01*
X1368867Y216916D01*
X1367851D01*
X1366835Y217932D01*
X1365819Y216916D01*
X1364803D01*
X1365819Y215900D01*
X1364803Y214884D01*
X1365819D01*
X1366835Y213868D01*
X902903Y271018D02*
X903919Y273050D01*
X902903Y275082D01*
X904935Y274066D01*
X906967Y275082D01*
X905951Y273050D01*
X906967Y271018D01*
X904935Y272034D01*
X902903Y271018D01*
X903919Y119634D02*
Y118618D01*
X905951D01*
Y119634D01*
X906967D01*
Y121666D01*
X905951D01*
Y122682D01*
X903919D01*
Y121666D01*
X902903D01*
Y119634D01*
X903919D01*
X1902903Y271018D02*
X1903919Y273050D01*
X1902903Y275082D01*
X1904935Y274066D01*
X1906967Y275082D01*
X1905951Y273050D01*
X1906967Y271018D01*
X1904935Y272034D01*
X1902903Y271018D01*
X1903919Y119634D02*
Y118618D01*
X1905951D01*
Y119634D01*
X1906967D01*
Y121666D01*
X1905951D01*
Y122682D01*
X1903919D01*
Y121666D01*
X1902903D01*
Y119634D01*
X1903919D01*
X152400Y1166368D02*
X153416Y1167384D01*
X154432D01*
X153416Y1168400D01*
X154432Y1169416D01*
X153416D01*
X152400Y1170432D01*
X151384Y1169416D01*
X150368D01*
X151384Y1168400D01*
X150368Y1167384D01*
X151384D01*
X152400Y1166368D01*
X215900Y1191768D02*
X216916Y1192784D01*
X217932D01*
X216916Y1193800D01*
X217932Y1194816D01*
X216916D01*
X215900Y1195832D01*
X214884Y1194816D01*
X213868D01*
X214884Y1193800D01*
X213868Y1192784D01*
X214884D01*
X215900Y1191768D01*
X139700Y1140968D02*
X137668Y1145032D01*
X141732D01*
X139700Y1140968D01*
X241300D02*
X239268Y1145032D01*
X243332D01*
X241300Y1140968D01*
X533400Y1166368D02*
X534416Y1167384D01*
X535432D01*
X534416Y1168400D01*
X535432Y1169416D01*
X534416D01*
X533400Y1170432D01*
X532384Y1169416D01*
X531368D01*
X532384Y1168400D01*
X531368Y1167384D01*
X532384D01*
X533400Y1166368D01*
X596900Y1191768D02*
X597916Y1192784D01*
X598932D01*
X597916Y1193800D01*
X598932Y1194816D01*
X597916D01*
X596900Y1195832D01*
X595884Y1194816D01*
X594868D01*
X595884Y1193800D01*
X594868Y1192784D01*
X595884D01*
X596900Y1191768D01*
X520700Y1140968D02*
X518668Y1145032D01*
X522732D01*
X520700Y1140968D01*
X622300D02*
X620268Y1145032D01*
X624332D01*
X622300Y1140968D01*
X723900Y1166368D02*
X724916Y1167384D01*
X725932D01*
X724916Y1168400D01*
X725932Y1169416D01*
X724916D01*
X723900Y1170432D01*
X722884Y1169416D01*
X721868D01*
X722884Y1168400D01*
X721868Y1167384D01*
X722884D01*
X723900Y1166368D01*
X787400Y1191768D02*
X788416Y1192784D01*
X789432D01*
X788416Y1193800D01*
X789432Y1194816D01*
X788416D01*
X787400Y1195832D01*
X786384Y1194816D01*
X785368D01*
X786384Y1193800D01*
X785368Y1192784D01*
X786384D01*
X787400Y1191768D01*
X711200Y1140968D02*
X709168Y1145032D01*
X713232D01*
X711200Y1140968D01*
X812800D02*
X810768Y1145032D01*
X814832D01*
X812800Y1140968D01*
X914400Y1166368D02*
X915416Y1167384D01*
X916432D01*
X915416Y1168400D01*
X916432Y1169416D01*
X915416D01*
X914400Y1170432D01*
X913384Y1169416D01*
X912368D01*
X913384Y1168400D01*
X912368Y1167384D01*
X913384D01*
X914400Y1166368D01*
X977900Y1191768D02*
X978916Y1192784D01*
X979932D01*
X978916Y1193800D01*
X979932Y1194816D01*
X978916D01*
X977900Y1195832D01*
X976884Y1194816D01*
X975868D01*
X976884Y1193800D01*
X975868Y1192784D01*
X976884D01*
X977900Y1191768D01*
X901700Y1140968D02*
X899668Y1145032D01*
X903732D01*
X901700Y1140968D01*
X1003300D02*
X1001268Y1145032D01*
X1005332D01*
X1003300Y1140968D01*
X1104900Y1166368D02*
X1105916Y1167384D01*
X1106932D01*
X1105916Y1168400D01*
X1106932Y1169416D01*
X1105916D01*
X1104900Y1170432D01*
X1103884Y1169416D01*
X1102868D01*
X1103884Y1168400D01*
X1102868Y1167384D01*
X1103884D01*
X1104900Y1166368D01*
X1168400Y1191768D02*
X1169416Y1192784D01*
X1170432D01*
X1169416Y1193800D01*
X1170432Y1194816D01*
X1169416D01*
X1168400Y1195832D01*
X1167384Y1194816D01*
X1166368D01*
X1167384Y1193800D01*
X1166368Y1192784D01*
X1167384D01*
X1168400Y1191768D01*
X1092200Y1140968D02*
X1090168Y1145032D01*
X1094232D01*
X1092200Y1140968D01*
X1193800D02*
X1191768Y1145032D01*
X1195832D01*
X1193800Y1140968D01*
X1295400Y1166368D02*
X1296416Y1167384D01*
X1297432D01*
X1296416Y1168400D01*
X1297432Y1169416D01*
X1296416D01*
X1295400Y1170432D01*
X1294384Y1169416D01*
X1293368D01*
X1294384Y1168400D01*
X1293368Y1167384D01*
X1294384D01*
X1295400Y1166368D01*
X1358900Y1191768D02*
X1359916Y1192784D01*
X1360932D01*
X1359916Y1193800D01*
X1360932Y1194816D01*
X1359916D01*
X1358900Y1195832D01*
X1357884Y1194816D01*
X1356868D01*
X1357884Y1193800D01*
X1356868Y1192784D01*
X1357884D01*
X1358900Y1191768D01*
X1282700Y1140968D02*
X1280668Y1145032D01*
X1284732D01*
X1282700Y1140968D01*
X1384300D02*
X1382268Y1145032D01*
X1386332D01*
X1384300Y1140968D01*
X1485900Y1166368D02*
X1486916Y1167384D01*
X1487932D01*
X1486916Y1168400D01*
X1487932Y1169416D01*
X1486916D01*
X1485900Y1170432D01*
X1484884Y1169416D01*
X1483868D01*
X1484884Y1168400D01*
X1483868Y1167384D01*
X1484884D01*
X1485900Y1166368D01*
X1549400Y1191768D02*
X1550416Y1192784D01*
X1551432D01*
X1550416Y1193800D01*
X1551432Y1194816D01*
X1550416D01*
X1549400Y1195832D01*
X1548384Y1194816D01*
X1547368D01*
X1548384Y1193800D01*
X1547368Y1192784D01*
X1548384D01*
X1549400Y1191768D01*
X1473200Y1140968D02*
X1471168Y1145032D01*
X1475232D01*
X1473200Y1140968D01*
X1574800D02*
X1572768Y1145032D01*
X1576832D01*
X1574800Y1140968D01*
X1676400Y1166368D02*
X1677416Y1167384D01*
X1678432D01*
X1677416Y1168400D01*
X1678432Y1169416D01*
X1677416D01*
X1676400Y1170432D01*
X1675384Y1169416D01*
X1674368D01*
X1675384Y1168400D01*
X1674368Y1167384D01*
X1675384D01*
X1676400Y1166368D01*
X1739900Y1191768D02*
X1740916Y1192784D01*
X1741932D01*
X1740916Y1193800D01*
X1741932Y1194816D01*
X1740916D01*
X1739900Y1195832D01*
X1738884Y1194816D01*
X1737868D01*
X1738884Y1193800D01*
X1737868Y1192784D01*
X1738884D01*
X1739900Y1191768D01*
X1663700Y1140968D02*
X1661668Y1145032D01*
X1665732D01*
X1663700Y1140968D01*
X1765300D02*
X1763268Y1145032D01*
X1767332D01*
X1765300Y1140968D01*
X1866900Y1166368D02*
X1867916Y1167384D01*
X1868932D01*
X1867916Y1168400D01*
X1868932Y1169416D01*
X1867916D01*
X1866900Y1170432D01*
X1865884Y1169416D01*
X1864868D01*
X1865884Y1168400D01*
X1864868Y1167384D01*
X1865884D01*
X1866900Y1166368D01*
X1930400Y1191768D02*
X1931416Y1192784D01*
X1932432D01*
X1931416Y1193800D01*
X1932432Y1194816D01*
X1931416D01*
X1930400Y1195832D01*
X1929384Y1194816D01*
X1928368D01*
X1929384Y1193800D01*
X1928368Y1192784D01*
X1929384D01*
X1930400Y1191768D01*
X1854200Y1140968D02*
X1852168Y1145032D01*
X1856232D01*
X1854200Y1140968D01*
X1955800D02*
X1953768Y1145032D01*
X1957832D01*
X1955800Y1140968D01*
X2057400Y1166368D02*
X2058416Y1167384D01*
X2059432D01*
X2058416Y1168400D01*
X2059432Y1169416D01*
X2058416D01*
X2057400Y1170432D01*
X2056384Y1169416D01*
X2055368D01*
X2056384Y1168400D01*
X2055368Y1167384D01*
X2056384D01*
X2057400Y1166368D01*
X2120900Y1191768D02*
X2121916Y1192784D01*
X2122932D01*
X2121916Y1193800D01*
X2122932Y1194816D01*
X2121916D01*
X2120900Y1195832D01*
X2119884Y1194816D01*
X2118868D01*
X2119884Y1193800D01*
X2118868Y1192784D01*
X2119884D01*
X2120900Y1191768D01*
X2044700Y1140968D02*
X2042668Y1145032D01*
X2046732D01*
X2044700Y1140968D01*
X2146300D02*
X2144268Y1145032D01*
X2148332D01*
X2146300Y1140968D01*
X2247900Y1166368D02*
X2248916Y1167384D01*
X2249932D01*
X2248916Y1168400D01*
X2249932Y1169416D01*
X2248916D01*
X2247900Y1170432D01*
X2246884Y1169416D01*
X2245868D01*
X2246884Y1168400D01*
X2245868Y1167384D01*
X2246884D01*
X2247900Y1166368D01*
X2311400Y1191768D02*
X2312416Y1192784D01*
X2313432D01*
X2312416Y1193800D01*
X2313432Y1194816D01*
X2312416D01*
X2311400Y1195832D01*
X2310384Y1194816D01*
X2309368D01*
X2310384Y1193800D01*
X2309368Y1192784D01*
X2310384D01*
X2311400Y1191768D01*
X2235200Y1140968D02*
X2233168Y1145032D01*
X2237232D01*
X2235200Y1140968D01*
X2336800D02*
X2334768Y1145032D01*
X2338832D01*
X2336800Y1140968D01*
X2438400Y1166368D02*
X2439416Y1167384D01*
X2440432D01*
X2439416Y1168400D01*
X2440432Y1169416D01*
X2439416D01*
X2438400Y1170432D01*
X2437384Y1169416D01*
X2436368D01*
X2437384Y1168400D01*
X2436368Y1167384D01*
X2437384D01*
X2438400Y1166368D01*
X2501900Y1191768D02*
X2502916Y1192784D01*
X2503932D01*
X2502916Y1193800D01*
X2503932Y1194816D01*
X2502916D01*
X2501900Y1195832D01*
X2500884Y1194816D01*
X2499868D01*
X2500884Y1193800D01*
X2499868Y1192784D01*
X2500884D01*
X2501900Y1191768D01*
X2425700Y1140968D02*
X2423668Y1145032D01*
X2427732D01*
X2425700Y1140968D01*
X2527300D02*
X2525268Y1145032D01*
X2529332D01*
X2527300Y1140968D01*
X2628900Y1166368D02*
X2629916Y1167384D01*
X2630932D01*
X2629916Y1168400D01*
X2630932Y1169416D01*
X2629916D01*
X2628900Y1170432D01*
X2627884Y1169416D01*
X2626868D01*
X2627884Y1168400D01*
X2626868Y1167384D01*
X2627884D01*
X2628900Y1166368D01*
X2692400Y1191768D02*
X2693416Y1192784D01*
X2694432D01*
X2693416Y1193800D01*
X2694432Y1194816D01*
X2693416D01*
X2692400Y1195832D01*
X2691384Y1194816D01*
X2690368D01*
X2691384Y1193800D01*
X2690368Y1192784D01*
X2691384D01*
X2692400Y1191768D01*
X2616200Y1140968D02*
X2614168Y1145032D01*
X2618232D01*
X2616200Y1140968D01*
X2717800D02*
X2715768Y1145032D01*
X2719832D01*
X2717800Y1140968D01*
X2819400Y1166368D02*
X2820416Y1167384D01*
X2821432D01*
X2820416Y1168400D01*
X2821432Y1169416D01*
X2820416D01*
X2819400Y1170432D01*
X2818384Y1169416D01*
X2817368D01*
X2818384Y1168400D01*
X2817368Y1167384D01*
X2818384D01*
X2819400Y1166368D01*
X2882900Y1191768D02*
X2883916Y1192784D01*
X2884932D01*
X2883916Y1193800D01*
X2884932Y1194816D01*
X2883916D01*
X2882900Y1195832D01*
X2881884Y1194816D01*
X2880868D01*
X2881884Y1193800D01*
X2880868Y1192784D01*
X2881884D01*
X2882900Y1191768D01*
X2806700Y1140968D02*
X2804668Y1145032D01*
X2808732D01*
X2806700Y1140968D01*
X2908300D02*
X2906268Y1145032D01*
X2910332D01*
X2908300Y1140968D01*
X3009900Y1166368D02*
X3010916Y1167384D01*
X3011932D01*
X3010916Y1168400D01*
X3011932Y1169416D01*
X3010916D01*
X3009900Y1170432D01*
X3008884Y1169416D01*
X3007868D01*
X3008884Y1168400D01*
X3007868Y1167384D01*
X3008884D01*
X3009900Y1166368D01*
X3073400Y1191768D02*
X3074416Y1192784D01*
X3075432D01*
X3074416Y1193800D01*
X3075432Y1194816D01*
X3074416D01*
X3073400Y1195832D01*
X3072384Y1194816D01*
X3071368D01*
X3072384Y1193800D01*
X3071368Y1192784D01*
X3072384D01*
X3073400Y1191768D01*
X2997200Y1140968D02*
X2995168Y1145032D01*
X2999232D01*
X2997200Y1140968D01*
X3098800D02*
X3096768Y1145032D01*
X3100832D01*
X3098800Y1140968D01*
X342900Y975868D02*
X343916Y976884D01*
X344932D01*
X343916Y977900D01*
X344932Y978916D01*
X343916D01*
X342900Y979932D01*
X341884Y978916D01*
X340868D01*
X341884Y977900D01*
X340868Y976884D01*
X341884D01*
X342900Y975868D01*
X406400Y1001268D02*
X407416Y1002284D01*
X408432D01*
X407416Y1003300D01*
X408432Y1004316D01*
X407416D01*
X406400Y1005332D01*
X405384Y1004316D01*
X404368D01*
X405384Y1003300D01*
X404368Y1002284D01*
X405384D01*
X406400Y1001268D01*
X330200Y950468D02*
X328168Y954532D01*
X332232D01*
X330200Y950468D01*
X431800D02*
X429768Y954532D01*
X433832D01*
X431800Y950468D01*
X152400Y975868D02*
X153416Y976884D01*
X154432D01*
X153416Y977900D01*
X154432Y978916D01*
X153416D01*
X152400Y979932D01*
X151384Y978916D01*
X150368D01*
X151384Y977900D01*
X150368Y976884D01*
X151384D01*
X152400Y975868D01*
X215900Y1001268D02*
X216916Y1002284D01*
X217932D01*
X216916Y1003300D01*
X217932Y1004316D01*
X216916D01*
X215900Y1005332D01*
X214884Y1004316D01*
X213868D01*
X214884Y1003300D01*
X213868Y1002284D01*
X214884D01*
X215900Y1001268D01*
X139700Y950468D02*
X137668Y954532D01*
X141732D01*
X139700Y950468D01*
X241300D02*
X239268Y954532D01*
X243332D01*
X241300Y950468D01*
X533400Y975868D02*
X534416Y976884D01*
X535432D01*
X534416Y977900D01*
X535432Y978916D01*
X534416D01*
X533400Y979932D01*
X532384Y978916D01*
X531368D01*
X532384Y977900D01*
X531368Y976884D01*
X532384D01*
X533400Y975868D01*
X596900Y1001268D02*
X597916Y1002284D01*
X598932D01*
X597916Y1003300D01*
X598932Y1004316D01*
X597916D01*
X596900Y1005332D01*
X595884Y1004316D01*
X594868D01*
X595884Y1003300D01*
X594868Y1002284D01*
X595884D01*
X596900Y1001268D01*
X520700Y950468D02*
X518668Y954532D01*
X522732D01*
X520700Y950468D01*
X622300D02*
X620268Y954532D01*
X624332D01*
X622300Y950468D01*
X723900Y975868D02*
X724916Y976884D01*
X725932D01*
X724916Y977900D01*
X725932Y978916D01*
X724916D01*
X723900Y979932D01*
X722884Y978916D01*
X721868D01*
X722884Y977900D01*
X721868Y976884D01*
X722884D01*
X723900Y975868D01*
X787400Y1001268D02*
X788416Y1002284D01*
X789432D01*
X788416Y1003300D01*
X789432Y1004316D01*
X788416D01*
X787400Y1005332D01*
X786384Y1004316D01*
X785368D01*
X786384Y1003300D01*
X785368Y1002284D01*
X786384D01*
X787400Y1001268D01*
X711200Y950468D02*
X709168Y954532D01*
X713232D01*
X711200Y950468D01*
X812800D02*
X810768Y954532D01*
X814832D01*
X812800Y950468D01*
X914400Y975868D02*
X915416Y976884D01*
X916432D01*
X915416Y977900D01*
X916432Y978916D01*
X915416D01*
X914400Y979932D01*
X913384Y978916D01*
X912368D01*
X913384Y977900D01*
X912368Y976884D01*
X913384D01*
X914400Y975868D01*
X977900Y1001268D02*
X978916Y1002284D01*
X979932D01*
X978916Y1003300D01*
X979932Y1004316D01*
X978916D01*
X977900Y1005332D01*
X976884Y1004316D01*
X975868D01*
X976884Y1003300D01*
X975868Y1002284D01*
X976884D01*
X977900Y1001268D01*
X901700Y950468D02*
X899668Y954532D01*
X903732D01*
X901700Y950468D01*
X1003300D02*
X1001268Y954532D01*
X1005332D01*
X1003300Y950468D01*
X1104900Y975868D02*
X1105916Y976884D01*
X1106932D01*
X1105916Y977900D01*
X1106932Y978916D01*
X1105916D01*
X1104900Y979932D01*
X1103884Y978916D01*
X1102868D01*
X1103884Y977900D01*
X1102868Y976884D01*
X1103884D01*
X1104900Y975868D01*
X1168400Y1001268D02*
X1169416Y1002284D01*
X1170432D01*
X1169416Y1003300D01*
X1170432Y1004316D01*
X1169416D01*
X1168400Y1005332D01*
X1167384Y1004316D01*
X1166368D01*
X1167384Y1003300D01*
X1166368Y1002284D01*
X1167384D01*
X1168400Y1001268D01*
X1092200Y950468D02*
X1090168Y954532D01*
X1094232D01*
X1092200Y950468D01*
X1193800D02*
X1191768Y954532D01*
X1195832D01*
X1193800Y950468D01*
X1295400Y975868D02*
X1296416Y976884D01*
X1297432D01*
X1296416Y977900D01*
X1297432Y978916D01*
X1296416D01*
X1295400Y979932D01*
X1294384Y978916D01*
X1293368D01*
X1294384Y977900D01*
X1293368Y976884D01*
X1294384D01*
X1295400Y975868D01*
X1358900Y1001268D02*
X1359916Y1002284D01*
X1360932D01*
X1359916Y1003300D01*
X1360932Y1004316D01*
X1359916D01*
X1358900Y1005332D01*
X1357884Y1004316D01*
X1356868D01*
X1357884Y1003300D01*
X1356868Y1002284D01*
X1357884D01*
X1358900Y1001268D01*
X1282700Y950468D02*
X1280668Y954532D01*
X1284732D01*
X1282700Y950468D01*
X1384300D02*
X1382268Y954532D01*
X1386332D01*
X1384300Y950468D01*
X1485900Y975868D02*
X1486916Y976884D01*
X1487932D01*
X1486916Y977900D01*
X1487932Y978916D01*
X1486916D01*
X1485900Y979932D01*
X1484884Y978916D01*
X1483868D01*
X1484884Y977900D01*
X1483868Y976884D01*
X1484884D01*
X1485900Y975868D01*
X1549400Y1001268D02*
X1550416Y1002284D01*
X1551432D01*
X1550416Y1003300D01*
X1551432Y1004316D01*
X1550416D01*
X1549400Y1005332D01*
X1548384Y1004316D01*
X1547368D01*
X1548384Y1003300D01*
X1547368Y1002284D01*
X1548384D01*
X1549400Y1001268D01*
X1473200Y950468D02*
X1471168Y954532D01*
X1475232D01*
X1473200Y950468D01*
X1574800D02*
X1572768Y954532D01*
X1576832D01*
X1574800Y950468D01*
X1676400Y975868D02*
X1677416Y976884D01*
X1678432D01*
X1677416Y977900D01*
X1678432Y978916D01*
X1677416D01*
X1676400Y979932D01*
X1675384Y978916D01*
X1674368D01*
X1675384Y977900D01*
X1674368Y976884D01*
X1675384D01*
X1676400Y975868D01*
X1739900Y1001268D02*
X1740916Y1002284D01*
X1741932D01*
X1740916Y1003300D01*
X1741932Y1004316D01*
X1740916D01*
X1739900Y1005332D01*
X1738884Y1004316D01*
X1737868D01*
X1738884Y1003300D01*
X1737868Y1002284D01*
X1738884D01*
X1739900Y1001268D01*
X1663700Y950468D02*
X1661668Y954532D01*
X1665732D01*
X1663700Y950468D01*
X1765300D02*
X1763268Y954532D01*
X1767332D01*
X1765300Y950468D01*
X1866900Y975868D02*
X1867916Y976884D01*
X1868932D01*
X1867916Y977900D01*
X1868932Y978916D01*
X1867916D01*
X1866900Y979932D01*
X1865884Y978916D01*
X1864868D01*
X1865884Y977900D01*
X1864868Y976884D01*
X1865884D01*
X1866900Y975868D01*
X1930400Y1001268D02*
X1931416Y1002284D01*
X1932432D01*
X1931416Y1003300D01*
X1932432Y1004316D01*
X1931416D01*
X1930400Y1005332D01*
X1929384Y1004316D01*
X1928368D01*
X1929384Y1003300D01*
X1928368Y1002284D01*
X1929384D01*
X1930400Y1001268D01*
X1854200Y950468D02*
X1852168Y954532D01*
X1856232D01*
X1854200Y950468D01*
X1955800D02*
X1953768Y954532D01*
X1957832D01*
X1955800Y950468D01*
X2057400Y975868D02*
X2058416Y976884D01*
X2059432D01*
X2058416Y977900D01*
X2059432Y978916D01*
X2058416D01*
X2057400Y979932D01*
X2056384Y978916D01*
X2055368D01*
X2056384Y977900D01*
X2055368Y976884D01*
X2056384D01*
X2057400Y975868D01*
X2120900Y1001268D02*
X2121916Y1002284D01*
X2122932D01*
X2121916Y1003300D01*
X2122932Y1004316D01*
X2121916D01*
X2120900Y1005332D01*
X2119884Y1004316D01*
X2118868D01*
X2119884Y1003300D01*
X2118868Y1002284D01*
X2119884D01*
X2120900Y1001268D01*
X2044700Y950468D02*
X2042668Y954532D01*
X2046732D01*
X2044700Y950468D01*
X2146300D02*
X2144268Y954532D01*
X2148332D01*
X2146300Y950468D01*
X2247900Y975868D02*
X2248916Y976884D01*
X2249932D01*
X2248916Y977900D01*
X2249932Y978916D01*
X2248916D01*
X2247900Y979932D01*
X2246884Y978916D01*
X2245868D01*
X2246884Y977900D01*
X2245868Y976884D01*
X2246884D01*
X2247900Y975868D01*
X2311400Y1001268D02*
X2312416Y1002284D01*
X2313432D01*
X2312416Y1003300D01*
X2313432Y1004316D01*
X2312416D01*
X2311400Y1005332D01*
X2310384Y1004316D01*
X2309368D01*
X2310384Y1003300D01*
X2309368Y1002284D01*
X2310384D01*
X2311400Y1001268D01*
X2235200Y950468D02*
X2233168Y954532D01*
X2237232D01*
X2235200Y950468D01*
X2336800D02*
X2334768Y954532D01*
X2338832D01*
X2336800Y950468D01*
X2438400Y975868D02*
X2439416Y976884D01*
X2440432D01*
X2439416Y977900D01*
X2440432Y978916D01*
X2439416D01*
X2438400Y979932D01*
X2437384Y978916D01*
X2436368D01*
X2437384Y977900D01*
X2436368Y976884D01*
X2437384D01*
X2438400Y975868D01*
X2501900Y1001268D02*
X2502916Y1002284D01*
X2503932D01*
X2502916Y1003300D01*
X2503932Y1004316D01*
X2502916D01*
X2501900Y1005332D01*
X2500884Y1004316D01*
X2499868D01*
X2500884Y1003300D01*
X2499868Y1002284D01*
X2500884D01*
X2501900Y1001268D01*
X2425700Y950468D02*
X2423668Y954532D01*
X2427732D01*
X2425700Y950468D01*
X2527300D02*
X2525268Y954532D01*
X2529332D01*
X2527300Y950468D01*
X3009900Y975868D02*
X3010916Y976884D01*
X3011932D01*
X3010916Y977900D01*
X3011932Y978916D01*
X3010916D01*
X3009900Y979932D01*
X3008884Y978916D01*
X3007868D01*
X3008884Y977900D01*
X3007868Y976884D01*
X3008884D01*
X3009900Y975868D01*
X3073400Y1001268D02*
X3074416Y1002284D01*
X3075432D01*
X3074416Y1003300D01*
X3075432Y1004316D01*
X3074416D01*
X3073400Y1005332D01*
X3072384Y1004316D01*
X3071368D01*
X3072384Y1003300D01*
X3071368Y1002284D01*
X3072384D01*
X3073400Y1001268D01*
X2997200Y950468D02*
X2995168Y954532D01*
X2999232D01*
X2997200Y950468D01*
X3098800D02*
X3096768Y954532D01*
X3100832D01*
X3098800Y950468D01*
X438150Y785368D02*
X439166Y786384D01*
X440182D01*
X439166Y787400D01*
X440182Y788416D01*
X439166D01*
X438150Y789432D01*
X437134Y788416D01*
X436118D01*
X437134Y787400D01*
X436118Y786384D01*
X437134D01*
X438150Y785368D01*
X501650Y810768D02*
X502666Y811784D01*
X503682D01*
X502666Y812800D01*
X503682Y813816D01*
X502666D01*
X501650Y814832D01*
X500634Y813816D01*
X499618D01*
X500634Y812800D01*
X499618Y811784D01*
X500634D01*
X501650Y810768D01*
X425450Y759968D02*
X423418Y764032D01*
X427482D01*
X425450Y759968D01*
X527050D02*
X525018Y764032D01*
X529082D01*
X527050Y759968D01*
X628650Y785368D02*
X629666Y786384D01*
X630682D01*
X629666Y787400D01*
X630682Y788416D01*
X629666D01*
X628650Y789432D01*
X627634Y788416D01*
X626618D01*
X627634Y787400D01*
X626618Y786384D01*
X627634D01*
X628650Y785368D01*
X692150Y810768D02*
X693166Y811784D01*
X694182D01*
X693166Y812800D01*
X694182Y813816D01*
X693166D01*
X692150Y814832D01*
X691134Y813816D01*
X690118D01*
X691134Y812800D01*
X690118Y811784D01*
X691134D01*
X692150Y810768D01*
X615950Y759968D02*
X613918Y764032D01*
X617982D01*
X615950Y759968D01*
X717550D02*
X715518Y764032D01*
X719582D01*
X717550Y759968D01*
X819150Y785368D02*
X820166Y786384D01*
X821182D01*
X820166Y787400D01*
X821182Y788416D01*
X820166D01*
X819150Y789432D01*
X818134Y788416D01*
X817118D01*
X818134Y787400D01*
X817118Y786384D01*
X818134D01*
X819150Y785368D01*
X882650Y810768D02*
X883666Y811784D01*
X884682D01*
X883666Y812800D01*
X884682Y813816D01*
X883666D01*
X882650Y814832D01*
X881634Y813816D01*
X880618D01*
X881634Y812800D01*
X880618Y811784D01*
X881634D01*
X882650Y810768D01*
X806450Y759968D02*
X804418Y764032D01*
X808482D01*
X806450Y759968D01*
X908050D02*
X906018Y764032D01*
X910082D01*
X908050Y759968D01*
X1009650Y785368D02*
X1010666Y786384D01*
X1011682D01*
X1010666Y787400D01*
X1011682Y788416D01*
X1010666D01*
X1009650Y789432D01*
X1008634Y788416D01*
X1007618D01*
X1008634Y787400D01*
X1007618Y786384D01*
X1008634D01*
X1009650Y785368D01*
X1073150Y810768D02*
X1074166Y811784D01*
X1075182D01*
X1074166Y812800D01*
X1075182Y813816D01*
X1074166D01*
X1073150Y814832D01*
X1072134Y813816D01*
X1071118D01*
X1072134Y812800D01*
X1071118Y811784D01*
X1072134D01*
X1073150Y810768D01*
X996950Y759968D02*
X994918Y764032D01*
X998982D01*
X996950Y759968D01*
X1098550D02*
X1096518Y764032D01*
X1100582D01*
X1098550Y759968D01*
X1200150Y785368D02*
X1201166Y786384D01*
X1202182D01*
X1201166Y787400D01*
X1202182Y788416D01*
X1201166D01*
X1200150Y789432D01*
X1199134Y788416D01*
X1198118D01*
X1199134Y787400D01*
X1198118Y786384D01*
X1199134D01*
X1200150Y785368D01*
X1263650Y810768D02*
X1264666Y811784D01*
X1265682D01*
X1264666Y812800D01*
X1265682Y813816D01*
X1264666D01*
X1263650Y814832D01*
X1262634Y813816D01*
X1261618D01*
X1262634Y812800D01*
X1261618Y811784D01*
X1262634D01*
X1263650Y810768D01*
X1187450Y759968D02*
X1185418Y764032D01*
X1189482D01*
X1187450Y759968D01*
X1289050D02*
X1287018Y764032D01*
X1291082D01*
X1289050Y759968D01*
X1390650Y785368D02*
X1391666Y786384D01*
X1392682D01*
X1391666Y787400D01*
X1392682Y788416D01*
X1391666D01*
X1390650Y789432D01*
X1389634Y788416D01*
X1388618D01*
X1389634Y787400D01*
X1388618Y786384D01*
X1389634D01*
X1390650Y785368D01*
X1454150Y810768D02*
X1455166Y811784D01*
X1456182D01*
X1455166Y812800D01*
X1456182Y813816D01*
X1455166D01*
X1454150Y814832D01*
X1453134Y813816D01*
X1452118D01*
X1453134Y812800D01*
X1452118Y811784D01*
X1453134D01*
X1454150Y810768D01*
X1377950Y759968D02*
X1375918Y764032D01*
X1379982D01*
X1377950Y759968D01*
X1479550D02*
X1477518Y764032D01*
X1481582D01*
X1479550Y759968D01*
X1581150Y785368D02*
X1582166Y786384D01*
X1583182D01*
X1582166Y787400D01*
X1583182Y788416D01*
X1582166D01*
X1581150Y789432D01*
X1580134Y788416D01*
X1579118D01*
X1580134Y787400D01*
X1579118Y786384D01*
X1580134D01*
X1581150Y785368D01*
X1644650Y810768D02*
X1645666Y811784D01*
X1646682D01*
X1645666Y812800D01*
X1646682Y813816D01*
X1645666D01*
X1644650Y814832D01*
X1643634Y813816D01*
X1642618D01*
X1643634Y812800D01*
X1642618Y811784D01*
X1643634D01*
X1644650Y810768D01*
X1568450Y759968D02*
X1566418Y764032D01*
X1570482D01*
X1568450Y759968D01*
X1670050D02*
X1668018Y764032D01*
X1672082D01*
X1670050Y759968D01*
X1771650Y785368D02*
X1772666Y786384D01*
X1773682D01*
X1772666Y787400D01*
X1773682Y788416D01*
X1772666D01*
X1771650Y789432D01*
X1770634Y788416D01*
X1769618D01*
X1770634Y787400D01*
X1769618Y786384D01*
X1770634D01*
X1771650Y785368D01*
X1835150Y810768D02*
X1836166Y811784D01*
X1837182D01*
X1836166Y812800D01*
X1837182Y813816D01*
X1836166D01*
X1835150Y814832D01*
X1834134Y813816D01*
X1833118D01*
X1834134Y812800D01*
X1833118Y811784D01*
X1834134D01*
X1835150Y810768D01*
X1758950Y759968D02*
X1756918Y764032D01*
X1760982D01*
X1758950Y759968D01*
X1860550D02*
X1858518Y764032D01*
X1862582D01*
X1860550Y759968D01*
X1962150Y785368D02*
X1963166Y786384D01*
X1964182D01*
X1963166Y787400D01*
X1964182Y788416D01*
X1963166D01*
X1962150Y789432D01*
X1961134Y788416D01*
X1960118D01*
X1961134Y787400D01*
X1960118Y786384D01*
X1961134D01*
X1962150Y785368D01*
X2025650Y810768D02*
X2026666Y811784D01*
X2027682D01*
X2026666Y812800D01*
X2027682Y813816D01*
X2026666D01*
X2025650Y814832D01*
X2024634Y813816D01*
X2023618D01*
X2024634Y812800D01*
X2023618Y811784D01*
X2024634D01*
X2025650Y810768D01*
X1949450Y759968D02*
X1947418Y764032D01*
X1951482D01*
X1949450Y759968D01*
X2051050D02*
X2049018Y764032D01*
X2053082D01*
X2051050Y759968D01*
X2152650Y785368D02*
X2153666Y786384D01*
X2154682D01*
X2153666Y787400D01*
X2154682Y788416D01*
X2153666D01*
X2152650Y789432D01*
X2151634Y788416D01*
X2150618D01*
X2151634Y787400D01*
X2150618Y786384D01*
X2151634D01*
X2152650Y785368D01*
X2216150Y810768D02*
X2217166Y811784D01*
X2218182D01*
X2217166Y812800D01*
X2218182Y813816D01*
X2217166D01*
X2216150Y814832D01*
X2215134Y813816D01*
X2214118D01*
X2215134Y812800D01*
X2214118Y811784D01*
X2215134D01*
X2216150Y810768D01*
X2139950Y759968D02*
X2137918Y764032D01*
X2141982D01*
X2139950Y759968D01*
X2241550D02*
X2239518Y764032D01*
X2243582D01*
X2241550Y759968D01*
X2343150Y785368D02*
X2344166Y786384D01*
X2345182D01*
X2344166Y787400D01*
X2345182Y788416D01*
X2344166D01*
X2343150Y789432D01*
X2342134Y788416D01*
X2341118D01*
X2342134Y787400D01*
X2341118Y786384D01*
X2342134D01*
X2343150Y785368D01*
X2406650Y810768D02*
X2407666Y811784D01*
X2408682D01*
X2407666Y812800D01*
X2408682Y813816D01*
X2407666D01*
X2406650Y814832D01*
X2405634Y813816D01*
X2404618D01*
X2405634Y812800D01*
X2404618Y811784D01*
X2405634D01*
X2406650Y810768D01*
X2330450Y759968D02*
X2328418Y764032D01*
X2332482D01*
X2330450Y759968D01*
X2432050D02*
X2430018Y764032D01*
X2434082D01*
X2432050Y759968D01*
X3009900Y785368D02*
X3010916Y786384D01*
X3011932D01*
X3010916Y787400D01*
X3011932Y788416D01*
X3010916D01*
X3009900Y789432D01*
X3008884Y788416D01*
X3007868D01*
X3008884Y787400D01*
X3007868Y786384D01*
X3008884D01*
X3009900Y785368D01*
X3073400Y810768D02*
X3074416Y811784D01*
X3075432D01*
X3074416Y812800D01*
X3075432Y813816D01*
X3074416D01*
X3073400Y814832D01*
X3072384Y813816D01*
X3071368D01*
X3072384Y812800D01*
X3071368Y811784D01*
X3072384D01*
X3073400Y810768D01*
X2997200Y759968D02*
X2995168Y764032D01*
X2999232D01*
X2997200Y759968D01*
X3098800D02*
X3096768Y764032D01*
X3100832D01*
X3098800Y759968D01*
X485780Y594868D02*
X486796Y595884D01*
X487812D01*
X486796Y596900D01*
X487812Y597916D01*
X486796D01*
X485780Y598932D01*
X484764Y597916D01*
X483748D01*
X484764Y596900D01*
X483748Y595884D01*
X484764D01*
X485780Y594868D01*
X549280Y620268D02*
X550296Y621284D01*
X551312D01*
X550296Y622300D01*
X551312Y623316D01*
X550296D01*
X549280Y624332D01*
X548264Y623316D01*
X547248D01*
X548264Y622300D01*
X547248Y621284D01*
X548264D01*
X549280Y620268D01*
X473080Y569468D02*
X471048Y573532D01*
X475112D01*
X473080Y569468D01*
X574680D02*
X572648Y573532D01*
X576712D01*
X574680Y569468D01*
X676280Y594868D02*
X677296Y595884D01*
X678312D01*
X677296Y596900D01*
X678312Y597916D01*
X677296D01*
X676280Y598932D01*
X675264Y597916D01*
X674248D01*
X675264Y596900D01*
X674248Y595884D01*
X675264D01*
X676280Y594868D01*
X739780Y620268D02*
X740796Y621284D01*
X741812D01*
X740796Y622300D01*
X741812Y623316D01*
X740796D01*
X739780Y624332D01*
X738764Y623316D01*
X737748D01*
X738764Y622300D01*
X737748Y621284D01*
X738764D01*
X739780Y620268D01*
X663580Y569468D02*
X661548Y573532D01*
X665612D01*
X663580Y569468D01*
X765180D02*
X763148Y573532D01*
X767212D01*
X765180Y569468D01*
X866780Y594868D02*
X867796Y595884D01*
X868812D01*
X867796Y596900D01*
X868812Y597916D01*
X867796D01*
X866780Y598932D01*
X865764Y597916D01*
X864748D01*
X865764Y596900D01*
X864748Y595884D01*
X865764D01*
X866780Y594868D01*
X930280Y620268D02*
X931296Y621284D01*
X932312D01*
X931296Y622300D01*
X932312Y623316D01*
X931296D01*
X930280Y624332D01*
X929264Y623316D01*
X928248D01*
X929264Y622300D01*
X928248Y621284D01*
X929264D01*
X930280Y620268D01*
X854080Y569468D02*
X852048Y573532D01*
X856112D01*
X854080Y569468D01*
X955680D02*
X953648Y573532D01*
X957712D01*
X955680Y569468D01*
X1057280Y594868D02*
X1058296Y595884D01*
X1059312D01*
X1058296Y596900D01*
X1059312Y597916D01*
X1058296D01*
X1057280Y598932D01*
X1056264Y597916D01*
X1055248D01*
X1056264Y596900D01*
X1055248Y595884D01*
X1056264D01*
X1057280Y594868D01*
X1120780Y620268D02*
X1121796Y621284D01*
X1122812D01*
X1121796Y622300D01*
X1122812Y623316D01*
X1121796D01*
X1120780Y624332D01*
X1119764Y623316D01*
X1118748D01*
X1119764Y622300D01*
X1118748Y621284D01*
X1119764D01*
X1120780Y620268D01*
X1044580Y569468D02*
X1042548Y573532D01*
X1046612D01*
X1044580Y569468D01*
X1146180D02*
X1144148Y573532D01*
X1148212D01*
X1146180Y569468D01*
X1247780Y594868D02*
X1248796Y595884D01*
X1249812D01*
X1248796Y596900D01*
X1249812Y597916D01*
X1248796D01*
X1247780Y598932D01*
X1246764Y597916D01*
X1245748D01*
X1246764Y596900D01*
X1245748Y595884D01*
X1246764D01*
X1247780Y594868D01*
X1311280Y620268D02*
X1312296Y621284D01*
X1313312D01*
X1312296Y622300D01*
X1313312Y623316D01*
X1312296D01*
X1311280Y624332D01*
X1310264Y623316D01*
X1309248D01*
X1310264Y622300D01*
X1309248Y621284D01*
X1310264D01*
X1311280Y620268D01*
X1235080Y569468D02*
X1233048Y573532D01*
X1237112D01*
X1235080Y569468D01*
X1336680D02*
X1334648Y573532D01*
X1338712D01*
X1336680Y569468D01*
X1438280Y594868D02*
X1439296Y595884D01*
X1440312D01*
X1439296Y596900D01*
X1440312Y597916D01*
X1439296D01*
X1438280Y598932D01*
X1437264Y597916D01*
X1436248D01*
X1437264Y596900D01*
X1436248Y595884D01*
X1437264D01*
X1438280Y594868D01*
X1501780Y620268D02*
X1502796Y621284D01*
X1503812D01*
X1502796Y622300D01*
X1503812Y623316D01*
X1502796D01*
X1501780Y624332D01*
X1500764Y623316D01*
X1499748D01*
X1500764Y622300D01*
X1499748Y621284D01*
X1500764D01*
X1501780Y620268D01*
X1425580Y569468D02*
X1423548Y573532D01*
X1427612D01*
X1425580Y569468D01*
X1527180D02*
X1525148Y573532D01*
X1529212D01*
X1527180Y569468D01*
X1628780Y594868D02*
X1629796Y595884D01*
X1630812D01*
X1629796Y596900D01*
X1630812Y597916D01*
X1629796D01*
X1628780Y598932D01*
X1627764Y597916D01*
X1626748D01*
X1627764Y596900D01*
X1626748Y595884D01*
X1627764D01*
X1628780Y594868D01*
X1692280Y620268D02*
X1693296Y621284D01*
X1694312D01*
X1693296Y622300D01*
X1694312Y623316D01*
X1693296D01*
X1692280Y624332D01*
X1691264Y623316D01*
X1690248D01*
X1691264Y622300D01*
X1690248Y621284D01*
X1691264D01*
X1692280Y620268D01*
X1616080Y569468D02*
X1614048Y573532D01*
X1618112D01*
X1616080Y569468D01*
X1717680D02*
X1715648Y573532D01*
X1719712D01*
X1717680Y569468D01*
X1819280Y594868D02*
X1820296Y595884D01*
X1821312D01*
X1820296Y596900D01*
X1821312Y597916D01*
X1820296D01*
X1819280Y598932D01*
X1818264Y597916D01*
X1817248D01*
X1818264Y596900D01*
X1817248Y595884D01*
X1818264D01*
X1819280Y594868D01*
X1882780Y620268D02*
X1883796Y621284D01*
X1884812D01*
X1883796Y622300D01*
X1884812Y623316D01*
X1883796D01*
X1882780Y624332D01*
X1881764Y623316D01*
X1880748D01*
X1881764Y622300D01*
X1880748Y621284D01*
X1881764D01*
X1882780Y620268D01*
X1806580Y569468D02*
X1804548Y573532D01*
X1808612D01*
X1806580Y569468D01*
X1908180D02*
X1906148Y573532D01*
X1910212D01*
X1908180Y569468D01*
X2009780Y594868D02*
X2010796Y595884D01*
X2011812D01*
X2010796Y596900D01*
X2011812Y597916D01*
X2010796D01*
X2009780Y598932D01*
X2008764Y597916D01*
X2007748D01*
X2008764Y596900D01*
X2007748Y595884D01*
X2008764D01*
X2009780Y594868D01*
X2073280Y620268D02*
X2074296Y621284D01*
X2075312D01*
X2074296Y622300D01*
X2075312Y623316D01*
X2074296D01*
X2073280Y624332D01*
X2072264Y623316D01*
X2071248D01*
X2072264Y622300D01*
X2071248Y621284D01*
X2072264D01*
X2073280Y620268D01*
X1997080Y569468D02*
X1995048Y573532D01*
X1999112D01*
X1997080Y569468D01*
X2098680D02*
X2096648Y573532D01*
X2100712D01*
X2098680Y569468D01*
X2200280Y594868D02*
X2201296Y595884D01*
X2202312D01*
X2201296Y596900D01*
X2202312Y597916D01*
X2201296D01*
X2200280Y598932D01*
X2199264Y597916D01*
X2198248D01*
X2199264Y596900D01*
X2198248Y595884D01*
X2199264D01*
X2200280Y594868D01*
X2263780Y620268D02*
X2264796Y621284D01*
X2265812D01*
X2264796Y622300D01*
X2265812Y623316D01*
X2264796D01*
X2263780Y624332D01*
X2262764Y623316D01*
X2261748D01*
X2262764Y622300D01*
X2261748Y621284D01*
X2262764D01*
X2263780Y620268D01*
X2187580Y569468D02*
X2185548Y573532D01*
X2189612D01*
X2187580Y569468D01*
X2289180D02*
X2287148Y573532D01*
X2291212D01*
X2289180Y569468D01*
X2390780Y594868D02*
X2391796Y595884D01*
X2392812D01*
X2391796Y596900D01*
X2392812Y597916D01*
X2391796D01*
X2390780Y598932D01*
X2389764Y597916D01*
X2388748D01*
X2389764Y596900D01*
X2388748Y595884D01*
X2389764D01*
X2390780Y594868D01*
X2454280Y620268D02*
X2455296Y621284D01*
X2456312D01*
X2455296Y622300D01*
X2456312Y623316D01*
X2455296D01*
X2454280Y624332D01*
X2453264Y623316D01*
X2452248D01*
X2453264Y622300D01*
X2452248Y621284D01*
X2453264D01*
X2454280Y620268D01*
X2378080Y569468D02*
X2376048Y573532D01*
X2380112D01*
X2378080Y569468D01*
X2479680D02*
X2477648Y573532D01*
X2481712D01*
X2479680Y569468D01*
X3009900Y594868D02*
X3010916Y595884D01*
X3011932D01*
X3010916Y596900D01*
X3011932Y597916D01*
X3010916D01*
X3009900Y598932D01*
X3008884Y597916D01*
X3007868D01*
X3008884Y596900D01*
X3007868Y595884D01*
X3008884D01*
X3009900Y594868D01*
X3073400Y620268D02*
X3074416Y621284D01*
X3075432D01*
X3074416Y622300D01*
X3075432Y623316D01*
X3074416D01*
X3073400Y624332D01*
X3072384Y623316D01*
X3071368D01*
X3072384Y622300D01*
X3071368Y621284D01*
X3072384D01*
X3073400Y620268D01*
X2997200Y569468D02*
X2995168Y573532D01*
X2999232D01*
X2997200Y569468D01*
X3098800D02*
X3096768Y573532D01*
X3100832D01*
X3098800Y569468D01*
X581022Y404368D02*
X582038Y405384D01*
X583055D01*
X582038Y406400D01*
X583055Y407416D01*
X582038D01*
X581022Y408432D01*
X580006Y407416D01*
X578991D01*
X580006Y406400D01*
X578991Y405384D01*
X580006D01*
X581022Y404368D01*
X644522Y429768D02*
X645538Y430784D01*
X646554D01*
X645538Y431800D01*
X646554Y432816D01*
X645538D01*
X644522Y433832D01*
X643506Y432816D01*
X642490D01*
X643506Y431800D01*
X642490Y430784D01*
X643506D01*
X644522Y429768D01*
X568322Y378968D02*
X566291Y383032D01*
X570354D01*
X568322Y378968D01*
X669922D02*
X667890Y383032D01*
X671954D01*
X669922Y378968D01*
X771520Y404368D02*
X772536Y405384D01*
X773552D01*
X772536Y406400D01*
X773552Y407416D01*
X772536D01*
X771520Y408432D01*
X770504Y407416D01*
X769488D01*
X770504Y406400D01*
X769488Y405384D01*
X770504D01*
X771520Y404368D01*
X835020Y429768D02*
X836036Y430784D01*
X837052D01*
X836036Y431800D01*
X837052Y432816D01*
X836036D01*
X835020Y433832D01*
X834004Y432816D01*
X832988D01*
X834004Y431800D01*
X832988Y430784D01*
X834004D01*
X835020Y429768D01*
X758820Y378968D02*
X756788Y383032D01*
X760852D01*
X758820Y378968D01*
X860420D02*
X858388Y383032D01*
X862452D01*
X860420Y378968D01*
X962020Y404368D02*
X963036Y405384D01*
X964052D01*
X963036Y406400D01*
X964052Y407416D01*
X963036D01*
X962020Y408432D01*
X961004Y407416D01*
X959988D01*
X961004Y406400D01*
X959988Y405384D01*
X961004D01*
X962020Y404368D01*
X1025520Y429768D02*
X1026536Y430784D01*
X1027552D01*
X1026536Y431800D01*
X1027552Y432816D01*
X1026536D01*
X1025520Y433832D01*
X1024504Y432816D01*
X1023488D01*
X1024504Y431800D01*
X1023488Y430784D01*
X1024504D01*
X1025520Y429768D01*
X949320Y378968D02*
X947288Y383032D01*
X951352D01*
X949320Y378968D01*
X1050920D02*
X1048888Y383032D01*
X1052952D01*
X1050920Y378968D01*
X1152520Y404368D02*
X1153536Y405384D01*
X1154552D01*
X1153536Y406400D01*
X1154552Y407416D01*
X1153536D01*
X1152520Y408432D01*
X1151504Y407416D01*
X1150488D01*
X1151504Y406400D01*
X1150488Y405384D01*
X1151504D01*
X1152520Y404368D01*
X1216020Y429768D02*
X1217036Y430784D01*
X1218052D01*
X1217036Y431800D01*
X1218052Y432816D01*
X1217036D01*
X1216020Y433832D01*
X1215004Y432816D01*
X1213988D01*
X1215004Y431800D01*
X1213988Y430784D01*
X1215004D01*
X1216020Y429768D01*
X1139820Y378968D02*
X1137788Y383032D01*
X1141852D01*
X1139820Y378968D01*
X1241420D02*
X1239388Y383032D01*
X1243452D01*
X1241420Y378968D01*
X1343020Y404368D02*
X1344036Y405384D01*
X1345052D01*
X1344036Y406400D01*
X1345052Y407416D01*
X1344036D01*
X1343020Y408432D01*
X1342004Y407416D01*
X1340988D01*
X1342004Y406400D01*
X1340988Y405384D01*
X1342004D01*
X1343020Y404368D01*
X1406520Y429768D02*
X1407536Y430784D01*
X1408552D01*
X1407536Y431800D01*
X1408552Y432816D01*
X1407536D01*
X1406520Y433832D01*
X1405504Y432816D01*
X1404488D01*
X1405504Y431800D01*
X1404488Y430784D01*
X1405504D01*
X1406520Y429768D01*
X1330320Y378968D02*
X1328288Y383032D01*
X1332352D01*
X1330320Y378968D01*
X1431920D02*
X1429888Y383032D01*
X1433952D01*
X1431920Y378968D01*
X1533520Y404368D02*
X1534536Y405384D01*
X1535552D01*
X1534536Y406400D01*
X1535552Y407416D01*
X1534536D01*
X1533520Y408432D01*
X1532504Y407416D01*
X1531488D01*
X1532504Y406400D01*
X1531488Y405384D01*
X1532504D01*
X1533520Y404368D01*
X1597020Y429768D02*
X1598036Y430784D01*
X1599052D01*
X1598036Y431800D01*
X1599052Y432816D01*
X1598036D01*
X1597020Y433832D01*
X1596004Y432816D01*
X1594988D01*
X1596004Y431800D01*
X1594988Y430784D01*
X1596004D01*
X1597020Y429768D01*
X1520820Y378968D02*
X1518788Y383032D01*
X1522852D01*
X1520820Y378968D01*
X1622420D02*
X1620388Y383032D01*
X1624452D01*
X1622420Y378968D01*
X1724020Y404368D02*
X1725036Y405384D01*
X1726052D01*
X1725036Y406400D01*
X1726052Y407416D01*
X1725036D01*
X1724020Y408432D01*
X1723004Y407416D01*
X1721988D01*
X1723004Y406400D01*
X1721988Y405384D01*
X1723004D01*
X1724020Y404368D01*
X1787520Y429768D02*
X1788536Y430784D01*
X1789552D01*
X1788536Y431800D01*
X1789552Y432816D01*
X1788536D01*
X1787520Y433832D01*
X1786504Y432816D01*
X1785488D01*
X1786504Y431800D01*
X1785488Y430784D01*
X1786504D01*
X1787520Y429768D01*
X1711320Y378968D02*
X1709288Y383032D01*
X1713352D01*
X1711320Y378968D01*
X1812920D02*
X1810888Y383032D01*
X1814952D01*
X1812920Y378968D01*
X1914520Y404368D02*
X1915536Y405384D01*
X1916552D01*
X1915536Y406400D01*
X1916552Y407416D01*
X1915536D01*
X1914520Y408432D01*
X1913504Y407416D01*
X1912488D01*
X1913504Y406400D01*
X1912488Y405384D01*
X1913504D01*
X1914520Y404368D01*
X1978020Y429768D02*
X1979036Y430784D01*
X1980052D01*
X1979036Y431800D01*
X1980052Y432816D01*
X1979036D01*
X1978020Y433832D01*
X1977004Y432816D01*
X1975988D01*
X1977004Y431800D01*
X1975988Y430784D01*
X1977004D01*
X1978020Y429768D01*
X1901820Y378968D02*
X1899788Y383032D01*
X1903852D01*
X1901820Y378968D01*
X2003420D02*
X2001388Y383032D01*
X2005452D01*
X2003420Y378968D01*
X2105020Y404368D02*
X2106036Y405384D01*
X2107052D01*
X2106036Y406400D01*
X2107052Y407416D01*
X2106036D01*
X2105020Y408432D01*
X2104004Y407416D01*
X2102988D01*
X2104004Y406400D01*
X2102988Y405384D01*
X2104004D01*
X2105020Y404368D01*
X2168520Y429768D02*
X2169536Y430784D01*
X2170552D01*
X2169536Y431800D01*
X2170552Y432816D01*
X2169536D01*
X2168520Y433832D01*
X2167504Y432816D01*
X2166488D01*
X2167504Y431800D01*
X2166488Y430784D01*
X2167504D01*
X2168520Y429768D01*
X2092320Y378968D02*
X2090288Y383032D01*
X2094352D01*
X2092320Y378968D01*
X2193920D02*
X2191888Y383032D01*
X2195952D01*
X2193920Y378968D01*
X2295520Y404368D02*
X2296536Y405384D01*
X2297552D01*
X2296536Y406400D01*
X2297552Y407416D01*
X2296536D01*
X2295520Y408432D01*
X2294504Y407416D01*
X2293488D01*
X2294504Y406400D01*
X2293488Y405384D01*
X2294504D01*
X2295520Y404368D01*
X2359020Y429768D02*
X2360036Y430784D01*
X2361052D01*
X2360036Y431800D01*
X2361052Y432816D01*
X2360036D01*
X2359020Y433832D01*
X2358004Y432816D01*
X2356988D01*
X2358004Y431800D01*
X2356988Y430784D01*
X2358004D01*
X2359020Y429768D01*
X2282820Y378968D02*
X2280788Y383032D01*
X2284852D01*
X2282820Y378968D01*
X2384420D02*
X2382388Y383032D01*
X2386452D01*
X2384420Y378968D01*
X2819400Y404368D02*
X2820416Y405384D01*
X2821432D01*
X2820416Y406400D01*
X2821432Y407416D01*
X2820416D01*
X2819400Y408432D01*
X2818384Y407416D01*
X2817368D01*
X2818384Y406400D01*
X2817368Y405384D01*
X2818384D01*
X2819400Y404368D01*
X2882900Y429768D02*
X2883916Y430784D01*
X2884932D01*
X2883916Y431800D01*
X2884932Y432816D01*
X2883916D01*
X2882900Y433832D01*
X2881884Y432816D01*
X2880868D01*
X2881884Y431800D01*
X2880868Y430784D01*
X2881884D01*
X2882900Y429768D01*
X2806700Y378968D02*
X2804668Y383032D01*
X2808732D01*
X2806700Y378968D01*
X2908300D02*
X2906268Y383032D01*
X2910332D01*
X2908300Y378968D01*
X3009900Y404368D02*
X3010916Y405384D01*
X3011932D01*
X3010916Y406400D01*
X3011932Y407416D01*
X3010916D01*
X3009900Y408432D01*
X3008884Y407416D01*
X3007868D01*
X3008884Y406400D01*
X3007868Y405384D01*
X3008884D01*
X3009900Y404368D01*
X3073400Y429768D02*
X3074416Y430784D01*
X3075432D01*
X3074416Y431800D01*
X3075432Y432816D01*
X3074416D01*
X3073400Y433832D01*
X3072384Y432816D01*
X3071368D01*
X3072384Y431800D01*
X3071368Y430784D01*
X3072384D01*
X3073400Y429768D01*
X2997200Y378968D02*
X2995168Y383032D01*
X2999232D01*
X2997200Y378968D01*
X3098800D02*
X3096768Y383032D01*
X3100832D01*
X3098800Y378968D01*
X2057402Y213868D02*
X2058418Y214884D01*
X2059435D01*
X2058418Y215900D01*
X2059435Y216916D01*
X2058418D01*
X2057402Y217932D01*
X2056387Y216916D01*
X2055370D01*
X2056387Y215900D01*
X2055370Y214884D01*
X2056387D01*
X2057402Y213868D01*
X2120903Y239268D02*
X2121918Y240284D01*
X2122935D01*
X2121918Y241300D01*
X2122935Y242316D01*
X2121918D01*
X2120903Y243332D01*
X2119886Y242316D01*
X2118871D01*
X2119886Y241300D01*
X2118871Y240284D01*
X2119886D01*
X2120903Y239268D01*
X2044702Y188468D02*
X2042670Y192532D01*
X2046734D01*
X2044702Y188468D01*
X2146302D02*
X2144270Y192532D01*
X2148335D01*
X2146302Y188468D01*
X2247900Y213868D02*
X2248916Y214884D01*
X2249932D01*
X2248916Y215900D01*
X2249932Y216916D01*
X2248916D01*
X2247900Y217932D01*
X2246884Y216916D01*
X2245868D01*
X2246884Y215900D01*
X2245868Y214884D01*
X2246884D01*
X2247900Y213868D01*
X2311400Y239268D02*
X2312416Y240284D01*
X2313432D01*
X2312416Y241300D01*
X2313432Y242316D01*
X2312416D01*
X2311400Y243332D01*
X2310384Y242316D01*
X2309368D01*
X2310384Y241300D01*
X2309368Y240284D01*
X2310384D01*
X2311400Y239268D01*
X2235200Y188468D02*
X2233168Y192532D01*
X2237232D01*
X2235200Y188468D01*
X2336800D02*
X2334768Y192532D01*
X2338832D01*
X2336800Y188468D01*
X2438400Y213868D02*
X2439416Y214884D01*
X2440432D01*
X2439416Y215900D01*
X2440432Y216916D01*
X2439416D01*
X2438400Y217932D01*
X2437384Y216916D01*
X2436368D01*
X2437384Y215900D01*
X2436368Y214884D01*
X2437384D01*
X2438400Y213868D01*
X2501900Y239268D02*
X2502916Y240284D01*
X2503932D01*
X2502916Y241300D01*
X2503932Y242316D01*
X2502916D01*
X2501900Y243332D01*
X2500884Y242316D01*
X2499868D01*
X2500884Y241300D01*
X2499868Y240284D01*
X2500884D01*
X2501900Y239268D01*
X2425700Y188468D02*
X2423668Y192532D01*
X2427732D01*
X2425700Y188468D01*
X2527300D02*
X2525268Y192532D01*
X2529332D01*
X2527300Y188468D01*
X2628900Y213868D02*
X2629916Y214884D01*
X2630932D01*
X2629916Y215900D01*
X2630932Y216916D01*
X2629916D01*
X2628900Y217932D01*
X2627884Y216916D01*
X2626868D01*
X2627884Y215900D01*
X2626868Y214884D01*
X2627884D01*
X2628900Y213868D01*
X2692400Y239268D02*
X2693416Y240284D01*
X2694432D01*
X2693416Y241300D01*
X2694432Y242316D01*
X2693416D01*
X2692400Y243332D01*
X2691384Y242316D01*
X2690368D01*
X2691384Y241300D01*
X2690368Y240284D01*
X2691384D01*
X2692400Y239268D01*
X2616200Y188468D02*
X2614168Y192532D01*
X2618232D01*
X2616200Y188468D01*
X2717800D02*
X2715768Y192532D01*
X2719832D01*
X2717800Y188468D01*
X2819400Y213868D02*
X2820416Y214884D01*
X2821432D01*
X2820416Y215900D01*
X2821432Y216916D01*
X2820416D01*
X2819400Y217932D01*
X2818384Y216916D01*
X2817368D01*
X2818384Y215900D01*
X2817368Y214884D01*
X2818384D01*
X2819400Y213868D01*
X2882900Y239268D02*
X2883916Y240284D01*
X2884932D01*
X2883916Y241300D01*
X2884932Y242316D01*
X2883916D01*
X2882900Y243332D01*
X2881884Y242316D01*
X2880868D01*
X2881884Y241300D01*
X2880868Y240284D01*
X2881884D01*
X2882900Y239268D01*
X2806700Y188468D02*
X2804668Y192532D01*
X2808732D01*
X2806700Y188468D01*
X2908300D02*
X2906268Y192532D01*
X2910332D01*
X2908300Y188468D01*
X3009900Y213868D02*
X3010916Y214884D01*
X3011932D01*
X3010916Y215900D01*
X3011932Y216916D01*
X3010916D01*
X3009900Y217932D01*
X3008884Y216916D01*
X3007868D01*
X3008884Y215900D01*
X3007868Y214884D01*
X3008884D01*
X3009900Y213868D01*
X3073400Y239268D02*
X3074416Y240284D01*
X3075432D01*
X3074416Y241300D01*
X3075432Y242316D01*
X3074416D01*
X3073400Y243332D01*
X3072384Y242316D01*
X3071368D01*
X3072384Y241300D01*
X3071368Y240284D01*
X3072384D01*
X3073400Y239268D01*
X2997200Y188468D02*
X2995168Y192532D01*
X2999232D01*
X2997200Y188468D01*
X3098800D02*
X3096768Y192532D01*
X3100832D01*
X3098800Y188468D01*
X1837968Y1414468D02*
X1838984D01*
X1840000Y1415484D01*
X1841016Y1414468D01*
X1842032D01*
Y1415484D01*
X1841016Y1416500D01*
X1842032Y1417516D01*
Y1418532D01*
X1841016D01*
X1840000Y1417516D01*
X1838984Y1418532D01*
X1837968D01*
Y1417516D01*
X1838984Y1416500D01*
X1837968Y1415484D01*
Y1414468D01*
X1857968D02*
X1858984D01*
X1860000Y1415484D01*
X1861016Y1414468D01*
X1862032D01*
Y1415484D01*
X1861016Y1416500D01*
X1862032Y1417516D01*
Y1418532D01*
X1861016D01*
X1860000Y1417516D01*
X1858984Y1418532D01*
X1857968D01*
Y1417516D01*
X1858984Y1416500D01*
X1857968Y1415484D01*
Y1414468D01*
X1660418Y1416500D02*
X1662450Y1418532D01*
X1664482Y1416500D01*
X1662450Y1414468D01*
X1660418Y1416500D01*
X1574018D02*
X1576050Y1418532D01*
X1578082Y1416500D01*
X1576050Y1414468D01*
X1574018Y1416500D01*
X1660418Y1362900D02*
X1662450Y1364932D01*
X1664482Y1362900D01*
X1662450Y1360868D01*
X1660418Y1362900D01*
X1574018D02*
X1576050Y1364932D01*
X1578082Y1362900D01*
X1576050Y1360868D01*
X1574018Y1362900D01*
X212281Y135468D02*
Y139532D01*
X216345D01*
Y135468D01*
X212281D01*
X213297Y136484D02*
Y138516D01*
X215329D01*
Y136484D01*
X213297D01*
X450403Y135468D02*
Y139532D01*
X454467D01*
Y135468D01*
X450403D01*
X451419Y136484D02*
Y138516D01*
X453451D01*
Y136484D01*
X451419D01*
X688528Y135468D02*
Y139532D01*
X692592D01*
Y135468D01*
X688528D01*
X689544Y136484D02*
Y138516D01*
X691576D01*
Y136484D01*
X689544D01*
X1402903Y135468D02*
Y139532D01*
X1406967D01*
Y135468D01*
X1402903D01*
X1403919Y136484D02*
Y138516D01*
X1405951D01*
Y136484D01*
X1403919D01*
X2093470Y135468D02*
Y139532D01*
X2097534D01*
Y135468D01*
X2093470D01*
X2094487Y136484D02*
Y138516D01*
X2096519D01*
Y136484D01*
X2094487D01*
X2283968Y135468D02*
Y139532D01*
X2288032D01*
Y135468D01*
X2283968D01*
X2284984Y136484D02*
Y138516D01*
X2287016D01*
Y136484D01*
X2284984D01*
X2474468Y135468D02*
Y139532D01*
X2478532D01*
Y135468D01*
X2474468D01*
X2475484Y136484D02*
Y138516D01*
X2477516D01*
Y136484D01*
X2475484D01*
X2664968Y135468D02*
Y139532D01*
X2669032D01*
Y135468D01*
X2664968D01*
X2665984Y136484D02*
Y138516D01*
X2668016D01*
Y136484D01*
X2665984D01*
X998088Y325968D02*
Y330032D01*
X1002152D01*
Y325968D01*
X998088D01*
X999104Y326984D02*
Y329016D01*
X1001136D01*
Y326984D01*
X999104D01*
X2593528Y325968D02*
Y330032D01*
X2597592D01*
Y325968D01*
X2593528D01*
X2594544Y326984D02*
Y329016D01*
X2596576D01*
Y326984D01*
X2594544D01*
X2331588Y325968D02*
Y330032D01*
X2335652D01*
Y325968D01*
X2331588D01*
X2332604Y326984D02*
Y329016D01*
X2334636D01*
Y326984D01*
X2332604D01*
X2141088Y325968D02*
Y330032D01*
X2145152D01*
Y325968D01*
X2141088D01*
X2142104Y326984D02*
Y329016D01*
X2144136D01*
Y326984D01*
X2142104D01*
X1950588Y325968D02*
Y330032D01*
X1954652D01*
Y325968D01*
X1950588D01*
X1951604Y326984D02*
Y329016D01*
X1953636D01*
Y326984D01*
X1951604D01*
X1760088Y325968D02*
Y330032D01*
X1764152D01*
Y325968D01*
X1760088D01*
X1761104Y326984D02*
Y329016D01*
X1763136D01*
Y326984D01*
X1761104D01*
X2855468Y135468D02*
Y139532D01*
X2859532D01*
Y135468D01*
X2855468D01*
X2856484Y136484D02*
Y138516D01*
X2858516D01*
Y136484D01*
X2856484D01*
X3045968Y135468D02*
Y139532D01*
X3050032D01*
Y135468D01*
X3045968D01*
X3046984Y136484D02*
Y138516D01*
X3049016D01*
Y136484D01*
X3046984D01*
X3045968Y325968D02*
Y330032D01*
X3050032D01*
Y325968D01*
X3045968D01*
X3046984Y326984D02*
Y329016D01*
X3049016D01*
Y326984D01*
X3046984D01*
X2855468Y325968D02*
Y330032D01*
X2859532D01*
Y325968D01*
X2855468D01*
X2856484Y326984D02*
Y329016D01*
X2858516D01*
Y326984D01*
X2856484D01*
X1569588Y325968D02*
Y330032D01*
X1573652D01*
Y325968D01*
X1569588D01*
X1570604Y326984D02*
Y329016D01*
X1572636D01*
Y326984D01*
X1570604D01*
X1379088Y325968D02*
Y330032D01*
X1383152D01*
Y325968D01*
X1379088D01*
X1380104Y326984D02*
Y329016D01*
X1382136D01*
Y326984D01*
X1380104D01*
X1188588Y325968D02*
Y330032D01*
X1192652D01*
Y325968D01*
X1188588D01*
X1189604Y326984D02*
Y329016D01*
X1191636D01*
Y326984D01*
X1189604D01*
X1855348Y516468D02*
Y520532D01*
X1859412D01*
Y516468D01*
X1855348D01*
X1856364Y517484D02*
Y519516D01*
X1858396D01*
Y517484D01*
X1856364D01*
X807588Y325968D02*
Y330032D01*
X811652D01*
Y325968D01*
X807588D01*
X808604Y326984D02*
Y329016D01*
X810636D01*
Y326984D01*
X808604D01*
X307530Y325968D02*
Y330032D01*
X311595D01*
Y325968D01*
X307530D01*
X308547Y326984D02*
Y329016D01*
X310578D01*
Y326984D01*
X308547D01*
X617090Y325968D02*
Y330032D01*
X621155D01*
Y325968D01*
X617090D01*
X618106Y326984D02*
Y329016D01*
X620139D01*
Y326984D01*
X618106D01*
X1283848Y516468D02*
Y520532D01*
X1287912D01*
Y516468D01*
X1283848D01*
X1284864Y517484D02*
Y519516D01*
X1286896D01*
Y517484D01*
X1284864D01*
X1093348Y516468D02*
Y520532D01*
X1097412D01*
Y516468D01*
X1093348D01*
X1094364Y517484D02*
Y519516D01*
X1096396D01*
Y517484D01*
X1094364D01*
X902848Y516468D02*
Y520532D01*
X906912D01*
Y516468D01*
X902848D01*
X903864Y517484D02*
Y519516D01*
X905896D01*
Y517484D01*
X903864D01*
X1664848Y516468D02*
Y520532D01*
X1668912D01*
Y516468D01*
X1664848D01*
X1665864Y517484D02*
Y519516D01*
X1667896D01*
Y517484D01*
X1665864D01*
X1474348Y516468D02*
Y520532D01*
X1478412D01*
Y516468D01*
X1474348D01*
X1475364Y517484D02*
Y519516D01*
X1477396D01*
Y517484D01*
X1475364D01*
X712348Y516468D02*
Y520532D01*
X716412D01*
Y516468D01*
X712348D01*
X713364Y517484D02*
Y519516D01*
X715396D01*
Y517484D01*
X713364D01*
X521848Y516468D02*
Y520532D01*
X525912D01*
Y516468D01*
X521848D01*
X522864Y517484D02*
Y519516D01*
X524896D01*
Y517484D01*
X522864D01*
X259905Y516468D02*
Y520532D01*
X263969D01*
Y516468D01*
X259905D01*
X260921Y517484D02*
Y519516D01*
X262953D01*
Y517484D01*
X260921D01*
X2045848Y516468D02*
Y520532D01*
X2049912D01*
Y516468D01*
X2045848D01*
X2046864Y517484D02*
Y519516D01*
X2048896D01*
Y517484D01*
X2046864D01*
X2426848Y516468D02*
Y520532D01*
X2430912D01*
Y516468D01*
X2426848D01*
X2427864Y517484D02*
Y519516D01*
X2429896D01*
Y517484D01*
X2427864D01*
X2236348Y516468D02*
Y520532D01*
X2240412D01*
Y516468D01*
X2236348D01*
X2237364Y517484D02*
Y519516D01*
X2239396D01*
Y517484D01*
X2237364D01*
X2736411Y516468D02*
Y520532D01*
X2740475D01*
Y516468D01*
X2736411D01*
X2737426Y517484D02*
Y519516D01*
X2739459D01*
Y517484D01*
X2737426D01*
X3045968Y516468D02*
Y520532D01*
X3050032D01*
Y516468D01*
X3045968D01*
X3046984Y517484D02*
Y519516D01*
X3049016D01*
Y517484D01*
X3046984D01*
X3045968Y706968D02*
Y711032D01*
X3050032D01*
Y706968D01*
X3045968D01*
X3046984Y707984D02*
Y710016D01*
X3049016D01*
Y707984D01*
X3046984D01*
X2807848Y706968D02*
Y711032D01*
X2811912D01*
Y706968D01*
X2807848D01*
X2808864Y707984D02*
Y710016D01*
X2810896D01*
Y707984D01*
X2808864D01*
X2569718Y706968D02*
Y711032D01*
X2573782D01*
Y706968D01*
X2569718D01*
X2570734Y707984D02*
Y710016D01*
X2572766D01*
Y707984D01*
X2570734D01*
X1807718Y706968D02*
Y711032D01*
X1811782D01*
Y706968D01*
X1807718D01*
X1808734Y707984D02*
Y710016D01*
X1810766D01*
Y707984D01*
X1808734D01*
X1617218Y706968D02*
Y711032D01*
X1621282D01*
Y706968D01*
X1617218D01*
X1618234Y707984D02*
Y710016D01*
X1620266D01*
Y707984D01*
X1618234D01*
X1426718Y706968D02*
Y711032D01*
X1430782D01*
Y706968D01*
X1426718D01*
X1427734Y707984D02*
Y710016D01*
X1429766D01*
Y707984D01*
X1427734D01*
X664718Y706968D02*
Y711032D01*
X668782D01*
Y706968D01*
X664718D01*
X665734Y707984D02*
Y710016D01*
X667766D01*
Y707984D01*
X665734D01*
X1236218Y706968D02*
Y711032D01*
X1240282D01*
Y706968D01*
X1236218D01*
X1237234Y707984D02*
Y710016D01*
X1239266D01*
Y707984D01*
X1237234D01*
X1045718Y706968D02*
Y711032D01*
X1049782D01*
Y706968D01*
X1045718D01*
X1046734Y707984D02*
Y710016D01*
X1048766D01*
Y707984D01*
X1046734D01*
X855218Y706968D02*
Y711032D01*
X859282D01*
Y706968D01*
X855218D01*
X856234Y707984D02*
Y710016D01*
X858266D01*
Y707984D01*
X856234D01*
X2379218Y706968D02*
Y711032D01*
X2383282D01*
Y706968D01*
X2379218D01*
X2380234Y707984D02*
Y710016D01*
X2382266D01*
Y707984D01*
X2380234D01*
X2188718Y706968D02*
Y711032D01*
X2192782D01*
Y706968D01*
X2188718D01*
X2189734Y707984D02*
Y710016D01*
X2191766D01*
Y707984D01*
X2189734D01*
X1998218Y706968D02*
Y711032D01*
X2002282D01*
Y706968D01*
X1998218D01*
X1999234Y707984D02*
Y710016D01*
X2001266D01*
Y707984D01*
X1999234D01*
X2093470Y897468D02*
Y901532D01*
X2097534D01*
Y897468D01*
X2093470D01*
X2094487Y898484D02*
Y900516D01*
X2096519D01*
Y898484D01*
X2094487D01*
X2760218Y897468D02*
Y901532D01*
X2764282D01*
Y897468D01*
X2760218D01*
X2761234Y898484D02*
Y900516D01*
X2763266D01*
Y898484D01*
X2761234D01*
X474218Y706968D02*
Y711032D01*
X478282D01*
Y706968D01*
X474218D01*
X475234Y707984D02*
Y710016D01*
X477266D01*
Y707984D01*
X475234D01*
X188468Y897468D02*
Y901532D01*
X192532D01*
Y897468D01*
X188468D01*
X189484Y898484D02*
Y900516D01*
X191516D01*
Y898484D01*
X189484D01*
X236093Y706968D02*
Y711032D01*
X240157D01*
Y706968D01*
X236093D01*
X237109Y707984D02*
Y710016D01*
X239141D01*
Y707984D01*
X237109D01*
X378968Y897468D02*
Y901532D01*
X383032D01*
Y897468D01*
X378968D01*
X379984Y898484D02*
Y900516D01*
X382016D01*
Y898484D01*
X379984D01*
X950468Y897468D02*
Y901532D01*
X954532D01*
Y897468D01*
X950468D01*
X951484Y898484D02*
Y900516D01*
X953516D01*
Y898484D01*
X951484D01*
X759968Y897468D02*
Y901532D01*
X764032D01*
Y897468D01*
X759968D01*
X760984Y898484D02*
Y900516D01*
X763016D01*
Y898484D01*
X760984D01*
X569468Y897468D02*
Y901532D01*
X573532D01*
Y897468D01*
X569468D01*
X570484Y898484D02*
Y900516D01*
X572516D01*
Y898484D01*
X570484D01*
X1521968Y897468D02*
Y901532D01*
X1526032D01*
Y897468D01*
X1521968D01*
X1522984Y898484D02*
Y900516D01*
X1525016D01*
Y898484D01*
X1522984D01*
X1712468Y897468D02*
Y901532D01*
X1716532D01*
Y897468D01*
X1712468D01*
X1713484Y898484D02*
Y900516D01*
X1715516D01*
Y898484D01*
X1713484D01*
X2474468Y897468D02*
Y901532D01*
X2478532D01*
Y897468D01*
X2474468D01*
X2475484Y898484D02*
Y900516D01*
X2477516D01*
Y898484D01*
X2475484D01*
X3045968Y897468D02*
Y901532D01*
X3050032D01*
Y897468D01*
X3045968D01*
X3046984Y898484D02*
Y900516D01*
X3049016D01*
Y898484D01*
X3046984D01*
X2283968Y897468D02*
Y901532D01*
X2288032D01*
Y897468D01*
X2283968D01*
X2284984Y898484D02*
Y900516D01*
X2287016D01*
Y898484D01*
X2284984D01*
X1902968Y897468D02*
Y901532D01*
X1907032D01*
Y897468D01*
X1902968D01*
X1903984Y898484D02*
Y900516D01*
X1906016D01*
Y898484D01*
X1903984D01*
X1331468Y897468D02*
Y901532D01*
X1335532D01*
Y897468D01*
X1331468D01*
X1332484Y898484D02*
Y900516D01*
X1334516D01*
Y898484D01*
X1332484D01*
X1140968Y897468D02*
Y901532D01*
X1145032D01*
Y897468D01*
X1140968D01*
X1141984Y898484D02*
Y900516D01*
X1144016D01*
Y898484D01*
X1141984D01*
X2855468Y1087968D02*
Y1092032D01*
X2859532D01*
Y1087968D01*
X2855468D01*
X2856484Y1088984D02*
Y1091016D01*
X2858516D01*
Y1088984D01*
X2856484D01*
X2474468Y1087968D02*
Y1092032D01*
X2478532D01*
Y1087968D01*
X2474468D01*
X2475484Y1088984D02*
Y1091016D01*
X2477516D01*
Y1088984D01*
X2475484D01*
X950468Y1087968D02*
Y1092032D01*
X954532D01*
Y1087968D01*
X950468D01*
X951484Y1088984D02*
Y1091016D01*
X953516D01*
Y1088984D01*
X951484D01*
X2283968Y1087968D02*
Y1092032D01*
X2288032D01*
Y1087968D01*
X2283968D01*
X2284984Y1088984D02*
Y1091016D01*
X2287016D01*
Y1088984D01*
X2284984D01*
X1902968Y1087968D02*
Y1092032D01*
X1907032D01*
Y1087968D01*
X1902968D01*
X1903984Y1088984D02*
Y1091016D01*
X1906016D01*
Y1088984D01*
X1903984D01*
X2093468Y1087968D02*
Y1092032D01*
X2097532D01*
Y1087968D01*
X2093468D01*
X2094484Y1088984D02*
Y1091016D01*
X2096516D01*
Y1088984D01*
X2094484D01*
X1140968Y1087968D02*
Y1092032D01*
X1145032D01*
Y1087968D01*
X1140968D01*
X1141984Y1088984D02*
Y1091016D01*
X1144016D01*
Y1088984D01*
X1141984D01*
X1521968Y1087968D02*
Y1092032D01*
X1526032D01*
Y1087968D01*
X1521968D01*
X1522984Y1088984D02*
Y1091016D01*
X1525016D01*
Y1088984D01*
X1522984D01*
X759968Y1087968D02*
Y1092032D01*
X764032D01*
Y1087968D01*
X759968D01*
X760984Y1088984D02*
Y1091016D01*
X763016D01*
Y1088984D01*
X760984D01*
X378968Y1087968D02*
Y1092032D01*
X383032D01*
Y1087968D01*
X378968D01*
X379984Y1088984D02*
Y1091016D01*
X382016D01*
Y1088984D01*
X379984D01*
X3045968Y1087968D02*
Y1092032D01*
X3050032D01*
Y1087968D01*
X3045968D01*
X3046984Y1088984D02*
Y1091016D01*
X3049016D01*
Y1088984D01*
X3046984D01*
X2664969Y1087968D02*
Y1092032D01*
X2669033D01*
Y1087968D01*
X2664969D01*
X2665984Y1088984D02*
Y1091016D01*
X2668016D01*
Y1088984D01*
X2665984D01*
X1712468Y1087968D02*
Y1092032D01*
X1716532D01*
Y1087968D01*
X1712468D01*
X1713484Y1088984D02*
Y1091016D01*
X1715516D01*
Y1088984D01*
X1713484D01*
X1331468Y1087968D02*
Y1092032D01*
X1335532D01*
Y1087968D01*
X1331468D01*
X1332484Y1088984D02*
Y1091016D01*
X1334516D01*
Y1088984D01*
X1332484D01*
X569468Y1087968D02*
Y1092032D01*
X573532D01*
Y1087968D01*
X569468D01*
X570484Y1088984D02*
Y1091016D01*
X572516D01*
Y1088984D01*
X570484D01*
X188468Y1087968D02*
Y1092032D01*
X192532D01*
Y1087968D01*
X188468D01*
X189484Y1088984D02*
Y1091016D01*
X191516D01*
Y1088984D01*
X189484D01*
X403500Y1386468D02*
X401468Y1390532D01*
X405532D01*
X403500Y1386468D01*
Y1387484D02*
X402484Y1389516D01*
X404516D01*
X403500Y1387484D01*
X413999Y1335965D02*
X415015Y1336981D01*
X416031D01*
X415015Y1337997D01*
X416031Y1339013D01*
X415015D01*
X413999Y1340029D01*
X412983Y1339013D01*
X411967D01*
X412983Y1337997D01*
X411967Y1336981D01*
X412983D01*
X413999Y1335965D01*
Y1336981D02*
X414507Y1337489D01*
X415015D01*
X414507Y1337997D01*
X415015Y1338505D01*
X414507D01*
X413999Y1339013D01*
X413491Y1338505D01*
X412983D01*
X413491Y1337997D01*
X412983Y1337489D01*
X413491D01*
X413999Y1336981D01*
X408496Y1381468D02*
X406464Y1385532D01*
X410528D01*
X408496Y1381468D01*
Y1382484D02*
X407480Y1384516D01*
X409512D01*
X408496Y1382484D01*
X412999Y1326965D02*
X410967Y1331029D01*
X415031D01*
X412999Y1326965D01*
Y1327981D02*
X411983Y1330013D01*
X414015D01*
X412999Y1327981D01*
Y1346965D02*
X410967Y1351029D01*
X415031D01*
X412999Y1346965D01*
Y1347981D02*
X411983Y1350013D01*
X414015D01*
X412999Y1347981D01*
X1314416Y1319416D02*
X1315432Y1321448D01*
X1314416Y1323480D01*
X1316448Y1322464D01*
X1318480Y1323480D01*
X1317464Y1321448D01*
X1318480Y1319416D01*
X1316448Y1320432D01*
X1314416Y1319416D01*
X1315432Y1320432D02*
X1315940Y1321448D01*
X1315432Y1322464D01*
X1316448Y1321956D01*
X1317464Y1322464D01*
X1316956Y1321448D01*
X1317464Y1320432D01*
X1316448Y1320940D01*
X1315432Y1320432D01*
X1327273Y1341868D02*
X1328289Y1343900D01*
X1327273Y1345932D01*
X1329305Y1344916D01*
X1331337Y1345932D01*
X1330321Y1343900D01*
X1331337Y1341868D01*
X1329305Y1342884D01*
X1327273Y1341868D01*
X1328289Y1342884D02*
X1328797Y1343900D01*
X1328289Y1344916D01*
X1329305Y1344408D01*
X1330321Y1344916D01*
X1329813Y1343900D01*
X1330321Y1342884D01*
X1329305Y1343392D01*
X1328289Y1342884D01*
X1258984Y1338324D02*
Y1337308D01*
X1261016D01*
Y1338324D01*
X1262032D01*
Y1340356D01*
X1261016D01*
Y1341372D01*
X1258984D01*
Y1340356D01*
X1257968D01*
Y1338324D01*
X1258984D01*
X1259492Y1338832D02*
Y1338324D01*
X1260508D01*
Y1338832D01*
X1261016D01*
Y1339848D01*
X1260508D01*
Y1340356D01*
X1259492D01*
Y1339848D01*
X1258984D01*
Y1338832D01*
X1259492D01*
X1644718Y1307783D02*
X1645734D01*
X1646750Y1308799D01*
X1647766Y1307783D01*
X1648782D01*
Y1308799D01*
X1647766Y1309815D01*
X1648782Y1310831D01*
Y1311847D01*
X1647766D01*
X1646750Y1310831D01*
X1645734Y1311847D01*
X1644718D01*
Y1310831D01*
X1645734Y1309815D01*
X1644718Y1308799D01*
Y1307783D01*
X1645734Y1308799D02*
X1646242D01*
X1646750Y1309307D01*
X1647258Y1308799D01*
X1647766D01*
Y1309307D01*
X1647258Y1309815D01*
X1647766Y1310323D01*
Y1310831D01*
X1647258D01*
X1646750Y1310323D01*
X1646242Y1310831D01*
X1645734D01*
Y1310323D01*
X1646242Y1309815D01*
X1645734Y1309307D01*
Y1308799D01*
X1589718Y1307783D02*
X1590734D01*
X1591750Y1308799D01*
X1592766Y1307783D01*
X1593782D01*
Y1308799D01*
X1592766Y1309815D01*
X1593782Y1310831D01*
Y1311847D01*
X1592766D01*
X1591750Y1310831D01*
X1590734Y1311847D01*
X1589718D01*
Y1310831D01*
X1590734Y1309815D01*
X1589718Y1308799D01*
Y1307783D01*
X1590734Y1308799D02*
X1591242D01*
X1591750Y1309307D01*
X1592258Y1308799D01*
X1592766D01*
Y1309307D01*
X1592258Y1309815D01*
X1592766Y1310323D01*
Y1310831D01*
X1592258D01*
X1591750Y1310323D01*
X1591242Y1310831D01*
X1590734D01*
Y1310323D01*
X1591242Y1309815D01*
X1590734Y1309307D01*
Y1308799D01*
X1080468Y1337155D02*
X1081484Y1339187D01*
X1080468Y1341219D01*
X1082500Y1340203D01*
X1084532Y1341219D01*
X1083516Y1339187D01*
X1084532Y1337155D01*
X1082500Y1338171D01*
X1080468Y1337155D01*
X1081484Y1338171D02*
X1081992Y1339187D01*
X1081484Y1340203D01*
X1082500Y1339695D01*
X1083516Y1340203D01*
X1083008Y1339187D01*
X1083516Y1338171D01*
X1082500Y1338679D01*
X1081484Y1338171D01*
X1126678Y1327218D02*
X1127694Y1329250D01*
X1126678Y1331282D01*
X1128710Y1330266D01*
X1130742Y1331282D01*
X1129726Y1329250D01*
X1130742Y1327218D01*
X1128710Y1328234D01*
X1126678Y1327218D01*
X1127694Y1328234D02*
X1128202Y1329250D01*
X1127694Y1330266D01*
X1128710Y1329758D01*
X1129726Y1330266D01*
X1129218Y1329250D01*
X1129726Y1328234D01*
X1128710Y1328742D01*
X1127694Y1328234D01*
X3084468Y326440D02*
X3085484D01*
X3086500Y327456D01*
X3087516Y326440D01*
X3088532D01*
Y327456D01*
X3087516Y328472D01*
X3088532Y329488D01*
Y330504D01*
X3087516D01*
X3086500Y329488D01*
X3085484Y330504D01*
X3084468D01*
Y329488D01*
X3085484Y328472D01*
X3084468Y327456D01*
Y326440D01*
X3085484Y327456D02*
X3085992D01*
X3086500Y327964D01*
X3087008Y327456D01*
X3087516D01*
Y327964D01*
X3087008Y328472D01*
X3087516Y328980D01*
Y329488D01*
X3087008D01*
X3086500Y328980D01*
X3085992Y329488D01*
X3085484D01*
Y328980D01*
X3085992Y328472D01*
X3085484Y327964D01*
Y327456D01*
X2997781Y285468D02*
X2998797D01*
X2999813Y286484D01*
X3000829Y285468D01*
X3001845D01*
Y286484D01*
X3000829Y287500D01*
X3001845Y288516D01*
Y289532D01*
X3000829D01*
X2999813Y288516D01*
X2998797Y289532D01*
X2997781D01*
Y288516D01*
X2998797Y287500D01*
X2997781Y286484D01*
Y285468D01*
X2998797Y286484D02*
X2999305D01*
X2999813Y286992D01*
X3000321Y286484D01*
X3000829D01*
Y286992D01*
X3000321Y287500D01*
X3000829Y288008D01*
Y288516D01*
X3000321D01*
X2999813Y288008D01*
X2999305Y288516D01*
X2998797D01*
Y288008D01*
X2999305Y287500D01*
X2998797Y286992D01*
Y286484D01*
X2689965Y333168D02*
X2690981D01*
X2691997Y334184D01*
X2693013Y333168D01*
X2694029D01*
Y334184D01*
X2693013Y335200D01*
X2694029Y336216D01*
Y337232D01*
X2693013D01*
X2691997Y336216D01*
X2690981Y337232D01*
X2689965D01*
Y336216D01*
X2690981Y335200D01*
X2689965Y334184D01*
Y333168D01*
X2690981Y334184D02*
X2691489D01*
X2691997Y334692D01*
X2692505Y334184D01*
X2693013D01*
Y334692D01*
X2692505Y335200D01*
X2693013Y335708D01*
Y336216D01*
X2692505D01*
X2691997Y335708D01*
X2691489Y336216D01*
X2690981D01*
Y335708D01*
X2691489Y335200D01*
X2690981Y334692D01*
Y334184D01*
X2534011Y295468D02*
X2535027D01*
X2536043Y296484D01*
X2537059Y295468D01*
X2538075D01*
Y296484D01*
X2537059Y297500D01*
X2538075Y298516D01*
Y299532D01*
X2537059D01*
X2536043Y298516D01*
X2535027Y299532D01*
X2534011D01*
Y298516D01*
X2535027Y297500D01*
X2534011Y296484D01*
Y295468D01*
X2535027Y296484D02*
X2535535D01*
X2536043Y296992D01*
X2536551Y296484D01*
X2537059D01*
Y296992D01*
X2536551Y297500D01*
X2537059Y298008D01*
Y298516D01*
X2536551D01*
X2536043Y298008D01*
X2535535Y298516D01*
X2535027D01*
Y298008D01*
X2535535Y297500D01*
X2535027Y296992D01*
Y296484D01*
X177500Y1345000D02*
Y1348386D01*
X179193Y1350078D01*
X180886Y1348386D01*
Y1345000D01*
Y1347539D01*
X177500D01*
X214312Y70000D02*
Y73386D01*
X216005Y75078D01*
X217698Y73386D01*
Y70000D01*
Y72539D01*
X214312D01*
X3030000Y71270D02*
Y74656D01*
X3031693Y76348D01*
X3033386Y74656D01*
Y71270D01*
Y73809D01*
X3030000D01*
Y1370000D02*
Y1373386D01*
X3031693Y1375078D01*
X3033386Y1373386D01*
Y1370000D01*
Y1372539D01*
X3030000D01*
X375000Y1411968D02*
X376016Y1412984D01*
X377032D01*
X376016Y1414000D01*
X377032Y1415016D01*
X376016D01*
X375000Y1416032D01*
X373984Y1415016D01*
X372968D01*
X373984Y1414000D01*
X372968Y1412984D01*
X373984D01*
X375000Y1411968D01*
Y1412984D02*
X375508Y1413492D01*
X376016D01*
X375508Y1414000D01*
X376016Y1414508D01*
X375508D01*
X375000Y1415016D01*
X374492Y1414508D01*
X373984D01*
X374492Y1414000D01*
X373984Y1413492D01*
X374492D01*
X375000Y1412984D01*
X225000Y1084968D02*
X226016Y1085984D01*
X227032D01*
X226016Y1087000D01*
X227032Y1088016D01*
X226016D01*
X225000Y1089032D01*
X223984Y1088016D01*
X222968D01*
X223984Y1087000D01*
X222968Y1085984D01*
X223984D01*
X225000Y1084968D01*
Y1085984D02*
X225508Y1086492D01*
X226016D01*
X225508Y1087000D01*
X226016Y1087508D01*
X225508D01*
X225000Y1088016D01*
X224492Y1087508D01*
X223984D01*
X224492Y1087000D01*
X223984Y1086492D01*
X224492D01*
X225000Y1085984D01*
X215900Y1047968D02*
X216916Y1048984D01*
X217932D01*
X216916Y1050000D01*
X217932Y1051016D01*
X216916D01*
X215900Y1052032D01*
X214884Y1051016D01*
X213868D01*
X214884Y1050000D01*
X213868Y1048984D01*
X214884D01*
X215900Y1047968D01*
Y1048984D02*
X216408Y1049492D01*
X216916D01*
X216408Y1050000D01*
X216916Y1050508D01*
X216408D01*
X215900Y1051016D01*
X215392Y1050508D01*
X214884D01*
X215392Y1050000D01*
X214884Y1049492D01*
X215392D01*
X215900Y1048984D01*
X3084468Y135468D02*
X3085484D01*
X3086500Y136484D01*
X3087516Y135468D01*
X3088532D01*
Y136484D01*
X3087516Y137500D01*
X3088532Y138516D01*
Y139532D01*
X3087516D01*
X3086500Y138516D01*
X3085484Y139532D01*
X3084468D01*
Y138516D01*
X3085484Y137500D01*
X3084468Y136484D01*
Y135468D01*
X3085484Y136484D02*
X3085992D01*
X3086500Y136992D01*
X3087008Y136484D01*
X3087516D01*
Y136992D01*
X3087008Y137500D01*
X3087516Y138008D01*
Y138516D01*
X3087008D01*
X3086500Y138008D01*
X3085992Y138516D01*
X3085484D01*
Y138008D01*
X3085992Y137500D01*
X3085484Y136992D01*
Y136484D01*
X2893968Y135468D02*
X2894984D01*
X2896000Y136484D01*
X2897016Y135468D01*
X2898032D01*
Y136484D01*
X2897016Y137500D01*
X2898032Y138516D01*
Y139532D01*
X2897016D01*
X2896000Y138516D01*
X2894984Y139532D01*
X2893968D01*
Y138516D01*
X2894984Y137500D01*
X2893968Y136484D01*
Y135468D01*
X2894984Y136484D02*
X2895492D01*
X2896000Y136992D01*
X2896508Y136484D01*
X2897016D01*
Y136992D01*
X2896508Y137500D01*
X2897016Y138008D01*
Y138516D01*
X2896508D01*
X2896000Y138008D01*
X2895492Y138516D01*
X2894984D01*
Y138008D01*
X2895492Y137500D01*
X2894984Y136992D01*
Y136484D01*
X2983659Y140968D02*
X2984675D01*
X2985691Y141984D01*
X2986707Y140968D01*
X2987723D01*
Y141984D01*
X2986707Y143000D01*
X2987723Y144016D01*
Y145032D01*
X2986707D01*
X2985691Y144016D01*
X2984675Y145032D01*
X2983659D01*
Y144016D01*
X2984675Y143000D01*
X2983659Y141984D01*
Y140968D01*
X2984675Y141984D02*
X2985183D01*
X2985691Y142492D01*
X2986199Y141984D01*
X2986707D01*
Y142492D01*
X2986199Y143000D01*
X2986707Y143508D01*
Y144016D01*
X2986199D01*
X2985691Y143508D01*
X2985183Y144016D01*
X2984675D01*
Y143508D01*
X2985183Y143000D01*
X2984675Y142492D01*
Y141984D01*
X2793158Y140968D02*
X2794174D01*
X2795190Y141984D01*
X2796206Y140968D01*
X2797222D01*
Y141984D01*
X2796206Y143000D01*
X2797222Y144016D01*
Y145032D01*
X2796206D01*
X2795190Y144016D01*
X2794174Y145032D01*
X2793158D01*
Y144016D01*
X2794174Y143000D01*
X2793158Y141984D01*
Y140968D01*
X2794174Y141984D02*
X2794682D01*
X2795190Y142492D01*
X2795699Y141984D01*
X2796206D01*
Y142492D01*
X2795699Y143000D01*
X2796206Y143508D01*
Y144016D01*
X2795699D01*
X2795190Y143508D01*
X2794682Y144016D01*
X2794174D01*
Y143508D01*
X2794682Y143000D01*
X2794174Y142492D01*
Y141984D01*
X2703468Y135468D02*
X2704484D01*
X2705500Y136484D01*
X2706516Y135468D01*
X2707532D01*
Y136484D01*
X2706516Y137500D01*
X2707532Y138516D01*
Y139532D01*
X2706516D01*
X2705500Y138516D01*
X2704484Y139532D01*
X2703468D01*
Y138516D01*
X2704484Y137500D01*
X2703468Y136484D01*
Y135468D01*
X2704484Y136484D02*
X2704992D01*
X2705500Y136992D01*
X2706008Y136484D01*
X2706516D01*
Y136992D01*
X2706008Y137500D01*
X2706516Y138008D01*
Y138516D01*
X2706008D01*
X2705500Y138008D01*
X2704992Y138516D01*
X2704484D01*
Y138008D01*
X2704992Y137500D01*
X2704484Y136992D01*
Y136484D01*
X2512968Y135468D02*
X2513984D01*
X2515000Y136484D01*
X2516016Y135468D01*
X2517032D01*
Y136484D01*
X2516016Y137500D01*
X2517032Y138516D01*
Y139532D01*
X2516016D01*
X2515000Y138516D01*
X2513984Y139532D01*
X2512968D01*
Y138516D01*
X2513984Y137500D01*
X2512968Y136484D01*
Y135468D01*
X2513984Y136484D02*
X2514492D01*
X2515000Y136992D01*
X2515508Y136484D01*
X2516016D01*
Y136992D01*
X2515508Y137500D01*
X2516016Y138008D01*
Y138516D01*
X2515508D01*
X2515000Y138008D01*
X2514492Y138516D01*
X2513984D01*
Y138008D01*
X2514492Y137500D01*
X2513984Y136992D01*
Y136484D01*
X2602659Y140968D02*
X2603675D01*
X2604691Y141984D01*
X2605707Y140968D01*
X2606723D01*
Y141984D01*
X2605707Y143000D01*
X2606723Y144016D01*
Y145032D01*
X2605707D01*
X2604691Y144016D01*
X2603675Y145032D01*
X2602659D01*
Y144016D01*
X2603675Y143000D01*
X2602659Y141984D01*
Y140968D01*
X2603675Y141984D02*
X2604183D01*
X2604691Y142492D01*
X2605199Y141984D01*
X2605707D01*
Y142492D01*
X2605199Y143000D01*
X2605707Y143508D01*
Y144016D01*
X2605199D01*
X2604691Y143508D01*
X2604183Y144016D01*
X2603675D01*
Y143508D01*
X2604183Y143000D01*
X2603675Y142492D01*
Y141984D01*
X2412158Y140968D02*
X2413174D01*
X2414190Y141984D01*
X2415206Y140968D01*
X2416222D01*
Y141984D01*
X2415206Y143000D01*
X2416222Y144016D01*
Y145032D01*
X2415206D01*
X2414190Y144016D01*
X2413174Y145032D01*
X2412158D01*
Y144016D01*
X2413174Y143000D01*
X2412158Y141984D01*
Y140968D01*
X2413174Y141984D02*
X2413682D01*
X2414190Y142492D01*
X2414698Y141984D01*
X2415206D01*
Y142492D01*
X2414698Y143000D01*
X2415206Y143508D01*
Y144016D01*
X2414698D01*
X2414190Y143508D01*
X2413682Y144016D01*
X2413174D01*
Y143508D01*
X2413682Y143000D01*
X2413174Y142492D01*
Y141984D01*
X2322471Y135468D02*
X2323486D01*
X2324503Y136484D01*
X2325518Y135468D01*
X2326534D01*
Y136484D01*
X2325518Y137500D01*
X2326534Y138516D01*
Y139532D01*
X2325518D01*
X2324503Y138516D01*
X2323486Y139532D01*
X2322471D01*
Y138516D01*
X2323486Y137500D01*
X2322471Y136484D01*
Y135468D01*
X2323486Y136484D02*
X2323994D01*
X2324503Y136992D01*
X2325011Y136484D01*
X2325518D01*
Y136992D01*
X2325011Y137500D01*
X2325518Y138008D01*
Y138516D01*
X2325011D01*
X2324503Y138008D01*
X2323994Y138516D01*
X2323486D01*
Y138008D01*
X2323994Y137500D01*
X2323486Y136992D01*
Y136484D01*
X2131970Y135468D02*
X2132986D01*
X2134002Y136484D01*
X2135018Y135468D01*
X2136034D01*
Y136484D01*
X2135018Y137500D01*
X2136034Y138516D01*
Y139532D01*
X2135018D01*
X2134002Y138516D01*
X2132986Y139532D01*
X2131970D01*
Y138516D01*
X2132986Y137500D01*
X2131970Y136484D01*
Y135468D01*
X2132986Y136484D02*
X2133494D01*
X2134002Y136992D01*
X2134510Y136484D01*
X2135018D01*
Y136992D01*
X2134510Y137500D01*
X2135018Y138008D01*
Y138516D01*
X2134510D01*
X2134002Y138008D01*
X2133494Y138516D01*
X2132986D01*
Y138008D01*
X2133494Y137500D01*
X2132986Y136992D01*
Y136484D01*
X2221658Y140968D02*
X2222674D01*
X2223690Y141984D01*
X2224706Y140968D01*
X2225722D01*
Y141984D01*
X2224706Y143000D01*
X2225722Y144016D01*
Y145032D01*
X2224706D01*
X2223690Y144016D01*
X2222674Y145032D01*
X2221658D01*
Y144016D01*
X2222674Y143000D01*
X2221658Y141984D01*
Y140968D01*
X2222674Y141984D02*
X2223182D01*
X2223690Y142492D01*
X2224198Y141984D01*
X2224706D01*
Y142492D01*
X2224198Y143000D01*
X2224706Y143508D01*
Y144016D01*
X2224198D01*
X2223690Y143508D01*
X2223182Y144016D01*
X2222674D01*
Y143508D01*
X2223182Y143000D01*
X2222674Y142492D01*
Y141984D01*
X2031158Y140968D02*
X2032174D01*
X2033190Y141984D01*
X2034206Y140968D01*
X2035222D01*
Y141984D01*
X2034206Y143000D01*
X2035222Y144016D01*
Y145032D01*
X2034206D01*
X2033190Y144016D01*
X2032174Y145032D01*
X2031158D01*
Y144016D01*
X2032174Y143000D01*
X2031158Y141984D01*
Y140968D01*
X2032174Y141984D02*
X2032682D01*
X2033190Y142492D01*
X2033698Y141984D01*
X2034206D01*
Y142492D01*
X2033698Y143000D01*
X2034206Y143508D01*
Y144016D01*
X2033698D01*
X2033190Y143508D01*
X2032682Y144016D01*
X2032174D01*
Y143508D01*
X2032682Y143000D01*
X2032174Y142492D01*
Y141984D01*
X1441403Y135468D02*
X1442419D01*
X1443435Y136484D01*
X1444451Y135468D01*
X1445467D01*
Y136484D01*
X1444451Y137500D01*
X1445467Y138516D01*
Y139532D01*
X1444451D01*
X1443435Y138516D01*
X1442419Y139532D01*
X1441403D01*
Y138516D01*
X1442419Y137500D01*
X1441403Y136484D01*
Y135468D01*
X1442419Y136484D02*
X1442927D01*
X1443435Y136992D01*
X1443943Y136484D01*
X1444451D01*
Y136992D01*
X1443943Y137500D01*
X1444451Y138008D01*
Y138516D01*
X1443943D01*
X1443435Y138008D01*
X1442927Y138516D01*
X1442419D01*
Y138008D01*
X1442927Y137500D01*
X1442419Y136992D01*
Y136484D01*
X1340598Y140968D02*
X1341614D01*
X1342630Y141984D01*
X1343646Y140968D01*
X1344662D01*
Y141984D01*
X1343646Y143000D01*
X1344662Y144016D01*
Y145032D01*
X1343646D01*
X1342630Y144016D01*
X1341614Y145032D01*
X1340598D01*
Y144016D01*
X1341614Y143000D01*
X1340598Y141984D01*
Y140968D01*
X1341614Y141984D02*
X1342122D01*
X1342630Y142492D01*
X1343138Y141984D01*
X1343646D01*
Y142492D01*
X1343138Y143000D01*
X1343646Y143508D01*
Y144016D01*
X1343138D01*
X1342630Y143508D01*
X1342122Y144016D01*
X1341614D01*
Y143508D01*
X1342122Y143000D01*
X1341614Y142492D01*
Y141984D01*
X727028Y135468D02*
X728044D01*
X729060Y136484D01*
X730076Y135468D01*
X731092D01*
Y136484D01*
X730076Y137500D01*
X731092Y138516D01*
Y139532D01*
X730076D01*
X729060Y138516D01*
X728044Y139532D01*
X727028D01*
Y138516D01*
X728044Y137500D01*
X727028Y136484D01*
Y135468D01*
X728044Y136484D02*
X728552D01*
X729060Y136992D01*
X729568Y136484D01*
X730076D01*
Y136992D01*
X729568Y137500D01*
X730076Y138008D01*
Y138516D01*
X729568D01*
X729060Y138008D01*
X728552Y138516D01*
X728044D01*
Y138008D01*
X728552Y137500D01*
X728044Y136992D01*
Y136484D01*
X626218Y140968D02*
X627234D01*
X628250Y141984D01*
X629266Y140968D01*
X630282D01*
Y141984D01*
X629266Y143000D01*
X630282Y144016D01*
Y145032D01*
X629266D01*
X628250Y144016D01*
X627234Y145032D01*
X626218D01*
Y144016D01*
X627234Y143000D01*
X626218Y141984D01*
Y140968D01*
X627234Y141984D02*
X627742D01*
X628250Y142492D01*
X628758Y141984D01*
X629266D01*
Y142492D01*
X628758Y143000D01*
X629266Y143508D01*
Y144016D01*
X628758D01*
X628250Y143508D01*
X627742Y144016D01*
X627234D01*
Y143508D01*
X627742Y143000D01*
X627234Y142492D01*
Y141984D01*
X488903Y135468D02*
X489919D01*
X490935Y136484D01*
X491951Y135468D01*
X492967D01*
Y136484D01*
X491951Y137500D01*
X492967Y138516D01*
Y139532D01*
X491951D01*
X490935Y138516D01*
X489919Y139532D01*
X488903D01*
Y138516D01*
X489919Y137500D01*
X488903Y136484D01*
Y135468D01*
X489919Y136484D02*
X490427D01*
X490935Y136992D01*
X491443Y136484D01*
X491951D01*
Y136992D01*
X491443Y137500D01*
X491951Y138008D01*
Y138516D01*
X491443D01*
X490935Y138008D01*
X490427Y138516D01*
X489919D01*
Y138008D01*
X490427Y137500D01*
X489919Y136992D01*
Y136484D01*
X388098Y140968D02*
X389114D01*
X390130Y141984D01*
X391146Y140968D01*
X392162D01*
Y141984D01*
X391146Y143000D01*
X392162Y144016D01*
Y145032D01*
X391146D01*
X390130Y144016D01*
X389114Y145032D01*
X388098D01*
Y144016D01*
X389114Y143000D01*
X388098Y141984D01*
Y140968D01*
X389114Y141984D02*
X389622D01*
X390130Y142492D01*
X390638Y141984D01*
X391146D01*
Y142492D01*
X390638Y143000D01*
X391146Y143508D01*
Y144016D01*
X390638D01*
X390130Y143508D01*
X389622Y144016D01*
X389114D01*
Y143508D01*
X389622Y143000D01*
X389114Y142492D01*
Y141984D01*
X250780Y135468D02*
X251796D01*
X252812Y136484D01*
X253828Y135468D01*
X254844D01*
Y136484D01*
X253828Y137500D01*
X254844Y138516D01*
Y139532D01*
X253828D01*
X252812Y138516D01*
X251796Y139532D01*
X250780D01*
Y138516D01*
X251796Y137500D01*
X250780Y136484D01*
Y135468D01*
X251796Y136484D02*
X252304D01*
X252812Y136992D01*
X253320Y136484D01*
X253828D01*
Y136992D01*
X253320Y137500D01*
X253828Y138008D01*
Y138516D01*
X253320D01*
X252812Y138008D01*
X252304Y138516D01*
X251796D01*
Y138008D01*
X252304Y137500D01*
X251796Y136992D01*
Y136484D01*
X3108278Y703968D02*
X3109294D01*
X3110310Y704984D01*
X3111326Y703968D01*
X3112342D01*
Y704984D01*
X3111326Y706000D01*
X3112342Y707016D01*
Y708032D01*
X3111326D01*
X3110310Y707016D01*
X3109294Y708032D01*
X3108278D01*
Y707016D01*
X3109294Y706000D01*
X3108278Y704984D01*
Y703968D01*
X3109294Y704984D02*
X3109802D01*
X3110310Y705492D01*
X3110818Y704984D01*
X3111326D01*
Y705492D01*
X3110818Y706000D01*
X3111326Y706508D01*
Y707016D01*
X3110818D01*
X3110310Y706508D01*
X3109802Y707016D01*
X3109294D01*
Y706508D01*
X3109802Y706000D01*
X3109294Y705492D01*
Y704984D01*
X2983658Y521968D02*
X2984674D01*
X2985690Y522984D01*
X2986706Y521968D01*
X2987722D01*
Y522984D01*
X2986706Y524000D01*
X2987722Y525016D01*
Y526032D01*
X2986706D01*
X2985690Y525016D01*
X2984674Y526032D01*
X2983658D01*
Y525016D01*
X2984674Y524000D01*
X2983658Y522984D01*
Y521968D01*
X2984674Y522984D02*
X2985182D01*
X2985690Y523492D01*
X2986198Y522984D01*
X2986706D01*
Y523492D01*
X2986198Y524000D01*
X2986706Y524508D01*
Y525016D01*
X2986198D01*
X2985690Y524508D01*
X2985182Y525016D01*
X2984674D01*
Y524508D01*
X2985182Y524000D01*
X2984674Y523492D01*
Y522984D01*
X2685611Y517968D02*
X2686627D01*
X2687643Y518984D01*
X2688659Y517968D01*
X2689675D01*
Y518984D01*
X2688659Y520000D01*
X2689675Y521016D01*
Y522032D01*
X2688659D01*
X2687643Y521016D01*
X2686627Y522032D01*
X2685611D01*
Y521016D01*
X2686627Y520000D01*
X2685611Y518984D01*
Y517968D01*
X2686627Y518984D02*
X2687135D01*
X2687643Y519492D01*
X2688151Y518984D01*
X2688659D01*
Y519492D01*
X2688151Y520000D01*
X2688659Y520508D01*
Y521016D01*
X2688151D01*
X2687643Y520508D01*
X2687135Y521016D01*
X2686627D01*
Y520508D01*
X2687135Y520000D01*
X2686627Y519492D01*
Y518984D01*
X2465348Y516468D02*
X2466364D01*
X2467380Y517484D01*
X2468396Y516468D01*
X2469412D01*
Y517484D01*
X2468396Y518500D01*
X2469412Y519516D01*
Y520532D01*
X2468396D01*
X2467380Y519516D01*
X2466364Y520532D01*
X2465348D01*
Y519516D01*
X2466364Y518500D01*
X2465348Y517484D01*
Y516468D01*
X2466364Y517484D02*
X2466872D01*
X2467380Y517992D01*
X2467888Y517484D01*
X2468396D01*
Y517992D01*
X2467888Y518500D01*
X2468396Y519008D01*
Y519516D01*
X2467888D01*
X2467380Y519008D01*
X2466872Y519516D01*
X2466364D01*
Y519008D01*
X2466872Y518500D01*
X2466364Y517992D01*
Y517484D01*
X2274848Y516468D02*
X2275864D01*
X2276880Y517484D01*
X2277896Y516468D01*
X2278912D01*
Y517484D01*
X2277896Y518500D01*
X2278912Y519516D01*
Y520532D01*
X2277896D01*
X2276880Y519516D01*
X2275864Y520532D01*
X2274848D01*
Y519516D01*
X2275864Y518500D01*
X2274848Y517484D01*
Y516468D01*
X2275864Y517484D02*
X2276372D01*
X2276880Y517992D01*
X2277388Y517484D01*
X2277896D01*
Y517992D01*
X2277388Y518500D01*
X2277896Y519008D01*
Y519516D01*
X2277388D01*
X2276880Y519008D01*
X2276372Y519516D01*
X2275864D01*
Y519008D01*
X2276372Y518500D01*
X2275864Y517992D01*
Y517484D01*
X2364538Y521968D02*
X2365554D01*
X2366570Y522984D01*
X2367586Y521968D01*
X2368602D01*
Y522984D01*
X2367586Y524000D01*
X2368602Y525016D01*
Y526032D01*
X2367586D01*
X2366570Y525016D01*
X2365554Y526032D01*
X2364538D01*
Y525016D01*
X2365554Y524000D01*
X2364538Y522984D01*
Y521968D01*
X2365554Y522984D02*
X2366062D01*
X2366570Y523492D01*
X2367078Y522984D01*
X2367586D01*
Y523492D01*
X2367078Y524000D01*
X2367586Y524508D01*
Y525016D01*
X2367078D01*
X2366570Y524508D01*
X2366062Y525016D01*
X2365554D01*
Y524508D01*
X2366062Y524000D01*
X2365554Y523492D01*
Y522984D01*
X2174038Y521968D02*
X2175054D01*
X2176070Y522984D01*
X2177086Y521968D01*
X2178102D01*
Y522984D01*
X2177086Y524000D01*
X2178102Y525016D01*
Y526032D01*
X2177086D01*
X2176070Y525016D01*
X2175054Y526032D01*
X2174038D01*
Y525016D01*
X2175054Y524000D01*
X2174038Y522984D01*
Y521968D01*
X2175054Y522984D02*
X2175562D01*
X2176070Y523492D01*
X2176578Y522984D01*
X2177086D01*
Y523492D01*
X2176578Y524000D01*
X2177086Y524508D01*
Y525016D01*
X2176578D01*
X2176070Y524508D01*
X2175562Y525016D01*
X2175054D01*
Y524508D01*
X2175562Y524000D01*
X2175054Y523492D01*
Y522984D01*
X2084346Y516468D02*
X2085361D01*
X2086378Y517484D01*
X2087393Y516468D01*
X2088409D01*
Y517484D01*
X2087393Y518500D01*
X2088409Y519516D01*
Y520532D01*
X2087393D01*
X2086378Y519516D01*
X2085361Y520532D01*
X2084346D01*
Y519516D01*
X2085361Y518500D01*
X2084346Y517484D01*
Y516468D01*
X2085361Y517484D02*
X2085869D01*
X2086378Y517992D01*
X2086886Y517484D01*
X2087393D01*
Y517992D01*
X2086886Y518500D01*
X2087393Y519008D01*
Y519516D01*
X2086886D01*
X2086378Y519008D01*
X2085869Y519516D01*
X2085361D01*
Y519008D01*
X2085869Y518500D01*
X2085361Y517992D01*
Y517484D01*
X1893845Y516468D02*
X1894861D01*
X1895877Y517484D01*
X1896893Y516468D01*
X1897909D01*
Y517484D01*
X1896893Y518500D01*
X1897909Y519516D01*
Y520532D01*
X1896893D01*
X1895877Y519516D01*
X1894861Y520532D01*
X1893845D01*
Y519516D01*
X1894861Y518500D01*
X1893845Y517484D01*
Y516468D01*
X1894861Y517484D02*
X1895369D01*
X1895877Y517992D01*
X1896385Y517484D01*
X1896893D01*
Y517992D01*
X1896385Y518500D01*
X1896893Y519008D01*
Y519516D01*
X1896385D01*
X1895877Y519008D01*
X1895369Y519516D01*
X1894861D01*
Y519008D01*
X1895369Y518500D01*
X1894861Y517992D01*
Y517484D01*
X1983538Y521968D02*
X1984554D01*
X1985570Y522984D01*
X1986586Y521968D01*
X1987602D01*
Y522984D01*
X1986586Y524000D01*
X1987602Y525016D01*
Y526032D01*
X1986586D01*
X1985570Y525016D01*
X1984554Y526032D01*
X1983538D01*
Y525016D01*
X1984554Y524000D01*
X1983538Y522984D01*
Y521968D01*
X1984554Y522984D02*
X1985062D01*
X1985570Y523492D01*
X1986078Y522984D01*
X1986586D01*
Y523492D01*
X1986078Y524000D01*
X1986586Y524508D01*
Y525016D01*
X1986078D01*
X1985570Y524508D01*
X1985062Y525016D01*
X1984554D01*
Y524508D01*
X1985062Y524000D01*
X1984554Y523492D01*
Y522984D01*
X1793038Y521968D02*
X1794054D01*
X1795070Y522984D01*
X1796086Y521968D01*
X1797102D01*
Y522984D01*
X1796086Y524000D01*
X1797102Y525016D01*
Y526032D01*
X1796086D01*
X1795070Y525016D01*
X1794054Y526032D01*
X1793038D01*
Y525016D01*
X1794054Y524000D01*
X1793038Y522984D01*
Y521968D01*
X1794054Y522984D02*
X1794562D01*
X1795070Y523492D01*
X1795578Y522984D01*
X1796086D01*
Y523492D01*
X1795578Y524000D01*
X1796086Y524508D01*
Y525016D01*
X1795578D01*
X1795070Y524508D01*
X1794562Y525016D01*
X1794054D01*
Y524508D01*
X1794562Y524000D01*
X1794054Y523492D01*
Y522984D01*
X1703345Y516468D02*
X1704362D01*
X1705378Y517484D01*
X1706393Y516468D01*
X1707410D01*
Y517484D01*
X1706393Y518500D01*
X1707410Y519516D01*
Y520532D01*
X1706393D01*
X1705378Y519516D01*
X1704362Y520532D01*
X1703345D01*
Y519516D01*
X1704362Y518500D01*
X1703345Y517484D01*
Y516468D01*
X1704362Y517484D02*
X1704870D01*
X1705378Y517992D01*
X1705885Y517484D01*
X1706393D01*
Y517992D01*
X1705885Y518500D01*
X1706393Y519008D01*
Y519516D01*
X1705885D01*
X1705378Y519008D01*
X1704870Y519516D01*
X1704362D01*
Y519008D01*
X1704870Y518500D01*
X1704362Y517992D01*
Y517484D01*
X1512845Y516468D02*
X1513861D01*
X1514877Y517484D01*
X1515893Y516468D01*
X1516909D01*
Y517484D01*
X1515893Y518500D01*
X1516909Y519516D01*
Y520532D01*
X1515893D01*
X1514877Y519516D01*
X1513861Y520532D01*
X1512845D01*
Y519516D01*
X1513861Y518500D01*
X1512845Y517484D01*
Y516468D01*
X1513861Y517484D02*
X1514369D01*
X1514877Y517992D01*
X1515385Y517484D01*
X1515893D01*
Y517992D01*
X1515385Y518500D01*
X1515893Y519008D01*
Y519516D01*
X1515385D01*
X1514877Y519008D01*
X1514369Y519516D01*
X1513861D01*
Y519008D01*
X1514369Y518500D01*
X1513861Y517992D01*
Y517484D01*
X1602538Y521968D02*
X1603554D01*
X1604570Y522984D01*
X1605586Y521968D01*
X1606602D01*
Y522984D01*
X1605586Y524000D01*
X1606602Y525016D01*
Y526032D01*
X1605586D01*
X1604570Y525016D01*
X1603554Y526032D01*
X1602538D01*
Y525016D01*
X1603554Y524000D01*
X1602538Y522984D01*
Y521968D01*
X1603554Y522984D02*
X1604062D01*
X1604570Y523492D01*
X1605078Y522984D01*
X1605586D01*
Y523492D01*
X1605078Y524000D01*
X1605586Y524508D01*
Y525016D01*
X1605078D01*
X1604570Y524508D01*
X1604062Y525016D01*
X1603554D01*
Y524508D01*
X1604062Y524000D01*
X1603554Y523492D01*
Y522984D01*
X1412038Y521968D02*
X1413054D01*
X1414070Y522984D01*
X1415086Y521968D01*
X1416102D01*
Y522984D01*
X1415086Y524000D01*
X1416102Y525016D01*
Y526032D01*
X1415086D01*
X1414070Y525016D01*
X1413054Y526032D01*
X1412038D01*
Y525016D01*
X1413054Y524000D01*
X1412038Y522984D01*
Y521968D01*
X1413054Y522984D02*
X1413562D01*
X1414070Y523492D01*
X1414578Y522984D01*
X1415086D01*
Y523492D01*
X1414578Y524000D01*
X1415086Y524508D01*
Y525016D01*
X1414578D01*
X1414070Y524508D01*
X1413562Y525016D01*
X1413054D01*
Y524508D01*
X1413562Y524000D01*
X1413054Y523492D01*
Y522984D01*
X1322345Y516468D02*
X1323362D01*
X1324377Y517484D01*
X1325394Y516468D01*
X1326409D01*
Y517484D01*
X1325394Y518500D01*
X1326409Y519516D01*
Y520532D01*
X1325394D01*
X1324377Y519516D01*
X1323362Y520532D01*
X1322345D01*
Y519516D01*
X1323362Y518500D01*
X1322345Y517484D01*
Y516468D01*
X1323362Y517484D02*
X1323869D01*
X1324377Y517992D01*
X1324886Y517484D01*
X1325394D01*
Y517992D01*
X1324886Y518500D01*
X1325394Y519008D01*
Y519516D01*
X1324886D01*
X1324377Y519008D01*
X1323869Y519516D01*
X1323362D01*
Y519008D01*
X1323869Y518500D01*
X1323362Y517992D01*
Y517484D01*
X1131845Y516468D02*
X1132861D01*
X1133877Y517484D01*
X1134893Y516468D01*
X1135909D01*
Y517484D01*
X1134893Y518500D01*
X1135909Y519516D01*
Y520532D01*
X1134893D01*
X1133877Y519516D01*
X1132861Y520532D01*
X1131845D01*
Y519516D01*
X1132861Y518500D01*
X1131845Y517484D01*
Y516468D01*
X1132861Y517484D02*
X1133369D01*
X1133877Y517992D01*
X1134385Y517484D01*
X1134893D01*
Y517992D01*
X1134385Y518500D01*
X1134893Y519008D01*
Y519516D01*
X1134385D01*
X1133877Y519008D01*
X1133369Y519516D01*
X1132861D01*
Y519008D01*
X1133369Y518500D01*
X1132861Y517992D01*
Y517484D01*
X1221538Y521968D02*
X1222554D01*
X1223570Y522984D01*
X1224586Y521968D01*
X1225602D01*
Y522984D01*
X1224586Y524000D01*
X1225602Y525016D01*
Y526032D01*
X1224586D01*
X1223570Y525016D01*
X1222554Y526032D01*
X1221538D01*
Y525016D01*
X1222554Y524000D01*
X1221538Y522984D01*
Y521968D01*
X1222554Y522984D02*
X1223062D01*
X1223570Y523492D01*
X1224078Y522984D01*
X1224586D01*
Y523492D01*
X1224078Y524000D01*
X1224586Y524508D01*
Y525016D01*
X1224078D01*
X1223570Y524508D01*
X1223062Y525016D01*
X1222554D01*
Y524508D01*
X1223062Y524000D01*
X1222554Y523492D01*
Y522984D01*
X1031038Y521968D02*
X1032054D01*
X1033070Y522984D01*
X1034086Y521968D01*
X1035102D01*
Y522984D01*
X1034086Y524000D01*
X1035102Y525016D01*
Y526032D01*
X1034086D01*
X1033070Y525016D01*
X1032054Y526032D01*
X1031038D01*
Y525016D01*
X1032054Y524000D01*
X1031038Y522984D01*
Y521968D01*
X1032054Y522984D02*
X1032562D01*
X1033070Y523492D01*
X1033578Y522984D01*
X1034086D01*
Y523492D01*
X1033578Y524000D01*
X1034086Y524508D01*
Y525016D01*
X1033578D01*
X1033070Y524508D01*
X1032562Y525016D01*
X1032054D01*
Y524508D01*
X1032562Y524000D01*
X1032054Y523492D01*
Y522984D01*
X941348Y516468D02*
X942364D01*
X943380Y517484D01*
X944396Y516468D01*
X945412D01*
Y517484D01*
X944396Y518500D01*
X945412Y519516D01*
Y520532D01*
X944396D01*
X943380Y519516D01*
X942364Y520532D01*
X941348D01*
Y519516D01*
X942364Y518500D01*
X941348Y517484D01*
Y516468D01*
X942364Y517484D02*
X942872D01*
X943380Y517992D01*
X943888Y517484D01*
X944396D01*
Y517992D01*
X943888Y518500D01*
X944396Y519008D01*
Y519516D01*
X943888D01*
X943380Y519008D01*
X942872Y519516D01*
X942364D01*
Y519008D01*
X942872Y518500D01*
X942364Y517992D01*
Y517484D01*
X750848Y516468D02*
X751864D01*
X752880Y517484D01*
X753896Y516468D01*
X754912D01*
Y517484D01*
X753896Y518500D01*
X754912Y519516D01*
Y520532D01*
X753896D01*
X752880Y519516D01*
X751864Y520532D01*
X750848D01*
Y519516D01*
X751864Y518500D01*
X750848Y517484D01*
Y516468D01*
X751864Y517484D02*
X752372D01*
X752880Y517992D01*
X753388Y517484D01*
X753896D01*
Y517992D01*
X753388Y518500D01*
X753896Y519008D01*
Y519516D01*
X753388D01*
X752880Y519008D01*
X752372Y519516D01*
X751864D01*
Y519008D01*
X752372Y518500D01*
X751864Y517992D01*
Y517484D01*
X840538Y521968D02*
X841554D01*
X842570Y522984D01*
X843586Y521968D01*
X844602D01*
Y522984D01*
X843586Y524000D01*
X844602Y525016D01*
Y526032D01*
X843586D01*
X842570Y525016D01*
X841554Y526032D01*
X840538D01*
Y525016D01*
X841554Y524000D01*
X840538Y522984D01*
Y521968D01*
X841554Y522984D02*
X842062D01*
X842570Y523492D01*
X843078Y522984D01*
X843586D01*
Y523492D01*
X843078Y524000D01*
X843586Y524508D01*
Y525016D01*
X843078D01*
X842570Y524508D01*
X842062Y525016D01*
X841554D01*
Y524508D01*
X842062Y524000D01*
X841554Y523492D01*
Y522984D01*
X650038Y521968D02*
X651054D01*
X652070Y522984D01*
X653086Y521968D01*
X654102D01*
Y522984D01*
X653086Y524000D01*
X654102Y525016D01*
Y526032D01*
X653086D01*
X652070Y525016D01*
X651054Y526032D01*
X650038D01*
Y525016D01*
X651054Y524000D01*
X650038Y522984D01*
Y521968D01*
X651054Y522984D02*
X651562D01*
X652070Y523492D01*
X652578Y522984D01*
X653086D01*
Y523492D01*
X652578Y524000D01*
X653086Y524508D01*
Y525016D01*
X652578D01*
X652070Y524508D01*
X651562Y525016D01*
X651054D01*
Y524508D01*
X651562Y524000D01*
X651054Y523492D01*
Y522984D01*
X459538Y521968D02*
X460554D01*
X461570Y522984D01*
X462586Y521968D01*
X463602D01*
Y522984D01*
X462586Y524000D01*
X463602Y525016D01*
Y526032D01*
X462586D01*
X461570Y525016D01*
X460554Y526032D01*
X459538D01*
Y525016D01*
X460554Y524000D01*
X459538Y522984D01*
Y521968D01*
X460554Y522984D02*
X461062D01*
X461570Y523492D01*
X462078Y522984D01*
X462586D01*
Y523492D01*
X462078Y524000D01*
X462586Y524508D01*
Y525016D01*
X462078D01*
X461570Y524508D01*
X461062Y525016D01*
X460554D01*
Y524508D01*
X461062Y524000D01*
X460554Y523492D01*
Y522984D01*
X220589Y516468D02*
X221605D01*
X222621Y517484D01*
X223637Y516468D01*
X224653D01*
Y517484D01*
X223637Y518500D01*
X224653Y519516D01*
Y520532D01*
X223637D01*
X222621Y519516D01*
X221605Y520532D01*
X220589D01*
Y519516D01*
X221605Y518500D01*
X220589Y517484D01*
Y516468D01*
X221605Y517484D02*
X222113D01*
X222621Y517992D01*
X223129Y517484D01*
X223637D01*
Y517992D01*
X223129Y518500D01*
X223637Y519008D01*
Y519516D01*
X223129D01*
X222621Y519008D01*
X222113Y519516D01*
X221605D01*
Y519008D01*
X222113Y518500D01*
X221605Y517992D01*
Y517484D01*
X2774910Y516468D02*
X2775927D01*
X2776942Y517484D01*
X2777958Y516468D01*
X2778974D01*
Y517484D01*
X2777958Y518500D01*
X2778974Y519516D01*
Y520532D01*
X2777958D01*
X2776942Y519516D01*
X2775927Y520532D01*
X2774910D01*
Y519516D01*
X2775927Y518500D01*
X2774910Y517484D01*
Y516468D01*
X2775927Y517484D02*
X2776434D01*
X2776942Y517992D01*
X2777450Y517484D01*
X2777958D01*
Y517992D01*
X2777450Y518500D01*
X2777958Y519008D01*
Y519516D01*
X2777450D01*
X2776942Y519008D01*
X2776434Y519516D01*
X2775927D01*
Y519008D01*
X2776434Y518500D01*
X2775927Y517992D01*
Y517484D01*
X316658Y902968D02*
X317674D01*
X318690Y903984D01*
X319706Y902968D01*
X320722D01*
Y903984D01*
X319706Y905000D01*
X320722Y906016D01*
Y907032D01*
X319706D01*
X318690Y906016D01*
X317674Y907032D01*
X316658D01*
Y906016D01*
X317674Y905000D01*
X316658Y903984D01*
Y902968D01*
X317674Y903984D02*
X318182D01*
X318690Y904492D01*
X319198Y903984D01*
X319706D01*
Y904492D01*
X319198Y905000D01*
X319706Y905508D01*
Y906016D01*
X319198D01*
X318690Y905508D01*
X318182Y906016D01*
X317674D01*
Y905508D01*
X318182Y905000D01*
X317674Y904492D01*
Y903984D01*
X139074Y897116D02*
X140090D01*
X141106Y898132D01*
X142122Y897116D01*
X143138D01*
Y898132D01*
X142122Y899148D01*
X143138Y900164D01*
Y901180D01*
X142122D01*
X141106Y900164D01*
X140090Y901180D01*
X139074D01*
Y900164D01*
X140090Y899148D01*
X139074Y898132D01*
Y897116D01*
X140090Y898132D02*
X140598D01*
X141106Y898640D01*
X141614Y898132D01*
X142122D01*
Y898640D01*
X141614Y899148D01*
X142122Y899656D01*
Y900164D01*
X141614D01*
X141106Y899656D01*
X140598Y900164D01*
X140090D01*
Y899656D01*
X140598Y899148D01*
X140090Y898640D01*
Y898132D01*
X697068Y902968D02*
X698084D01*
X699100Y903984D01*
X700116Y902968D01*
X701132D01*
Y903984D01*
X700116Y905000D01*
X701132Y906016D01*
Y907032D01*
X700116D01*
X699100Y906016D01*
X698084Y907032D01*
X697068D01*
Y906016D01*
X698084Y905000D01*
X697068Y903984D01*
Y902968D01*
X698084Y903984D02*
X698592D01*
X699100Y904492D01*
X699608Y903984D01*
X700116D01*
Y904492D01*
X699608Y905000D01*
X700116Y905508D01*
Y906016D01*
X699608D01*
X699100Y905508D01*
X698592Y906016D01*
X698084D01*
Y905508D01*
X698592Y905000D01*
X698084Y904492D01*
Y903984D01*
X506568Y902968D02*
X507584D01*
X508600Y903984D01*
X509616Y902968D01*
X510632D01*
Y903984D01*
X509616Y905000D01*
X510632Y906016D01*
Y907032D01*
X509616D01*
X508600Y906016D01*
X507584Y907032D01*
X506568D01*
Y906016D01*
X507584Y905000D01*
X506568Y903984D01*
Y902968D01*
X507584Y903984D02*
X508092D01*
X508600Y904492D01*
X509108Y903984D01*
X509616D01*
Y904492D01*
X509108Y905000D01*
X509616Y905508D01*
Y906016D01*
X509108D01*
X508600Y905508D01*
X508092Y906016D01*
X507584D01*
Y905508D01*
X508092Y905000D01*
X507584Y904492D01*
Y903984D01*
X1078406Y902968D02*
X1079422D01*
X1080438Y903984D01*
X1081454Y902968D01*
X1082470D01*
Y903984D01*
X1081454Y905000D01*
X1082470Y906016D01*
Y907032D01*
X1081454D01*
X1080438Y906016D01*
X1079422Y907032D01*
X1078406D01*
Y906016D01*
X1079422Y905000D01*
X1078406Y903984D01*
Y902968D01*
X1079422Y903984D02*
X1079930D01*
X1080438Y904492D01*
X1080946Y903984D01*
X1081454D01*
Y904492D01*
X1080946Y905000D01*
X1081454Y905508D01*
Y906016D01*
X1080946D01*
X1080438Y905508D01*
X1079930Y906016D01*
X1079422D01*
Y905508D01*
X1079930Y905000D01*
X1079422Y904492D01*
Y903984D01*
X887906Y902968D02*
X888922D01*
X889938Y903984D01*
X890954Y902968D01*
X891970D01*
Y903984D01*
X890954Y905000D01*
X891970Y906016D01*
Y907032D01*
X890954D01*
X889938Y906016D01*
X888922Y907032D01*
X887906D01*
Y906016D01*
X888922Y905000D01*
X887906Y903984D01*
Y902968D01*
X888922Y903984D02*
X889430D01*
X889938Y904492D01*
X890446Y903984D01*
X890954D01*
Y904492D01*
X890446Y905000D01*
X890954Y905508D01*
Y906016D01*
X890446D01*
X889938Y905508D01*
X889430Y906016D01*
X888922D01*
Y905508D01*
X889430Y905000D01*
X888922Y904492D01*
Y903984D01*
X1459658Y902968D02*
X1460674D01*
X1461690Y903984D01*
X1462706Y902968D01*
X1463722D01*
Y903984D01*
X1462706Y905000D01*
X1463722Y906016D01*
Y907032D01*
X1462706D01*
X1461690Y906016D01*
X1460674Y907032D01*
X1459658D01*
Y906016D01*
X1460674Y905000D01*
X1459658Y903984D01*
Y902968D01*
X1460674Y903984D02*
X1461182D01*
X1461690Y904492D01*
X1462198Y903984D01*
X1462706D01*
Y904492D01*
X1462198Y905000D01*
X1462706Y905508D01*
Y906016D01*
X1462198D01*
X1461690Y905508D01*
X1461182Y906016D01*
X1460674D01*
Y905508D01*
X1461182Y905000D01*
X1460674Y904492D01*
Y903984D01*
X1269158Y902968D02*
X1270174D01*
X1271190Y903984D01*
X1272206Y902968D01*
X1273222D01*
Y903984D01*
X1272206Y905000D01*
X1273222Y906016D01*
Y907032D01*
X1272206D01*
X1271190Y906016D01*
X1270174Y907032D01*
X1269158D01*
Y906016D01*
X1270174Y905000D01*
X1269158Y903984D01*
Y902968D01*
X1270174Y903984D02*
X1270682D01*
X1271190Y904492D01*
X1271698Y903984D01*
X1272206D01*
Y904492D01*
X1271698Y905000D01*
X1272206Y905508D01*
Y906016D01*
X1271698D01*
X1271190Y905508D01*
X1270682Y906016D01*
X1270174D01*
Y905508D01*
X1270682Y905000D01*
X1270174Y904492D01*
Y903984D01*
X1840406Y902968D02*
X1841422D01*
X1842438Y903984D01*
X1843454Y902968D01*
X1844470D01*
Y903984D01*
X1843454Y905000D01*
X1844470Y906016D01*
Y907032D01*
X1843454D01*
X1842438Y906016D01*
X1841422Y907032D01*
X1840406D01*
Y906016D01*
X1841422Y905000D01*
X1840406Y903984D01*
Y902968D01*
X1841422Y903984D02*
X1841930D01*
X1842438Y904492D01*
X1842946Y903984D01*
X1843454D01*
Y904492D01*
X1842946Y905000D01*
X1843454Y905508D01*
Y906016D01*
X1842946D01*
X1842438Y905508D01*
X1841930Y906016D01*
X1841422D01*
Y905508D01*
X1841930Y905000D01*
X1841422Y904492D01*
Y903984D01*
X1649906Y902968D02*
X1650922D01*
X1651938Y903984D01*
X1652954Y902968D01*
X1653970D01*
Y903984D01*
X1652954Y905000D01*
X1653970Y906016D01*
Y907032D01*
X1652954D01*
X1651938Y906016D01*
X1650922Y907032D01*
X1649906D01*
Y906016D01*
X1650922Y905000D01*
X1649906Y903984D01*
Y902968D01*
X1650922Y903984D02*
X1651430D01*
X1651938Y904492D01*
X1652446Y903984D01*
X1652954D01*
Y904492D01*
X1652446Y905000D01*
X1652954Y905508D01*
Y906016D01*
X1652446D01*
X1651938Y905508D01*
X1651430Y906016D01*
X1650922D01*
Y905508D01*
X1651430Y905000D01*
X1650922Y904492D01*
Y903984D01*
X2031158Y902968D02*
X2032174D01*
X2033190Y903984D01*
X2034206Y902968D01*
X2035222D01*
Y903984D01*
X2034206Y905000D01*
X2035222Y906016D01*
Y907032D01*
X2034206D01*
X2033190Y906016D01*
X2032174Y907032D01*
X2031158D01*
Y906016D01*
X2032174Y905000D01*
X2031158Y903984D01*
Y902968D01*
X2032174Y903984D02*
X2032682D01*
X2033190Y904492D01*
X2033698Y903984D01*
X2034206D01*
Y904492D01*
X2033698Y905000D01*
X2034206Y905508D01*
Y906016D01*
X2033698D01*
X2033190Y905508D01*
X2032682Y906016D01*
X2032174D01*
Y905508D01*
X2032682Y905000D01*
X2032174Y904492D01*
Y903984D01*
X2221658Y902968D02*
X2222674D01*
X2223690Y903984D01*
X2224706Y902968D01*
X2225722D01*
Y903984D01*
X2224706Y905000D01*
X2225722Y906016D01*
Y907032D01*
X2224706D01*
X2223690Y906016D01*
X2222674Y907032D01*
X2221658D01*
Y906016D01*
X2222674Y905000D01*
X2221658Y903984D01*
Y902968D01*
X2222674Y903984D02*
X2223182D01*
X2223690Y904492D01*
X2224198Y903984D01*
X2224706D01*
Y904492D01*
X2224198Y905000D01*
X2224706Y905508D01*
Y906016D01*
X2224198D01*
X2223690Y905508D01*
X2223182Y906016D01*
X2222674D01*
Y905508D01*
X2223182Y905000D01*
X2222674Y904492D01*
Y903984D01*
X2412158Y902968D02*
X2413174D01*
X2414190Y903984D01*
X2415206Y902968D01*
X2416222D01*
Y903984D01*
X2415206Y905000D01*
X2416222Y906016D01*
Y907032D01*
X2415206D01*
X2414190Y906016D01*
X2413174Y907032D01*
X2412158D01*
Y906016D01*
X2413174Y905000D01*
X2412158Y903984D01*
Y902968D01*
X2413174Y903984D02*
X2413682D01*
X2414190Y904492D01*
X2414698Y903984D01*
X2415206D01*
Y904492D01*
X2414698Y905000D01*
X2415206Y905508D01*
Y906016D01*
X2414698D01*
X2414190Y905508D01*
X2413682Y906016D01*
X2413174D01*
Y905508D01*
X2413682Y905000D01*
X2413174Y904492D01*
Y903984D01*
X2697908Y902968D02*
X2698924D01*
X2699940Y903984D01*
X2700956Y902968D01*
X2701972D01*
Y903984D01*
X2700956Y905000D01*
X2701972Y906016D01*
Y907032D01*
X2700956D01*
X2699940Y906016D01*
X2698924Y907032D01*
X2697908D01*
Y906016D01*
X2698924Y905000D01*
X2697908Y903984D01*
Y902968D01*
X2698924Y903984D02*
X2699432D01*
X2699940Y904492D01*
X2700448Y903984D01*
X2700956D01*
Y904492D01*
X2700448Y905000D01*
X2700956Y905508D01*
Y906016D01*
X2700448D01*
X2699940Y905508D01*
X2699432Y906016D01*
X2698924D01*
Y905508D01*
X2699432Y905000D01*
X2698924Y904492D01*
Y903984D01*
X2983658Y902968D02*
X2984674D01*
X2985690Y903984D01*
X2986707Y902968D01*
X2987722D01*
Y903984D01*
X2986707Y905000D01*
X2987722Y906016D01*
Y907032D01*
X2986707D01*
X2985690Y906016D01*
X2984674Y907032D01*
X2983658D01*
Y906016D01*
X2984674Y905000D01*
X2983658Y903984D01*
Y902968D01*
X2984674Y903984D02*
X2985182D01*
X2985690Y904492D01*
X2986198Y903984D01*
X2986707D01*
Y904492D01*
X2986198Y905000D01*
X2986707Y905508D01*
Y906016D01*
X2986198D01*
X2985690Y905508D01*
X2985182Y906016D01*
X2984674D01*
Y905508D01*
X2985182Y905000D01*
X2984674Y904492D01*
Y903984D01*
X3084468Y897116D02*
X3085484D01*
X3086500Y898132D01*
X3087516Y897116D01*
X3088532D01*
Y898132D01*
X3087516Y899148D01*
X3088532Y900164D01*
Y901180D01*
X3087516D01*
X3086500Y900164D01*
X3085484Y901180D01*
X3084468D01*
Y900164D01*
X3085484Y899148D01*
X3084468Y898132D01*
Y897116D01*
X3085484Y898132D02*
X3085992D01*
X3086500Y898640D01*
X3087008Y898132D01*
X3087516D01*
Y898640D01*
X3087008Y899148D01*
X3087516Y899656D01*
Y900164D01*
X3087008D01*
X3086500Y899656D01*
X3085992Y900164D01*
X3085484D01*
Y899656D01*
X3085992Y899148D01*
X3085484Y898640D01*
Y898132D01*
X2798718Y897468D02*
X2799734D01*
X2800750Y898484D01*
X2801766Y897468D01*
X2802782D01*
Y898484D01*
X2801766Y899500D01*
X2802782Y900516D01*
Y901532D01*
X2801766D01*
X2800750Y900516D01*
X2799734Y901532D01*
X2798718D01*
Y900516D01*
X2799734Y899500D01*
X2798718Y898484D01*
Y897468D01*
X2799734Y898484D02*
X2800242D01*
X2800750Y898992D01*
X2801258Y898484D01*
X2801766D01*
Y898992D01*
X2801258Y899500D01*
X2801766Y900008D01*
Y900516D01*
X2801258D01*
X2800750Y900008D01*
X2800242Y900516D01*
X2799734D01*
Y900008D01*
X2800242Y899500D01*
X2799734Y898992D01*
Y898484D01*
X2512968Y897468D02*
X2513984D01*
X2515000Y898484D01*
X2516016Y897468D01*
X2517032D01*
Y898484D01*
X2516016Y899500D01*
X2517032Y900516D01*
Y901532D01*
X2516016D01*
X2515000Y900516D01*
X2513984Y901532D01*
X2512968D01*
Y900516D01*
X2513984Y899500D01*
X2512968Y898484D01*
Y897468D01*
X2513984Y898484D02*
X2514492D01*
X2515000Y898992D01*
X2515508Y898484D01*
X2516016D01*
Y898992D01*
X2515508Y899500D01*
X2516016Y900008D01*
Y900516D01*
X2515508D01*
X2515000Y900008D01*
X2514492Y900516D01*
X2513984D01*
Y900008D01*
X2514492Y899500D01*
X2513984Y898992D01*
Y898484D01*
X2131965Y897468D02*
X2132981D01*
X2133997Y898484D01*
X2135013Y897468D01*
X2136029D01*
Y898484D01*
X2135013Y899500D01*
X2136029Y900516D01*
Y901532D01*
X2135013D01*
X2133997Y900516D01*
X2132981Y901532D01*
X2131965D01*
Y900516D01*
X2132981Y899500D01*
X2131965Y898484D01*
Y897468D01*
X2132981Y898484D02*
X2133489D01*
X2133997Y898992D01*
X2134505Y898484D01*
X2135013D01*
Y898992D01*
X2134505Y899500D01*
X2135013Y900008D01*
Y900516D01*
X2134505D01*
X2133997Y900008D01*
X2133489Y900516D01*
X2132981D01*
Y900008D01*
X2133489Y899500D01*
X2132981Y898992D01*
Y898484D01*
X2322463Y897468D02*
X2323479D01*
X2324495Y898484D01*
X2325511Y897468D01*
X2326527D01*
Y898484D01*
X2325511Y899500D01*
X2326527Y900516D01*
Y901532D01*
X2325511D01*
X2324495Y900516D01*
X2323479Y901532D01*
X2322463D01*
Y900516D01*
X2323479Y899500D01*
X2322463Y898484D01*
Y897468D01*
X2323479Y898484D02*
X2323987D01*
X2324495Y898992D01*
X2325003Y898484D01*
X2325511D01*
Y898992D01*
X2325003Y899500D01*
X2325511Y900008D01*
Y900516D01*
X2325003D01*
X2324495Y900008D01*
X2323987Y900516D01*
X2323479D01*
Y900008D01*
X2323987Y899500D01*
X2323479Y898992D01*
Y898484D01*
X1750968Y897468D02*
X1751984D01*
X1753000Y898484D01*
X1754016Y897468D01*
X1755032D01*
Y898484D01*
X1754016Y899500D01*
X1755032Y900516D01*
Y901532D01*
X1754016D01*
X1753000Y900516D01*
X1751984Y901532D01*
X1750968D01*
Y900516D01*
X1751984Y899500D01*
X1750968Y898484D01*
Y897468D01*
X1751984Y898484D02*
X1752492D01*
X1753000Y898992D01*
X1753508Y898484D01*
X1754016D01*
Y898992D01*
X1753508Y899500D01*
X1754016Y900008D01*
Y900516D01*
X1753508D01*
X1753000Y900008D01*
X1752492Y900516D01*
X1751984D01*
Y900008D01*
X1752492Y899500D01*
X1751984Y898992D01*
Y898484D01*
X1941465Y897468D02*
X1942481D01*
X1943497Y898484D01*
X1944513Y897468D01*
X1945529D01*
Y898484D01*
X1944513Y899500D01*
X1945529Y900516D01*
Y901532D01*
X1944513D01*
X1943497Y900516D01*
X1942481Y901532D01*
X1941465D01*
Y900516D01*
X1942481Y899500D01*
X1941465Y898484D01*
Y897468D01*
X1942481Y898484D02*
X1942989D01*
X1943497Y898992D01*
X1944005Y898484D01*
X1944513D01*
Y898992D01*
X1944005Y899500D01*
X1944513Y900008D01*
Y900516D01*
X1944005D01*
X1943497Y900008D01*
X1942989Y900516D01*
X1942481D01*
Y900008D01*
X1942989Y899500D01*
X1942481Y898992D01*
Y898484D01*
X1369968Y897468D02*
X1370984D01*
X1372000Y898484D01*
X1373016Y897468D01*
X1374032D01*
Y898484D01*
X1373016Y899500D01*
X1374032Y900516D01*
Y901532D01*
X1373016D01*
X1372000Y900516D01*
X1370984Y901532D01*
X1369968D01*
Y900516D01*
X1370984Y899500D01*
X1369968Y898484D01*
Y897468D01*
X1370984Y898484D02*
X1371492D01*
X1372000Y898992D01*
X1372508Y898484D01*
X1373016D01*
Y898992D01*
X1372508Y899500D01*
X1373016Y900008D01*
Y900516D01*
X1372508D01*
X1372000Y900008D01*
X1371492Y900516D01*
X1370984D01*
Y900008D01*
X1371492Y899500D01*
X1370984Y898992D01*
Y898484D01*
X1560465Y897468D02*
X1561481D01*
X1562497Y898484D01*
X1563513Y897468D01*
X1564529D01*
Y898484D01*
X1563513Y899500D01*
X1564529Y900516D01*
Y901532D01*
X1563513D01*
X1562497Y900516D01*
X1561481Y901532D01*
X1560465D01*
Y900516D01*
X1561481Y899500D01*
X1560465Y898484D01*
Y897468D01*
X1561481Y898484D02*
X1561989D01*
X1562497Y898992D01*
X1563005Y898484D01*
X1563513D01*
Y898992D01*
X1563005Y899500D01*
X1563513Y900008D01*
Y900516D01*
X1563005D01*
X1562497Y900008D01*
X1561989Y900516D01*
X1561481D01*
Y900008D01*
X1561989Y899500D01*
X1561481Y898992D01*
Y898484D01*
X988968Y897468D02*
X989984D01*
X991000Y898484D01*
X992016Y897468D01*
X993032D01*
Y898484D01*
X992016Y899500D01*
X993032Y900516D01*
Y901532D01*
X992016D01*
X991000Y900516D01*
X989984Y901532D01*
X988968D01*
Y900516D01*
X989984Y899500D01*
X988968Y898484D01*
Y897468D01*
X989984Y898484D02*
X990492D01*
X991000Y898992D01*
X991508Y898484D01*
X992016D01*
Y898992D01*
X991508Y899500D01*
X992016Y900008D01*
Y900516D01*
X991508D01*
X991000Y900008D01*
X990492Y900516D01*
X989984D01*
Y900008D01*
X990492Y899500D01*
X989984Y898992D01*
Y898484D01*
X1179465Y897468D02*
X1180481D01*
X1181497Y898484D01*
X1182513Y897468D01*
X1183529D01*
Y898484D01*
X1182513Y899500D01*
X1183529Y900516D01*
Y901532D01*
X1182513D01*
X1181497Y900516D01*
X1180481Y901532D01*
X1179465D01*
Y900516D01*
X1180481Y899500D01*
X1179465Y898484D01*
Y897468D01*
X1180481Y898484D02*
X1180989D01*
X1181497Y898992D01*
X1182005Y898484D01*
X1182513D01*
Y898992D01*
X1182005Y899500D01*
X1182513Y900008D01*
Y900516D01*
X1182005D01*
X1181497Y900008D01*
X1180989Y900516D01*
X1180481D01*
Y900008D01*
X1180989Y899500D01*
X1180481Y898992D01*
Y898484D01*
X607968Y897468D02*
X608984D01*
X610000Y898484D01*
X611016Y897468D01*
X612032D01*
Y898484D01*
X611016Y899500D01*
X612032Y900516D01*
Y901532D01*
X611016D01*
X610000Y900516D01*
X608984Y901532D01*
X607968D01*
Y900516D01*
X608984Y899500D01*
X607968Y898484D01*
Y897468D01*
X608984Y898484D02*
X609492D01*
X610000Y898992D01*
X610508Y898484D01*
X611016D01*
Y898992D01*
X610508Y899500D01*
X611016Y900008D01*
Y900516D01*
X610508D01*
X610000Y900008D01*
X609492Y900516D01*
X608984D01*
Y900008D01*
X609492Y899500D01*
X608984Y898992D01*
Y898484D01*
X798465Y897468D02*
X799481D01*
X800497Y898484D01*
X801513Y897468D01*
X802529D01*
Y898484D01*
X801513Y899500D01*
X802529Y900516D01*
Y901532D01*
X801513D01*
X800497Y900516D01*
X799481Y901532D01*
X798465D01*
Y900516D01*
X799481Y899500D01*
X798465Y898484D01*
Y897468D01*
X799481Y898484D02*
X799989D01*
X800497Y898992D01*
X801005Y898484D01*
X801513D01*
Y898992D01*
X801005Y899500D01*
X801513Y900008D01*
Y900516D01*
X801005D01*
X800497Y900008D01*
X799989Y900516D01*
X799481D01*
Y900008D01*
X799989Y899500D01*
X799481Y898992D01*
Y898484D01*
X269431Y897468D02*
X270446D01*
X271462Y898484D01*
X272479Y897468D01*
X273494D01*
Y898484D01*
X272479Y899500D01*
X273494Y900516D01*
Y901532D01*
X272479D01*
X271462Y900516D01*
X270446Y901532D01*
X269431D01*
Y900516D01*
X270446Y899500D01*
X269431Y898484D01*
Y897468D01*
X270446Y898484D02*
X270954D01*
X271462Y898992D01*
X271971Y898484D01*
X272479D01*
Y898992D01*
X271971Y899500D01*
X272479Y900008D01*
Y900516D01*
X271971D01*
X271462Y900008D01*
X270954Y900516D01*
X270446D01*
Y900008D01*
X270954Y899500D01*
X270446Y898992D01*
Y898484D01*
X459928Y897468D02*
X460944D01*
X461960Y898484D01*
X462976Y897468D01*
X463992D01*
Y898484D01*
X462976Y899500D01*
X463992Y900516D01*
Y901532D01*
X462976D01*
X461960Y900516D01*
X460944Y901532D01*
X459928D01*
Y900516D01*
X460944Y899500D01*
X459928Y898484D01*
Y897468D01*
X460944Y898484D02*
X461452D01*
X461960Y898992D01*
X462468Y898484D01*
X462976D01*
Y898992D01*
X462468Y899500D01*
X462976Y900008D01*
Y900516D01*
X462468D01*
X461960Y900008D01*
X461452Y900516D01*
X460944D01*
Y900008D01*
X461452Y899500D01*
X460944Y898992D01*
Y898484D01*
X3108278Y1082968D02*
X3109294D01*
X3110310Y1083984D01*
X3111326Y1082968D01*
X3112342D01*
Y1083984D01*
X3111326Y1085000D01*
X3112342Y1086016D01*
Y1087032D01*
X3111326D01*
X3110310Y1086016D01*
X3109294Y1087032D01*
X3108278D01*
Y1086016D01*
X3109294Y1085000D01*
X3108278Y1083984D01*
Y1082968D01*
X3109294Y1083984D02*
X3109802D01*
X3110310Y1084492D01*
X3110818Y1083984D01*
X3111326D01*
Y1084492D01*
X3110818Y1085000D01*
X3111326Y1085508D01*
Y1086016D01*
X3110818D01*
X3110310Y1085508D01*
X3109802Y1086016D01*
X3109294D01*
Y1085508D01*
X3109802Y1085000D01*
X3109294Y1084492D01*
Y1083984D01*
X2936178Y1103968D02*
X2937194D01*
X2938210Y1104984D01*
X2939226Y1103968D01*
X2940242D01*
Y1104984D01*
X2939226Y1106000D01*
X2940242Y1107016D01*
Y1108032D01*
X2939226D01*
X2938210Y1107016D01*
X2937194Y1108032D01*
X2936178D01*
Y1107016D01*
X2937194Y1106000D01*
X2936178Y1104984D01*
Y1103968D01*
X2937194Y1104984D02*
X2937702D01*
X2938210Y1105492D01*
X2938718Y1104984D01*
X2939226D01*
Y1105492D01*
X2938718Y1106000D01*
X2939226Y1106508D01*
Y1107016D01*
X2938718D01*
X2938210Y1106508D01*
X2937702Y1107016D01*
X2937194D01*
Y1106508D01*
X2937702Y1106000D01*
X2937194Y1105492D01*
Y1104984D01*
X2555428Y1107439D02*
X2556444D01*
X2557460Y1108456D01*
X2558476Y1107439D01*
X2559492D01*
Y1108456D01*
X2558476Y1109472D01*
X2559492Y1110488D01*
Y1111504D01*
X2558476D01*
X2557460Y1110488D01*
X2556444Y1111504D01*
X2555428D01*
Y1110488D01*
X2556444Y1109472D01*
X2555428Y1108456D01*
Y1107439D01*
X2556444Y1108456D02*
X2556952D01*
X2557460Y1108963D01*
X2557968Y1108456D01*
X2558476D01*
Y1108963D01*
X2557968Y1109472D01*
X2558476Y1109979D01*
Y1110488D01*
X2557968D01*
X2557460Y1109979D01*
X2556952Y1110488D01*
X2556444D01*
Y1109979D01*
X2556952Y1109472D01*
X2556444Y1108963D01*
Y1108456D01*
X2745928Y1107439D02*
X2746944D01*
X2747960Y1108456D01*
X2748976Y1107439D01*
X2749992D01*
Y1108456D01*
X2748976Y1109472D01*
X2749992Y1110488D01*
Y1111504D01*
X2748976D01*
X2747960Y1110488D01*
X2746944Y1111504D01*
X2745928D01*
Y1110488D01*
X2746944Y1109472D01*
X2745928Y1108456D01*
Y1107439D01*
X2746944Y1108456D02*
X2747452D01*
X2747960Y1108963D01*
X2748468Y1108456D01*
X2748976D01*
Y1108963D01*
X2748468Y1109472D01*
X2748976Y1109979D01*
Y1110488D01*
X2748468D01*
X2747960Y1109979D01*
X2747452Y1110488D01*
X2746944D01*
Y1109979D01*
X2747452Y1109472D01*
X2746944Y1108963D01*
Y1108456D01*
X2174178Y1103968D02*
X2175194D01*
X2176210Y1104984D01*
X2177226Y1103968D01*
X2178242D01*
Y1104984D01*
X2177226Y1106000D01*
X2178242Y1107016D01*
Y1108032D01*
X2177226D01*
X2176210Y1107016D01*
X2175194Y1108032D01*
X2174178D01*
Y1107016D01*
X2175194Y1106000D01*
X2174178Y1104984D01*
Y1103968D01*
X2175194Y1104984D02*
X2175702D01*
X2176210Y1105492D01*
X2176718Y1104984D01*
X2177226D01*
Y1105492D01*
X2176718Y1106000D01*
X2177226Y1106508D01*
Y1107016D01*
X2176718D01*
X2176210Y1106508D01*
X2175702Y1107016D01*
X2175194D01*
Y1106508D01*
X2175702Y1106000D01*
X2175194Y1105492D01*
Y1104984D01*
X2364675Y1103968D02*
X2365692D01*
X2366707Y1104984D01*
X2367724Y1103968D01*
X2368739D01*
Y1104984D01*
X2367724Y1106000D01*
X2368739Y1107016D01*
Y1108032D01*
X2367724D01*
X2366707Y1107016D01*
X2365692Y1108032D01*
X2364675D01*
Y1107016D01*
X2365692Y1106000D01*
X2364675Y1104984D01*
Y1103968D01*
X2365692Y1104984D02*
X2366199D01*
X2366707Y1105492D01*
X2367216Y1104984D01*
X2367724D01*
Y1105492D01*
X2367216Y1106000D01*
X2367724Y1106508D01*
Y1107016D01*
X2367216D01*
X2366707Y1106508D01*
X2366199Y1107016D01*
X2365692D01*
Y1106508D01*
X2366199Y1106000D01*
X2365692Y1105492D01*
Y1104984D01*
X1793428Y1103968D02*
X1794444D01*
X1795460Y1104984D01*
X1796476Y1103968D01*
X1797492D01*
Y1104984D01*
X1796476Y1106000D01*
X1797492Y1107016D01*
Y1108032D01*
X1796476D01*
X1795460Y1107016D01*
X1794444Y1108032D01*
X1793428D01*
Y1107016D01*
X1794444Y1106000D01*
X1793428Y1104984D01*
Y1103968D01*
X1794444Y1104984D02*
X1794952D01*
X1795460Y1105492D01*
X1795968Y1104984D01*
X1796476D01*
Y1105492D01*
X1795968Y1106000D01*
X1796476Y1106508D01*
Y1107016D01*
X1795968D01*
X1795460Y1106508D01*
X1794952Y1107016D01*
X1794444D01*
Y1106508D01*
X1794952Y1106000D01*
X1794444Y1105492D01*
Y1104984D01*
X1983925Y1103968D02*
X1984941D01*
X1985957Y1104984D01*
X1986973Y1103968D01*
X1987989D01*
Y1104984D01*
X1986973Y1106000D01*
X1987989Y1107016D01*
Y1108032D01*
X1986973D01*
X1985957Y1107016D01*
X1984941Y1108032D01*
X1983925D01*
Y1107016D01*
X1984941Y1106000D01*
X1983925Y1104984D01*
Y1103968D01*
X1984941Y1104984D02*
X1985449D01*
X1985957Y1105492D01*
X1986465Y1104984D01*
X1986973D01*
Y1105492D01*
X1986465Y1106000D01*
X1986973Y1106508D01*
Y1107016D01*
X1986465D01*
X1985957Y1106508D01*
X1985449Y1107016D01*
X1984941D01*
Y1106508D01*
X1985449Y1106000D01*
X1984941Y1105492D01*
Y1104984D01*
X1412428Y1103968D02*
X1413444D01*
X1414460Y1104984D01*
X1415476Y1103968D01*
X1416492D01*
Y1104984D01*
X1415476Y1106000D01*
X1416492Y1107016D01*
Y1108032D01*
X1415476D01*
X1414460Y1107016D01*
X1413444Y1108032D01*
X1412428D01*
Y1107016D01*
X1413444Y1106000D01*
X1412428Y1104984D01*
Y1103968D01*
X1413444Y1104984D02*
X1413952D01*
X1414460Y1105492D01*
X1414968Y1104984D01*
X1415476D01*
Y1105492D01*
X1414968Y1106000D01*
X1415476Y1106508D01*
Y1107016D01*
X1414968D01*
X1414460Y1106508D01*
X1413952Y1107016D01*
X1413444D01*
Y1106508D01*
X1413952Y1106000D01*
X1413444Y1105492D01*
Y1104984D01*
X1602925Y1103968D02*
X1603941D01*
X1604957Y1104984D01*
X1605973Y1103968D01*
X1606989D01*
Y1104984D01*
X1605973Y1106000D01*
X1606989Y1107016D01*
Y1108032D01*
X1605973D01*
X1604957Y1107016D01*
X1603941Y1108032D01*
X1602925D01*
Y1107016D01*
X1603941Y1106000D01*
X1602925Y1104984D01*
Y1103968D01*
X1603941Y1104984D02*
X1604449D01*
X1604957Y1105492D01*
X1605465Y1104984D01*
X1605973D01*
Y1105492D01*
X1605465Y1106000D01*
X1605973Y1106508D01*
Y1107016D01*
X1605465D01*
X1604957Y1106508D01*
X1604449Y1107016D01*
X1603941D01*
Y1106508D01*
X1604449Y1106000D01*
X1603941Y1105492D01*
Y1104984D01*
X1031428Y1103968D02*
X1032444D01*
X1033460Y1104984D01*
X1034476Y1103968D01*
X1035492D01*
Y1104984D01*
X1034476Y1106000D01*
X1035492Y1107016D01*
Y1108032D01*
X1034476D01*
X1033460Y1107016D01*
X1032444Y1108032D01*
X1031428D01*
Y1107016D01*
X1032444Y1106000D01*
X1031428Y1104984D01*
Y1103968D01*
X1032444Y1104984D02*
X1032952D01*
X1033460Y1105492D01*
X1033968Y1104984D01*
X1034476D01*
Y1105492D01*
X1033968Y1106000D01*
X1034476Y1106508D01*
Y1107016D01*
X1033968D01*
X1033460Y1106508D01*
X1032952Y1107016D01*
X1032444D01*
Y1106508D01*
X1032952Y1106000D01*
X1032444Y1105492D01*
Y1104984D01*
X1221925Y1103968D02*
X1222941D01*
X1223957Y1104984D01*
X1224973Y1103968D01*
X1225989D01*
Y1104984D01*
X1224973Y1106000D01*
X1225989Y1107016D01*
Y1108032D01*
X1224973D01*
X1223957Y1107016D01*
X1222941Y1108032D01*
X1221925D01*
Y1107016D01*
X1222941Y1106000D01*
X1221925Y1104984D01*
Y1103968D01*
X1222941Y1104984D02*
X1223449D01*
X1223957Y1105492D01*
X1224465Y1104984D01*
X1224973D01*
Y1105492D01*
X1224465Y1106000D01*
X1224973Y1106508D01*
Y1107016D01*
X1224465D01*
X1223957Y1106508D01*
X1223449Y1107016D01*
X1222941D01*
Y1106508D01*
X1223449Y1106000D01*
X1222941Y1105492D01*
Y1104984D01*
X650178Y1103968D02*
X651194D01*
X652210Y1104984D01*
X653226Y1103968D01*
X654242D01*
Y1104984D01*
X653226Y1106000D01*
X654242Y1107016D01*
Y1108032D01*
X653226D01*
X652210Y1107016D01*
X651194Y1108032D01*
X650178D01*
Y1107016D01*
X651194Y1106000D01*
X650178Y1104984D01*
Y1103968D01*
X651194Y1104984D02*
X651702D01*
X652210Y1105492D01*
X652718Y1104984D01*
X653226D01*
Y1105492D01*
X652718Y1106000D01*
X653226Y1106508D01*
Y1107016D01*
X652718D01*
X652210Y1106508D01*
X651702Y1107016D01*
X651194D01*
Y1106508D01*
X651702Y1106000D01*
X651194Y1105492D01*
Y1104984D01*
X840675Y1103968D02*
X841691D01*
X842707Y1104984D01*
X843723Y1103968D01*
X844739D01*
Y1104984D01*
X843723Y1106000D01*
X844739Y1107016D01*
Y1108032D01*
X843723D01*
X842707Y1107016D01*
X841691Y1108032D01*
X840675D01*
Y1107016D01*
X841691Y1106000D01*
X840675Y1104984D01*
Y1103968D01*
X841691Y1104984D02*
X842199D01*
X842707Y1105492D01*
X843215Y1104984D01*
X843723D01*
Y1105492D01*
X843215Y1106000D01*
X843723Y1106508D01*
Y1107016D01*
X843215D01*
X842707Y1106508D01*
X842199Y1107016D01*
X841691D01*
Y1106508D01*
X842199Y1106000D01*
X841691Y1105492D01*
Y1104984D01*
X459928Y1103968D02*
X460944D01*
X461960Y1104984D01*
X462976Y1103968D01*
X463992D01*
Y1104984D01*
X462976Y1106000D01*
X463992Y1107016D01*
Y1108032D01*
X462976D01*
X461960Y1107016D01*
X460944Y1108032D01*
X459928D01*
Y1107016D01*
X460944Y1106000D01*
X459928Y1104984D01*
Y1103968D01*
X460944Y1104984D02*
X461452D01*
X461960Y1105492D01*
X462468Y1104984D01*
X462976D01*
Y1105492D01*
X462468Y1106000D01*
X462976Y1106508D01*
Y1107016D01*
X462468D01*
X461960Y1106508D01*
X461452Y1107016D01*
X460944D01*
Y1106508D01*
X461452Y1106000D01*
X460944Y1105492D01*
Y1104984D01*
X269431Y1103968D02*
X270446D01*
X271462Y1104984D01*
X272479Y1103968D01*
X273494D01*
Y1104984D01*
X272479Y1106000D01*
X273494Y1107016D01*
Y1108032D01*
X272479D01*
X271462Y1107016D01*
X270446Y1108032D01*
X269431D01*
Y1107016D01*
X270446Y1106000D01*
X269431Y1104984D01*
Y1103968D01*
X270446Y1104984D02*
X270954D01*
X271462Y1105492D01*
X271971Y1104984D01*
X272479D01*
Y1105492D01*
X271971Y1106000D01*
X272479Y1106508D01*
Y1107016D01*
X271971D01*
X271462Y1106508D01*
X270954Y1107016D01*
X270446D01*
Y1106508D01*
X270954Y1106000D01*
X270446Y1105492D01*
Y1104984D01*
X171400Y404368D02*
X172416Y405384D01*
X173432D01*
X172416Y406400D01*
X173432Y407416D01*
X172416D01*
X171400Y408432D01*
X170384Y407416D01*
X169368D01*
X170384Y406400D01*
X169368Y405384D01*
X170384D01*
X171400Y404368D01*
Y405384D02*
X171908Y405892D01*
X172416D01*
X171908Y406400D01*
X172416Y406908D01*
X171908D01*
X171400Y407416D01*
X170892Y406908D01*
X170384D01*
X170892Y406400D01*
X170384Y405892D01*
X170892D01*
X171400Y405384D01*
X139700Y412168D02*
X140716Y413184D01*
X141732D01*
X140716Y414200D01*
X141732Y415216D01*
X140716D01*
X139700Y416232D01*
X138684Y415216D01*
X137668D01*
X138684Y414200D01*
X137668Y413184D01*
X138684D01*
X139700Y412168D01*
Y413184D02*
X140208Y413692D01*
X140716D01*
X140208Y414200D01*
X140716Y414708D01*
X140208D01*
X139700Y415216D01*
X139192Y414708D01*
X138684D01*
X139192Y414200D01*
X138684Y413692D01*
X139192D01*
X139700Y413184D01*
X287337Y1166368D02*
X288354Y1167384D01*
X289370D01*
X288354Y1168400D01*
X289370Y1169416D01*
X288354D01*
X287337Y1170432D01*
X286322Y1169416D01*
X285306D01*
X286322Y1168400D01*
X285306Y1167384D01*
X286322D01*
X287337Y1166368D01*
Y1167384D02*
X287845Y1167892D01*
X288354D01*
X287845Y1168400D01*
X288354Y1168908D01*
X287845D01*
X287337Y1169416D01*
X286829Y1168908D01*
X286322D01*
X286829Y1168400D01*
X286322Y1167892D01*
X286829D01*
X287337Y1167384D01*
X242500Y1166368D02*
X243516Y1167384D01*
X244532D01*
X243516Y1168400D01*
X244532Y1169416D01*
X243516D01*
X242500Y1170432D01*
X241484Y1169416D01*
X240468D01*
X241484Y1168400D01*
X240468Y1167384D01*
X241484D01*
X242500Y1166368D01*
Y1167384D02*
X243008Y1167892D01*
X243516D01*
X243008Y1168400D01*
X243516Y1168908D01*
X243008D01*
X242500Y1169416D01*
X241992Y1168908D01*
X241484D01*
X241992Y1168400D01*
X241484Y1167892D01*
X241992D01*
X242500Y1167384D01*
X557968Y1376468D02*
X558984Y1378500D01*
X557968Y1380532D01*
X560000Y1379516D01*
X562032Y1380532D01*
X561016Y1378500D01*
X562032Y1376468D01*
X560000Y1377484D01*
X557968Y1376468D01*
X558984Y1377484D02*
X559492Y1378500D01*
X558984Y1379516D01*
X560000Y1379008D01*
X561016Y1379516D01*
X560508Y1378500D01*
X561016Y1377484D01*
X560000Y1377992D01*
X558984Y1377484D01*
X567968Y1366918D02*
X568984D01*
X570000Y1367934D01*
X571016Y1366918D01*
X572032D01*
Y1367934D01*
X571016Y1368950D01*
X572032Y1369966D01*
Y1370982D01*
X571016D01*
X570000Y1369966D01*
X568984Y1370982D01*
X567968D01*
Y1369966D01*
X568984Y1368950D01*
X567968Y1367934D01*
Y1366918D01*
X568984Y1367934D02*
X569492D01*
X570000Y1368442D01*
X570508Y1367934D01*
X571016D01*
Y1368442D01*
X570508Y1368950D01*
X571016Y1369458D01*
Y1369966D01*
X570508D01*
X570000Y1369458D01*
X569492Y1369966D01*
X568984D01*
Y1369458D01*
X569492Y1368950D01*
X568984Y1368442D01*
Y1367934D01*
X567968Y1421648D02*
X568984D01*
X570000Y1422664D01*
X571016Y1421648D01*
X572032D01*
Y1422664D01*
X571016Y1423680D01*
X572032Y1424696D01*
Y1425712D01*
X571016D01*
X570000Y1424696D01*
X568984Y1425712D01*
X567968D01*
Y1424696D01*
X568984Y1423680D01*
X567968Y1422664D01*
Y1421648D01*
X568984Y1422664D02*
X569492D01*
X570000Y1423172D01*
X570508Y1422664D01*
X571016D01*
Y1423172D01*
X570508Y1423680D01*
X571016Y1424188D01*
Y1424696D01*
X570508D01*
X570000Y1424188D01*
X569492Y1424696D01*
X568984D01*
Y1424188D01*
X569492Y1423680D01*
X568984Y1423172D01*
Y1422664D01*
X401635Y1427968D02*
X402651Y1428984D01*
X403667D01*
X402651Y1430000D01*
X403667Y1431016D01*
X402651D01*
X401635Y1432032D01*
X400619Y1431016D01*
X399603D01*
X400619Y1430000D01*
X399603Y1428984D01*
X400619D01*
X401635Y1427968D01*
Y1428984D02*
X402143Y1429492D01*
X402651D01*
X402143Y1430000D01*
X402651Y1430508D01*
X402143D01*
X401635Y1431016D01*
X401127Y1430508D01*
X400619D01*
X401127Y1430000D01*
X400619Y1429492D01*
X401127D01*
X401635Y1428984D01*
X507500Y1406340D02*
X508516Y1407356D01*
X509532D01*
X508516Y1408372D01*
X509532Y1409388D01*
X508516D01*
X507500Y1410404D01*
X506484Y1409388D01*
X505468D01*
X506484Y1408372D01*
X505468Y1407356D01*
X506484D01*
X507500Y1406340D01*
Y1407356D02*
X508008Y1407864D01*
X508516D01*
X508008Y1408372D01*
X508516Y1408880D01*
X508008D01*
X507500Y1409388D01*
X506992Y1408880D01*
X506484D01*
X506992Y1408372D01*
X506484Y1407864D01*
X506992D01*
X507500Y1407356D01*
X473080Y1426168D02*
X474096Y1427184D01*
X475112D01*
X474096Y1428200D01*
X475112Y1429216D01*
X474096D01*
X473080Y1430232D01*
X472064Y1429216D01*
X471048D01*
X472064Y1428200D01*
X471048Y1427184D01*
X472064D01*
X473080Y1426168D01*
Y1427184D02*
X473588Y1427692D01*
X474096D01*
X473588Y1428200D01*
X474096Y1428708D01*
X473588D01*
X473080Y1429216D01*
X472572Y1428708D01*
X472064D01*
X472572Y1428200D01*
X472064Y1427692D01*
X472572D01*
X473080Y1427184D01*
X507500Y1325331D02*
X508516Y1326347D01*
X509532D01*
X508516Y1327363D01*
X509532Y1328379D01*
X508516D01*
X507500Y1329395D01*
X506484Y1328379D01*
X505468D01*
X506484Y1327363D01*
X505468Y1326347D01*
X506484D01*
X507500Y1325331D01*
Y1326347D02*
X508008Y1326855D01*
X508516D01*
X508008Y1327363D01*
X508516Y1327871D01*
X508008D01*
X507500Y1328379D01*
X506992Y1327871D01*
X506484D01*
X506992Y1327363D01*
X506484Y1326855D01*
X506992D01*
X507500Y1326347D01*
X592468Y1472468D02*
X593484Y1474500D01*
X592468Y1476532D01*
X594500Y1475516D01*
X596532Y1476532D01*
X595516Y1474500D01*
X596532Y1472468D01*
X594500Y1473484D01*
X592468Y1472468D01*
X593484Y1473484D02*
X593992Y1474500D01*
X593484Y1475516D01*
X594500Y1475008D01*
X595516Y1475516D01*
X595008Y1474500D01*
X595516Y1473484D01*
X594500Y1473992D01*
X593484Y1473484D01*
X580468Y1460468D02*
X581484Y1462500D01*
X580468Y1464532D01*
X582500Y1463516D01*
X584532Y1464532D01*
X583516Y1462500D01*
X584532Y1460468D01*
X582500Y1461484D01*
X580468Y1460468D01*
X581484Y1461484D02*
X581992Y1462500D01*
X581484Y1463516D01*
X582500Y1463008D01*
X583516Y1463516D01*
X583008Y1462500D01*
X583516Y1461484D01*
X582500Y1461992D01*
X581484Y1461484D01*
X467500Y1420468D02*
X465468Y1424532D01*
X469532D01*
X467500Y1420468D01*
Y1421484D02*
X466484Y1423516D01*
X468516D01*
X467500Y1421484D01*
X264094Y173734D02*
Y172718D01*
X266126D01*
Y173734D01*
X267142D01*
Y175766D01*
X266126D01*
Y176782D01*
X264094D01*
Y175766D01*
X263078D01*
Y173734D01*
X264094D01*
X264602Y174242D02*
Y173734D01*
X265618D01*
Y174242D01*
X266126D01*
Y175258D01*
X265618D01*
Y175766D01*
X264602D01*
Y175258D01*
X264094D01*
Y174242D01*
X264602D01*
X502224Y173734D02*
Y172718D01*
X504256D01*
Y173734D01*
X505272D01*
Y175766D01*
X504256D01*
Y176782D01*
X502224D01*
Y175766D01*
X501208D01*
Y173734D01*
X502224D01*
X502732Y174242D02*
Y173734D01*
X503748D01*
Y174242D01*
X504256D01*
Y175258D01*
X503748D01*
Y175766D01*
X502732D01*
Y175258D01*
X502224D01*
Y174242D01*
X502732D01*
X463000Y1415468D02*
X460968Y1419532D01*
X465032D01*
X463000Y1415468D01*
Y1416484D02*
X461984Y1418516D01*
X464016D01*
X463000Y1416484D01*
X392500Y1396468D02*
X390468Y1400532D01*
X394532D01*
X392500Y1396468D01*
Y1397484D02*
X391484Y1399516D01*
X393516D01*
X392500Y1397484D01*
X359344Y364234D02*
Y363218D01*
X361376D01*
Y364234D01*
X362392D01*
Y366266D01*
X361376D01*
Y367282D01*
X359344D01*
Y366266D01*
X358328D01*
Y364234D01*
X359344D01*
X359852Y364742D02*
Y364234D01*
X360868D01*
Y364742D01*
X361376D01*
Y365758D01*
X360868D01*
Y366266D01*
X359852D01*
Y365758D01*
X359344D01*
Y364742D01*
X359852D01*
X397341Y1391468D02*
X395309Y1395532D01*
X399373D01*
X397341Y1391468D01*
Y1392484D02*
X396325Y1394516D01*
X398357D01*
X397341Y1392484D01*
X753743Y437053D02*
Y436037D01*
X755775D01*
Y437053D01*
X756791D01*
Y439085D01*
X755775D01*
Y440101D01*
X753743D01*
Y439085D01*
X752727D01*
Y437053D01*
X753743D01*
X754251Y437561D02*
Y437053D01*
X755267D01*
Y437561D01*
X755775D01*
Y438577D01*
X755267D01*
Y439085D01*
X754251D01*
Y438577D01*
X753743D01*
Y437561D01*
X754251D01*
X311724Y554734D02*
Y553718D01*
X313756D01*
Y554734D01*
X314772D01*
Y556766D01*
X313756D01*
Y557782D01*
X311724D01*
Y556766D01*
X310708D01*
Y554734D01*
X311724D01*
X312232Y555242D02*
Y554734D01*
X313248D01*
Y555242D01*
X313756D01*
Y556258D01*
X313248D01*
Y556766D01*
X312232D01*
Y556258D01*
X311724D01*
Y555242D01*
X312232D01*
X573664Y554734D02*
Y553718D01*
X575696D01*
Y554734D01*
X576712D01*
Y556766D01*
X575696D01*
Y557782D01*
X573664D01*
Y556766D01*
X572648D01*
Y554734D01*
X573664D01*
X574172Y555242D02*
Y554734D01*
X575188D01*
Y555242D01*
X575696D01*
Y556258D01*
X575188D01*
Y556766D01*
X574172D01*
Y556258D01*
X573664D01*
Y555242D01*
X574172D01*
X301484Y783984D02*
Y782968D01*
X303516D01*
Y783984D01*
X304532D01*
Y786016D01*
X303516D01*
Y787032D01*
X301484D01*
Y786016D01*
X300468D01*
Y783984D01*
X301484D01*
X301992Y784492D02*
Y783984D01*
X303008D01*
Y784492D01*
X303516D01*
Y785508D01*
X303008D01*
Y786016D01*
X301992D01*
Y785508D01*
X301484D01*
Y784492D01*
X301992D01*
X450435Y1237968D02*
X448403Y1242032D01*
X452467D01*
X450435Y1237968D01*
Y1238984D02*
X449419Y1241016D01*
X451451D01*
X450435Y1238984D01*
X526034Y745234D02*
Y744218D01*
X528066D01*
Y745234D01*
X529082D01*
Y747266D01*
X528066D01*
Y748282D01*
X526034D01*
Y747266D01*
X525018D01*
Y745234D01*
X526034D01*
X526542Y745742D02*
Y745234D01*
X527558D01*
Y745742D01*
X528066D01*
Y746758D01*
X527558D01*
Y747266D01*
X526542D01*
Y746758D01*
X526034D01*
Y745742D01*
X526542D01*
X455000Y1232968D02*
X452968Y1237032D01*
X457032D01*
X455000Y1232968D01*
Y1233984D02*
X453984Y1236016D01*
X456016D01*
X455000Y1233984D01*
X311484Y1041246D02*
Y1040230D01*
X313516D01*
Y1041246D01*
X314532D01*
Y1043279D01*
X313516D01*
Y1044295D01*
X311484D01*
Y1043279D01*
X310468D01*
Y1041246D01*
X311484D01*
X311992Y1041755D02*
Y1041246D01*
X313008D01*
Y1041755D01*
X313516D01*
Y1042770D01*
X313008D01*
Y1043279D01*
X311992D01*
Y1042770D01*
X311484D01*
Y1041755D01*
X311992D01*
X459086Y1227968D02*
X457054Y1232032D01*
X461118D01*
X459086Y1227968D01*
Y1228984D02*
X458070Y1231016D01*
X460102D01*
X459086Y1228984D01*
X430784Y935734D02*
Y934718D01*
X432816D01*
Y935734D01*
X433832D01*
Y937766D01*
X432816D01*
Y938782D01*
X430784D01*
Y937766D01*
X429768D01*
Y935734D01*
X430784D01*
X431292Y936242D02*
Y935734D01*
X432308D01*
Y936242D01*
X432816D01*
Y937258D01*
X432308D01*
Y937766D01*
X431292D01*
Y937258D01*
X430784D01*
Y936242D01*
X431292D01*
X441278Y1125218D02*
X442294Y1127250D01*
X441278Y1129282D01*
X443310Y1128266D01*
X445342Y1129282D01*
X444326Y1127250D01*
X445342Y1125218D01*
X443310Y1126234D01*
X441278Y1125218D01*
X442294Y1126234D02*
X442802Y1127250D01*
X442294Y1128266D01*
X443310Y1127758D01*
X444326Y1128266D01*
X443818Y1127250D01*
X444326Y1126234D01*
X443310Y1126742D01*
X442294Y1126234D01*
X502968Y1346468D02*
X503984Y1348500D01*
X502968Y1350532D01*
X505000Y1349516D01*
X507032Y1350532D01*
X506016Y1348500D01*
X507032Y1346468D01*
X505000Y1347484D01*
X502968Y1346468D01*
X503984Y1347484D02*
X504492Y1348500D01*
X503984Y1349516D01*
X505000Y1349008D01*
X506016Y1349516D01*
X505508Y1348500D01*
X506016Y1347484D01*
X505000Y1347992D01*
X503984Y1347484D01*
X532968Y1317968D02*
X533984Y1320000D01*
X532968Y1322032D01*
X535000Y1321016D01*
X537032Y1322032D01*
X536016Y1320000D01*
X537032Y1317968D01*
X535000Y1318984D01*
X532968Y1317968D01*
X533984Y1318984D02*
X534492Y1320000D01*
X533984Y1321016D01*
X535000Y1320508D01*
X536016Y1321016D01*
X535508Y1320000D01*
X536016Y1318984D01*
X535000Y1319492D01*
X533984Y1318984D01*
X1341434Y833968D02*
X1342450Y834984D01*
X1343466D01*
X1342450Y836000D01*
X1343466Y837016D01*
X1342450D01*
X1341434Y838032D01*
X1340418Y837016D01*
X1339402D01*
X1340418Y836000D01*
X1339402Y834984D01*
X1340418D01*
X1341434Y833968D01*
Y834984D02*
X1341942Y835492D01*
X1342450D01*
X1341942Y836000D01*
X1342450Y836508D01*
X1341942D01*
X1341434Y837016D01*
X1340926Y836508D01*
X1340418D01*
X1340926Y836000D01*
X1340418Y835492D01*
X1340926D01*
X1341434Y834984D01*
X1313434Y861968D02*
X1314450Y862984D01*
X1315466D01*
X1314450Y864000D01*
X1315466Y865016D01*
X1314450D01*
X1313434Y866032D01*
X1312418Y865016D01*
X1311402D01*
X1312418Y864000D01*
X1311402Y862984D01*
X1312418D01*
X1313434Y861968D01*
Y862984D02*
X1313942Y863492D01*
X1314450D01*
X1313942Y864000D01*
X1314450Y864508D01*
X1313942D01*
X1313434Y865016D01*
X1312926Y864508D01*
X1312418D01*
X1312926Y864000D01*
X1312418Y863492D01*
X1312926D01*
X1313434Y862984D01*
X2076000Y861405D02*
X2077016Y862421D01*
X2078032D01*
X2077016Y863437D01*
X2078032Y864453D01*
X2077016D01*
X2076000Y865469D01*
X2074984Y864453D01*
X2073968D01*
X2074984Y863437D01*
X2073968Y862421D01*
X2074984D01*
X2076000Y861405D01*
Y862421D02*
X2076508Y862929D01*
X2077016D01*
X2076508Y863437D01*
X2077016Y863945D01*
X2076508D01*
X2076000Y864453D01*
X2075492Y863945D01*
X2074984D01*
X2075492Y863437D01*
X2074984Y862929D01*
X2075492D01*
X2076000Y862421D01*
X2103000Y834405D02*
X2104016Y835421D01*
X2105032D01*
X2104016Y836437D01*
X2105032Y837453D01*
X2104016D01*
X2103000Y838469D01*
X2101984Y837453D01*
X2100968D01*
X2101984Y836437D01*
X2100968Y835421D01*
X2101984D01*
X2103000Y834405D01*
Y835421D02*
X2103508Y835929D01*
X2104016D01*
X2103508Y836437D01*
X2104016Y836945D01*
X2103508D01*
X2103000Y837453D01*
X2102492Y836945D01*
X2101984D01*
X2102492Y836437D01*
X2101984Y835929D01*
X2102492D01*
X2103000Y835421D01*
X398842Y1402094D02*
X399858Y1404126D01*
X398842Y1406158D01*
X400874Y1405142D01*
X402906Y1406158D01*
X401890Y1404126D01*
X402906Y1402094D01*
X400874Y1403110D01*
X398842Y1402094D01*
X399858Y1403110D02*
X400366Y1404126D01*
X399858Y1405142D01*
X400874Y1404634D01*
X401890Y1405142D01*
X401382Y1404126D01*
X401890Y1403110D01*
X400874Y1403618D01*
X399858Y1403110D01*
X1092968Y1268218D02*
X1093984Y1270250D01*
X1092968Y1272282D01*
X1095000Y1271266D01*
X1097032Y1272282D01*
X1096016Y1270250D01*
X1097032Y1268218D01*
X1095000Y1269234D01*
X1092968Y1268218D01*
X1093984Y1269234D02*
X1094492Y1270250D01*
X1093984Y1271266D01*
X1095000Y1270758D01*
X1096016Y1271266D01*
X1095508Y1270250D01*
X1096016Y1269234D01*
X1095000Y1269742D01*
X1093984Y1269234D01*
X537468Y1388468D02*
X538484Y1390500D01*
X537468Y1392532D01*
X539500Y1391516D01*
X541532Y1392532D01*
X540516Y1390500D01*
X541532Y1388468D01*
X539500Y1389484D01*
X537468Y1388468D01*
X538484Y1389484D02*
X538992Y1390500D01*
X538484Y1391516D01*
X539500Y1391008D01*
X540516Y1391516D01*
X540008Y1390500D01*
X540516Y1389484D01*
X539500Y1389992D01*
X538484Y1389484D01*
X695468Y1376468D02*
X696484Y1378500D01*
X695468Y1380532D01*
X697500Y1379516D01*
X699532Y1380532D01*
X698516Y1378500D01*
X699532Y1376468D01*
X697500Y1377484D01*
X695468Y1376468D01*
X696484Y1377484D02*
X696992Y1378500D01*
X696484Y1379516D01*
X697500Y1379008D01*
X698516Y1379516D01*
X698008Y1378500D01*
X698516Y1377484D01*
X697500Y1377992D01*
X696484Y1377484D01*
X695468Y1388468D02*
X696484Y1390500D01*
X695468Y1392532D01*
X697500Y1391516D01*
X699532Y1392532D01*
X698516Y1390500D01*
X699532Y1388468D01*
X697500Y1389484D01*
X695468Y1388468D01*
X696484Y1389484D02*
X696992Y1390500D01*
X696484Y1391516D01*
X697500Y1391008D01*
X698516Y1391516D01*
X698008Y1390500D01*
X698516Y1389484D01*
X697500Y1389992D01*
X696484Y1389484D01*
X695468Y1400468D02*
X696484Y1402500D01*
X695468Y1404532D01*
X697500Y1403516D01*
X699532Y1404532D01*
X698516Y1402500D01*
X699532Y1400468D01*
X697500Y1401484D01*
X695468Y1400468D01*
X696484Y1401484D02*
X696992Y1402500D01*
X696484Y1403516D01*
X697500Y1403008D01*
X698516Y1403516D01*
X698008Y1402500D01*
X698516Y1401484D01*
X697500Y1401992D01*
X696484Y1401484D01*
X497968Y1412468D02*
X498984Y1414500D01*
X497968Y1416532D01*
X500000Y1415516D01*
X502032Y1416532D01*
X501016Y1414500D01*
X502032Y1412468D01*
X500000Y1413484D01*
X497968Y1412468D01*
X498984Y1413484D02*
X499492Y1414500D01*
X498984Y1415516D01*
X500000Y1415008D01*
X501016Y1415516D01*
X500508Y1414500D01*
X501016Y1413484D01*
X500000Y1413992D01*
X498984Y1413484D01*
X695468Y1412468D02*
X696484Y1414500D01*
X695468Y1416532D01*
X697500Y1415516D01*
X699532Y1416532D01*
X698516Y1414500D01*
X699532Y1412468D01*
X697500Y1413484D01*
X695468Y1412468D01*
X696484Y1413484D02*
X696992Y1414500D01*
X696484Y1415516D01*
X697500Y1415008D01*
X698516Y1415516D01*
X698008Y1414500D01*
X698516Y1413484D01*
X697500Y1413992D01*
X696484Y1413484D01*
X1372418Y1310018D02*
X1373434Y1312050D01*
X1372418Y1314082D01*
X1374450Y1313066D01*
X1376482Y1314082D01*
X1375466Y1312050D01*
X1376482Y1310018D01*
X1374450Y1311034D01*
X1372418Y1310018D01*
X1373434Y1311034D02*
X1373942Y1312050D01*
X1373434Y1313066D01*
X1374450Y1312558D01*
X1375466Y1313066D01*
X1374958Y1312050D01*
X1375466Y1311034D01*
X1374450Y1311542D01*
X1373434Y1311034D01*
X1360468Y1333218D02*
X1361484Y1335250D01*
X1360468Y1337282D01*
X1362500Y1336266D01*
X1364532Y1337282D01*
X1363516Y1335250D01*
X1364532Y1333218D01*
X1362500Y1334234D01*
X1360468Y1333218D01*
X1361484Y1334234D02*
X1361992Y1335250D01*
X1361484Y1336266D01*
X1362500Y1335758D01*
X1363516Y1336266D01*
X1363008Y1335250D01*
X1363516Y1334234D01*
X1362500Y1334742D01*
X1361484Y1334234D01*
X653678Y1362968D02*
X654694Y1365000D01*
X653678Y1367032D01*
X655710Y1366016D01*
X657742Y1367032D01*
X656726Y1365000D01*
X657742Y1362968D01*
X655710Y1363984D01*
X653678Y1362968D01*
X654694Y1363984D02*
X655202Y1365000D01*
X654694Y1366016D01*
X655710Y1365508D01*
X656726Y1366016D01*
X656218Y1365000D01*
X656726Y1363984D01*
X655710Y1364492D01*
X654694Y1363984D01*
X895468Y1488968D02*
X896484Y1491000D01*
X895468Y1493032D01*
X897500Y1492016D01*
X899532Y1493032D01*
X898516Y1491000D01*
X899532Y1488968D01*
X897500Y1489984D01*
X895468Y1488968D01*
X896484Y1489984D02*
X896992Y1491000D01*
X896484Y1492016D01*
X897500Y1491508D01*
X898516Y1492016D01*
X898008Y1491000D01*
X898516Y1489984D01*
X897500Y1490492D01*
X896484Y1489984D01*
X642968Y1367968D02*
X643984Y1370000D01*
X642968Y1372032D01*
X645000Y1371016D01*
X647032Y1372032D01*
X646016Y1370000D01*
X647032Y1367968D01*
X645000Y1368984D01*
X642968Y1367968D01*
X643984Y1368984D02*
X644492Y1370000D01*
X643984Y1371016D01*
X645000Y1370508D01*
X646016Y1371016D01*
X645508Y1370000D01*
X646016Y1368984D01*
X645000Y1369492D01*
X643984Y1368984D01*
X895468Y1467968D02*
X896484Y1470000D01*
X895468Y1472032D01*
X897500Y1471016D01*
X899532Y1472032D01*
X898516Y1470000D01*
X899532Y1467968D01*
X897500Y1468984D01*
X895468Y1467968D01*
X896484Y1468984D02*
X896992Y1470000D01*
X896484Y1471016D01*
X897500Y1470508D01*
X898516Y1471016D01*
X898008Y1470000D01*
X898516Y1468984D01*
X897500Y1469492D01*
X896484Y1468984D01*
X1243984Y1356733D02*
Y1355717D01*
X1246016D01*
Y1356733D01*
X1247032D01*
Y1358765D01*
X1246016D01*
Y1359781D01*
X1243984D01*
Y1358765D01*
X1242968D01*
Y1356733D01*
X1243984D01*
X1244492Y1357241D02*
Y1356733D01*
X1245508D01*
Y1357241D01*
X1246016D01*
Y1358257D01*
X1245508D01*
Y1358765D01*
X1244492D01*
Y1358257D01*
X1243984D01*
Y1357241D01*
X1244492D01*
X1145066Y1316120D02*
X1146082Y1318152D01*
X1145066Y1320184D01*
X1147098Y1319168D01*
X1149130Y1320184D01*
X1148114Y1318152D01*
X1149130Y1316120D01*
X1147098Y1317136D01*
X1145066Y1316120D01*
X1146082Y1317136D02*
X1146590Y1318152D01*
X1146082Y1319168D01*
X1147098Y1318660D01*
X1148114Y1319168D01*
X1147606Y1318152D01*
X1148114Y1317136D01*
X1147098Y1317644D01*
X1146082Y1317136D01*
X1251484Y1367934D02*
Y1366918D01*
X1253516D01*
Y1367934D01*
X1254532D01*
Y1369966D01*
X1253516D01*
Y1370982D01*
X1251484D01*
Y1369966D01*
X1250468D01*
Y1367934D01*
X1251484D01*
X1251992Y1368442D02*
Y1367934D01*
X1253008D01*
Y1368442D01*
X1253516D01*
Y1369458D01*
X1253008D01*
Y1369966D01*
X1251992D01*
Y1369458D01*
X1251484D01*
Y1368442D01*
X1251992D01*
X1644718Y1342968D02*
X1645734Y1345000D01*
X1644718Y1347032D01*
X1646750Y1346016D01*
X1648782Y1347032D01*
X1647766Y1345000D01*
X1648782Y1342968D01*
X1646750Y1343984D01*
X1644718Y1342968D01*
X1645734Y1343984D02*
X1646242Y1345000D01*
X1645734Y1346016D01*
X1646750Y1345508D01*
X1647766Y1346016D01*
X1647258Y1345000D01*
X1647766Y1343984D01*
X1646750Y1344492D01*
X1645734Y1343984D01*
X2570468Y435278D02*
X2571484Y437310D01*
X2570468Y439342D01*
X2572500Y438326D01*
X2574532Y439342D01*
X2573516Y437310D01*
X2574532Y435278D01*
X2572500Y436294D01*
X2570468Y435278D01*
X2571484Y436294D02*
X2571992Y437310D01*
X2571484Y438326D01*
X2572500Y437818D01*
X2573516Y438326D01*
X2573008Y437310D01*
X2573516Y436294D01*
X2572500Y436802D01*
X2571484Y436294D01*
X2331768Y448468D02*
X2332784Y450500D01*
X2331768Y452532D01*
X2333800Y451516D01*
X2335832Y452532D01*
X2334816Y450500D01*
X2335832Y448468D01*
X2333800Y449484D01*
X2331768Y448468D01*
X2332784Y449484D02*
X2333292Y450500D01*
X2332784Y451516D01*
X2333800Y451008D01*
X2334816Y451516D01*
X2334308Y450500D01*
X2334816Y449484D01*
X2333800Y449992D01*
X2332784Y449484D01*
X1950678Y448218D02*
X1951694Y450250D01*
X1950678Y452282D01*
X1952710Y451266D01*
X1954742Y452282D01*
X1953726Y450250D01*
X1954742Y448218D01*
X1952710Y449234D01*
X1950678Y448218D01*
X1951694Y449234D02*
X1952202Y450250D01*
X1951694Y451266D01*
X1952710Y450758D01*
X1953726Y451266D01*
X1953218Y450250D01*
X1953726Y449234D01*
X1952710Y449742D01*
X1951694Y449234D01*
X2118558Y435528D02*
X2119574Y437560D01*
X2118558Y439592D01*
X2120590Y438576D01*
X2122622Y439592D01*
X2121606Y437560D01*
X2122622Y435528D01*
X2120590Y436544D01*
X2118558Y435528D01*
X2119574Y436544D02*
X2120082Y437560D01*
X2119574Y438576D01*
X2120590Y438068D01*
X2121606Y438576D01*
X2121098Y437560D01*
X2121606Y436544D01*
X2120590Y437052D01*
X2119574Y436544D01*
X1569768Y448468D02*
X1570784Y450500D01*
X1569768Y452532D01*
X1571800Y451516D01*
X1573832Y452532D01*
X1572816Y450500D01*
X1573832Y448468D01*
X1571800Y449484D01*
X1569768Y448468D01*
X1570784Y449484D02*
X1571292Y450500D01*
X1570784Y451516D01*
X1571800Y451008D01*
X1572816Y451516D01*
X1572308Y450500D01*
X1572816Y449484D01*
X1571800Y449992D01*
X1570784Y449484D01*
X1737648Y435778D02*
X1738664Y437810D01*
X1737648Y439842D01*
X1739680Y438826D01*
X1741712Y439842D01*
X1740696Y437810D01*
X1741712Y435778D01*
X1739680Y436794D01*
X1737648Y435778D01*
X1738664Y436794D02*
X1739172Y437810D01*
X1738664Y438826D01*
X1739680Y438318D01*
X1740696Y438826D01*
X1740188Y437810D01*
X1740696Y436794D01*
X1739680Y437302D01*
X1738664Y436794D01*
X1188678Y448218D02*
X1189694Y450250D01*
X1188678Y452282D01*
X1190710Y451266D01*
X1192742Y452282D01*
X1191726Y450250D01*
X1192742Y448218D01*
X1190710Y449234D01*
X1188678Y448218D01*
X1189694Y449234D02*
X1190202Y450250D01*
X1189694Y451266D01*
X1190710Y450758D01*
X1191726Y451266D01*
X1191218Y450250D01*
X1191726Y449234D01*
X1190710Y449742D01*
X1189694Y449234D01*
X1356558Y435528D02*
X1357574Y437560D01*
X1356558Y439592D01*
X1358590Y438576D01*
X1360622Y439592D01*
X1359606Y437560D01*
X1360622Y435528D01*
X1358590Y436544D01*
X1356558Y435528D01*
X1357574Y436544D02*
X1358082Y437560D01*
X1357574Y438576D01*
X1358590Y438068D01*
X1359606Y438576D01*
X1359098Y437560D01*
X1359606Y436544D01*
X1358590Y437052D01*
X1357574Y436544D01*
X975468Y435278D02*
X976484Y437310D01*
X975468Y439342D01*
X977500Y438326D01*
X979532Y439342D01*
X978516Y437310D01*
X979532Y435278D01*
X977500Y436294D01*
X975468Y435278D01*
X976484Y436294D02*
X976992Y437310D01*
X976484Y438326D01*
X977500Y437818D01*
X978516Y438326D01*
X978008Y437310D01*
X978516Y436294D01*
X977500Y436802D01*
X976484Y436294D01*
X807588Y447968D02*
X808604Y450000D01*
X807588Y452032D01*
X809620Y451016D01*
X811652Y452032D01*
X810636Y450000D01*
X811652Y447968D01*
X809620Y448984D01*
X807588Y447968D01*
X808604Y448984D02*
X809112Y450000D01*
X808604Y451016D01*
X809620Y450508D01*
X810636Y451016D01*
X810128Y450000D01*
X810636Y448984D01*
X809620Y449492D01*
X808604Y448984D01*
X2484434Y833968D02*
X2485450Y834984D01*
X2486466D01*
X2485450Y836000D01*
X2486466Y837016D01*
X2485450D01*
X2484434Y838032D01*
X2483418Y837016D01*
X2482402D01*
X2483418Y836000D01*
X2482402Y834984D01*
X2483418D01*
X2484434Y833968D01*
Y834984D02*
X2484942Y835492D01*
X2485450D01*
X2484942Y836000D01*
X2485450Y836508D01*
X2484942D01*
X2484434Y837016D01*
X2483926Y836508D01*
X2483418D01*
X2483926Y836000D01*
X2483418Y835492D01*
X2483926D01*
X2484434Y834984D01*
X2466434Y851968D02*
X2467450Y852984D01*
X2468466D01*
X2467450Y854000D01*
X2468466Y855016D01*
X2467450D01*
X2466434Y856032D01*
X2465418Y855016D01*
X2464402D01*
X2465418Y854000D01*
X2464402Y852984D01*
X2465418D01*
X2466434Y851968D01*
Y852984D02*
X2466942Y853492D01*
X2467450D01*
X2466942Y854000D01*
X2467450Y854508D01*
X2466942D01*
X2466434Y855016D01*
X2465926Y854508D01*
X2465418D01*
X2465926Y854000D01*
X2465418Y853492D01*
X2465926D01*
X2466434Y852984D01*
X2562518Y817968D02*
X2563534Y820000D01*
X2562518Y822032D01*
X2564550Y821016D01*
X2566582Y822032D01*
X2565566Y820000D01*
X2566582Y817968D01*
X2564550Y818984D01*
X2562518Y817968D01*
X2563534Y818984D02*
X2564042Y820000D01*
X2563534Y821016D01*
X2564550Y820508D01*
X2565566Y821016D01*
X2565058Y820000D01*
X2565566Y818984D01*
X2564550Y819492D01*
X2563534Y818984D01*
X2181518Y817968D02*
X2182534Y820000D01*
X2181518Y822032D01*
X2183550Y821016D01*
X2185582Y822032D01*
X2184566Y820000D01*
X2185582Y817968D01*
X2183550Y818984D01*
X2181518Y817968D01*
X2182534Y818984D02*
X2183042Y820000D01*
X2182534Y821016D01*
X2183550Y820508D01*
X2184566Y821016D01*
X2184058Y820000D01*
X2184566Y818984D01*
X2183550Y819492D01*
X2182534Y818984D01*
X1800518Y817968D02*
X1801534Y820000D01*
X1800518Y822032D01*
X1802550Y821016D01*
X1804582Y822032D01*
X1803566Y820000D01*
X1804582Y817968D01*
X1802550Y818984D01*
X1800518Y817968D01*
X1801534Y818984D02*
X1802042Y820000D01*
X1801534Y821016D01*
X1802550Y820508D01*
X1803566Y821016D01*
X1803058Y820000D01*
X1803566Y818984D01*
X1802550Y819492D01*
X1801534Y818984D01*
X1419518Y817968D02*
X1420534Y820000D01*
X1419518Y822032D01*
X1421550Y821016D01*
X1423582Y822032D01*
X1422566Y820000D01*
X1423582Y817968D01*
X1421550Y818984D01*
X1419518Y817968D01*
X1420534Y818984D02*
X1421042Y820000D01*
X1420534Y821016D01*
X1421550Y820508D01*
X1422566Y821016D01*
X1422058Y820000D01*
X1422566Y818984D01*
X1421550Y819492D01*
X1420534Y818984D01*
X1037968Y817968D02*
X1038984Y820000D01*
X1037968Y822032D01*
X1040000Y821016D01*
X1042032Y822032D01*
X1041016Y820000D01*
X1042032Y817968D01*
X1040000Y818984D01*
X1037968Y817968D01*
X1038984Y818984D02*
X1039492Y820000D01*
X1038984Y821016D01*
X1040000Y820508D01*
X1041016Y821016D01*
X1040508Y820000D01*
X1041016Y818984D01*
X1040000Y819492D01*
X1038984Y818984D01*
X657968Y817518D02*
X658984Y819550D01*
X657968Y821582D01*
X660000Y820566D01*
X662032Y821582D01*
X661016Y819550D01*
X662032Y817518D01*
X660000Y818534D01*
X657968Y817518D01*
X658984Y818534D02*
X659492Y819550D01*
X658984Y820566D01*
X660000Y820058D01*
X661016Y820566D01*
X660508Y819550D01*
X661016Y818534D01*
X660000Y819042D01*
X658984Y818534D01*
X2341118Y817968D02*
X2342134Y820000D01*
X2341118Y822032D01*
X2343150Y821016D01*
X2345182Y822032D01*
X2344166Y820000D01*
X2345182Y817968D01*
X2343150Y818984D01*
X2341118Y817968D01*
X2342134Y818984D02*
X2342642Y820000D01*
X2342134Y821016D01*
X2343150Y820508D01*
X2344166Y821016D01*
X2343658Y820000D01*
X2344166Y818984D01*
X2343150Y819492D01*
X2342134Y818984D01*
X1960118Y817968D02*
X1961134Y820000D01*
X1960118Y822032D01*
X1962150Y821016D01*
X1964182Y822032D01*
X1963166Y820000D01*
X1964182Y817968D01*
X1962150Y818984D01*
X1960118Y817968D01*
X1961134Y818984D02*
X1961642Y820000D01*
X1961134Y821016D01*
X1962150Y820508D01*
X1963166Y821016D01*
X1962658Y820000D01*
X1963166Y818984D01*
X1962150Y819492D01*
X1961134Y818984D01*
X1579118Y817968D02*
X1580134Y820000D01*
X1579118Y822032D01*
X1581150Y821016D01*
X1583182Y822032D01*
X1582166Y820000D01*
X1583182Y817968D01*
X1581150Y818984D01*
X1579118Y817968D01*
X1580134Y818984D02*
X1580642Y820000D01*
X1580134Y821016D01*
X1581150Y820508D01*
X1582166Y821016D01*
X1581658Y820000D01*
X1582166Y818984D01*
X1581150Y819492D01*
X1580134Y818984D01*
X1198118Y817968D02*
X1199134Y820000D01*
X1198118Y822032D01*
X1200150Y821016D01*
X1202182Y822032D01*
X1201166Y820000D01*
X1202182Y817968D01*
X1200150Y818984D01*
X1198118Y817968D01*
X1199134Y818984D02*
X1199642Y820000D01*
X1199134Y821016D01*
X1200150Y820508D01*
X1201166Y821016D01*
X1200658Y820000D01*
X1201166Y818984D01*
X1200150Y819492D01*
X1199134Y818984D01*
X817118Y817968D02*
X818134Y820000D01*
X817118Y822032D01*
X819150Y821016D01*
X821182Y822032D01*
X820166Y820000D01*
X821182Y817968D01*
X819150Y818984D01*
X817118Y817968D01*
X818134Y818984D02*
X818642Y820000D01*
X818134Y821016D01*
X819150Y820508D01*
X820166Y821016D01*
X819658Y820000D01*
X820166Y818984D01*
X819150Y819492D01*
X818134Y818984D01*
X600718Y832968D02*
X601734Y835000D01*
X600718Y837032D01*
X602750Y836016D01*
X604782Y837032D01*
X603766Y835000D01*
X604782Y832968D01*
X602750Y833984D01*
X600718Y832968D01*
X601734Y833984D02*
X602242Y835000D01*
X601734Y836016D01*
X602750Y835508D01*
X603766Y836016D01*
X603258Y835000D01*
X603766Y833984D01*
X602750Y834492D01*
X601734Y833984D01*
X822278Y1125218D02*
X823294Y1127250D01*
X822278Y1129282D01*
X824310Y1128266D01*
X826342Y1129282D01*
X825326Y1127250D01*
X826342Y1125218D01*
X824310Y1126234D01*
X822278Y1125218D01*
X823294Y1126234D02*
X823802Y1127250D01*
X823294Y1128266D01*
X824310Y1127758D01*
X825326Y1128266D01*
X824818Y1127250D01*
X825326Y1126234D01*
X824310Y1126742D01*
X823294Y1126234D01*
X1203278Y1125218D02*
X1204294Y1127250D01*
X1203278Y1129282D01*
X1205310Y1128266D01*
X1207342Y1129282D01*
X1206326Y1127250D01*
X1207342Y1125218D01*
X1205310Y1126234D01*
X1203278Y1125218D01*
X1204294Y1126234D02*
X1204802Y1127250D01*
X1204294Y1128266D01*
X1205310Y1127758D01*
X1206326Y1128266D01*
X1205818Y1127250D01*
X1206326Y1126234D01*
X1205310Y1126742D01*
X1204294Y1126234D01*
X1584278Y1125218D02*
X1585294Y1127250D01*
X1584278Y1129282D01*
X1586310Y1128266D01*
X1588342Y1129282D01*
X1587326Y1127250D01*
X1588342Y1125218D01*
X1586310Y1126234D01*
X1584278Y1125218D01*
X1585294Y1126234D02*
X1585802Y1127250D01*
X1585294Y1128266D01*
X1586310Y1127758D01*
X1587326Y1128266D01*
X1586818Y1127250D01*
X1587326Y1126234D01*
X1586310Y1126742D01*
X1585294Y1126234D01*
X1965278Y1125218D02*
X1966294Y1127250D01*
X1965278Y1129282D01*
X1967310Y1128266D01*
X1969342Y1129282D01*
X1968326Y1127250D01*
X1969342Y1125218D01*
X1967310Y1126234D01*
X1965278Y1125218D01*
X1966294Y1126234D02*
X1966802Y1127250D01*
X1966294Y1128266D01*
X1967310Y1127758D01*
X1968326Y1128266D01*
X1967818Y1127250D01*
X1968326Y1126234D01*
X1967310Y1126742D01*
X1966294Y1126234D01*
X2346278Y1125218D02*
X2347294Y1127250D01*
X2346278Y1129282D01*
X2348310Y1128266D01*
X2350342Y1129282D01*
X2349326Y1127250D01*
X2350342Y1125218D01*
X2348310Y1126234D01*
X2346278Y1125218D01*
X2347294Y1126234D02*
X2347802Y1127250D01*
X2347294Y1128266D01*
X2348310Y1127758D01*
X2349326Y1128266D01*
X2348818Y1127250D01*
X2349326Y1126234D01*
X2348310Y1126742D01*
X2347294Y1126234D01*
X2727278Y1125218D02*
X2728294Y1127250D01*
X2727278Y1129282D01*
X2729310Y1128266D01*
X2731342Y1129282D01*
X2730326Y1127250D01*
X2731342Y1125218D01*
X2729310Y1126234D01*
X2727278Y1125218D01*
X2728294Y1126234D02*
X2728802Y1127250D01*
X2728294Y1128266D01*
X2729310Y1127758D01*
X2730326Y1128266D01*
X2729818Y1127250D01*
X2730326Y1126234D01*
X2729310Y1126742D01*
X2728294Y1126234D01*
X3108278Y1125218D02*
X3109294Y1127250D01*
X3108278Y1129282D01*
X3110310Y1128266D01*
X3112342Y1129282D01*
X3111326Y1127250D01*
X3112342Y1125218D01*
X3110310Y1126234D01*
X3108278Y1125218D01*
X3109294Y1126234D02*
X3109802Y1127250D01*
X3109294Y1128266D01*
X3110310Y1127758D01*
X3111326Y1128266D01*
X3110818Y1127250D01*
X3111326Y1126234D01*
X3110310Y1126742D01*
X3109294Y1126234D01*
D127*
X383032Y1143000D02*
G03*
X383032Y1143000I-2032J0D01*
G01*
X2573782Y762000D02*
G03*
X2573782Y762000I-2032J0D01*
G01*
X692597Y190500D02*
G03*
X692597Y190500I-2032J0D01*
G01*
X454467D02*
G03*
X454467Y190500I-2032J0D01*
G01*
X216345D02*
G03*
X216345Y190500I-2032J0D01*
G01*
X311595Y381000D02*
G03*
X311595Y381000I-2032J0D01*
G01*
X263969Y571500D02*
G03*
X263969Y571500I-2032J0D01*
G01*
X240157Y762000D02*
G03*
X240157Y762000I-2032J0D01*
G01*
X2764282Y952500D02*
G03*
X2764282Y952500I-2032J0D01*
G01*
X2811907Y762000D02*
G03*
X2811907Y762000I-2032J0D01*
G01*
X2740475Y571500D02*
G03*
X2740475Y571500I-2032J0D01*
G01*
X2597589Y381000D02*
G03*
X2597589Y381000I-2032J0D01*
G01*
X1406967Y190500D02*
G03*
X1406967Y190500I-2032J0D01*
G01*
X192532Y1143000D02*
G03*
X192532Y1143000I-2032J0D01*
G01*
X573532D02*
G03*
X573532Y1143000I-2032J0D01*
G01*
X764032D02*
G03*
X764032Y1143000I-2032J0D01*
G01*
X954532D02*
G03*
X954532Y1143000I-2032J0D01*
G01*
X1145032D02*
G03*
X1145032Y1143000I-2032J0D01*
G01*
X1335532D02*
G03*
X1335532Y1143000I-2032J0D01*
G01*
X1526032D02*
G03*
X1526032Y1143000I-2032J0D01*
G01*
X1716532D02*
G03*
X1716532Y1143000I-2032J0D01*
G01*
X1907032D02*
G03*
X1907032Y1143000I-2032J0D01*
G01*
X2097532D02*
G03*
X2097532Y1143000I-2032J0D01*
G01*
X2288032D02*
G03*
X2288032Y1143000I-2032J0D01*
G01*
X2478532D02*
G03*
X2478532Y1143000I-2032J0D01*
G01*
X2669032D02*
G03*
X2669032Y1143000I-2032J0D01*
G01*
X2859532D02*
G03*
X2859532Y1143000I-2032J0D01*
G01*
X3050032D02*
G03*
X3050032Y1143000I-2032J0D01*
G01*
X383032Y952500D02*
G03*
X383032Y952500I-2032J0D01*
G01*
X192532D02*
G03*
X192532Y952500I-2032J0D01*
G01*
X573532D02*
G03*
X573532Y952500I-2032J0D01*
G01*
X764032D02*
G03*
X764032Y952500I-2032J0D01*
G01*
X954532D02*
G03*
X954532Y952500I-2032J0D01*
G01*
X1145032D02*
G03*
X1145032Y952500I-2032J0D01*
G01*
X1335532D02*
G03*
X1335532Y952500I-2032J0D01*
G01*
X1526032D02*
G03*
X1526032Y952500I-2032J0D01*
G01*
X1716532D02*
G03*
X1716532Y952500I-2032J0D01*
G01*
X1907032D02*
G03*
X1907032Y952500I-2032J0D01*
G01*
X2097532D02*
G03*
X2097532Y952500I-2032J0D01*
G01*
X2288032D02*
G03*
X2288032Y952500I-2032J0D01*
G01*
X2478532D02*
G03*
X2478532Y952500I-2032J0D01*
G01*
X3050032D02*
G03*
X3050032Y952500I-2032J0D01*
G01*
X478282Y762000D02*
G03*
X478282Y762000I-2032J0D01*
G01*
X668782D02*
G03*
X668782Y762000I-2032J0D01*
G01*
X859282D02*
G03*
X859282Y762000I-2032J0D01*
G01*
X1049782D02*
G03*
X1049782Y762000I-2032J0D01*
G01*
X1240282D02*
G03*
X1240282Y762000I-2032J0D01*
G01*
X1430782D02*
G03*
X1430782Y762000I-2032J0D01*
G01*
X1621282D02*
G03*
X1621282Y762000I-2032J0D01*
G01*
X1811782D02*
G03*
X1811782Y762000I-2032J0D01*
G01*
X2002282D02*
G03*
X2002282Y762000I-2032J0D01*
G01*
X2192782D02*
G03*
X2192782Y762000I-2032J0D01*
G01*
X2383282D02*
G03*
X2383282Y762000I-2032J0D01*
G01*
X3050032D02*
G03*
X3050032Y762000I-2032J0D01*
G01*
X525912Y571500D02*
G03*
X525912Y571500I-2032J0D01*
G01*
X716412D02*
G03*
X716412Y571500I-2032J0D01*
G01*
X906912D02*
G03*
X906912Y571500I-2032J0D01*
G01*
X1097412D02*
G03*
X1097412Y571500I-2032J0D01*
G01*
X1287912D02*
G03*
X1287912Y571500I-2032J0D01*
G01*
X1478412D02*
G03*
X1478412Y571500I-2032J0D01*
G01*
X1668912D02*
G03*
X1668912Y571500I-2032J0D01*
G01*
X1859412D02*
G03*
X1859412Y571500I-2032J0D01*
G01*
X2049912D02*
G03*
X2049912Y571500I-2032J0D01*
G01*
X2240412D02*
G03*
X2240412Y571500I-2032J0D01*
G01*
X2430912D02*
G03*
X2430912Y571500I-2032J0D01*
G01*
X3050032D02*
G03*
X3050032Y571500I-2032J0D01*
G01*
X621155Y381000D02*
G03*
X621155Y381000I-2032J0D01*
G01*
X811652D02*
G03*
X811652Y381000I-2032J0D01*
G01*
X1002152D02*
G03*
X1002152Y381000I-2032J0D01*
G01*
X1192652D02*
G03*
X1192652Y381000I-2032J0D01*
G01*
X1383152D02*
G03*
X1383152Y381000I-2032J0D01*
G01*
X1573652D02*
G03*
X1573652Y381000I-2032J0D01*
G01*
X1764152D02*
G03*
X1764152Y381000I-2032J0D01*
G01*
X1954652D02*
G03*
X1954652Y381000I-2032J0D01*
G01*
X2145152D02*
G03*
X2145152Y381000I-2032J0D01*
G01*
X2335652D02*
G03*
X2335652Y381000I-2032J0D01*
G01*
X2859532D02*
G03*
X2859532Y381000I-2032J0D01*
G01*
X3050032D02*
G03*
X3050032Y381000I-2032J0D01*
G01*
X2097534Y190500D02*
G03*
X2097534Y190500I-2032J0D01*
G01*
X2288032D02*
G03*
X2288032Y190500I-2032J0D01*
G01*
X2478532D02*
G03*
X2478532Y190500I-2032J0D01*
G01*
X2669032D02*
G03*
X2669032Y190500I-2032J0D01*
G01*
X2859532D02*
G03*
X2859532Y190500I-2032J0D01*
G01*
X3050032D02*
G03*
X3050032Y190500I-2032J0D01*
G01*
X1617774Y1316000D02*
G03*
X1617774Y1316000I-2032J0D01*
G01*
X1624862D02*
G03*
X1624862Y1316000I-2032J0D01*
G01*
X417032Y1363286D02*
G03*
X417032Y1363286I-2032J0D01*
G01*
Y1358500D02*
G03*
X417032Y1358500I-2032J0D01*
G01*
X1618782Y1365329D02*
G03*
X1618782Y1365329I-2032J0D01*
G01*
X1623782D02*
G03*
X1623782Y1365329I-2032J0D01*
G01*
X1617774Y1336000D02*
G03*
X1617774Y1336000I-2032J0D01*
G01*
X1624862D02*
G03*
X1624862Y1336000I-2032J0D01*
G01*
X1628753Y1365300D02*
G03*
X1628753Y1365300I-2032J0D01*
G01*
D128*
X1616758Y1316000D02*
G03*
X1616758Y1316000I-1016J0D01*
G01*
X1623846D02*
G03*
X1623846Y1316000I-1016J0D01*
G01*
X416016Y1363286D02*
G03*
X416016Y1363286I-1016J0D01*
G01*
Y1358500D02*
G03*
X416016Y1358500I-1016J0D01*
G01*
X1617766Y1365329D02*
G03*
X1617766Y1365329I-1016J0D01*
G01*
X1622766D02*
G03*
X1622766Y1365329I-1016J0D01*
G01*
X1616758Y1336000D02*
G03*
X1616758Y1336000I-1016J0D01*
G01*
X1623846D02*
G03*
X1623846Y1336000I-1016J0D01*
G01*
X1627737Y1365300D02*
G03*
X1627737Y1365300I-1016J0D01*
G01*
M02*
