G04*
G04 #@! TF.GenerationSoftware,Altium Limited,Altium Designer,18.1.9 (240)*
G04*
G04 Layer_Color=16711935*
%FSLAX44Y44*%
%MOMM*%
G71*
G01*
G75*
%ADD113C,0.0000*%
%ADD115C,0.2000*%
%ADD116C,0.1524*%
G36*
X1584147Y1377700D02*
X1654250D01*
Y1434312D01*
X1584147D01*
Y1377700D01*
D02*
G37*
D113*
X1128048Y1275264D02*
G03*
X1121952Y1275264I-3048J0D01*
G01*
D115*
X266150Y1394500D02*
X306150D01*
Y1302500D02*
Y1394500D01*
X266150Y1302500D02*
X306150D01*
X266150D02*
Y1394500D01*
X246397Y1333500D02*
X266150D01*
X246397D02*
Y1348500D01*
X266150D01*
X246397Y1363500D02*
X266150D01*
X246397Y1352500D02*
Y1363500D01*
X1574550Y1357000D02*
Y1436000D01*
Y1357000D02*
X1663950D01*
Y1436000D01*
D116*
X1110014Y1278566D02*
Y1282376D01*
X1099854Y1278566D02*
X1110014D01*
X1099854D02*
Y1282376D01*
X1110014D01*
Y1284916D02*
Y1288980D01*
X1099854Y1284916D02*
X1110014D01*
X1099854D02*
Y1288980D01*
X1110014D01*
Y1291520D02*
Y1295584D01*
X1099854Y1291520D02*
X1110014D01*
X1099854D02*
Y1295584D01*
X1110014D01*
Y1298124D02*
Y1301934D01*
X1099854Y1298124D02*
X1110014D01*
X1099854D02*
Y1301934D01*
X1110014D01*
X1139986Y1298124D02*
Y1301934D01*
X1150146D01*
Y1298124D02*
Y1301934D01*
X1139986Y1298124D02*
X1150146D01*
X1139986Y1291520D02*
Y1295584D01*
X1150146D01*
Y1291520D02*
Y1295584D01*
X1139986Y1291520D02*
X1150146D01*
X1139986Y1284916D02*
Y1288980D01*
X1150146D01*
Y1284916D02*
Y1288980D01*
X1139986Y1284916D02*
X1150146D01*
X1139986Y1278566D02*
Y1282376D01*
X1150146D01*
Y1278566D02*
Y1282376D01*
X1139986Y1278566D02*
X1150146D01*
X1110014Y1275264D02*
Y1305236D01*
X1139986D01*
Y1275264D02*
Y1305236D01*
X1128048Y1275264D02*
X1139986D01*
X1121952D02*
X1128048D01*
X1110014D02*
X1121952D01*
M02*
