G04*
G04 #@! TF.GenerationSoftware,Altium Limited,Altium Designer,18.1.9 (240)*
G04*
G04 Layer_Color=65535*
%FSLAX44Y44*%
%MOMM*%
G71*
G01*
G75*
%ADD10C,0.1270*%
%ADD11C,0.2540*%
D10*
X476250Y1047750D02*
Y1082750D01*
Y1203250D02*
Y1238250D01*
X285750Y1203250D02*
Y1238250D01*
Y1047750D02*
Y1082750D01*
Y1238250D02*
X320750D01*
X441250D02*
X476250D01*
X285750Y1047750D02*
X320750D01*
X441250D02*
X476250D01*
X2667000Y666750D02*
Y701750D01*
Y822250D02*
Y857250D01*
X2476500Y822250D02*
Y857250D01*
Y666750D02*
Y701750D01*
Y857250D02*
X2511500D01*
X2632000D02*
X2667000D01*
X2476500Y666750D02*
X2511500D01*
X2632000D02*
X2667000D01*
X809628Y95250D02*
Y130250D01*
X571502Y95250D02*
Y130250D01*
Y250750D02*
Y285750D01*
X809628Y250750D02*
Y285750D01*
X774625D02*
X809628D01*
X571502D02*
X606503D01*
X774625Y95250D02*
X809628D01*
X571502D02*
X606503D01*
X571497D02*
Y130250D01*
X333372Y95250D02*
Y130250D01*
Y250750D02*
Y285750D01*
X571497Y250750D02*
Y285750D01*
X536495D02*
X571497D01*
X333372D02*
X368373D01*
X536495Y95250D02*
X571497D01*
X333372D02*
X368373D01*
X333375D02*
Y130250D01*
X95250Y95250D02*
Y130250D01*
Y250750D02*
Y285750D01*
X333375Y250750D02*
Y285750D01*
X298372D02*
X333375D01*
X95250D02*
X130250D01*
X298372Y95250D02*
X333375D01*
X95250D02*
X130250D01*
X523875Y285750D02*
Y320750D01*
Y441250D02*
Y476250D01*
X95250Y441250D02*
Y476250D01*
Y286000D02*
Y321000D01*
Y476250D02*
X130250D01*
X95250Y285750D02*
X130250D01*
X488875D02*
X523875D01*
X488875Y476250D02*
X523875D01*
X393625Y666750D02*
X428625D01*
X95250D02*
X130250D01*
X95250Y631750D02*
Y666750D01*
Y476250D02*
Y511250D01*
X428625Y631750D02*
Y666750D01*
X95250Y476250D02*
X130250D01*
X393625D02*
X428625D01*
Y511250D01*
X95250Y822250D02*
Y857250D01*
Y666750D02*
Y701750D01*
X381000Y666750D02*
Y701750D01*
Y822250D02*
Y857250D01*
X346000Y666750D02*
X381000D01*
X95250D02*
X130250D01*
X95250Y857250D02*
X130250D01*
X346000D02*
X381000D01*
X2571750D02*
X2606750D01*
X2917750D02*
X2952750D01*
X2917750Y1047750D02*
X2952750D01*
X2571750D02*
X2606750D01*
X2952750Y857500D02*
Y892500D01*
X2571750Y857500D02*
Y892500D01*
Y1012750D02*
Y1047750D01*
X2952750Y1012750D02*
Y1047750D01*
X2667000Y822250D02*
Y857250D01*
Y666750D02*
Y701750D01*
X2952750Y666750D02*
Y701750D01*
Y822250D02*
Y857250D01*
X2917750Y666750D02*
X2952750D01*
X2667000D02*
X2702000D01*
X2667000Y857250D02*
X2702000D01*
X2917750D02*
X2952750D01*
X2952755Y476250D02*
Y511250D01*
Y631750D02*
Y666750D01*
X2524130Y631750D02*
Y666750D01*
Y476500D02*
Y511500D01*
Y666750D02*
X2559130D01*
X2524130Y476250D02*
X2559130D01*
X2917755D02*
X2952755D01*
X2917755Y666750D02*
X2952755D01*
X2727245Y476250D02*
X2762245D01*
X2428870D02*
X2463870D01*
X2428870Y441250D02*
Y476250D01*
Y285750D02*
Y320750D01*
X2762245Y441250D02*
Y476250D01*
X2428870Y285750D02*
X2463870D01*
X2727245D02*
X2762245D01*
Y320750D01*
X1965247Y95250D02*
X2000247D01*
X1965247Y285750D02*
X2000247D01*
X809622Y95250D02*
X844623D01*
X809622Y285750D02*
X844623D01*
X2000247Y95250D02*
Y130250D01*
X809622Y95250D02*
Y130250D01*
Y250750D02*
Y285750D01*
X2000247Y250750D02*
Y285750D01*
X250750Y1047750D02*
X285750D01*
X95250D02*
X130250D01*
X250750Y1238250D02*
X285750D01*
X95250D02*
X130250D01*
X95250Y1047750D02*
Y1082750D01*
Y1203250D02*
Y1238250D01*
X285750Y1203250D02*
Y1238250D01*
Y1047750D02*
Y1082750D01*
X631750Y1047750D02*
X666750D01*
X476250D02*
X511250D01*
X631750Y1238250D02*
X666750D01*
X476250D02*
X511250D01*
X476250Y1047750D02*
Y1082750D01*
Y1203250D02*
Y1238250D01*
X666750Y1203250D02*
Y1238250D01*
Y1047750D02*
Y1082750D01*
X822250Y1047750D02*
X857250D01*
X666750D02*
X701750D01*
X822250Y1238250D02*
X857250D01*
X666750D02*
X701750D01*
X666750Y1047750D02*
Y1082750D01*
Y1203250D02*
Y1238250D01*
X857250Y1203250D02*
Y1238250D01*
Y1047750D02*
Y1082750D01*
X1012750Y1047750D02*
X1047750D01*
X857250D02*
X892250D01*
X1012750Y1238250D02*
X1047750D01*
X857250D02*
X892250D01*
X857250Y1047750D02*
Y1082750D01*
Y1203250D02*
Y1238250D01*
X1047750Y1203250D02*
Y1238250D01*
Y1047750D02*
Y1082750D01*
X1203250Y1047750D02*
X1238250D01*
X1047750D02*
X1082750D01*
X1203250Y1238250D02*
X1238250D01*
X1047750D02*
X1082750D01*
X1047750Y1047750D02*
Y1082750D01*
Y1203250D02*
Y1238250D01*
X1238250Y1203250D02*
Y1238250D01*
Y1047750D02*
Y1082750D01*
X1393750Y1047750D02*
X1428750D01*
X1238250D02*
X1273250D01*
X1393750Y1238250D02*
X1428750D01*
X1238250D02*
X1273250D01*
X1238250Y1047750D02*
Y1082750D01*
Y1203250D02*
Y1238250D01*
X1428750Y1203250D02*
Y1238250D01*
Y1047750D02*
Y1082750D01*
X1584250Y1047750D02*
X1619250D01*
X1428750D02*
X1463750D01*
X1584250Y1238250D02*
X1619250D01*
X1428750D02*
X1463750D01*
X1428750Y1047750D02*
Y1082750D01*
Y1203250D02*
Y1238250D01*
X1619250Y1203250D02*
Y1238250D01*
Y1047750D02*
Y1082750D01*
X1774750Y1047750D02*
X1809750D01*
X1619250D02*
X1654250D01*
X1774750Y1238250D02*
X1809750D01*
X1619250D02*
X1654250D01*
X1619250Y1047750D02*
Y1082750D01*
Y1203250D02*
Y1238250D01*
X1809750Y1203250D02*
Y1238250D01*
Y1047750D02*
Y1082750D01*
X1965250Y1047750D02*
X2000250D01*
X1809750D02*
X1844750D01*
X1965250Y1238250D02*
X2000250D01*
X1809750D02*
X1844750D01*
X1809750Y1047750D02*
Y1082750D01*
Y1203250D02*
Y1238250D01*
X2000250Y1203250D02*
Y1238250D01*
Y1047750D02*
Y1082750D01*
X2155750Y1047750D02*
X2190750D01*
X2000250D02*
X2035250D01*
X2155750Y1238250D02*
X2190750D01*
X2000250D02*
X2035250D01*
X2000250Y1047750D02*
Y1082750D01*
Y1203250D02*
Y1238250D01*
X2190750Y1203250D02*
Y1238250D01*
Y1047750D02*
Y1082750D01*
X2346250Y1047750D02*
X2381250D01*
X2190750D02*
X2225750D01*
X2346250Y1238250D02*
X2381250D01*
X2190750D02*
X2225750D01*
X2190750Y1047750D02*
Y1082750D01*
Y1203250D02*
Y1238250D01*
X2381250Y1203250D02*
Y1238250D01*
Y1047750D02*
Y1082750D01*
X2536750Y1047750D02*
X2571750D01*
X2381250D02*
X2416250D01*
X2536750Y1238250D02*
X2571750D01*
X2381250D02*
X2416250D01*
X2381250Y1047750D02*
Y1082750D01*
Y1203250D02*
Y1238250D01*
X2571750Y1203250D02*
Y1238250D01*
Y1047750D02*
Y1082750D01*
X2727250Y1047750D02*
X2762250D01*
X2571750D02*
X2606750D01*
X2727250Y1238250D02*
X2762250D01*
X2571750D02*
X2606750D01*
X2571750Y1047750D02*
Y1082750D01*
Y1203250D02*
Y1238250D01*
X2762250Y1203250D02*
Y1238250D01*
Y1047750D02*
Y1082750D01*
X2917750Y1047750D02*
X2952750D01*
X2762250D02*
X2797250D01*
X2917750Y1238250D02*
X2952750D01*
X2762250D02*
X2797250D01*
X2762250Y1047750D02*
Y1082750D01*
Y1203250D02*
Y1238250D01*
X2952750Y1203250D02*
Y1238250D01*
Y1047750D02*
Y1082750D01*
X3108250Y1047750D02*
X3143250D01*
X2952750D02*
X2987750D01*
X3108250Y1238250D02*
X3143250D01*
X2952750D02*
X2987750D01*
X2952750Y1047750D02*
Y1082750D01*
Y1203250D02*
Y1238250D01*
X3143250Y1203250D02*
Y1238250D01*
Y1047750D02*
Y1082750D01*
X441250Y857250D02*
X476250D01*
X285750D02*
X320750D01*
X441250Y1047750D02*
X476250D01*
X285750D02*
X320750D01*
X285750Y857250D02*
Y892250D01*
Y1012750D02*
Y1047750D01*
X476250Y1012750D02*
Y1047750D01*
Y857250D02*
Y892250D01*
X250750Y857250D02*
X285750D01*
X95250D02*
X130250D01*
X250750Y1047750D02*
X285750D01*
X95250D02*
X130250D01*
X95250Y857250D02*
Y892250D01*
Y1012750D02*
Y1047750D01*
X285750Y1012750D02*
Y1047750D01*
Y857250D02*
Y892250D01*
X631750Y857250D02*
X666750D01*
X476250D02*
X511250D01*
X631750Y1047750D02*
X666750D01*
X476250D02*
X511250D01*
X476250Y857250D02*
Y892250D01*
Y1012750D02*
Y1047750D01*
X666750Y1012750D02*
Y1047750D01*
Y857250D02*
Y892250D01*
X822250Y857250D02*
X857250D01*
X666750D02*
X701750D01*
X822250Y1047750D02*
X857250D01*
X666750D02*
X701750D01*
X666750Y857250D02*
Y892250D01*
Y1012750D02*
Y1047750D01*
X857250Y1012750D02*
Y1047750D01*
Y857250D02*
Y892250D01*
X1012750Y857250D02*
X1047750D01*
X857250D02*
X892250D01*
X1012750Y1047750D02*
X1047750D01*
X857250D02*
X892250D01*
X857250Y857250D02*
Y892250D01*
Y1012750D02*
Y1047750D01*
X1047750Y1012750D02*
Y1047750D01*
Y857250D02*
Y892250D01*
X1203250Y857250D02*
X1238250D01*
X1047750D02*
X1082750D01*
X1203250Y1047750D02*
X1238250D01*
X1047750D02*
X1082750D01*
X1047750Y857250D02*
Y892250D01*
Y1012750D02*
Y1047750D01*
X1238250Y1012750D02*
Y1047750D01*
Y857250D02*
Y892250D01*
X1393750Y857250D02*
X1428750D01*
X1238250D02*
X1273250D01*
X1393750Y1047750D02*
X1428750D01*
X1238250D02*
X1273250D01*
X1238250Y857250D02*
Y892250D01*
Y1012750D02*
Y1047750D01*
X1428750Y1012750D02*
Y1047750D01*
Y857250D02*
Y892250D01*
X1584250Y857250D02*
X1619250D01*
X1428750D02*
X1463750D01*
X1584250Y1047750D02*
X1619250D01*
X1428750D02*
X1463750D01*
X1428750Y857250D02*
Y892250D01*
Y1012750D02*
Y1047750D01*
X1619250Y1012750D02*
Y1047750D01*
Y857250D02*
Y892250D01*
X1774750Y857250D02*
X1809750D01*
X1619250D02*
X1654250D01*
X1774750Y1047750D02*
X1809750D01*
X1619250D02*
X1654250D01*
X1619250Y857250D02*
Y892250D01*
Y1012750D02*
Y1047750D01*
X1809750Y1012750D02*
Y1047750D01*
Y857250D02*
Y892250D01*
X1965250Y857250D02*
X2000250D01*
X1809750D02*
X1844750D01*
X1965250Y1047750D02*
X2000250D01*
X1809750D02*
X1844750D01*
X1809750Y857250D02*
Y892250D01*
Y1012750D02*
Y1047750D01*
X2000250Y1012750D02*
Y1047750D01*
Y857250D02*
Y892250D01*
X2155750Y857250D02*
X2190750D01*
X2000250D02*
X2035250D01*
X2155750Y1047750D02*
X2190750D01*
X2000250D02*
X2035250D01*
X2000250Y857250D02*
Y892250D01*
Y1012750D02*
Y1047750D01*
X2190750Y1012750D02*
Y1047750D01*
Y857250D02*
Y892250D01*
X2346250Y857250D02*
X2381250D01*
X2190750D02*
X2225750D01*
X2346250Y1047750D02*
X2381250D01*
X2190750D02*
X2225750D01*
X2190750Y857250D02*
Y892250D01*
Y1012750D02*
Y1047750D01*
X2381250Y1012750D02*
Y1047750D01*
Y857250D02*
Y892250D01*
X2536750Y857250D02*
X2571750D01*
X2381250D02*
X2416250D01*
X2536750Y1047750D02*
X2571750D01*
X2381250D02*
X2416250D01*
X2381250Y857250D02*
Y892250D01*
Y1012750D02*
Y1047750D01*
X2571750Y1012750D02*
Y1047750D01*
Y857250D02*
Y892250D01*
X3108250Y857250D02*
X3143250D01*
X2952750D02*
X2987750D01*
X3108250Y1047750D02*
X3143250D01*
X2952750D02*
X2987750D01*
X2952750Y857250D02*
Y892250D01*
Y1012750D02*
Y1047750D01*
X3143250Y1012750D02*
Y1047750D01*
Y857250D02*
Y892250D01*
X536500Y666750D02*
X571500D01*
X381000D02*
X416000D01*
X536500Y857250D02*
X571500D01*
X381000D02*
X416000D01*
X381000Y666750D02*
Y701750D01*
Y822250D02*
Y857250D01*
X571500Y822250D02*
Y857250D01*
Y666750D02*
Y701750D01*
X727000Y666750D02*
X762000D01*
X571500D02*
X606500D01*
X727000Y857250D02*
X762000D01*
X571500D02*
X606500D01*
X571500Y666750D02*
Y701750D01*
Y822250D02*
Y857250D01*
X762000Y822250D02*
Y857250D01*
Y666750D02*
Y701750D01*
X917500Y666750D02*
X952500D01*
X762000D02*
X797000D01*
X917500Y857250D02*
X952500D01*
X762000D02*
X797000D01*
X762000Y666750D02*
Y701750D01*
Y822250D02*
Y857250D01*
X952500Y822250D02*
Y857250D01*
Y666750D02*
Y701750D01*
X1108000Y666750D02*
X1143000D01*
X952500D02*
X987500D01*
X1108000Y857250D02*
X1143000D01*
X952500D02*
X987500D01*
X952500Y666750D02*
Y701750D01*
Y822250D02*
Y857250D01*
X1143000Y822250D02*
Y857250D01*
Y666750D02*
Y701750D01*
X1298500Y666750D02*
X1333500D01*
X1143000D02*
X1178000D01*
X1298500Y857250D02*
X1333500D01*
X1143000D02*
X1178000D01*
X1143000Y666750D02*
Y701750D01*
Y822250D02*
Y857250D01*
X1333500Y822250D02*
Y857250D01*
Y666750D02*
Y701750D01*
X1489000Y666750D02*
X1524000D01*
X1333500D02*
X1368500D01*
X1489000Y857250D02*
X1524000D01*
X1333500D02*
X1368500D01*
X1333500Y666750D02*
Y701750D01*
Y822250D02*
Y857250D01*
X1524000Y822250D02*
Y857250D01*
Y666750D02*
Y701750D01*
X1679500Y666750D02*
X1714500D01*
X1524000D02*
X1559000D01*
X1679500Y857250D02*
X1714500D01*
X1524000D02*
X1559000D01*
X1524000Y666750D02*
Y701750D01*
Y822250D02*
Y857250D01*
X1714500Y822250D02*
Y857250D01*
Y666750D02*
Y701750D01*
X1870000Y666750D02*
X1905000D01*
X1714500D02*
X1749500D01*
X1870000Y857250D02*
X1905000D01*
X1714500D02*
X1749500D01*
X1714500Y666750D02*
Y701750D01*
Y822250D02*
Y857250D01*
X1905000Y822250D02*
Y857250D01*
Y666750D02*
Y701750D01*
X2060500Y666750D02*
X2095500D01*
X1905000D02*
X1940000D01*
X2060500Y857250D02*
X2095500D01*
X1905000D02*
X1940000D01*
X1905000Y666750D02*
Y701750D01*
Y822250D02*
Y857250D01*
X2095500Y822250D02*
Y857250D01*
Y666750D02*
Y701750D01*
X2251000Y666750D02*
X2286000D01*
X2095500D02*
X2130500D01*
X2251000Y857250D02*
X2286000D01*
X2095500D02*
X2130500D01*
X2095500Y666750D02*
Y701750D01*
Y822250D02*
Y857250D01*
X2286000Y822250D02*
Y857250D01*
Y666750D02*
Y701750D01*
X2441500Y666750D02*
X2476500D01*
X2286000D02*
X2321000D01*
X2441500Y857250D02*
X2476500D01*
X2286000D02*
X2321000D01*
X2286000Y666750D02*
Y701750D01*
Y822250D02*
Y857250D01*
X2476500Y822250D02*
Y857250D01*
Y666750D02*
Y701750D01*
X3108250Y666750D02*
X3143250D01*
X2952750D02*
X2987750D01*
X3108250Y857250D02*
X3143250D01*
X2952750D02*
X2987750D01*
X2952750Y666750D02*
Y701750D01*
Y822250D02*
Y857250D01*
X3143250Y822250D02*
Y857250D01*
Y666750D02*
Y701750D01*
X584130Y476250D02*
X619130D01*
X428630D02*
X463630D01*
X584130Y666750D02*
X619130D01*
X428630D02*
X463630D01*
X428630Y476250D02*
Y511250D01*
Y631750D02*
Y666750D01*
X619130Y631750D02*
Y666750D01*
Y476250D02*
Y511250D01*
X774630Y476250D02*
X809630D01*
X619130D02*
X654130D01*
X774630Y666750D02*
X809630D01*
X619130D02*
X654130D01*
X619130Y476250D02*
Y511250D01*
Y631750D02*
Y666750D01*
X809630Y631750D02*
Y666750D01*
Y476250D02*
Y511250D01*
X965130Y476250D02*
X1000130D01*
X809630D02*
X844630D01*
X965130Y666750D02*
X1000130D01*
X809630D02*
X844630D01*
X809630Y476250D02*
Y511250D01*
Y631750D02*
Y666750D01*
X1000130Y631750D02*
Y666750D01*
Y476250D02*
Y511250D01*
X1155630Y476250D02*
X1190630D01*
X1000130D02*
X1035130D01*
X1155630Y666750D02*
X1190630D01*
X1000130D02*
X1035130D01*
X1000130Y476250D02*
Y511250D01*
Y631750D02*
Y666750D01*
X1190630Y631750D02*
Y666750D01*
Y476250D02*
Y511250D01*
X1346130Y476250D02*
X1381130D01*
X1190630D02*
X1225630D01*
X1346130Y666750D02*
X1381130D01*
X1190630D02*
X1225630D01*
X1190630Y476250D02*
Y511250D01*
Y631750D02*
Y666750D01*
X1381130Y631750D02*
Y666750D01*
Y476250D02*
Y511250D01*
X1536630Y476250D02*
X1571630D01*
X1381130D02*
X1416130D01*
X1536630Y666750D02*
X1571630D01*
X1381130D02*
X1416130D01*
X1381130Y476250D02*
Y511250D01*
Y631750D02*
Y666750D01*
X1571630Y631750D02*
Y666750D01*
Y476250D02*
Y511250D01*
X1727130Y476250D02*
X1762130D01*
X1571630D02*
X1606630D01*
X1727130Y666750D02*
X1762130D01*
X1571630D02*
X1606630D01*
X1571630Y476250D02*
Y511250D01*
Y631750D02*
Y666750D01*
X1762130Y631750D02*
Y666750D01*
Y476250D02*
Y511250D01*
X1917630Y476250D02*
X1952630D01*
X1762130D02*
X1797130D01*
X1917630Y666750D02*
X1952630D01*
X1762130D02*
X1797130D01*
X1762130Y476250D02*
Y511250D01*
Y631750D02*
Y666750D01*
X1952630Y631750D02*
Y666750D01*
Y476250D02*
Y511250D01*
X2108130Y476250D02*
X2143130D01*
X1952630D02*
X1987630D01*
X2108130Y666750D02*
X2143130D01*
X1952630D02*
X1987630D01*
X1952630Y476250D02*
Y511250D01*
Y631750D02*
Y666750D01*
X2143130Y631750D02*
Y666750D01*
Y476250D02*
Y511250D01*
X2298630Y476250D02*
X2333630D01*
X2143130D02*
X2178130D01*
X2298630Y666750D02*
X2333630D01*
X2143130D02*
X2178130D01*
X2143130Y476250D02*
Y511250D01*
Y631750D02*
Y666750D01*
X2333630Y631750D02*
Y666750D01*
Y476250D02*
Y511250D01*
X2489130Y476250D02*
X2524130D01*
X2333630D02*
X2368630D01*
X2489130Y666750D02*
X2524130D01*
X2333630D02*
X2368630D01*
X2333630Y476250D02*
Y511250D01*
Y631750D02*
Y666750D01*
X2524130Y631750D02*
Y666750D01*
Y476250D02*
Y511250D01*
X3108250Y476250D02*
X3143250D01*
X2952750D02*
X2987750D01*
X3108250Y666750D02*
X3143250D01*
X2952750D02*
X2987750D01*
X2952750Y476250D02*
Y511250D01*
Y631750D02*
Y666750D01*
X3143250Y631750D02*
Y666750D01*
Y476250D02*
Y511250D01*
X679372Y285750D02*
X714372D01*
X523872D02*
X558873D01*
X679372Y476250D02*
X714372D01*
X523872D02*
X558873D01*
X523872Y285750D02*
Y320750D01*
Y441250D02*
Y476250D01*
X714372Y441250D02*
Y476250D01*
Y285750D02*
Y320750D01*
X869870Y285750D02*
X904870D01*
X714370D02*
X749370D01*
X869870Y476250D02*
X904870D01*
X714370D02*
X749370D01*
X714370Y285750D02*
Y320750D01*
Y441250D02*
Y476250D01*
X904870Y441250D02*
Y476250D01*
Y285750D02*
Y320750D01*
X1060370Y285750D02*
X1095370D01*
X904870D02*
X939870D01*
X1060370Y476250D02*
X1095370D01*
X904870D02*
X939870D01*
X904870Y285750D02*
Y320750D01*
Y441250D02*
Y476250D01*
X1095370Y441250D02*
Y476250D01*
Y285750D02*
Y320750D01*
X1250870Y285750D02*
X1285870D01*
X1095370D02*
X1130370D01*
X1250870Y476250D02*
X1285870D01*
X1095370D02*
X1130370D01*
X1095370Y285750D02*
Y320750D01*
Y441250D02*
Y476250D01*
X1285870Y441250D02*
Y476250D01*
Y285750D02*
Y320750D01*
X1441370Y285750D02*
X1476370D01*
X1285870D02*
X1320870D01*
X1441370Y476250D02*
X1476370D01*
X1285870D02*
X1320870D01*
X1285870Y285750D02*
Y320750D01*
Y441250D02*
Y476250D01*
X1476370Y441250D02*
Y476250D01*
Y285750D02*
Y320750D01*
X1631870Y285750D02*
X1666870D01*
X1476370D02*
X1511370D01*
X1631870Y476250D02*
X1666870D01*
X1476370D02*
X1511370D01*
X1476370Y285750D02*
Y320750D01*
Y441250D02*
Y476250D01*
X1666870Y441250D02*
Y476250D01*
Y285750D02*
Y320750D01*
X1822370Y285750D02*
X1857370D01*
X1666870D02*
X1701870D01*
X1822370Y476250D02*
X1857370D01*
X1666870D02*
X1701870D01*
X1666870Y285750D02*
Y320750D01*
Y441250D02*
Y476250D01*
X1857370Y441250D02*
Y476250D01*
Y285750D02*
Y320750D01*
X2012870Y285750D02*
X2047870D01*
X1857370D02*
X1892370D01*
X2012870Y476250D02*
X2047870D01*
X1857370D02*
X1892370D01*
X1857370Y285750D02*
Y320750D01*
Y441250D02*
Y476250D01*
X2047870Y441250D02*
Y476250D01*
Y285750D02*
Y320750D01*
X2203370Y285750D02*
X2238370D01*
X2047870D02*
X2082870D01*
X2203370Y476250D02*
X2238370D01*
X2047870D02*
X2082870D01*
X2047870Y285750D02*
Y320750D01*
Y441250D02*
Y476250D01*
X2238370Y441250D02*
Y476250D01*
Y285750D02*
Y320750D01*
X2393870Y285750D02*
X2428870D01*
X2238370D02*
X2273370D01*
X2393870Y476250D02*
X2428870D01*
X2238370D02*
X2273370D01*
X2238370Y285750D02*
Y320750D01*
Y441250D02*
Y476250D01*
X2428870Y441250D02*
Y476250D01*
Y285750D02*
Y320750D01*
X2917750Y285750D02*
X2952750D01*
X2762250D02*
X2797250D01*
X2917750Y476250D02*
X2952750D01*
X2762250D02*
X2797250D01*
X2762250Y285750D02*
Y320750D01*
Y441250D02*
Y476250D01*
X2952750Y441250D02*
Y476250D01*
Y285750D02*
Y320750D01*
X3108250Y285750D02*
X3143250D01*
X2952750D02*
X2987750D01*
X3108250Y476250D02*
X3143250D01*
X2952750D02*
X2987750D01*
X2952750Y285750D02*
Y320750D01*
Y441250D02*
Y476250D01*
X3143250Y441250D02*
Y476250D01*
Y285750D02*
Y320750D01*
X2155752Y95250D02*
X2190753D01*
X2000253D02*
X2035253D01*
X2155752Y285750D02*
X2190753D01*
X2000253D02*
X2035253D01*
X2000253Y95250D02*
Y130250D01*
Y250750D02*
Y285750D01*
X2190753Y250750D02*
Y285750D01*
Y95250D02*
Y130250D01*
X2346250Y95250D02*
X2381250D01*
X2190750D02*
X2225750D01*
X2346250Y285750D02*
X2381250D01*
X2190750D02*
X2225750D01*
X2190750Y95250D02*
Y130250D01*
Y250750D02*
Y285750D01*
X2381250Y250750D02*
Y285750D01*
Y95250D02*
Y130250D01*
X2536750Y95250D02*
X2571750D01*
X2381250D02*
X2416250D01*
X2536750Y285750D02*
X2571750D01*
X2381250D02*
X2416250D01*
X2381250Y95250D02*
Y130250D01*
Y250750D02*
Y285750D01*
X2571750Y250750D02*
Y285750D01*
Y95250D02*
Y130250D01*
X2727250Y95250D02*
X2762250D01*
X2571750D02*
X2606750D01*
X2727250Y285750D02*
X2762250D01*
X2571750D02*
X2606750D01*
X2571750Y95250D02*
Y130250D01*
Y250750D02*
Y285750D01*
X2762250Y250750D02*
Y285750D01*
Y95250D02*
Y130250D01*
X2917750Y95250D02*
X2952750D01*
X2762250D02*
X2797250D01*
X2917750Y285750D02*
X2952750D01*
X2762250D02*
X2797250D01*
X2762250Y95250D02*
Y130250D01*
Y250750D02*
Y285750D01*
X2952750Y250750D02*
Y285750D01*
Y95250D02*
Y130250D01*
X3108250Y95250D02*
X3143250D01*
X2952750D02*
X2987750D01*
X3108250Y285750D02*
X3143250D01*
X2952750D02*
X2987750D01*
X2952750Y95250D02*
Y130250D01*
Y250750D02*
Y285750D01*
X3143250Y250750D02*
Y285750D01*
Y95250D02*
Y130250D01*
D11*
X297812Y1259201D02*
X295273Y1261740D01*
X290194D01*
X287655Y1259201D01*
Y1256662D01*
X290194Y1254122D01*
X295273D01*
X297812Y1251583D01*
Y1249044D01*
X295273Y1246505D01*
X290194D01*
X287655Y1249044D01*
X302890Y1246505D02*
X307968D01*
X305429D01*
Y1261740D01*
X302890Y1259201D01*
X2964812Y306701D02*
X2962273Y309240D01*
X2957194D01*
X2954655Y306701D01*
Y304162D01*
X2957194Y301623D01*
X2962273D01*
X2964812Y299083D01*
Y296544D01*
X2962273Y294005D01*
X2957194D01*
X2954655Y296544D01*
X2969890Y306701D02*
X2972429Y309240D01*
X2977508D01*
X2980047Y306701D01*
Y304162D01*
X2977508Y301623D01*
X2980047Y299083D01*
Y296544D01*
X2977508Y294005D01*
X2972429D01*
X2969890Y296544D01*
Y299083D01*
X2972429Y301623D01*
X2969890Y304162D01*
Y306701D01*
X2972429Y301623D02*
X2977508D01*
X2985125Y306701D02*
X2987664Y309240D01*
X2992743D01*
X2995282Y306701D01*
Y304162D01*
X2992743Y301623D01*
X2990204D01*
X2992743D01*
X2995282Y299083D01*
Y296544D01*
X2992743Y294005D01*
X2987664D01*
X2985125Y296544D01*
X2774185Y306828D02*
X2771646Y309367D01*
X2766567D01*
X2764028Y306828D01*
Y304289D01*
X2766567Y301749D01*
X2771646D01*
X2774185Y299210D01*
Y296671D01*
X2771646Y294132D01*
X2766567D01*
X2764028Y296671D01*
X2779263Y306828D02*
X2781802Y309367D01*
X2786880D01*
X2789420Y306828D01*
Y304289D01*
X2786880Y301749D01*
X2789420Y299210D01*
Y296671D01*
X2786880Y294132D01*
X2781802D01*
X2779263Y296671D01*
Y299210D01*
X2781802Y301749D01*
X2779263Y304289D01*
Y306828D01*
X2781802Y301749D02*
X2786880D01*
X2804655Y294132D02*
X2794498D01*
X2804655Y304289D01*
Y306828D01*
X2802116Y309367D01*
X2797037D01*
X2794498Y306828D01*
X2583685D02*
X2581146Y309367D01*
X2576067D01*
X2573528Y306828D01*
Y304289D01*
X2576067Y301749D01*
X2581146D01*
X2583685Y299210D01*
Y296671D01*
X2581146Y294132D01*
X2576067D01*
X2573528Y296671D01*
X2588763Y306828D02*
X2591302Y309367D01*
X2596381D01*
X2598920Y306828D01*
Y304289D01*
X2596381Y301749D01*
X2598920Y299210D01*
Y296671D01*
X2596381Y294132D01*
X2591302D01*
X2588763Y296671D01*
Y299210D01*
X2591302Y301749D01*
X2588763Y304289D01*
Y306828D01*
X2591302Y301749D02*
X2596381D01*
X2603998Y294132D02*
X2609077D01*
X2606537D01*
Y309367D01*
X2603998Y306828D01*
X2393185D02*
X2390645Y309367D01*
X2385567D01*
X2383028Y306828D01*
Y304289D01*
X2385567Y301749D01*
X2390645D01*
X2393185Y299210D01*
Y296671D01*
X2390645Y294132D01*
X2385567D01*
X2383028Y296671D01*
X2398263Y306828D02*
X2400802Y309367D01*
X2405881D01*
X2408420Y306828D01*
Y304289D01*
X2405881Y301749D01*
X2408420Y299210D01*
Y296671D01*
X2405881Y294132D01*
X2400802D01*
X2398263Y296671D01*
Y299210D01*
X2400802Y301749D01*
X2398263Y304289D01*
Y306828D01*
X2400802Y301749D02*
X2405881D01*
X2413498Y306828D02*
X2416037Y309367D01*
X2421116D01*
X2423655Y306828D01*
Y296671D01*
X2421116Y294132D01*
X2416037D01*
X2413498Y296671D01*
Y306828D01*
X2202685D02*
X2200146Y309367D01*
X2195067D01*
X2192528Y306828D01*
Y304289D01*
X2195067Y301749D01*
X2200146D01*
X2202685Y299210D01*
Y296671D01*
X2200146Y294132D01*
X2195067D01*
X2192528Y296671D01*
X2207763Y309367D02*
X2217920D01*
Y306828D01*
X2207763Y296671D01*
Y294132D01*
X2222998Y296671D02*
X2225537Y294132D01*
X2230616D01*
X2233155Y296671D01*
Y306828D01*
X2230616Y309367D01*
X2225537D01*
X2222998Y306828D01*
Y304289D01*
X2225537Y301749D01*
X2233155D01*
X2012439Y306828D02*
X2009899Y309367D01*
X2004821D01*
X2002282Y306828D01*
Y304289D01*
X2004821Y301749D01*
X2009899D01*
X2012439Y299210D01*
Y296671D01*
X2009899Y294132D01*
X2004821D01*
X2002282Y296671D01*
X2017517Y309367D02*
X2027674D01*
Y306828D01*
X2017517Y296671D01*
Y294132D01*
X2032752Y306828D02*
X2035291Y309367D01*
X2040370D01*
X2042909Y306828D01*
Y304289D01*
X2040370Y301749D01*
X2042909Y299210D01*
Y296671D01*
X2040370Y294132D01*
X2035291D01*
X2032752Y296671D01*
Y299210D01*
X2035291Y301749D01*
X2032752Y304289D01*
Y306828D01*
X2035291Y301749D02*
X2040370D01*
X821687Y313432D02*
X819147Y315971D01*
X814069D01*
X811530Y313432D01*
Y310893D01*
X814069Y308354D01*
X819147D01*
X821687Y305814D01*
Y303275D01*
X819147Y300736D01*
X814069D01*
X811530Y303275D01*
X826765Y315971D02*
X836922D01*
Y313432D01*
X826765Y303275D01*
Y300736D01*
X842000Y315971D02*
X852157D01*
Y313432D01*
X842000Y303275D01*
Y300736D01*
X607311Y306828D02*
X604771Y309367D01*
X599693D01*
X597154Y306828D01*
Y304289D01*
X599693Y301749D01*
X604771D01*
X607311Y299210D01*
Y296671D01*
X604771Y294132D01*
X599693D01*
X597154Y296671D01*
X612389Y309367D02*
X622546D01*
Y306828D01*
X612389Y296671D01*
Y294132D01*
X637781Y309367D02*
X632702Y306828D01*
X627624Y301749D01*
Y296671D01*
X630163Y294132D01*
X635242D01*
X637781Y296671D01*
Y299210D01*
X635242Y301749D01*
X627624D01*
X369313Y306828D02*
X366773Y309367D01*
X361695D01*
X359156Y306828D01*
Y304289D01*
X361695Y301749D01*
X366773D01*
X369313Y299210D01*
Y296671D01*
X366773Y294132D01*
X361695D01*
X359156Y296671D01*
X374391Y309367D02*
X384548D01*
Y306828D01*
X374391Y296671D01*
Y294132D01*
X399783Y309367D02*
X389626D01*
Y301749D01*
X394705Y304289D01*
X397244D01*
X399783Y301749D01*
Y296671D01*
X397244Y294132D01*
X392165D01*
X389626Y296671D01*
X107185Y306828D02*
X104646Y309367D01*
X99567D01*
X97028Y306828D01*
Y304289D01*
X99567Y301749D01*
X104646D01*
X107185Y299210D01*
Y296671D01*
X104646Y294132D01*
X99567D01*
X97028Y296671D01*
X112263Y309367D02*
X122420D01*
Y306828D01*
X112263Y296671D01*
Y294132D01*
X135116D02*
Y309367D01*
X127498Y301749D01*
X137655D01*
X2964812Y497201D02*
X2962273Y499740D01*
X2957194D01*
X2954655Y497201D01*
Y494662D01*
X2957194Y492122D01*
X2962273D01*
X2964812Y489583D01*
Y487044D01*
X2962273Y484505D01*
X2957194D01*
X2954655Y487044D01*
X2969890Y499740D02*
X2980047D01*
Y497201D01*
X2969890Y487044D01*
Y484505D01*
X2985125Y497201D02*
X2987664Y499740D01*
X2992743D01*
X2995282Y497201D01*
Y494662D01*
X2992743Y492122D01*
X2990204D01*
X2992743D01*
X2995282Y489583D01*
Y487044D01*
X2992743Y484505D01*
X2987664D01*
X2985125Y487044D01*
X2774312Y497201D02*
X2771772Y499740D01*
X2766694D01*
X2764155Y497201D01*
Y494662D01*
X2766694Y492122D01*
X2771772D01*
X2774312Y489583D01*
Y487044D01*
X2771772Y484505D01*
X2766694D01*
X2764155Y487044D01*
X2779390Y499740D02*
X2789547D01*
Y497201D01*
X2779390Y487044D01*
Y484505D01*
X2804782D02*
X2794625D01*
X2804782Y494662D01*
Y497201D01*
X2802243Y499740D01*
X2797164D01*
X2794625Y497201D01*
X2440937Y497328D02*
X2438398Y499867D01*
X2433319D01*
X2430780Y497328D01*
Y494789D01*
X2433319Y492249D01*
X2438398D01*
X2440937Y489710D01*
Y487171D01*
X2438398Y484632D01*
X2433319D01*
X2430780Y487171D01*
X2446015Y499867D02*
X2456172D01*
Y497328D01*
X2446015Y487171D01*
Y484632D01*
X2461250D02*
X2466328D01*
X2463789D01*
Y499867D01*
X2461250Y497328D01*
X2250437D02*
X2247897Y499867D01*
X2242819D01*
X2240280Y497328D01*
Y494789D01*
X2242819Y492249D01*
X2247897D01*
X2250437Y489710D01*
Y487171D01*
X2247897Y484632D01*
X2242819D01*
X2240280Y487171D01*
X2255515Y499867D02*
X2265672D01*
Y497328D01*
X2255515Y487171D01*
Y484632D01*
X2270750Y497328D02*
X2273289Y499867D01*
X2278368D01*
X2280907Y497328D01*
Y487171D01*
X2278368Y484632D01*
X2273289D01*
X2270750Y487171D01*
Y497328D01*
X2059937D02*
X2057397Y499867D01*
X2052319D01*
X2049780Y497328D01*
Y494789D01*
X2052319Y492249D01*
X2057397D01*
X2059937Y489710D01*
Y487171D01*
X2057397Y484632D01*
X2052319D01*
X2049780Y487171D01*
X2075172Y499867D02*
X2070093Y497328D01*
X2065015Y492249D01*
Y487171D01*
X2067554Y484632D01*
X2072633D01*
X2075172Y487171D01*
Y489710D01*
X2072633Y492249D01*
X2065015D01*
X2080250Y487171D02*
X2082789Y484632D01*
X2087868D01*
X2090407Y487171D01*
Y497328D01*
X2087868Y499867D01*
X2082789D01*
X2080250Y497328D01*
Y494789D01*
X2082789Y492249D01*
X2090407D01*
X1869437Y497328D02*
X1866897Y499867D01*
X1861819D01*
X1859280Y497328D01*
Y494789D01*
X1861819Y492249D01*
X1866897D01*
X1869437Y489710D01*
Y487171D01*
X1866897Y484632D01*
X1861819D01*
X1859280Y487171D01*
X1884672Y499867D02*
X1879593Y497328D01*
X1874515Y492249D01*
Y487171D01*
X1877054Y484632D01*
X1882133D01*
X1884672Y487171D01*
Y489710D01*
X1882133Y492249D01*
X1874515D01*
X1889750Y497328D02*
X1892289Y499867D01*
X1897368D01*
X1899907Y497328D01*
Y494789D01*
X1897368Y492249D01*
X1899907Y489710D01*
Y487171D01*
X1897368Y484632D01*
X1892289D01*
X1889750Y487171D01*
Y489710D01*
X1892289Y492249D01*
X1889750Y494789D01*
Y497328D01*
X1892289Y492249D02*
X1897368D01*
X1678937Y497328D02*
X1676398Y499867D01*
X1671319D01*
X1668780Y497328D01*
Y494789D01*
X1671319Y492249D01*
X1676398D01*
X1678937Y489710D01*
Y487171D01*
X1676398Y484632D01*
X1671319D01*
X1668780Y487171D01*
X1694172Y499867D02*
X1689093Y497328D01*
X1684015Y492249D01*
Y487171D01*
X1686554Y484632D01*
X1691633D01*
X1694172Y487171D01*
Y489710D01*
X1691633Y492249D01*
X1684015D01*
X1699250Y499867D02*
X1709407D01*
Y497328D01*
X1699250Y487171D01*
Y484632D01*
X1488437Y497328D02*
X1485898Y499867D01*
X1480819D01*
X1478280Y497328D01*
Y494789D01*
X1480819Y492249D01*
X1485898D01*
X1488437Y489710D01*
Y487171D01*
X1485898Y484632D01*
X1480819D01*
X1478280Y487171D01*
X1503672Y499867D02*
X1498593Y497328D01*
X1493515Y492249D01*
Y487171D01*
X1496054Y484632D01*
X1501133D01*
X1503672Y487171D01*
Y489710D01*
X1501133Y492249D01*
X1493515D01*
X1518907Y499867D02*
X1513828Y497328D01*
X1508750Y492249D01*
Y487171D01*
X1511289Y484632D01*
X1516368D01*
X1518907Y487171D01*
Y489710D01*
X1516368Y492249D01*
X1508750D01*
X1297937Y497328D02*
X1295397Y499867D01*
X1290319D01*
X1287780Y497328D01*
Y494789D01*
X1290319Y492249D01*
X1295397D01*
X1297937Y489710D01*
Y487171D01*
X1295397Y484632D01*
X1290319D01*
X1287780Y487171D01*
X1313172Y499867D02*
X1308093Y497328D01*
X1303015Y492249D01*
Y487171D01*
X1305554Y484632D01*
X1310633D01*
X1313172Y487171D01*
Y489710D01*
X1310633Y492249D01*
X1303015D01*
X1328407Y499867D02*
X1318250D01*
Y492249D01*
X1323329Y494789D01*
X1325868D01*
X1328407Y492249D01*
Y487171D01*
X1325868Y484632D01*
X1320789D01*
X1318250Y487171D01*
X1107437Y497328D02*
X1104898Y499867D01*
X1099819D01*
X1097280Y497328D01*
Y494789D01*
X1099819Y492249D01*
X1104898D01*
X1107437Y489710D01*
Y487171D01*
X1104898Y484632D01*
X1099819D01*
X1097280Y487171D01*
X1122672Y499867D02*
X1117593Y497328D01*
X1112515Y492249D01*
Y487171D01*
X1115054Y484632D01*
X1120133D01*
X1122672Y487171D01*
Y489710D01*
X1120133Y492249D01*
X1112515D01*
X1135368Y484632D02*
Y499867D01*
X1127750Y492249D01*
X1137907D01*
X916937Y497328D02*
X914398Y499867D01*
X909319D01*
X906780Y497328D01*
Y494789D01*
X909319Y492249D01*
X914398D01*
X916937Y489710D01*
Y487171D01*
X914398Y484632D01*
X909319D01*
X906780Y487171D01*
X932172Y499867D02*
X927093Y497328D01*
X922015Y492249D01*
Y487171D01*
X924554Y484632D01*
X929633D01*
X932172Y487171D01*
Y489710D01*
X929633Y492249D01*
X922015D01*
X937250Y497328D02*
X939789Y499867D01*
X944868D01*
X947407Y497328D01*
Y494789D01*
X944868Y492249D01*
X942328D01*
X944868D01*
X947407Y489710D01*
Y487171D01*
X944868Y484632D01*
X939789D01*
X937250Y487171D01*
X726437Y497328D02*
X723897Y499867D01*
X718819D01*
X716280Y497328D01*
Y494789D01*
X718819Y492249D01*
X723897D01*
X726437Y489710D01*
Y487171D01*
X723897Y484632D01*
X718819D01*
X716280Y487171D01*
X741672Y499867D02*
X736593Y497328D01*
X731515Y492249D01*
Y487171D01*
X734054Y484632D01*
X739133D01*
X741672Y487171D01*
Y489710D01*
X739133Y492249D01*
X731515D01*
X756907Y484632D02*
X746750D01*
X756907Y494789D01*
Y497328D01*
X754368Y499867D01*
X749289D01*
X746750Y497328D01*
X535937D02*
X533397Y499867D01*
X528319D01*
X525780Y497328D01*
Y494789D01*
X528319Y492249D01*
X533397D01*
X535937Y489710D01*
Y487171D01*
X533397Y484632D01*
X528319D01*
X525780Y487171D01*
X551172Y499867D02*
X546093Y497328D01*
X541015Y492249D01*
Y487171D01*
X543554Y484632D01*
X548633D01*
X551172Y487171D01*
Y489710D01*
X548633Y492249D01*
X541015D01*
X556250Y484632D02*
X561329D01*
X558789D01*
Y499867D01*
X556250Y497328D01*
X107185Y503932D02*
X104646Y506471D01*
X99567D01*
X97028Y503932D01*
Y501393D01*
X99567Y498853D01*
X104646D01*
X107185Y496314D01*
Y493775D01*
X104646Y491236D01*
X99567D01*
X97028Y493775D01*
X122420Y506471D02*
X117341Y503932D01*
X112263Y498853D01*
Y493775D01*
X114802Y491236D01*
X119881D01*
X122420Y493775D01*
Y496314D01*
X119881Y498853D01*
X112263D01*
X127498Y503932D02*
X130037Y506471D01*
X135116D01*
X137655Y503932D01*
Y493775D01*
X135116Y491236D01*
X130037D01*
X127498Y493775D01*
Y503932D01*
X2964812Y687701D02*
X2962273Y690240D01*
X2957194D01*
X2954655Y687701D01*
Y685162D01*
X2957194Y682623D01*
X2962273D01*
X2964812Y680083D01*
Y677544D01*
X2962273Y675005D01*
X2957194D01*
X2954655Y677544D01*
X2980047Y690240D02*
X2969890D01*
Y682623D01*
X2974968Y685162D01*
X2977508D01*
X2980047Y682623D01*
Y677544D01*
X2977508Y675005D01*
X2972429D01*
X2969890Y677544D01*
X2985125D02*
X2987664Y675005D01*
X2992743D01*
X2995282Y677544D01*
Y687701D01*
X2992743Y690240D01*
X2987664D01*
X2985125Y687701D01*
Y685162D01*
X2987664Y682623D01*
X2995282D01*
X2536187Y694432D02*
X2533647Y696971D01*
X2528569D01*
X2526030Y694432D01*
Y691893D01*
X2528569Y689353D01*
X2533647D01*
X2536187Y686814D01*
Y684275D01*
X2533647Y681736D01*
X2528569D01*
X2526030Y684275D01*
X2551422Y696971D02*
X2541265D01*
Y689353D01*
X2546343Y691893D01*
X2548883D01*
X2551422Y689353D01*
Y684275D01*
X2548883Y681736D01*
X2543804D01*
X2541265Y684275D01*
X2556500Y694432D02*
X2559039Y696971D01*
X2564118D01*
X2566657Y694432D01*
Y691893D01*
X2564118Y689353D01*
X2566657Y686814D01*
Y684275D01*
X2564118Y681736D01*
X2559039D01*
X2556500Y684275D01*
Y686814D01*
X2559039Y689353D01*
X2556500Y691893D01*
Y694432D01*
X2559039Y689353D02*
X2564118D01*
X2345687Y687828D02*
X2343147Y690367D01*
X2338069D01*
X2335530Y687828D01*
Y685289D01*
X2338069Y682749D01*
X2343147D01*
X2345687Y680210D01*
Y677671D01*
X2343147Y675132D01*
X2338069D01*
X2335530Y677671D01*
X2360922Y690367D02*
X2350765D01*
Y682749D01*
X2355843Y685289D01*
X2358383D01*
X2360922Y682749D01*
Y677671D01*
X2358383Y675132D01*
X2353304D01*
X2350765Y677671D01*
X2366000Y690367D02*
X2376157D01*
Y687828D01*
X2366000Y677671D01*
Y675132D01*
X2155187Y687828D02*
X2152648Y690367D01*
X2147569D01*
X2145030Y687828D01*
Y685289D01*
X2147569Y682749D01*
X2152648D01*
X2155187Y680210D01*
Y677671D01*
X2152648Y675132D01*
X2147569D01*
X2145030Y677671D01*
X2170422Y690367D02*
X2160265D01*
Y682749D01*
X2165343Y685289D01*
X2167883D01*
X2170422Y682749D01*
Y677671D01*
X2167883Y675132D01*
X2162804D01*
X2160265Y677671D01*
X2185657Y690367D02*
X2180578Y687828D01*
X2175500Y682749D01*
Y677671D01*
X2178039Y675132D01*
X2183118D01*
X2185657Y677671D01*
Y680210D01*
X2183118Y682749D01*
X2175500D01*
X1964687Y687828D02*
X1962148Y690367D01*
X1957069D01*
X1954530Y687828D01*
Y685289D01*
X1957069Y682749D01*
X1962148D01*
X1964687Y680210D01*
Y677671D01*
X1962148Y675132D01*
X1957069D01*
X1954530Y677671D01*
X1979922Y690367D02*
X1969765D01*
Y682749D01*
X1974843Y685289D01*
X1977383D01*
X1979922Y682749D01*
Y677671D01*
X1977383Y675132D01*
X1972304D01*
X1969765Y677671D01*
X1995157Y690367D02*
X1985000D01*
Y682749D01*
X1990078Y685289D01*
X1992618D01*
X1995157Y682749D01*
Y677671D01*
X1992618Y675132D01*
X1987539D01*
X1985000Y677671D01*
X1774187Y687828D02*
X1771647Y690367D01*
X1766569D01*
X1764030Y687828D01*
Y685289D01*
X1766569Y682749D01*
X1771647D01*
X1774187Y680210D01*
Y677671D01*
X1771647Y675132D01*
X1766569D01*
X1764030Y677671D01*
X1789422Y690367D02*
X1779265D01*
Y682749D01*
X1784343Y685289D01*
X1786883D01*
X1789422Y682749D01*
Y677671D01*
X1786883Y675132D01*
X1781804D01*
X1779265Y677671D01*
X1802118Y675132D02*
Y690367D01*
X1794500Y682749D01*
X1804657D01*
X1583687Y687828D02*
X1581147Y690367D01*
X1576069D01*
X1573530Y687828D01*
Y685289D01*
X1576069Y682749D01*
X1581147D01*
X1583687Y680210D01*
Y677671D01*
X1581147Y675132D01*
X1576069D01*
X1573530Y677671D01*
X1598922Y690367D02*
X1588765D01*
Y682749D01*
X1593843Y685289D01*
X1596383D01*
X1598922Y682749D01*
Y677671D01*
X1596383Y675132D01*
X1591304D01*
X1588765Y677671D01*
X1604000Y687828D02*
X1606539Y690367D01*
X1611618D01*
X1614157Y687828D01*
Y685289D01*
X1611618Y682749D01*
X1609079D01*
X1611618D01*
X1614157Y680210D01*
Y677671D01*
X1611618Y675132D01*
X1606539D01*
X1604000Y677671D01*
X1393187Y687828D02*
X1390647Y690367D01*
X1385569D01*
X1383030Y687828D01*
Y685289D01*
X1385569Y682749D01*
X1390647D01*
X1393187Y680210D01*
Y677671D01*
X1390647Y675132D01*
X1385569D01*
X1383030Y677671D01*
X1408422Y690367D02*
X1398265D01*
Y682749D01*
X1403343Y685289D01*
X1405883D01*
X1408422Y682749D01*
Y677671D01*
X1405883Y675132D01*
X1400804D01*
X1398265Y677671D01*
X1423657Y675132D02*
X1413500D01*
X1423657Y685289D01*
Y687828D01*
X1421118Y690367D01*
X1416039D01*
X1413500Y687828D01*
X1202687D02*
X1200147Y690367D01*
X1195069D01*
X1192530Y687828D01*
Y685289D01*
X1195069Y682749D01*
X1200147D01*
X1202687Y680210D01*
Y677671D01*
X1200147Y675132D01*
X1195069D01*
X1192530Y677671D01*
X1217922Y690367D02*
X1207765D01*
Y682749D01*
X1212843Y685289D01*
X1215383D01*
X1217922Y682749D01*
Y677671D01*
X1215383Y675132D01*
X1210304D01*
X1207765Y677671D01*
X1223000Y675132D02*
X1228079D01*
X1225539D01*
Y690367D01*
X1223000Y687828D01*
X1012187D02*
X1009648Y690367D01*
X1004569D01*
X1002030Y687828D01*
Y685289D01*
X1004569Y682749D01*
X1009648D01*
X1012187Y680210D01*
Y677671D01*
X1009648Y675132D01*
X1004569D01*
X1002030Y677671D01*
X1027422Y690367D02*
X1017265D01*
Y682749D01*
X1022343Y685289D01*
X1024883D01*
X1027422Y682749D01*
Y677671D01*
X1024883Y675132D01*
X1019804D01*
X1017265Y677671D01*
X1032500Y687828D02*
X1035039Y690367D01*
X1040118D01*
X1042657Y687828D01*
Y677671D01*
X1040118Y675132D01*
X1035039D01*
X1032500Y677671D01*
Y687828D01*
X821687D02*
X819147Y690367D01*
X814069D01*
X811530Y687828D01*
Y685289D01*
X814069Y682749D01*
X819147D01*
X821687Y680210D01*
Y677671D01*
X819147Y675132D01*
X814069D01*
X811530Y677671D01*
X834383Y675132D02*
Y690367D01*
X826765Y682749D01*
X836922D01*
X842000Y677671D02*
X844539Y675132D01*
X849618D01*
X852157Y677671D01*
Y687828D01*
X849618Y690367D01*
X844539D01*
X842000Y687828D01*
Y685289D01*
X844539Y682749D01*
X852157D01*
X631187Y687828D02*
X628647Y690367D01*
X623569D01*
X621030Y687828D01*
Y685289D01*
X623569Y682749D01*
X628647D01*
X631187Y680210D01*
Y677671D01*
X628647Y675132D01*
X623569D01*
X621030Y677671D01*
X643883Y675132D02*
Y690367D01*
X636265Y682749D01*
X646422D01*
X651500Y687828D02*
X654039Y690367D01*
X659118D01*
X661657Y687828D01*
Y685289D01*
X659118Y682749D01*
X661657Y680210D01*
Y677671D01*
X659118Y675132D01*
X654039D01*
X651500Y677671D01*
Y680210D01*
X654039Y682749D01*
X651500Y685289D01*
Y687828D01*
X654039Y682749D02*
X659118D01*
X440687Y687828D02*
X438148Y690367D01*
X433069D01*
X430530Y687828D01*
Y685289D01*
X433069Y682749D01*
X438148D01*
X440687Y680210D01*
Y677671D01*
X438148Y675132D01*
X433069D01*
X430530Y677671D01*
X453383Y675132D02*
Y690367D01*
X445765Y682749D01*
X455922D01*
X461000Y690367D02*
X471157D01*
Y687828D01*
X461000Y677671D01*
Y675132D01*
X107185Y687828D02*
X104646Y690367D01*
X99567D01*
X97028Y687828D01*
Y685289D01*
X99567Y682749D01*
X104646D01*
X107185Y680210D01*
Y677671D01*
X104646Y675132D01*
X99567D01*
X97028Y677671D01*
X119881Y675132D02*
Y690367D01*
X112263Y682749D01*
X122420D01*
X137655Y690367D02*
X132577Y687828D01*
X127498Y682749D01*
Y677671D01*
X130037Y675132D01*
X135116D01*
X137655Y677671D01*
Y680210D01*
X135116Y682749D01*
X127498D01*
X2964812Y878201D02*
X2962273Y880740D01*
X2957194D01*
X2954655Y878201D01*
Y875662D01*
X2957194Y873122D01*
X2962273D01*
X2964812Y870583D01*
Y868044D01*
X2962273Y865505D01*
X2957194D01*
X2954655Y868044D01*
X2977508Y865505D02*
Y880740D01*
X2969890Y873122D01*
X2980047D01*
X2995282Y880740D02*
X2985125D01*
Y873122D01*
X2990204Y875662D01*
X2992743D01*
X2995282Y873122D01*
Y868044D01*
X2992743Y865505D01*
X2987664D01*
X2985125Y868044D01*
X2679189Y878328D02*
X2676649Y880867D01*
X2671571D01*
X2669032Y878328D01*
Y875789D01*
X2671571Y873250D01*
X2676649D01*
X2679189Y870710D01*
Y868171D01*
X2676649Y865632D01*
X2671571D01*
X2669032Y868171D01*
X2691884Y865632D02*
Y880867D01*
X2684267Y873250D01*
X2694424D01*
X2707120Y865632D02*
Y880867D01*
X2699502Y873250D01*
X2709659D01*
X2488689Y878328D02*
X2486149Y880867D01*
X2481071D01*
X2478532Y878328D01*
Y875789D01*
X2481071Y873250D01*
X2486149D01*
X2488689Y870710D01*
Y868171D01*
X2486149Y865632D01*
X2481071D01*
X2478532Y868171D01*
X2501385Y865632D02*
Y880867D01*
X2493767Y873250D01*
X2503924D01*
X2509002Y878328D02*
X2511541Y880867D01*
X2516620D01*
X2519159Y878328D01*
Y875789D01*
X2516620Y873250D01*
X2514081D01*
X2516620D01*
X2519159Y870710D01*
Y868171D01*
X2516620Y865632D01*
X2511541D01*
X2509002Y868171D01*
X2298189Y878328D02*
X2295650Y880867D01*
X2290571D01*
X2288032Y878328D01*
Y875789D01*
X2290571Y873250D01*
X2295650D01*
X2298189Y870710D01*
Y868171D01*
X2295650Y865632D01*
X2290571D01*
X2288032Y868171D01*
X2310885Y865632D02*
Y880867D01*
X2303267Y873250D01*
X2313424D01*
X2328659Y865632D02*
X2318502D01*
X2328659Y875789D01*
Y878328D01*
X2326120Y880867D01*
X2321041D01*
X2318502Y878328D01*
X2107689D02*
X2105150Y880867D01*
X2100071D01*
X2097532Y878328D01*
Y875789D01*
X2100071Y873250D01*
X2105150D01*
X2107689Y870710D01*
Y868171D01*
X2105150Y865632D01*
X2100071D01*
X2097532Y868171D01*
X2120385Y865632D02*
Y880867D01*
X2112767Y873250D01*
X2122924D01*
X2128002Y865632D02*
X2133080D01*
X2130541D01*
Y880867D01*
X2128002Y878328D01*
X1917189D02*
X1914650Y880867D01*
X1909571D01*
X1907032Y878328D01*
Y875789D01*
X1909571Y873250D01*
X1914650D01*
X1917189Y870710D01*
Y868171D01*
X1914650Y865632D01*
X1909571D01*
X1907032Y868171D01*
X1929885Y865632D02*
Y880867D01*
X1922267Y873250D01*
X1932424D01*
X1937502Y878328D02*
X1940041Y880867D01*
X1945120D01*
X1947659Y878328D01*
Y868171D01*
X1945120Y865632D01*
X1940041D01*
X1937502Y868171D01*
Y878328D01*
X1726689D02*
X1724149Y880867D01*
X1719071D01*
X1716532Y878328D01*
Y875789D01*
X1719071Y873250D01*
X1724149D01*
X1726689Y870710D01*
Y868171D01*
X1724149Y865632D01*
X1719071D01*
X1716532Y868171D01*
X1731767Y878328D02*
X1734306Y880867D01*
X1739385D01*
X1741924Y878328D01*
Y875789D01*
X1739385Y873250D01*
X1736845D01*
X1739385D01*
X1741924Y870710D01*
Y868171D01*
X1739385Y865632D01*
X1734306D01*
X1731767Y868171D01*
X1747002D02*
X1749541Y865632D01*
X1754620D01*
X1757159Y868171D01*
Y878328D01*
X1754620Y880867D01*
X1749541D01*
X1747002Y878328D01*
Y875789D01*
X1749541Y873250D01*
X1757159D01*
X1536189Y878328D02*
X1533649Y880867D01*
X1528571D01*
X1526032Y878328D01*
Y875789D01*
X1528571Y873250D01*
X1533649D01*
X1536189Y870710D01*
Y868171D01*
X1533649Y865632D01*
X1528571D01*
X1526032Y868171D01*
X1541267Y878328D02*
X1543806Y880867D01*
X1548885D01*
X1551424Y878328D01*
Y875789D01*
X1548885Y873250D01*
X1546345D01*
X1548885D01*
X1551424Y870710D01*
Y868171D01*
X1548885Y865632D01*
X1543806D01*
X1541267Y868171D01*
X1556502Y878328D02*
X1559041Y880867D01*
X1564120D01*
X1566659Y878328D01*
Y875789D01*
X1564120Y873250D01*
X1566659Y870710D01*
Y868171D01*
X1564120Y865632D01*
X1559041D01*
X1556502Y868171D01*
Y870710D01*
X1559041Y873250D01*
X1556502Y875789D01*
Y878328D01*
X1559041Y873250D02*
X1564120D01*
X1345689Y878328D02*
X1343150Y880867D01*
X1338071D01*
X1335532Y878328D01*
Y875789D01*
X1338071Y873250D01*
X1343150D01*
X1345689Y870710D01*
Y868171D01*
X1343150Y865632D01*
X1338071D01*
X1335532Y868171D01*
X1350767Y878328D02*
X1353306Y880867D01*
X1358385D01*
X1360924Y878328D01*
Y875789D01*
X1358385Y873250D01*
X1355845D01*
X1358385D01*
X1360924Y870710D01*
Y868171D01*
X1358385Y865632D01*
X1353306D01*
X1350767Y868171D01*
X1366002Y880867D02*
X1376159D01*
Y878328D01*
X1366002Y868171D01*
Y865632D01*
X1155189Y878328D02*
X1152650Y880867D01*
X1147571D01*
X1145032Y878328D01*
Y875789D01*
X1147571Y873250D01*
X1152650D01*
X1155189Y870710D01*
Y868171D01*
X1152650Y865632D01*
X1147571D01*
X1145032Y868171D01*
X1160267Y878328D02*
X1162806Y880867D01*
X1167885D01*
X1170424Y878328D01*
Y875789D01*
X1167885Y873250D01*
X1165345D01*
X1167885D01*
X1170424Y870710D01*
Y868171D01*
X1167885Y865632D01*
X1162806D01*
X1160267Y868171D01*
X1185659Y880867D02*
X1180581Y878328D01*
X1175502Y873250D01*
Y868171D01*
X1178041Y865632D01*
X1183120D01*
X1185659Y868171D01*
Y870710D01*
X1183120Y873250D01*
X1175502D01*
X964689Y878328D02*
X962150Y880867D01*
X957071D01*
X954532Y878328D01*
Y875789D01*
X957071Y873250D01*
X962150D01*
X964689Y870710D01*
Y868171D01*
X962150Y865632D01*
X957071D01*
X954532Y868171D01*
X969767Y878328D02*
X972306Y880867D01*
X977385D01*
X979924Y878328D01*
Y875789D01*
X977385Y873250D01*
X974845D01*
X977385D01*
X979924Y870710D01*
Y868171D01*
X977385Y865632D01*
X972306D01*
X969767Y868171D01*
X995159Y880867D02*
X985002D01*
Y873250D01*
X990080Y875789D01*
X992620D01*
X995159Y873250D01*
Y868171D01*
X992620Y865632D01*
X987541D01*
X985002Y868171D01*
X774189Y878328D02*
X771649Y880867D01*
X766571D01*
X764032Y878328D01*
Y875789D01*
X766571Y873250D01*
X771649D01*
X774189Y870710D01*
Y868171D01*
X771649Y865632D01*
X766571D01*
X764032Y868171D01*
X779267Y878328D02*
X781806Y880867D01*
X786885D01*
X789424Y878328D01*
Y875789D01*
X786885Y873250D01*
X784345D01*
X786885D01*
X789424Y870710D01*
Y868171D01*
X786885Y865632D01*
X781806D01*
X779267Y868171D01*
X802120Y865632D02*
Y880867D01*
X794502Y873250D01*
X804659D01*
X583689Y878328D02*
X581149Y880867D01*
X576071D01*
X573532Y878328D01*
Y875789D01*
X576071Y873250D01*
X581149D01*
X583689Y870710D01*
Y868171D01*
X581149Y865632D01*
X576071D01*
X573532Y868171D01*
X588767Y878328D02*
X591306Y880867D01*
X596385D01*
X598924Y878328D01*
Y875789D01*
X596385Y873250D01*
X593845D01*
X596385D01*
X598924Y870710D01*
Y868171D01*
X596385Y865632D01*
X591306D01*
X588767Y868171D01*
X604002Y878328D02*
X606541Y880867D01*
X611620D01*
X614159Y878328D01*
Y875789D01*
X611620Y873250D01*
X609081D01*
X611620D01*
X614159Y870710D01*
Y868171D01*
X611620Y865632D01*
X606541D01*
X604002Y868171D01*
X393189Y878328D02*
X390649Y880867D01*
X385571D01*
X383032Y878328D01*
Y875789D01*
X385571Y873250D01*
X390649D01*
X393189Y870710D01*
Y868171D01*
X390649Y865632D01*
X385571D01*
X383032Y868171D01*
X398267Y878328D02*
X400806Y880867D01*
X405885D01*
X408424Y878328D01*
Y875789D01*
X405885Y873250D01*
X403345D01*
X405885D01*
X408424Y870710D01*
Y868171D01*
X405885Y865632D01*
X400806D01*
X398267Y868171D01*
X423659Y865632D02*
X413502D01*
X423659Y875789D01*
Y878328D01*
X421120Y880867D01*
X416041D01*
X413502Y878328D01*
X107185D02*
X104646Y880867D01*
X99567D01*
X97028Y878328D01*
Y875789D01*
X99567Y873250D01*
X104646D01*
X107185Y870710D01*
Y868171D01*
X104646Y865632D01*
X99567D01*
X97028Y868171D01*
X112263Y878328D02*
X114802Y880867D01*
X119881D01*
X122420Y878328D01*
Y875789D01*
X119881Y873250D01*
X117341D01*
X119881D01*
X122420Y870710D01*
Y868171D01*
X119881Y865632D01*
X114802D01*
X112263Y868171D01*
X127498Y865632D02*
X132577D01*
X130037D01*
Y880867D01*
X127498Y878328D01*
X2964812Y1068701D02*
X2962273Y1071240D01*
X2957194D01*
X2954655Y1068701D01*
Y1066162D01*
X2957194Y1063623D01*
X2962273D01*
X2964812Y1061083D01*
Y1058544D01*
X2962273Y1056005D01*
X2957194D01*
X2954655Y1058544D01*
X2969890Y1068701D02*
X2972429Y1071240D01*
X2977508D01*
X2980047Y1068701D01*
Y1066162D01*
X2977508Y1063623D01*
X2974968D01*
X2977508D01*
X2980047Y1061083D01*
Y1058544D01*
X2977508Y1056005D01*
X2972429D01*
X2969890Y1058544D01*
X2985125Y1068701D02*
X2987664Y1071240D01*
X2992743D01*
X2995282Y1068701D01*
Y1058544D01*
X2992743Y1056005D01*
X2987664D01*
X2985125Y1058544D01*
Y1068701D01*
X2583685Y1075432D02*
X2581146Y1077971D01*
X2576067D01*
X2573528Y1075432D01*
Y1072893D01*
X2576067Y1070353D01*
X2581146D01*
X2583685Y1067814D01*
Y1065275D01*
X2581146Y1062736D01*
X2576067D01*
X2573528Y1065275D01*
X2598920Y1062736D02*
X2588763D01*
X2598920Y1072893D01*
Y1075432D01*
X2596381Y1077971D01*
X2591302D01*
X2588763Y1075432D01*
X2603998Y1065275D02*
X2606537Y1062736D01*
X2611616D01*
X2614155Y1065275D01*
Y1075432D01*
X2611616Y1077971D01*
X2606537D01*
X2603998Y1075432D01*
Y1072893D01*
X2606537Y1070353D01*
X2614155D01*
X2393312Y1068701D02*
X2390773Y1071240D01*
X2385694D01*
X2383155Y1068701D01*
Y1066162D01*
X2385694Y1063623D01*
X2390773D01*
X2393312Y1061083D01*
Y1058544D01*
X2390773Y1056005D01*
X2385694D01*
X2383155Y1058544D01*
X2408547Y1056005D02*
X2398390D01*
X2408547Y1066162D01*
Y1068701D01*
X2406008Y1071240D01*
X2400929D01*
X2398390Y1068701D01*
X2413625D02*
X2416164Y1071240D01*
X2421243D01*
X2423782Y1068701D01*
Y1066162D01*
X2421243Y1063623D01*
X2423782Y1061083D01*
Y1058544D01*
X2421243Y1056005D01*
X2416164D01*
X2413625Y1058544D01*
Y1061083D01*
X2416164Y1063623D01*
X2413625Y1066162D01*
Y1068701D01*
X2416164Y1063623D02*
X2421243D01*
X2202812Y1068701D02*
X2200273Y1071240D01*
X2195194D01*
X2192655Y1068701D01*
Y1066162D01*
X2195194Y1063623D01*
X2200273D01*
X2202812Y1061083D01*
Y1058544D01*
X2200273Y1056005D01*
X2195194D01*
X2192655Y1058544D01*
X2218047Y1056005D02*
X2207890D01*
X2218047Y1066162D01*
Y1068701D01*
X2215508Y1071240D01*
X2210429D01*
X2207890Y1068701D01*
X2223125Y1071240D02*
X2233282D01*
Y1068701D01*
X2223125Y1058544D01*
Y1056005D01*
X2012312Y1068701D02*
X2009772Y1071240D01*
X2004694D01*
X2002155Y1068701D01*
Y1066162D01*
X2004694Y1063623D01*
X2009772D01*
X2012312Y1061083D01*
Y1058544D01*
X2009772Y1056005D01*
X2004694D01*
X2002155Y1058544D01*
X2027547Y1056005D02*
X2017390D01*
X2027547Y1066162D01*
Y1068701D01*
X2025008Y1071240D01*
X2019929D01*
X2017390Y1068701D01*
X2042782Y1071240D02*
X2037704Y1068701D01*
X2032625Y1063623D01*
Y1058544D01*
X2035164Y1056005D01*
X2040243D01*
X2042782Y1058544D01*
Y1061083D01*
X2040243Y1063623D01*
X2032625D01*
X1821812Y1068701D02*
X1819272Y1071240D01*
X1814194D01*
X1811655Y1068701D01*
Y1066162D01*
X1814194Y1063623D01*
X1819272D01*
X1821812Y1061083D01*
Y1058544D01*
X1819272Y1056005D01*
X1814194D01*
X1811655Y1058544D01*
X1837047Y1056005D02*
X1826890D01*
X1837047Y1066162D01*
Y1068701D01*
X1834508Y1071240D01*
X1829429D01*
X1826890Y1068701D01*
X1852282Y1071240D02*
X1842125D01*
Y1063623D01*
X1847204Y1066162D01*
X1849743D01*
X1852282Y1063623D01*
Y1058544D01*
X1849743Y1056005D01*
X1844664D01*
X1842125Y1058544D01*
X1631312Y1068701D02*
X1628772Y1071240D01*
X1623694D01*
X1621155Y1068701D01*
Y1066162D01*
X1623694Y1063623D01*
X1628772D01*
X1631312Y1061083D01*
Y1058544D01*
X1628772Y1056005D01*
X1623694D01*
X1621155Y1058544D01*
X1646547Y1056005D02*
X1636390D01*
X1646547Y1066162D01*
Y1068701D01*
X1644008Y1071240D01*
X1638929D01*
X1636390Y1068701D01*
X1659243Y1056005D02*
Y1071240D01*
X1651625Y1063623D01*
X1661782D01*
X1440812Y1068701D02*
X1438273Y1071240D01*
X1433194D01*
X1430655Y1068701D01*
Y1066162D01*
X1433194Y1063623D01*
X1438273D01*
X1440812Y1061083D01*
Y1058544D01*
X1438273Y1056005D01*
X1433194D01*
X1430655Y1058544D01*
X1456047Y1056005D02*
X1445890D01*
X1456047Y1066162D01*
Y1068701D01*
X1453508Y1071240D01*
X1448429D01*
X1445890Y1068701D01*
X1461125D02*
X1463664Y1071240D01*
X1468743D01*
X1471282Y1068701D01*
Y1066162D01*
X1468743Y1063623D01*
X1466203D01*
X1468743D01*
X1471282Y1061083D01*
Y1058544D01*
X1468743Y1056005D01*
X1463664D01*
X1461125Y1058544D01*
X1250312Y1068701D02*
X1247773Y1071240D01*
X1242694D01*
X1240155Y1068701D01*
Y1066162D01*
X1242694Y1063623D01*
X1247773D01*
X1250312Y1061083D01*
Y1058544D01*
X1247773Y1056005D01*
X1242694D01*
X1240155Y1058544D01*
X1265547Y1056005D02*
X1255390D01*
X1265547Y1066162D01*
Y1068701D01*
X1263008Y1071240D01*
X1257929D01*
X1255390Y1068701D01*
X1280782Y1056005D02*
X1270625D01*
X1280782Y1066162D01*
Y1068701D01*
X1278243Y1071240D01*
X1273164D01*
X1270625Y1068701D01*
X1059812D02*
X1057272Y1071240D01*
X1052194D01*
X1049655Y1068701D01*
Y1066162D01*
X1052194Y1063623D01*
X1057272D01*
X1059812Y1061083D01*
Y1058544D01*
X1057272Y1056005D01*
X1052194D01*
X1049655Y1058544D01*
X1075047Y1056005D02*
X1064890D01*
X1075047Y1066162D01*
Y1068701D01*
X1072508Y1071240D01*
X1067429D01*
X1064890Y1068701D01*
X1080125Y1056005D02*
X1085203D01*
X1082664D01*
Y1071240D01*
X1080125Y1068701D01*
X869312D02*
X866773Y1071240D01*
X861694D01*
X859155Y1068701D01*
Y1066162D01*
X861694Y1063623D01*
X866773D01*
X869312Y1061083D01*
Y1058544D01*
X866773Y1056005D01*
X861694D01*
X859155Y1058544D01*
X884547Y1056005D02*
X874390D01*
X884547Y1066162D01*
Y1068701D01*
X882008Y1071240D01*
X876929D01*
X874390Y1068701D01*
X889625D02*
X892164Y1071240D01*
X897243D01*
X899782Y1068701D01*
Y1058544D01*
X897243Y1056005D01*
X892164D01*
X889625Y1058544D01*
Y1068701D01*
X678812D02*
X676273Y1071240D01*
X671194D01*
X668655Y1068701D01*
Y1066162D01*
X671194Y1063623D01*
X676273D01*
X678812Y1061083D01*
Y1058544D01*
X676273Y1056005D01*
X671194D01*
X668655Y1058544D01*
X683890Y1056005D02*
X688968D01*
X686429D01*
Y1071240D01*
X683890Y1068701D01*
X696586Y1058544D02*
X699125Y1056005D01*
X704203D01*
X706743Y1058544D01*
Y1068701D01*
X704203Y1071240D01*
X699125D01*
X696586Y1068701D01*
Y1066162D01*
X699125Y1063623D01*
X706743D01*
X488312Y1068701D02*
X485773Y1071240D01*
X480694D01*
X478155Y1068701D01*
Y1066162D01*
X480694Y1063623D01*
X485773D01*
X488312Y1061083D01*
Y1058544D01*
X485773Y1056005D01*
X480694D01*
X478155Y1058544D01*
X493390Y1056005D02*
X498468D01*
X495929D01*
Y1071240D01*
X493390Y1068701D01*
X506086D02*
X508625Y1071240D01*
X513703D01*
X516243Y1068701D01*
Y1066162D01*
X513703Y1063623D01*
X516243Y1061083D01*
Y1058544D01*
X513703Y1056005D01*
X508625D01*
X506086Y1058544D01*
Y1061083D01*
X508625Y1063623D01*
X506086Y1066162D01*
Y1068701D01*
X508625Y1063623D02*
X513703D01*
X107185Y1068828D02*
X104646Y1071367D01*
X99567D01*
X97028Y1068828D01*
Y1066289D01*
X99567Y1063749D01*
X104646D01*
X107185Y1061210D01*
Y1058671D01*
X104646Y1056132D01*
X99567D01*
X97028Y1058671D01*
X112263Y1056132D02*
X117341D01*
X114802D01*
Y1071367D01*
X112263Y1068828D01*
X135116Y1071367D02*
X130037Y1068828D01*
X124959Y1063749D01*
Y1058671D01*
X127498Y1056132D01*
X132577D01*
X135116Y1058671D01*
Y1061210D01*
X132577Y1063749D01*
X124959D01*
X297685Y1068828D02*
X295145Y1071367D01*
X290067D01*
X287528Y1068828D01*
Y1066289D01*
X290067Y1063749D01*
X295145D01*
X297685Y1061210D01*
Y1058671D01*
X295145Y1056132D01*
X290067D01*
X287528Y1058671D01*
X302763Y1056132D02*
X307841D01*
X305302D01*
Y1071367D01*
X302763Y1068828D01*
X315459Y1071367D02*
X325616D01*
Y1068828D01*
X315459Y1058671D01*
Y1056132D01*
X2964812Y1259201D02*
X2962273Y1261740D01*
X2957194D01*
X2954655Y1259201D01*
Y1256662D01*
X2957194Y1254122D01*
X2962273D01*
X2964812Y1251583D01*
Y1249044D01*
X2962273Y1246505D01*
X2957194D01*
X2954655Y1249044D01*
X2969890Y1246505D02*
X2974968D01*
X2972429D01*
Y1261740D01*
X2969890Y1259201D01*
X2992743Y1261740D02*
X2982586D01*
Y1254122D01*
X2987664Y1256662D01*
X2990204D01*
X2992743Y1254122D01*
Y1249044D01*
X2990204Y1246505D01*
X2985125D01*
X2982586Y1249044D01*
X2774185Y1259328D02*
X2771646Y1261867D01*
X2766567D01*
X2764028Y1259328D01*
Y1256789D01*
X2766567Y1254249D01*
X2771646D01*
X2774185Y1251710D01*
Y1249171D01*
X2771646Y1246632D01*
X2766567D01*
X2764028Y1249171D01*
X2779263Y1246632D02*
X2784341D01*
X2781802D01*
Y1261867D01*
X2779263Y1259328D01*
X2799576Y1246632D02*
Y1261867D01*
X2791959Y1254249D01*
X2802116D01*
X2583812Y1259201D02*
X2581273Y1261740D01*
X2576194D01*
X2573655Y1259201D01*
Y1256662D01*
X2576194Y1254122D01*
X2581273D01*
X2583812Y1251583D01*
Y1249044D01*
X2581273Y1246505D01*
X2576194D01*
X2573655Y1249044D01*
X2588890Y1246505D02*
X2593969D01*
X2591429D01*
Y1261740D01*
X2588890Y1259201D01*
X2601586D02*
X2604125Y1261740D01*
X2609203D01*
X2611743Y1259201D01*
Y1256662D01*
X2609203Y1254122D01*
X2606664D01*
X2609203D01*
X2611743Y1251583D01*
Y1249044D01*
X2609203Y1246505D01*
X2604125D01*
X2601586Y1249044D01*
X2393185Y1259328D02*
X2390645Y1261867D01*
X2385567D01*
X2383028Y1259328D01*
Y1256789D01*
X2385567Y1254249D01*
X2390645D01*
X2393185Y1251710D01*
Y1249171D01*
X2390645Y1246632D01*
X2385567D01*
X2383028Y1249171D01*
X2398263Y1246632D02*
X2403341D01*
X2400802D01*
Y1261867D01*
X2398263Y1259328D01*
X2421116Y1246632D02*
X2410959D01*
X2421116Y1256789D01*
Y1259328D01*
X2418577Y1261867D01*
X2413498D01*
X2410959Y1259328D01*
X2202812Y1259201D02*
X2200273Y1261740D01*
X2195194D01*
X2192655Y1259201D01*
Y1256662D01*
X2195194Y1254122D01*
X2200273D01*
X2202812Y1251583D01*
Y1249044D01*
X2200273Y1246505D01*
X2195194D01*
X2192655Y1249044D01*
X2207890Y1246505D02*
X2212968D01*
X2210429D01*
Y1261740D01*
X2207890Y1259201D01*
X2220586Y1246505D02*
X2225664D01*
X2223125D01*
Y1261740D01*
X2220586Y1259201D01*
X2012185Y1259328D02*
X2009646Y1261867D01*
X2004567D01*
X2002028Y1259328D01*
Y1256789D01*
X2004567Y1254249D01*
X2009646D01*
X2012185Y1251710D01*
Y1249171D01*
X2009646Y1246632D01*
X2004567D01*
X2002028Y1249171D01*
X2017263Y1246632D02*
X2022341D01*
X2019802D01*
Y1261867D01*
X2017263Y1259328D01*
X2029959D02*
X2032498Y1261867D01*
X2037576D01*
X2040116Y1259328D01*
Y1249171D01*
X2037576Y1246632D01*
X2032498D01*
X2029959Y1249171D01*
Y1259328D01*
X1821812Y1259201D02*
X1819272Y1261740D01*
X1814194D01*
X1811655Y1259201D01*
Y1256662D01*
X1814194Y1254122D01*
X1819272D01*
X1821812Y1251583D01*
Y1249044D01*
X1819272Y1246505D01*
X1814194D01*
X1811655Y1249044D01*
X1826890D02*
X1829429Y1246505D01*
X1834508D01*
X1837047Y1249044D01*
Y1259201D01*
X1834508Y1261740D01*
X1829429D01*
X1826890Y1259201D01*
Y1256662D01*
X1829429Y1254122D01*
X1837047D01*
X1631185Y1259328D02*
X1628645Y1261867D01*
X1623567D01*
X1621028Y1259328D01*
Y1256789D01*
X1623567Y1254249D01*
X1628645D01*
X1631185Y1251710D01*
Y1249171D01*
X1628645Y1246632D01*
X1623567D01*
X1621028Y1249171D01*
X1636263Y1259328D02*
X1638802Y1261867D01*
X1643881D01*
X1646420Y1259328D01*
Y1256789D01*
X1643881Y1254249D01*
X1646420Y1251710D01*
Y1249171D01*
X1643881Y1246632D01*
X1638802D01*
X1636263Y1249171D01*
Y1251710D01*
X1638802Y1254249D01*
X1636263Y1256789D01*
Y1259328D01*
X1638802Y1254249D02*
X1643881D01*
X1440812Y1259201D02*
X1438273Y1261740D01*
X1433194D01*
X1430655Y1259201D01*
Y1256662D01*
X1433194Y1254122D01*
X1438273D01*
X1440812Y1251583D01*
Y1249044D01*
X1438273Y1246505D01*
X1433194D01*
X1430655Y1249044D01*
X1445890Y1261740D02*
X1456047D01*
Y1259201D01*
X1445890Y1249044D01*
Y1246505D01*
X1250185Y1259328D02*
X1247645Y1261867D01*
X1242567D01*
X1240028Y1259328D01*
Y1256789D01*
X1242567Y1254249D01*
X1247645D01*
X1250185Y1251710D01*
Y1249171D01*
X1247645Y1246632D01*
X1242567D01*
X1240028Y1249171D01*
X1265420Y1261867D02*
X1260341Y1259328D01*
X1255263Y1254249D01*
Y1249171D01*
X1257802Y1246632D01*
X1262881D01*
X1265420Y1249171D01*
Y1251710D01*
X1262881Y1254249D01*
X1255263D01*
X1059812Y1259201D02*
X1057272Y1261740D01*
X1052194D01*
X1049655Y1259201D01*
Y1256662D01*
X1052194Y1254122D01*
X1057272D01*
X1059812Y1251583D01*
Y1249044D01*
X1057272Y1246505D01*
X1052194D01*
X1049655Y1249044D01*
X1075047Y1261740D02*
X1064890D01*
Y1254122D01*
X1069968Y1256662D01*
X1072508D01*
X1075047Y1254122D01*
Y1249044D01*
X1072508Y1246505D01*
X1067429D01*
X1064890Y1249044D01*
X869185Y1259328D02*
X866646Y1261867D01*
X861567D01*
X859028Y1259328D01*
Y1256789D01*
X861567Y1254249D01*
X866646D01*
X869185Y1251710D01*
Y1249171D01*
X866646Y1246632D01*
X861567D01*
X859028Y1249171D01*
X881881Y1246632D02*
Y1261867D01*
X874263Y1254249D01*
X884420D01*
X678812Y1259201D02*
X676273Y1261740D01*
X671194D01*
X668655Y1259201D01*
Y1256662D01*
X671194Y1254122D01*
X676273D01*
X678812Y1251583D01*
Y1249044D01*
X676273Y1246505D01*
X671194D01*
X668655Y1249044D01*
X683890Y1259201D02*
X686429Y1261740D01*
X691508D01*
X694047Y1259201D01*
Y1256662D01*
X691508Y1254122D01*
X688968D01*
X691508D01*
X694047Y1251583D01*
Y1249044D01*
X691508Y1246505D01*
X686429D01*
X683890Y1249044D01*
X488312Y1259201D02*
X485773Y1261740D01*
X480694D01*
X478155Y1259201D01*
Y1256662D01*
X480694Y1254122D01*
X485773D01*
X488312Y1251583D01*
Y1249044D01*
X485773Y1246505D01*
X480694D01*
X478155Y1249044D01*
X503547Y1246505D02*
X493390D01*
X503547Y1256662D01*
Y1259201D01*
X501008Y1261740D01*
X495929D01*
X493390Y1259201D01*
X107312D02*
X104773Y1261740D01*
X99694D01*
X97155Y1259201D01*
Y1256662D01*
X99694Y1254122D01*
X104773D01*
X107312Y1251583D01*
Y1249044D01*
X104773Y1246505D01*
X99694D01*
X97155Y1249044D01*
X112390Y1259201D02*
X114929Y1261740D01*
X120008D01*
X122547Y1259201D01*
Y1249044D01*
X120008Y1246505D01*
X114929D01*
X112390Y1249044D01*
Y1259201D01*
M02*
