G04*
G04 #@! TF.GenerationSoftware,Altium Limited,Altium Designer,19.0.15 (446)*
G04*
G04 Layer_Color=2752767*
%FSLAX44Y44*%
%MOMM*%
G71*
G01*
G75*
%ADD129C,0.0508*%
%ADD130C,0.0677*%
%ADD131C,0.0339*%
D129*
X127968Y47968D02*
Y52032D01*
X132032D01*
Y47968D01*
X127968D01*
X3097968D02*
Y52032D01*
X3102032D01*
Y47968D01*
X3097968D01*
Y1397968D02*
Y1402032D01*
X3102032D01*
Y1397968D01*
X3097968D01*
X127968D02*
Y1402032D01*
X132032D01*
Y1397968D01*
X127968D01*
X431800Y1140968D02*
X429768Y1145032D01*
X433832D01*
X431800Y1140968D01*
X330200D02*
X328168Y1145032D01*
X332232D01*
X330200Y1140968D01*
X406400Y1191768D02*
X407416Y1192784D01*
X408432D01*
X407416Y1193800D01*
X408432Y1194816D01*
X407416D01*
X406400Y1195832D01*
X405384Y1194816D01*
X404368D01*
X405384Y1193800D01*
X404368Y1192784D01*
X405384D01*
X406400Y1191768D01*
X342900Y1166368D02*
X343916Y1167384D01*
X344932D01*
X343916Y1168400D01*
X344932Y1169416D01*
X343916D01*
X342900Y1170432D01*
X341884Y1169416D01*
X340868D01*
X341884Y1168400D01*
X340868Y1167384D01*
X341884D01*
X342900Y1166368D01*
X2622550Y759968D02*
X2620518Y764032D01*
X2624582D01*
X2622550Y759968D01*
X2520950D02*
X2518918Y764032D01*
X2522982D01*
X2520950Y759968D01*
X2597150Y810768D02*
X2598166Y811784D01*
X2599182D01*
X2598166Y812800D01*
X2599182Y813816D01*
X2598166D01*
X2597150Y814832D01*
X2596134Y813816D01*
X2595118D01*
X2596134Y812800D01*
X2595118Y811784D01*
X2596134D01*
X2597150Y810768D01*
X2533650Y785368D02*
X2534666Y786384D01*
X2535682D01*
X2534666Y787400D01*
X2535682Y788416D01*
X2534666D01*
X2533650Y789432D01*
X2532634Y788416D01*
X2531618D01*
X2532634Y787400D01*
X2531618Y786384D01*
X2532634D01*
X2533650Y785368D01*
X652465Y213868D02*
X653481Y214884D01*
X654497D01*
X653481Y215900D01*
X654497Y216916D01*
X653481D01*
X652465Y217932D01*
X651449Y216916D01*
X650433D01*
X651449Y215900D01*
X650433Y214884D01*
X651449D01*
X652465Y213868D01*
X715965Y239268D02*
X716981Y240284D01*
X717997D01*
X716981Y241300D01*
X717997Y242316D01*
X716981D01*
X715965Y243332D01*
X714949Y242316D01*
X713933D01*
X714949Y241300D01*
X713933Y240284D01*
X714949D01*
X715965Y239268D01*
X639765Y188468D02*
X637733Y192532D01*
X641797D01*
X639765Y188468D01*
X741365D02*
X739333Y192532D01*
X743397D01*
X741365Y188468D01*
X414335Y213868D02*
X415351Y214884D01*
X416367D01*
X415351Y215900D01*
X416367Y216916D01*
X415351D01*
X414335Y217932D01*
X413319Y216916D01*
X412303D01*
X413319Y215900D01*
X412303Y214884D01*
X413319D01*
X414335Y213868D01*
X477835Y239268D02*
X478851Y240284D01*
X479867D01*
X478851Y241300D01*
X479867Y242316D01*
X478851D01*
X477835Y243332D01*
X476819Y242316D01*
X475803D01*
X476819Y241300D01*
X475803Y240284D01*
X476819D01*
X477835Y239268D01*
X401635Y188468D02*
X399603Y192532D01*
X403667D01*
X401635Y188468D01*
X503235D02*
X501203Y192532D01*
X505267D01*
X503235Y188468D01*
X176213Y213868D02*
X177229Y214884D01*
X178244D01*
X177229Y215900D01*
X178244Y216916D01*
X177229D01*
X176213Y217932D01*
X175196Y216916D01*
X174181D01*
X175196Y215900D01*
X174181Y214884D01*
X175196D01*
X176213Y213868D01*
X239713Y239268D02*
X240728Y240284D01*
X241744D01*
X240728Y241300D01*
X241744Y242316D01*
X240728D01*
X239713Y243332D01*
X238696Y242316D01*
X237680D01*
X238696Y241300D01*
X237680Y240284D01*
X238696D01*
X239713Y239268D01*
X163512Y188468D02*
X161481Y192532D01*
X165544D01*
X163512Y188468D01*
X265112D02*
X263081Y192532D01*
X267145D01*
X265112Y188468D01*
X188151Y461518D02*
X189167Y463550D01*
X188151Y465582D01*
X190182Y464566D01*
X192215Y465582D01*
X191199Y463550D01*
X192215Y461518D01*
X190182Y462534D01*
X188151Y461518D01*
X360363Y378968D02*
X358330Y383032D01*
X362394D01*
X360363Y378968D01*
X258762D02*
X256730Y383032D01*
X260795D01*
X258762Y378968D01*
X334963Y429768D02*
X335979Y430784D01*
X336995D01*
X335979Y431800D01*
X336995Y432816D01*
X335979D01*
X334963Y433832D01*
X333946Y432816D01*
X332930D01*
X333946Y431800D01*
X332930Y430784D01*
X333946D01*
X334963Y429768D01*
X271462Y404368D02*
X272479Y405384D01*
X273494D01*
X272479Y406400D01*
X273494Y407416D01*
X272479D01*
X271462Y408432D01*
X270446Y407416D01*
X269431D01*
X270446Y406400D01*
X269431Y405384D01*
X270446D01*
X271462Y404368D01*
X189167Y310134D02*
Y309118D01*
X191199D01*
Y310134D01*
X192215D01*
Y312166D01*
X191199D01*
Y313182D01*
X189167D01*
Y312166D01*
X188151D01*
Y310134D01*
X189167D01*
X426911Y461518D02*
X427926Y463550D01*
X426911Y465582D01*
X428942Y464566D01*
X430975Y465582D01*
X429958Y463550D01*
X430975Y461518D01*
X428942Y462534D01*
X426911Y461518D01*
X427926Y310134D02*
Y309118D01*
X429958D01*
Y310134D01*
X430975D01*
Y312166D01*
X429958D01*
Y313182D01*
X427926D01*
Y312166D01*
X426911D01*
Y310134D01*
X427926D01*
X312738Y569468D02*
X310706Y573532D01*
X314769D01*
X312738Y569468D01*
X211138D02*
X209105Y573532D01*
X213169D01*
X211138Y569468D01*
X287337Y620268D02*
X288354Y621284D01*
X289370D01*
X288354Y622300D01*
X289370Y623316D01*
X288354D01*
X287337Y624332D01*
X286322Y623316D01*
X285306D01*
X286322Y622300D01*
X285306Y621284D01*
X286322D01*
X287337Y620268D01*
X223838Y594868D02*
X224853Y595884D01*
X225870D01*
X224853Y596900D01*
X225870Y597916D01*
X224853D01*
X223838Y598932D01*
X222822Y597916D01*
X221805D01*
X222822Y596900D01*
X221805Y595884D01*
X222822D01*
X223838Y594868D01*
X288925Y759968D02*
X286893Y764032D01*
X290957D01*
X288925Y759968D01*
X187325D02*
X185293Y764032D01*
X189357D01*
X187325Y759968D01*
X263525Y810768D02*
X264541Y811784D01*
X265557D01*
X264541Y812800D01*
X265557Y813816D01*
X264541D01*
X263525Y814832D01*
X262509Y813816D01*
X261493D01*
X262509Y812800D01*
X261493Y811784D01*
X262509D01*
X263525Y810768D01*
X200025Y785368D02*
X201041Y786384D01*
X202057D01*
X201041Y787400D01*
X202057Y788416D01*
X201041D01*
X200025Y789432D01*
X199009Y788416D01*
X197993D01*
X199009Y787400D01*
X197993Y786384D01*
X199009D01*
X200025Y785368D01*
X2880614Y881634D02*
Y880618D01*
X2882646D01*
Y881634D01*
X2883662D01*
Y883666D01*
X2882646D01*
Y884682D01*
X2880614D01*
Y883666D01*
X2879598D01*
Y881634D01*
X2880614D01*
X2879598Y1033018D02*
X2880614Y1035050D01*
X2879598Y1037082D01*
X2881630Y1036066D01*
X2883662Y1037082D01*
X2882646Y1035050D01*
X2883662Y1033018D01*
X2881630Y1034034D01*
X2879598Y1033018D01*
X2641854Y881634D02*
Y880618D01*
X2643886D01*
Y881634D01*
X2644902D01*
Y883666D01*
X2643886D01*
Y884682D01*
X2641854D01*
Y883666D01*
X2640838D01*
Y881634D01*
X2641854D01*
X2640838Y1033018D02*
X2641854Y1035050D01*
X2640838Y1037082D01*
X2642870Y1036066D01*
X2644902Y1037082D01*
X2643886Y1035050D01*
X2644902Y1033018D01*
X2642870Y1034034D01*
X2640838Y1033018D01*
X2724150Y975868D02*
X2725166Y976884D01*
X2726182D01*
X2725166Y977900D01*
X2726182Y978916D01*
X2725166D01*
X2724150Y979932D01*
X2723134Y978916D01*
X2722118D01*
X2723134Y977900D01*
X2722118Y976884D01*
X2723134D01*
X2724150Y975868D01*
X2787650Y1001268D02*
X2788666Y1002284D01*
X2789682D01*
X2788666Y1003300D01*
X2789682Y1004316D01*
X2788666D01*
X2787650Y1005332D01*
X2786634Y1004316D01*
X2785618D01*
X2786634Y1003300D01*
X2785618Y1002284D01*
X2786634D01*
X2787650Y1001268D01*
X2711450Y950468D02*
X2709418Y954532D01*
X2713482D01*
X2711450Y950468D01*
X2813050D02*
X2811018Y954532D01*
X2815082D01*
X2813050Y950468D01*
X2860675Y759968D02*
X2858643Y764032D01*
X2862707D01*
X2860675Y759968D01*
X2759075D02*
X2757043Y764032D01*
X2761107D01*
X2759075Y759968D01*
X2835275Y810768D02*
X2836291Y811784D01*
X2837307D01*
X2836291Y812800D01*
X2837307Y813816D01*
X2836291D01*
X2835275Y814832D01*
X2834259Y813816D01*
X2833243D01*
X2834259Y812800D01*
X2833243Y811784D01*
X2834259D01*
X2835275Y810768D01*
X2771775Y785368D02*
X2772791Y786384D01*
X2773807D01*
X2772791Y787400D01*
X2773807Y788416D01*
X2772791D01*
X2771775Y789432D01*
X2770759Y788416D01*
X2769743D01*
X2770759Y787400D01*
X2769743Y786384D01*
X2770759D01*
X2771775Y785368D01*
X2617031Y652018D02*
X2618047Y654050D01*
X2617031Y656082D01*
X2619062Y655066D01*
X2621095Y656082D01*
X2620079Y654050D01*
X2621095Y652018D01*
X2619062Y653034D01*
X2617031Y652018D01*
X2789243Y569468D02*
X2787211Y573532D01*
X2791275D01*
X2789243Y569468D01*
X2687643D02*
X2685611Y573532D01*
X2689675D01*
X2687643Y569468D01*
X2763842Y620268D02*
X2764859Y621284D01*
X2765875D01*
X2764859Y622300D01*
X2765875Y623316D01*
X2764859D01*
X2763842Y624332D01*
X2762827Y623316D01*
X2761811D01*
X2762827Y622300D01*
X2761811Y621284D01*
X2762827D01*
X2763842Y620268D01*
X2700343Y594868D02*
X2701359Y595884D01*
X2702375D01*
X2701359Y596900D01*
X2702375Y597916D01*
X2701359D01*
X2700343Y598932D01*
X2699326Y597916D01*
X2698311D01*
X2699326Y596900D01*
X2698311Y595884D01*
X2699326D01*
X2700343Y594868D01*
X2618047Y500634D02*
Y499618D01*
X2620079D01*
Y500634D01*
X2621095D01*
Y502666D01*
X2620079D01*
Y503682D01*
X2618047D01*
Y502666D01*
X2617031D01*
Y500634D01*
X2618047D01*
X2855791Y652018D02*
X2856807Y654050D01*
X2855791Y656082D01*
X2857823Y655066D01*
X2859855Y656082D01*
X2858839Y654050D01*
X2859855Y652018D01*
X2857823Y653034D01*
X2855791Y652018D01*
X2856807Y500634D02*
Y499618D01*
X2858839D01*
Y500634D01*
X2859855D01*
Y502666D01*
X2858839D01*
Y503682D01*
X2856807D01*
Y502666D01*
X2855791D01*
Y500634D01*
X2856807D01*
X2646357Y378968D02*
X2644325Y383032D01*
X2648389D01*
X2646357Y378968D01*
X2544757D02*
X2542725Y383032D01*
X2546789D01*
X2544757Y378968D01*
X2620957Y429768D02*
X2621973Y430784D01*
X2622990D01*
X2621973Y431800D01*
X2622990Y432816D01*
X2621973D01*
X2620957Y433832D01*
X2619941Y432816D01*
X2618925D01*
X2619941Y431800D01*
X2618925Y430784D01*
X2619941D01*
X2620957Y429768D01*
X2557457Y404368D02*
X2558473Y405384D01*
X2559489D01*
X2558473Y406400D01*
X2559489Y407416D01*
X2558473D01*
X2557457Y408432D01*
X2556441Y407416D01*
X2555425D01*
X2556441Y406400D01*
X2555425Y405384D01*
X2556441D01*
X2557457Y404368D01*
X1455735Y188468D02*
X1453703Y192532D01*
X1457767D01*
X1455735Y188468D01*
X1354135D02*
X1352103Y192532D01*
X1356167D01*
X1354135Y188468D01*
X1430335Y239268D02*
X1431351Y240284D01*
X1432367D01*
X1431351Y241300D01*
X1432367Y242316D01*
X1431351D01*
X1430335Y243332D01*
X1429319Y242316D01*
X1428303D01*
X1429319Y241300D01*
X1428303Y240284D01*
X1429319D01*
X1430335Y239268D01*
X1366835Y213868D02*
X1367851Y214884D01*
X1368867D01*
X1367851Y215900D01*
X1368867Y216916D01*
X1367851D01*
X1366835Y217932D01*
X1365819Y216916D01*
X1364803D01*
X1365819Y215900D01*
X1364803Y214884D01*
X1365819D01*
X1366835Y213868D01*
X902903Y271018D02*
X903919Y273050D01*
X902903Y275082D01*
X904935Y274066D01*
X906967Y275082D01*
X905951Y273050D01*
X906967Y271018D01*
X904935Y272034D01*
X902903Y271018D01*
X903919Y119634D02*
Y118618D01*
X905951D01*
Y119634D01*
X906967D01*
Y121666D01*
X905951D01*
Y122682D01*
X903919D01*
Y121666D01*
X902903D01*
Y119634D01*
X903919D01*
X1902903Y271018D02*
X1903919Y273050D01*
X1902903Y275082D01*
X1904935Y274066D01*
X1906967Y275082D01*
X1905951Y273050D01*
X1906967Y271018D01*
X1904935Y272034D01*
X1902903Y271018D01*
X1903919Y119634D02*
Y118618D01*
X1905951D01*
Y119634D01*
X1906967D01*
Y121666D01*
X1905951D01*
Y122682D01*
X1903919D01*
Y121666D01*
X1902903D01*
Y119634D01*
X1903919D01*
X152400Y1166368D02*
X153416Y1167384D01*
X154432D01*
X153416Y1168400D01*
X154432Y1169416D01*
X153416D01*
X152400Y1170432D01*
X151384Y1169416D01*
X150368D01*
X151384Y1168400D01*
X150368Y1167384D01*
X151384D01*
X152400Y1166368D01*
X215900Y1191768D02*
X216916Y1192784D01*
X217932D01*
X216916Y1193800D01*
X217932Y1194816D01*
X216916D01*
X215900Y1195832D01*
X214884Y1194816D01*
X213868D01*
X214884Y1193800D01*
X213868Y1192784D01*
X214884D01*
X215900Y1191768D01*
X139700Y1140968D02*
X137668Y1145032D01*
X141732D01*
X139700Y1140968D01*
X241300D02*
X239268Y1145032D01*
X243332D01*
X241300Y1140968D01*
X533400Y1166368D02*
X534416Y1167384D01*
X535432D01*
X534416Y1168400D01*
X535432Y1169416D01*
X534416D01*
X533400Y1170432D01*
X532384Y1169416D01*
X531368D01*
X532384Y1168400D01*
X531368Y1167384D01*
X532384D01*
X533400Y1166368D01*
X596900Y1191768D02*
X597916Y1192784D01*
X598932D01*
X597916Y1193800D01*
X598932Y1194816D01*
X597916D01*
X596900Y1195832D01*
X595884Y1194816D01*
X594868D01*
X595884Y1193800D01*
X594868Y1192784D01*
X595884D01*
X596900Y1191768D01*
X520700Y1140968D02*
X518668Y1145032D01*
X522732D01*
X520700Y1140968D01*
X622300D02*
X620268Y1145032D01*
X624332D01*
X622300Y1140968D01*
X723900Y1166368D02*
X724916Y1167384D01*
X725932D01*
X724916Y1168400D01*
X725932Y1169416D01*
X724916D01*
X723900Y1170432D01*
X722884Y1169416D01*
X721868D01*
X722884Y1168400D01*
X721868Y1167384D01*
X722884D01*
X723900Y1166368D01*
X787400Y1191768D02*
X788416Y1192784D01*
X789432D01*
X788416Y1193800D01*
X789432Y1194816D01*
X788416D01*
X787400Y1195832D01*
X786384Y1194816D01*
X785368D01*
X786384Y1193800D01*
X785368Y1192784D01*
X786384D01*
X787400Y1191768D01*
X711200Y1140968D02*
X709168Y1145032D01*
X713232D01*
X711200Y1140968D01*
X812800D02*
X810768Y1145032D01*
X814832D01*
X812800Y1140968D01*
X914400Y1166368D02*
X915416Y1167384D01*
X916432D01*
X915416Y1168400D01*
X916432Y1169416D01*
X915416D01*
X914400Y1170432D01*
X913384Y1169416D01*
X912368D01*
X913384Y1168400D01*
X912368Y1167384D01*
X913384D01*
X914400Y1166368D01*
X977900Y1191768D02*
X978916Y1192784D01*
X979932D01*
X978916Y1193800D01*
X979932Y1194816D01*
X978916D01*
X977900Y1195832D01*
X976884Y1194816D01*
X975868D01*
X976884Y1193800D01*
X975868Y1192784D01*
X976884D01*
X977900Y1191768D01*
X901700Y1140968D02*
X899668Y1145032D01*
X903732D01*
X901700Y1140968D01*
X1003300D02*
X1001268Y1145032D01*
X1005332D01*
X1003300Y1140968D01*
X1104900Y1166368D02*
X1105916Y1167384D01*
X1106932D01*
X1105916Y1168400D01*
X1106932Y1169416D01*
X1105916D01*
X1104900Y1170432D01*
X1103884Y1169416D01*
X1102868D01*
X1103884Y1168400D01*
X1102868Y1167384D01*
X1103884D01*
X1104900Y1166368D01*
X1168400Y1191768D02*
X1169416Y1192784D01*
X1170432D01*
X1169416Y1193800D01*
X1170432Y1194816D01*
X1169416D01*
X1168400Y1195832D01*
X1167384Y1194816D01*
X1166368D01*
X1167384Y1193800D01*
X1166368Y1192784D01*
X1167384D01*
X1168400Y1191768D01*
X1092200Y1140968D02*
X1090168Y1145032D01*
X1094232D01*
X1092200Y1140968D01*
X1193800D02*
X1191768Y1145032D01*
X1195832D01*
X1193800Y1140968D01*
X1295400Y1166368D02*
X1296416Y1167384D01*
X1297432D01*
X1296416Y1168400D01*
X1297432Y1169416D01*
X1296416D01*
X1295400Y1170432D01*
X1294384Y1169416D01*
X1293368D01*
X1294384Y1168400D01*
X1293368Y1167384D01*
X1294384D01*
X1295400Y1166368D01*
X1358900Y1191768D02*
X1359916Y1192784D01*
X1360932D01*
X1359916Y1193800D01*
X1360932Y1194816D01*
X1359916D01*
X1358900Y1195832D01*
X1357884Y1194816D01*
X1356868D01*
X1357884Y1193800D01*
X1356868Y1192784D01*
X1357884D01*
X1358900Y1191768D01*
X1282700Y1140968D02*
X1280668Y1145032D01*
X1284732D01*
X1282700Y1140968D01*
X1384300D02*
X1382268Y1145032D01*
X1386332D01*
X1384300Y1140968D01*
X1485900Y1166368D02*
X1486916Y1167384D01*
X1487932D01*
X1486916Y1168400D01*
X1487932Y1169416D01*
X1486916D01*
X1485900Y1170432D01*
X1484884Y1169416D01*
X1483868D01*
X1484884Y1168400D01*
X1483868Y1167384D01*
X1484884D01*
X1485900Y1166368D01*
X1549400Y1191768D02*
X1550416Y1192784D01*
X1551432D01*
X1550416Y1193800D01*
X1551432Y1194816D01*
X1550416D01*
X1549400Y1195832D01*
X1548384Y1194816D01*
X1547368D01*
X1548384Y1193800D01*
X1547368Y1192784D01*
X1548384D01*
X1549400Y1191768D01*
X1473200Y1140968D02*
X1471168Y1145032D01*
X1475232D01*
X1473200Y1140968D01*
X1574800D02*
X1572768Y1145032D01*
X1576832D01*
X1574800Y1140968D01*
X1676400Y1166368D02*
X1677416Y1167384D01*
X1678432D01*
X1677416Y1168400D01*
X1678432Y1169416D01*
X1677416D01*
X1676400Y1170432D01*
X1675384Y1169416D01*
X1674368D01*
X1675384Y1168400D01*
X1674368Y1167384D01*
X1675384D01*
X1676400Y1166368D01*
X1739900Y1191768D02*
X1740916Y1192784D01*
X1741932D01*
X1740916Y1193800D01*
X1741932Y1194816D01*
X1740916D01*
X1739900Y1195832D01*
X1738884Y1194816D01*
X1737868D01*
X1738884Y1193800D01*
X1737868Y1192784D01*
X1738884D01*
X1739900Y1191768D01*
X1663700Y1140968D02*
X1661668Y1145032D01*
X1665732D01*
X1663700Y1140968D01*
X1765300D02*
X1763268Y1145032D01*
X1767332D01*
X1765300Y1140968D01*
X1866900Y1166368D02*
X1867916Y1167384D01*
X1868932D01*
X1867916Y1168400D01*
X1868932Y1169416D01*
X1867916D01*
X1866900Y1170432D01*
X1865884Y1169416D01*
X1864868D01*
X1865884Y1168400D01*
X1864868Y1167384D01*
X1865884D01*
X1866900Y1166368D01*
X1930400Y1191768D02*
X1931416Y1192784D01*
X1932432D01*
X1931416Y1193800D01*
X1932432Y1194816D01*
X1931416D01*
X1930400Y1195832D01*
X1929384Y1194816D01*
X1928368D01*
X1929384Y1193800D01*
X1928368Y1192784D01*
X1929384D01*
X1930400Y1191768D01*
X1854200Y1140968D02*
X1852168Y1145032D01*
X1856232D01*
X1854200Y1140968D01*
X1955800D02*
X1953768Y1145032D01*
X1957832D01*
X1955800Y1140968D01*
X2057400Y1166368D02*
X2058416Y1167384D01*
X2059432D01*
X2058416Y1168400D01*
X2059432Y1169416D01*
X2058416D01*
X2057400Y1170432D01*
X2056384Y1169416D01*
X2055368D01*
X2056384Y1168400D01*
X2055368Y1167384D01*
X2056384D01*
X2057400Y1166368D01*
X2120900Y1191768D02*
X2121916Y1192784D01*
X2122932D01*
X2121916Y1193800D01*
X2122932Y1194816D01*
X2121916D01*
X2120900Y1195832D01*
X2119884Y1194816D01*
X2118868D01*
X2119884Y1193800D01*
X2118868Y1192784D01*
X2119884D01*
X2120900Y1191768D01*
X2044700Y1140968D02*
X2042668Y1145032D01*
X2046732D01*
X2044700Y1140968D01*
X2146300D02*
X2144268Y1145032D01*
X2148332D01*
X2146300Y1140968D01*
X2247900Y1166368D02*
X2248916Y1167384D01*
X2249932D01*
X2248916Y1168400D01*
X2249932Y1169416D01*
X2248916D01*
X2247900Y1170432D01*
X2246884Y1169416D01*
X2245868D01*
X2246884Y1168400D01*
X2245868Y1167384D01*
X2246884D01*
X2247900Y1166368D01*
X2311400Y1191768D02*
X2312416Y1192784D01*
X2313432D01*
X2312416Y1193800D01*
X2313432Y1194816D01*
X2312416D01*
X2311400Y1195832D01*
X2310384Y1194816D01*
X2309368D01*
X2310384Y1193800D01*
X2309368Y1192784D01*
X2310384D01*
X2311400Y1191768D01*
X2235200Y1140968D02*
X2233168Y1145032D01*
X2237232D01*
X2235200Y1140968D01*
X2336800D02*
X2334768Y1145032D01*
X2338832D01*
X2336800Y1140968D01*
X2438400Y1166368D02*
X2439416Y1167384D01*
X2440432D01*
X2439416Y1168400D01*
X2440432Y1169416D01*
X2439416D01*
X2438400Y1170432D01*
X2437384Y1169416D01*
X2436368D01*
X2437384Y1168400D01*
X2436368Y1167384D01*
X2437384D01*
X2438400Y1166368D01*
X2501900Y1191768D02*
X2502916Y1192784D01*
X2503932D01*
X2502916Y1193800D01*
X2503932Y1194816D01*
X2502916D01*
X2501900Y1195832D01*
X2500884Y1194816D01*
X2499868D01*
X2500884Y1193800D01*
X2499868Y1192784D01*
X2500884D01*
X2501900Y1191768D01*
X2425700Y1140968D02*
X2423668Y1145032D01*
X2427732D01*
X2425700Y1140968D01*
X2527300D02*
X2525268Y1145032D01*
X2529332D01*
X2527300Y1140968D01*
X2628900Y1166368D02*
X2629916Y1167384D01*
X2630932D01*
X2629916Y1168400D01*
X2630932Y1169416D01*
X2629916D01*
X2628900Y1170432D01*
X2627884Y1169416D01*
X2626868D01*
X2627884Y1168400D01*
X2626868Y1167384D01*
X2627884D01*
X2628900Y1166368D01*
X2692400Y1191768D02*
X2693416Y1192784D01*
X2694432D01*
X2693416Y1193800D01*
X2694432Y1194816D01*
X2693416D01*
X2692400Y1195832D01*
X2691384Y1194816D01*
X2690368D01*
X2691384Y1193800D01*
X2690368Y1192784D01*
X2691384D01*
X2692400Y1191768D01*
X2616200Y1140968D02*
X2614168Y1145032D01*
X2618232D01*
X2616200Y1140968D01*
X2717800D02*
X2715768Y1145032D01*
X2719832D01*
X2717800Y1140968D01*
X2819400Y1166368D02*
X2820416Y1167384D01*
X2821432D01*
X2820416Y1168400D01*
X2821432Y1169416D01*
X2820416D01*
X2819400Y1170432D01*
X2818384Y1169416D01*
X2817368D01*
X2818384Y1168400D01*
X2817368Y1167384D01*
X2818384D01*
X2819400Y1166368D01*
X2882900Y1191768D02*
X2883916Y1192784D01*
X2884932D01*
X2883916Y1193800D01*
X2884932Y1194816D01*
X2883916D01*
X2882900Y1195832D01*
X2881884Y1194816D01*
X2880868D01*
X2881884Y1193800D01*
X2880868Y1192784D01*
X2881884D01*
X2882900Y1191768D01*
X2806700Y1140968D02*
X2804668Y1145032D01*
X2808732D01*
X2806700Y1140968D01*
X2908300D02*
X2906268Y1145032D01*
X2910332D01*
X2908300Y1140968D01*
X3009900Y1166368D02*
X3010916Y1167384D01*
X3011932D01*
X3010916Y1168400D01*
X3011932Y1169416D01*
X3010916D01*
X3009900Y1170432D01*
X3008884Y1169416D01*
X3007868D01*
X3008884Y1168400D01*
X3007868Y1167384D01*
X3008884D01*
X3009900Y1166368D01*
X3073400Y1191768D02*
X3074416Y1192784D01*
X3075432D01*
X3074416Y1193800D01*
X3075432Y1194816D01*
X3074416D01*
X3073400Y1195832D01*
X3072384Y1194816D01*
X3071368D01*
X3072384Y1193800D01*
X3071368Y1192784D01*
X3072384D01*
X3073400Y1191768D01*
X2997200Y1140968D02*
X2995168Y1145032D01*
X2999232D01*
X2997200Y1140968D01*
X3098800D02*
X3096768Y1145032D01*
X3100832D01*
X3098800Y1140968D01*
X342900Y975868D02*
X343916Y976884D01*
X344932D01*
X343916Y977900D01*
X344932Y978916D01*
X343916D01*
X342900Y979932D01*
X341884Y978916D01*
X340868D01*
X341884Y977900D01*
X340868Y976884D01*
X341884D01*
X342900Y975868D01*
X406400Y1001268D02*
X407416Y1002284D01*
X408432D01*
X407416Y1003300D01*
X408432Y1004316D01*
X407416D01*
X406400Y1005332D01*
X405384Y1004316D01*
X404368D01*
X405384Y1003300D01*
X404368Y1002284D01*
X405384D01*
X406400Y1001268D01*
X330200Y950468D02*
X328168Y954532D01*
X332232D01*
X330200Y950468D01*
X431800D02*
X429768Y954532D01*
X433832D01*
X431800Y950468D01*
X152400Y975868D02*
X153416Y976884D01*
X154432D01*
X153416Y977900D01*
X154432Y978916D01*
X153416D01*
X152400Y979932D01*
X151384Y978916D01*
X150368D01*
X151384Y977900D01*
X150368Y976884D01*
X151384D01*
X152400Y975868D01*
X215900Y1001268D02*
X216916Y1002284D01*
X217932D01*
X216916Y1003300D01*
X217932Y1004316D01*
X216916D01*
X215900Y1005332D01*
X214884Y1004316D01*
X213868D01*
X214884Y1003300D01*
X213868Y1002284D01*
X214884D01*
X215900Y1001268D01*
X139700Y950468D02*
X137668Y954532D01*
X141732D01*
X139700Y950468D01*
X241300D02*
X239268Y954532D01*
X243332D01*
X241300Y950468D01*
X533400Y975868D02*
X534416Y976884D01*
X535432D01*
X534416Y977900D01*
X535432Y978916D01*
X534416D01*
X533400Y979932D01*
X532384Y978916D01*
X531368D01*
X532384Y977900D01*
X531368Y976884D01*
X532384D01*
X533400Y975868D01*
X596900Y1001268D02*
X597916Y1002284D01*
X598932D01*
X597916Y1003300D01*
X598932Y1004316D01*
X597916D01*
X596900Y1005332D01*
X595884Y1004316D01*
X594868D01*
X595884Y1003300D01*
X594868Y1002284D01*
X595884D01*
X596900Y1001268D01*
X520700Y950468D02*
X518668Y954532D01*
X522732D01*
X520700Y950468D01*
X622300D02*
X620268Y954532D01*
X624332D01*
X622300Y950468D01*
X723900Y975868D02*
X724916Y976884D01*
X725932D01*
X724916Y977900D01*
X725932Y978916D01*
X724916D01*
X723900Y979932D01*
X722884Y978916D01*
X721868D01*
X722884Y977900D01*
X721868Y976884D01*
X722884D01*
X723900Y975868D01*
X787400Y1001268D02*
X788416Y1002284D01*
X789432D01*
X788416Y1003300D01*
X789432Y1004316D01*
X788416D01*
X787400Y1005332D01*
X786384Y1004316D01*
X785368D01*
X786384Y1003300D01*
X785368Y1002284D01*
X786384D01*
X787400Y1001268D01*
X711200Y950468D02*
X709168Y954532D01*
X713232D01*
X711200Y950468D01*
X812800D02*
X810768Y954532D01*
X814832D01*
X812800Y950468D01*
X914400Y975868D02*
X915416Y976884D01*
X916432D01*
X915416Y977900D01*
X916432Y978916D01*
X915416D01*
X914400Y979932D01*
X913384Y978916D01*
X912368D01*
X913384Y977900D01*
X912368Y976884D01*
X913384D01*
X914400Y975868D01*
X977900Y1001268D02*
X978916Y1002284D01*
X979932D01*
X978916Y1003300D01*
X979932Y1004316D01*
X978916D01*
X977900Y1005332D01*
X976884Y1004316D01*
X975868D01*
X976884Y1003300D01*
X975868Y1002284D01*
X976884D01*
X977900Y1001268D01*
X901700Y950468D02*
X899668Y954532D01*
X903732D01*
X901700Y950468D01*
X1003300D02*
X1001268Y954532D01*
X1005332D01*
X1003300Y950468D01*
X1104900Y975868D02*
X1105916Y976884D01*
X1106932D01*
X1105916Y977900D01*
X1106932Y978916D01*
X1105916D01*
X1104900Y979932D01*
X1103884Y978916D01*
X1102868D01*
X1103884Y977900D01*
X1102868Y976884D01*
X1103884D01*
X1104900Y975868D01*
X1168400Y1001268D02*
X1169416Y1002284D01*
X1170432D01*
X1169416Y1003300D01*
X1170432Y1004316D01*
X1169416D01*
X1168400Y1005332D01*
X1167384Y1004316D01*
X1166368D01*
X1167384Y1003300D01*
X1166368Y1002284D01*
X1167384D01*
X1168400Y1001268D01*
X1092200Y950468D02*
X1090168Y954532D01*
X1094232D01*
X1092200Y950468D01*
X1193800D02*
X1191768Y954532D01*
X1195832D01*
X1193800Y950468D01*
X1295400Y975868D02*
X1296416Y976884D01*
X1297432D01*
X1296416Y977900D01*
X1297432Y978916D01*
X1296416D01*
X1295400Y979932D01*
X1294384Y978916D01*
X1293368D01*
X1294384Y977900D01*
X1293368Y976884D01*
X1294384D01*
X1295400Y975868D01*
X1358900Y1001268D02*
X1359916Y1002284D01*
X1360932D01*
X1359916Y1003300D01*
X1360932Y1004316D01*
X1359916D01*
X1358900Y1005332D01*
X1357884Y1004316D01*
X1356868D01*
X1357884Y1003300D01*
X1356868Y1002284D01*
X1357884D01*
X1358900Y1001268D01*
X1282700Y950468D02*
X1280668Y954532D01*
X1284732D01*
X1282700Y950468D01*
X1384300D02*
X1382268Y954532D01*
X1386332D01*
X1384300Y950468D01*
X1485900Y975868D02*
X1486916Y976884D01*
X1487932D01*
X1486916Y977900D01*
X1487932Y978916D01*
X1486916D01*
X1485900Y979932D01*
X1484884Y978916D01*
X1483868D01*
X1484884Y977900D01*
X1483868Y976884D01*
X1484884D01*
X1485900Y975868D01*
X1549400Y1001268D02*
X1550416Y1002284D01*
X1551432D01*
X1550416Y1003300D01*
X1551432Y1004316D01*
X1550416D01*
X1549400Y1005332D01*
X1548384Y1004316D01*
X1547368D01*
X1548384Y1003300D01*
X1547368Y1002284D01*
X1548384D01*
X1549400Y1001268D01*
X1473200Y950468D02*
X1471168Y954532D01*
X1475232D01*
X1473200Y950468D01*
X1574800D02*
X1572768Y954532D01*
X1576832D01*
X1574800Y950468D01*
X1676400Y975868D02*
X1677416Y976884D01*
X1678432D01*
X1677416Y977900D01*
X1678432Y978916D01*
X1677416D01*
X1676400Y979932D01*
X1675384Y978916D01*
X1674368D01*
X1675384Y977900D01*
X1674368Y976884D01*
X1675384D01*
X1676400Y975868D01*
X1739900Y1001268D02*
X1740916Y1002284D01*
X1741932D01*
X1740916Y1003300D01*
X1741932Y1004316D01*
X1740916D01*
X1739900Y1005332D01*
X1738884Y1004316D01*
X1737868D01*
X1738884Y1003300D01*
X1737868Y1002284D01*
X1738884D01*
X1739900Y1001268D01*
X1663700Y950468D02*
X1661668Y954532D01*
X1665732D01*
X1663700Y950468D01*
X1765300D02*
X1763268Y954532D01*
X1767332D01*
X1765300Y950468D01*
X1866900Y975868D02*
X1867916Y976884D01*
X1868932D01*
X1867916Y977900D01*
X1868932Y978916D01*
X1867916D01*
X1866900Y979932D01*
X1865884Y978916D01*
X1864868D01*
X1865884Y977900D01*
X1864868Y976884D01*
X1865884D01*
X1866900Y975868D01*
X1930400Y1001268D02*
X1931416Y1002284D01*
X1932432D01*
X1931416Y1003300D01*
X1932432Y1004316D01*
X1931416D01*
X1930400Y1005332D01*
X1929384Y1004316D01*
X1928368D01*
X1929384Y1003300D01*
X1928368Y1002284D01*
X1929384D01*
X1930400Y1001268D01*
X1854200Y950468D02*
X1852168Y954532D01*
X1856232D01*
X1854200Y950468D01*
X1955800D02*
X1953768Y954532D01*
X1957832D01*
X1955800Y950468D01*
X2057400Y975868D02*
X2058416Y976884D01*
X2059432D01*
X2058416Y977900D01*
X2059432Y978916D01*
X2058416D01*
X2057400Y979932D01*
X2056384Y978916D01*
X2055368D01*
X2056384Y977900D01*
X2055368Y976884D01*
X2056384D01*
X2057400Y975868D01*
X2120900Y1001268D02*
X2121916Y1002284D01*
X2122932D01*
X2121916Y1003300D01*
X2122932Y1004316D01*
X2121916D01*
X2120900Y1005332D01*
X2119884Y1004316D01*
X2118868D01*
X2119884Y1003300D01*
X2118868Y1002284D01*
X2119884D01*
X2120900Y1001268D01*
X2044700Y950468D02*
X2042668Y954532D01*
X2046732D01*
X2044700Y950468D01*
X2146300D02*
X2144268Y954532D01*
X2148332D01*
X2146300Y950468D01*
X2247900Y975868D02*
X2248916Y976884D01*
X2249932D01*
X2248916Y977900D01*
X2249932Y978916D01*
X2248916D01*
X2247900Y979932D01*
X2246884Y978916D01*
X2245868D01*
X2246884Y977900D01*
X2245868Y976884D01*
X2246884D01*
X2247900Y975868D01*
X2311400Y1001268D02*
X2312416Y1002284D01*
X2313432D01*
X2312416Y1003300D01*
X2313432Y1004316D01*
X2312416D01*
X2311400Y1005332D01*
X2310384Y1004316D01*
X2309368D01*
X2310384Y1003300D01*
X2309368Y1002284D01*
X2310384D01*
X2311400Y1001268D01*
X2235200Y950468D02*
X2233168Y954532D01*
X2237232D01*
X2235200Y950468D01*
X2336800D02*
X2334768Y954532D01*
X2338832D01*
X2336800Y950468D01*
X2438400Y975868D02*
X2439416Y976884D01*
X2440432D01*
X2439416Y977900D01*
X2440432Y978916D01*
X2439416D01*
X2438400Y979932D01*
X2437384Y978916D01*
X2436368D01*
X2437384Y977900D01*
X2436368Y976884D01*
X2437384D01*
X2438400Y975868D01*
X2501900Y1001268D02*
X2502916Y1002284D01*
X2503932D01*
X2502916Y1003300D01*
X2503932Y1004316D01*
X2502916D01*
X2501900Y1005332D01*
X2500884Y1004316D01*
X2499868D01*
X2500884Y1003300D01*
X2499868Y1002284D01*
X2500884D01*
X2501900Y1001268D01*
X2425700Y950468D02*
X2423668Y954532D01*
X2427732D01*
X2425700Y950468D01*
X2527300D02*
X2525268Y954532D01*
X2529332D01*
X2527300Y950468D01*
X3009900Y975868D02*
X3010916Y976884D01*
X3011932D01*
X3010916Y977900D01*
X3011932Y978916D01*
X3010916D01*
X3009900Y979932D01*
X3008884Y978916D01*
X3007868D01*
X3008884Y977900D01*
X3007868Y976884D01*
X3008884D01*
X3009900Y975868D01*
X3073400Y1001268D02*
X3074416Y1002284D01*
X3075432D01*
X3074416Y1003300D01*
X3075432Y1004316D01*
X3074416D01*
X3073400Y1005332D01*
X3072384Y1004316D01*
X3071368D01*
X3072384Y1003300D01*
X3071368Y1002284D01*
X3072384D01*
X3073400Y1001268D01*
X2997200Y950468D02*
X2995168Y954532D01*
X2999232D01*
X2997200Y950468D01*
X3098800D02*
X3096768Y954532D01*
X3100832D01*
X3098800Y950468D01*
X438150Y785368D02*
X439166Y786384D01*
X440182D01*
X439166Y787400D01*
X440182Y788416D01*
X439166D01*
X438150Y789432D01*
X437134Y788416D01*
X436118D01*
X437134Y787400D01*
X436118Y786384D01*
X437134D01*
X438150Y785368D01*
X501650Y810768D02*
X502666Y811784D01*
X503682D01*
X502666Y812800D01*
X503682Y813816D01*
X502666D01*
X501650Y814832D01*
X500634Y813816D01*
X499618D01*
X500634Y812800D01*
X499618Y811784D01*
X500634D01*
X501650Y810768D01*
X425450Y759968D02*
X423418Y764032D01*
X427482D01*
X425450Y759968D01*
X527050D02*
X525018Y764032D01*
X529082D01*
X527050Y759968D01*
X628650Y785368D02*
X629666Y786384D01*
X630682D01*
X629666Y787400D01*
X630682Y788416D01*
X629666D01*
X628650Y789432D01*
X627634Y788416D01*
X626618D01*
X627634Y787400D01*
X626618Y786384D01*
X627634D01*
X628650Y785368D01*
X692150Y810768D02*
X693166Y811784D01*
X694182D01*
X693166Y812800D01*
X694182Y813816D01*
X693166D01*
X692150Y814832D01*
X691134Y813816D01*
X690118D01*
X691134Y812800D01*
X690118Y811784D01*
X691134D01*
X692150Y810768D01*
X615950Y759968D02*
X613918Y764032D01*
X617982D01*
X615950Y759968D01*
X717550D02*
X715518Y764032D01*
X719582D01*
X717550Y759968D01*
X819150Y785368D02*
X820166Y786384D01*
X821182D01*
X820166Y787400D01*
X821182Y788416D01*
X820166D01*
X819150Y789432D01*
X818134Y788416D01*
X817118D01*
X818134Y787400D01*
X817118Y786384D01*
X818134D01*
X819150Y785368D01*
X882650Y810768D02*
X883666Y811784D01*
X884682D01*
X883666Y812800D01*
X884682Y813816D01*
X883666D01*
X882650Y814832D01*
X881634Y813816D01*
X880618D01*
X881634Y812800D01*
X880618Y811784D01*
X881634D01*
X882650Y810768D01*
X806450Y759968D02*
X804418Y764032D01*
X808482D01*
X806450Y759968D01*
X908050D02*
X906018Y764032D01*
X910082D01*
X908050Y759968D01*
X1009650Y785368D02*
X1010666Y786384D01*
X1011682D01*
X1010666Y787400D01*
X1011682Y788416D01*
X1010666D01*
X1009650Y789432D01*
X1008634Y788416D01*
X1007618D01*
X1008634Y787400D01*
X1007618Y786384D01*
X1008634D01*
X1009650Y785368D01*
X1073150Y810768D02*
X1074166Y811784D01*
X1075182D01*
X1074166Y812800D01*
X1075182Y813816D01*
X1074166D01*
X1073150Y814832D01*
X1072134Y813816D01*
X1071118D01*
X1072134Y812800D01*
X1071118Y811784D01*
X1072134D01*
X1073150Y810768D01*
X996950Y759968D02*
X994918Y764032D01*
X998982D01*
X996950Y759968D01*
X1098550D02*
X1096518Y764032D01*
X1100582D01*
X1098550Y759968D01*
X1200150Y785368D02*
X1201166Y786384D01*
X1202182D01*
X1201166Y787400D01*
X1202182Y788416D01*
X1201166D01*
X1200150Y789432D01*
X1199134Y788416D01*
X1198118D01*
X1199134Y787400D01*
X1198118Y786384D01*
X1199134D01*
X1200150Y785368D01*
X1263650Y810768D02*
X1264666Y811784D01*
X1265682D01*
X1264666Y812800D01*
X1265682Y813816D01*
X1264666D01*
X1263650Y814832D01*
X1262634Y813816D01*
X1261618D01*
X1262634Y812800D01*
X1261618Y811784D01*
X1262634D01*
X1263650Y810768D01*
X1187450Y759968D02*
X1185418Y764032D01*
X1189482D01*
X1187450Y759968D01*
X1289050D02*
X1287018Y764032D01*
X1291082D01*
X1289050Y759968D01*
X1390650Y785368D02*
X1391666Y786384D01*
X1392682D01*
X1391666Y787400D01*
X1392682Y788416D01*
X1391666D01*
X1390650Y789432D01*
X1389634Y788416D01*
X1388618D01*
X1389634Y787400D01*
X1388618Y786384D01*
X1389634D01*
X1390650Y785368D01*
X1454150Y810768D02*
X1455166Y811784D01*
X1456182D01*
X1455166Y812800D01*
X1456182Y813816D01*
X1455166D01*
X1454150Y814832D01*
X1453134Y813816D01*
X1452118D01*
X1453134Y812800D01*
X1452118Y811784D01*
X1453134D01*
X1454150Y810768D01*
X1377950Y759968D02*
X1375918Y764032D01*
X1379982D01*
X1377950Y759968D01*
X1479550D02*
X1477518Y764032D01*
X1481582D01*
X1479550Y759968D01*
X1581150Y785368D02*
X1582166Y786384D01*
X1583182D01*
X1582166Y787400D01*
X1583182Y788416D01*
X1582166D01*
X1581150Y789432D01*
X1580134Y788416D01*
X1579118D01*
X1580134Y787400D01*
X1579118Y786384D01*
X1580134D01*
X1581150Y785368D01*
X1644650Y810768D02*
X1645666Y811784D01*
X1646682D01*
X1645666Y812800D01*
X1646682Y813816D01*
X1645666D01*
X1644650Y814832D01*
X1643634Y813816D01*
X1642618D01*
X1643634Y812800D01*
X1642618Y811784D01*
X1643634D01*
X1644650Y810768D01*
X1568450Y759968D02*
X1566418Y764032D01*
X1570482D01*
X1568450Y759968D01*
X1670050D02*
X1668018Y764032D01*
X1672082D01*
X1670050Y759968D01*
X1771650Y785368D02*
X1772666Y786384D01*
X1773682D01*
X1772666Y787400D01*
X1773682Y788416D01*
X1772666D01*
X1771650Y789432D01*
X1770634Y788416D01*
X1769618D01*
X1770634Y787400D01*
X1769618Y786384D01*
X1770634D01*
X1771650Y785368D01*
X1835150Y810768D02*
X1836166Y811784D01*
X1837182D01*
X1836166Y812800D01*
X1837182Y813816D01*
X1836166D01*
X1835150Y814832D01*
X1834134Y813816D01*
X1833118D01*
X1834134Y812800D01*
X1833118Y811784D01*
X1834134D01*
X1835150Y810768D01*
X1758950Y759968D02*
X1756918Y764032D01*
X1760982D01*
X1758950Y759968D01*
X1860550D02*
X1858518Y764032D01*
X1862582D01*
X1860550Y759968D01*
X1962150Y785368D02*
X1963166Y786384D01*
X1964182D01*
X1963166Y787400D01*
X1964182Y788416D01*
X1963166D01*
X1962150Y789432D01*
X1961134Y788416D01*
X1960118D01*
X1961134Y787400D01*
X1960118Y786384D01*
X1961134D01*
X1962150Y785368D01*
X2025650Y810768D02*
X2026666Y811784D01*
X2027682D01*
X2026666Y812800D01*
X2027682Y813816D01*
X2026666D01*
X2025650Y814832D01*
X2024634Y813816D01*
X2023618D01*
X2024634Y812800D01*
X2023618Y811784D01*
X2024634D01*
X2025650Y810768D01*
X1949450Y759968D02*
X1947418Y764032D01*
X1951482D01*
X1949450Y759968D01*
X2051050D02*
X2049018Y764032D01*
X2053082D01*
X2051050Y759968D01*
X2152650Y785368D02*
X2153666Y786384D01*
X2154682D01*
X2153666Y787400D01*
X2154682Y788416D01*
X2153666D01*
X2152650Y789432D01*
X2151634Y788416D01*
X2150618D01*
X2151634Y787400D01*
X2150618Y786384D01*
X2151634D01*
X2152650Y785368D01*
X2216150Y810768D02*
X2217166Y811784D01*
X2218182D01*
X2217166Y812800D01*
X2218182Y813816D01*
X2217166D01*
X2216150Y814832D01*
X2215134Y813816D01*
X2214118D01*
X2215134Y812800D01*
X2214118Y811784D01*
X2215134D01*
X2216150Y810768D01*
X2139950Y759968D02*
X2137918Y764032D01*
X2141982D01*
X2139950Y759968D01*
X2241550D02*
X2239518Y764032D01*
X2243582D01*
X2241550Y759968D01*
X2343150Y785368D02*
X2344166Y786384D01*
X2345182D01*
X2344166Y787400D01*
X2345182Y788416D01*
X2344166D01*
X2343150Y789432D01*
X2342134Y788416D01*
X2341118D01*
X2342134Y787400D01*
X2341118Y786384D01*
X2342134D01*
X2343150Y785368D01*
X2406650Y810768D02*
X2407666Y811784D01*
X2408682D01*
X2407666Y812800D01*
X2408682Y813816D01*
X2407666D01*
X2406650Y814832D01*
X2405634Y813816D01*
X2404618D01*
X2405634Y812800D01*
X2404618Y811784D01*
X2405634D01*
X2406650Y810768D01*
X2330450Y759968D02*
X2328418Y764032D01*
X2332482D01*
X2330450Y759968D01*
X2432050D02*
X2430018Y764032D01*
X2434082D01*
X2432050Y759968D01*
X3009900Y785368D02*
X3010916Y786384D01*
X3011932D01*
X3010916Y787400D01*
X3011932Y788416D01*
X3010916D01*
X3009900Y789432D01*
X3008884Y788416D01*
X3007868D01*
X3008884Y787400D01*
X3007868Y786384D01*
X3008884D01*
X3009900Y785368D01*
X3073400Y810768D02*
X3074416Y811784D01*
X3075432D01*
X3074416Y812800D01*
X3075432Y813816D01*
X3074416D01*
X3073400Y814832D01*
X3072384Y813816D01*
X3071368D01*
X3072384Y812800D01*
X3071368Y811784D01*
X3072384D01*
X3073400Y810768D01*
X2997200Y759968D02*
X2995168Y764032D01*
X2999232D01*
X2997200Y759968D01*
X3098800D02*
X3096768Y764032D01*
X3100832D01*
X3098800Y759968D01*
X485780Y594868D02*
X486796Y595884D01*
X487812D01*
X486796Y596900D01*
X487812Y597916D01*
X486796D01*
X485780Y598932D01*
X484764Y597916D01*
X483748D01*
X484764Y596900D01*
X483748Y595884D01*
X484764D01*
X485780Y594868D01*
X549280Y620268D02*
X550296Y621284D01*
X551312D01*
X550296Y622300D01*
X551312Y623316D01*
X550296D01*
X549280Y624332D01*
X548264Y623316D01*
X547248D01*
X548264Y622300D01*
X547248Y621284D01*
X548264D01*
X549280Y620268D01*
X473080Y569468D02*
X471048Y573532D01*
X475112D01*
X473080Y569468D01*
X574680D02*
X572648Y573532D01*
X576712D01*
X574680Y569468D01*
X676280Y594868D02*
X677296Y595884D01*
X678312D01*
X677296Y596900D01*
X678312Y597916D01*
X677296D01*
X676280Y598932D01*
X675264Y597916D01*
X674248D01*
X675264Y596900D01*
X674248Y595884D01*
X675264D01*
X676280Y594868D01*
X739780Y620268D02*
X740796Y621284D01*
X741812D01*
X740796Y622300D01*
X741812Y623316D01*
X740796D01*
X739780Y624332D01*
X738764Y623316D01*
X737748D01*
X738764Y622300D01*
X737748Y621284D01*
X738764D01*
X739780Y620268D01*
X663580Y569468D02*
X661548Y573532D01*
X665612D01*
X663580Y569468D01*
X765180D02*
X763148Y573532D01*
X767212D01*
X765180Y569468D01*
X866780Y594868D02*
X867796Y595884D01*
X868812D01*
X867796Y596900D01*
X868812Y597916D01*
X867796D01*
X866780Y598932D01*
X865764Y597916D01*
X864748D01*
X865764Y596900D01*
X864748Y595884D01*
X865764D01*
X866780Y594868D01*
X930280Y620268D02*
X931296Y621284D01*
X932312D01*
X931296Y622300D01*
X932312Y623316D01*
X931296D01*
X930280Y624332D01*
X929264Y623316D01*
X928248D01*
X929264Y622300D01*
X928248Y621284D01*
X929264D01*
X930280Y620268D01*
X854080Y569468D02*
X852048Y573532D01*
X856112D01*
X854080Y569468D01*
X955680D02*
X953648Y573532D01*
X957712D01*
X955680Y569468D01*
X1057280Y594868D02*
X1058296Y595884D01*
X1059312D01*
X1058296Y596900D01*
X1059312Y597916D01*
X1058296D01*
X1057280Y598932D01*
X1056264Y597916D01*
X1055248D01*
X1056264Y596900D01*
X1055248Y595884D01*
X1056264D01*
X1057280Y594868D01*
X1120780Y620268D02*
X1121796Y621284D01*
X1122812D01*
X1121796Y622300D01*
X1122812Y623316D01*
X1121796D01*
X1120780Y624332D01*
X1119764Y623316D01*
X1118748D01*
X1119764Y622300D01*
X1118748Y621284D01*
X1119764D01*
X1120780Y620268D01*
X1044580Y569468D02*
X1042548Y573532D01*
X1046612D01*
X1044580Y569468D01*
X1146180D02*
X1144148Y573532D01*
X1148212D01*
X1146180Y569468D01*
X1247780Y594868D02*
X1248796Y595884D01*
X1249812D01*
X1248796Y596900D01*
X1249812Y597916D01*
X1248796D01*
X1247780Y598932D01*
X1246764Y597916D01*
X1245748D01*
X1246764Y596900D01*
X1245748Y595884D01*
X1246764D01*
X1247780Y594868D01*
X1311280Y620268D02*
X1312296Y621284D01*
X1313312D01*
X1312296Y622300D01*
X1313312Y623316D01*
X1312296D01*
X1311280Y624332D01*
X1310264Y623316D01*
X1309248D01*
X1310264Y622300D01*
X1309248Y621284D01*
X1310264D01*
X1311280Y620268D01*
X1235080Y569468D02*
X1233048Y573532D01*
X1237112D01*
X1235080Y569468D01*
X1336680D02*
X1334648Y573532D01*
X1338712D01*
X1336680Y569468D01*
X1438280Y594868D02*
X1439296Y595884D01*
X1440312D01*
X1439296Y596900D01*
X1440312Y597916D01*
X1439296D01*
X1438280Y598932D01*
X1437264Y597916D01*
X1436248D01*
X1437264Y596900D01*
X1436248Y595884D01*
X1437264D01*
X1438280Y594868D01*
X1501780Y620268D02*
X1502796Y621284D01*
X1503812D01*
X1502796Y622300D01*
X1503812Y623316D01*
X1502796D01*
X1501780Y624332D01*
X1500764Y623316D01*
X1499748D01*
X1500764Y622300D01*
X1499748Y621284D01*
X1500764D01*
X1501780Y620268D01*
X1425580Y569468D02*
X1423548Y573532D01*
X1427612D01*
X1425580Y569468D01*
X1527180D02*
X1525148Y573532D01*
X1529212D01*
X1527180Y569468D01*
X1628780Y594868D02*
X1629796Y595884D01*
X1630812D01*
X1629796Y596900D01*
X1630812Y597916D01*
X1629796D01*
X1628780Y598932D01*
X1627764Y597916D01*
X1626748D01*
X1627764Y596900D01*
X1626748Y595884D01*
X1627764D01*
X1628780Y594868D01*
X1692280Y620268D02*
X1693296Y621284D01*
X1694312D01*
X1693296Y622300D01*
X1694312Y623316D01*
X1693296D01*
X1692280Y624332D01*
X1691264Y623316D01*
X1690248D01*
X1691264Y622300D01*
X1690248Y621284D01*
X1691264D01*
X1692280Y620268D01*
X1616080Y569468D02*
X1614048Y573532D01*
X1618112D01*
X1616080Y569468D01*
X1717680D02*
X1715648Y573532D01*
X1719712D01*
X1717680Y569468D01*
X1819280Y594868D02*
X1820296Y595884D01*
X1821312D01*
X1820296Y596900D01*
X1821312Y597916D01*
X1820296D01*
X1819280Y598932D01*
X1818264Y597916D01*
X1817248D01*
X1818264Y596900D01*
X1817248Y595884D01*
X1818264D01*
X1819280Y594868D01*
X1882780Y620268D02*
X1883796Y621284D01*
X1884812D01*
X1883796Y622300D01*
X1884812Y623316D01*
X1883796D01*
X1882780Y624332D01*
X1881764Y623316D01*
X1880748D01*
X1881764Y622300D01*
X1880748Y621284D01*
X1881764D01*
X1882780Y620268D01*
X1806580Y569468D02*
X1804548Y573532D01*
X1808612D01*
X1806580Y569468D01*
X1908180D02*
X1906148Y573532D01*
X1910212D01*
X1908180Y569468D01*
X2009780Y594868D02*
X2010796Y595884D01*
X2011812D01*
X2010796Y596900D01*
X2011812Y597916D01*
X2010796D01*
X2009780Y598932D01*
X2008764Y597916D01*
X2007748D01*
X2008764Y596900D01*
X2007748Y595884D01*
X2008764D01*
X2009780Y594868D01*
X2073280Y620268D02*
X2074296Y621284D01*
X2075312D01*
X2074296Y622300D01*
X2075312Y623316D01*
X2074296D01*
X2073280Y624332D01*
X2072264Y623316D01*
X2071248D01*
X2072264Y622300D01*
X2071248Y621284D01*
X2072264D01*
X2073280Y620268D01*
X1997080Y569468D02*
X1995048Y573532D01*
X1999112D01*
X1997080Y569468D01*
X2098680D02*
X2096648Y573532D01*
X2100712D01*
X2098680Y569468D01*
X2200280Y594868D02*
X2201296Y595884D01*
X2202312D01*
X2201296Y596900D01*
X2202312Y597916D01*
X2201296D01*
X2200280Y598932D01*
X2199264Y597916D01*
X2198248D01*
X2199264Y596900D01*
X2198248Y595884D01*
X2199264D01*
X2200280Y594868D01*
X2263780Y620268D02*
X2264796Y621284D01*
X2265812D01*
X2264796Y622300D01*
X2265812Y623316D01*
X2264796D01*
X2263780Y624332D01*
X2262764Y623316D01*
X2261748D01*
X2262764Y622300D01*
X2261748Y621284D01*
X2262764D01*
X2263780Y620268D01*
X2187580Y569468D02*
X2185548Y573532D01*
X2189612D01*
X2187580Y569468D01*
X2289180D02*
X2287148Y573532D01*
X2291212D01*
X2289180Y569468D01*
X2390780Y594868D02*
X2391796Y595884D01*
X2392812D01*
X2391796Y596900D01*
X2392812Y597916D01*
X2391796D01*
X2390780Y598932D01*
X2389764Y597916D01*
X2388748D01*
X2389764Y596900D01*
X2388748Y595884D01*
X2389764D01*
X2390780Y594868D01*
X2454280Y620268D02*
X2455296Y621284D01*
X2456312D01*
X2455296Y622300D01*
X2456312Y623316D01*
X2455296D01*
X2454280Y624332D01*
X2453264Y623316D01*
X2452248D01*
X2453264Y622300D01*
X2452248Y621284D01*
X2453264D01*
X2454280Y620268D01*
X2378080Y569468D02*
X2376048Y573532D01*
X2380112D01*
X2378080Y569468D01*
X2479680D02*
X2477648Y573532D01*
X2481712D01*
X2479680Y569468D01*
X3009900Y594868D02*
X3010916Y595884D01*
X3011932D01*
X3010916Y596900D01*
X3011932Y597916D01*
X3010916D01*
X3009900Y598932D01*
X3008884Y597916D01*
X3007868D01*
X3008884Y596900D01*
X3007868Y595884D01*
X3008884D01*
X3009900Y594868D01*
X3073400Y620268D02*
X3074416Y621284D01*
X3075432D01*
X3074416Y622300D01*
X3075432Y623316D01*
X3074416D01*
X3073400Y624332D01*
X3072384Y623316D01*
X3071368D01*
X3072384Y622300D01*
X3071368Y621284D01*
X3072384D01*
X3073400Y620268D01*
X2997200Y569468D02*
X2995168Y573532D01*
X2999232D01*
X2997200Y569468D01*
X3098800D02*
X3096768Y573532D01*
X3100832D01*
X3098800Y569468D01*
X581022Y404368D02*
X582038Y405384D01*
X583055D01*
X582038Y406400D01*
X583055Y407416D01*
X582038D01*
X581022Y408432D01*
X580006Y407416D01*
X578991D01*
X580006Y406400D01*
X578991Y405384D01*
X580006D01*
X581022Y404368D01*
X644522Y429768D02*
X645538Y430784D01*
X646554D01*
X645538Y431800D01*
X646554Y432816D01*
X645538D01*
X644522Y433832D01*
X643506Y432816D01*
X642490D01*
X643506Y431800D01*
X642490Y430784D01*
X643506D01*
X644522Y429768D01*
X568322Y378968D02*
X566291Y383032D01*
X570354D01*
X568322Y378968D01*
X669922D02*
X667890Y383032D01*
X671954D01*
X669922Y378968D01*
X771520Y404368D02*
X772536Y405384D01*
X773552D01*
X772536Y406400D01*
X773552Y407416D01*
X772536D01*
X771520Y408432D01*
X770504Y407416D01*
X769488D01*
X770504Y406400D01*
X769488Y405384D01*
X770504D01*
X771520Y404368D01*
X835020Y429768D02*
X836036Y430784D01*
X837052D01*
X836036Y431800D01*
X837052Y432816D01*
X836036D01*
X835020Y433832D01*
X834004Y432816D01*
X832988D01*
X834004Y431800D01*
X832988Y430784D01*
X834004D01*
X835020Y429768D01*
X758820Y378968D02*
X756788Y383032D01*
X760852D01*
X758820Y378968D01*
X860420D02*
X858388Y383032D01*
X862452D01*
X860420Y378968D01*
X962020Y404368D02*
X963036Y405384D01*
X964052D01*
X963036Y406400D01*
X964052Y407416D01*
X963036D01*
X962020Y408432D01*
X961004Y407416D01*
X959988D01*
X961004Y406400D01*
X959988Y405384D01*
X961004D01*
X962020Y404368D01*
X1025520Y429768D02*
X1026536Y430784D01*
X1027552D01*
X1026536Y431800D01*
X1027552Y432816D01*
X1026536D01*
X1025520Y433832D01*
X1024504Y432816D01*
X1023488D01*
X1024504Y431800D01*
X1023488Y430784D01*
X1024504D01*
X1025520Y429768D01*
X949320Y378968D02*
X947288Y383032D01*
X951352D01*
X949320Y378968D01*
X1050920D02*
X1048888Y383032D01*
X1052952D01*
X1050920Y378968D01*
X1152520Y404368D02*
X1153536Y405384D01*
X1154552D01*
X1153536Y406400D01*
X1154552Y407416D01*
X1153536D01*
X1152520Y408432D01*
X1151504Y407416D01*
X1150488D01*
X1151504Y406400D01*
X1150488Y405384D01*
X1151504D01*
X1152520Y404368D01*
X1216020Y429768D02*
X1217036Y430784D01*
X1218052D01*
X1217036Y431800D01*
X1218052Y432816D01*
X1217036D01*
X1216020Y433832D01*
X1215004Y432816D01*
X1213988D01*
X1215004Y431800D01*
X1213988Y430784D01*
X1215004D01*
X1216020Y429768D01*
X1139820Y378968D02*
X1137788Y383032D01*
X1141852D01*
X1139820Y378968D01*
X1241420D02*
X1239388Y383032D01*
X1243452D01*
X1241420Y378968D01*
X1343020Y404368D02*
X1344036Y405384D01*
X1345052D01*
X1344036Y406400D01*
X1345052Y407416D01*
X1344036D01*
X1343020Y408432D01*
X1342004Y407416D01*
X1340988D01*
X1342004Y406400D01*
X1340988Y405384D01*
X1342004D01*
X1343020Y404368D01*
X1406520Y429768D02*
X1407536Y430784D01*
X1408552D01*
X1407536Y431800D01*
X1408552Y432816D01*
X1407536D01*
X1406520Y433832D01*
X1405504Y432816D01*
X1404488D01*
X1405504Y431800D01*
X1404488Y430784D01*
X1405504D01*
X1406520Y429768D01*
X1330320Y378968D02*
X1328288Y383032D01*
X1332352D01*
X1330320Y378968D01*
X1431920D02*
X1429888Y383032D01*
X1433952D01*
X1431920Y378968D01*
X1533520Y404368D02*
X1534536Y405384D01*
X1535552D01*
X1534536Y406400D01*
X1535552Y407416D01*
X1534536D01*
X1533520Y408432D01*
X1532504Y407416D01*
X1531488D01*
X1532504Y406400D01*
X1531488Y405384D01*
X1532504D01*
X1533520Y404368D01*
X1597020Y429768D02*
X1598036Y430784D01*
X1599052D01*
X1598036Y431800D01*
X1599052Y432816D01*
X1598036D01*
X1597020Y433832D01*
X1596004Y432816D01*
X1594988D01*
X1596004Y431800D01*
X1594988Y430784D01*
X1596004D01*
X1597020Y429768D01*
X1520820Y378968D02*
X1518788Y383032D01*
X1522852D01*
X1520820Y378968D01*
X1622420D02*
X1620388Y383032D01*
X1624452D01*
X1622420Y378968D01*
X1724020Y404368D02*
X1725036Y405384D01*
X1726052D01*
X1725036Y406400D01*
X1726052Y407416D01*
X1725036D01*
X1724020Y408432D01*
X1723004Y407416D01*
X1721988D01*
X1723004Y406400D01*
X1721988Y405384D01*
X1723004D01*
X1724020Y404368D01*
X1787520Y429768D02*
X1788536Y430784D01*
X1789552D01*
X1788536Y431800D01*
X1789552Y432816D01*
X1788536D01*
X1787520Y433832D01*
X1786504Y432816D01*
X1785488D01*
X1786504Y431800D01*
X1785488Y430784D01*
X1786504D01*
X1787520Y429768D01*
X1711320Y378968D02*
X1709288Y383032D01*
X1713352D01*
X1711320Y378968D01*
X1812920D02*
X1810888Y383032D01*
X1814952D01*
X1812920Y378968D01*
X1914520Y404368D02*
X1915536Y405384D01*
X1916552D01*
X1915536Y406400D01*
X1916552Y407416D01*
X1915536D01*
X1914520Y408432D01*
X1913504Y407416D01*
X1912488D01*
X1913504Y406400D01*
X1912488Y405384D01*
X1913504D01*
X1914520Y404368D01*
X1978020Y429768D02*
X1979036Y430784D01*
X1980052D01*
X1979036Y431800D01*
X1980052Y432816D01*
X1979036D01*
X1978020Y433832D01*
X1977004Y432816D01*
X1975988D01*
X1977004Y431800D01*
X1975988Y430784D01*
X1977004D01*
X1978020Y429768D01*
X1901820Y378968D02*
X1899788Y383032D01*
X1903852D01*
X1901820Y378968D01*
X2003420D02*
X2001388Y383032D01*
X2005452D01*
X2003420Y378968D01*
X2105020Y404368D02*
X2106036Y405384D01*
X2107052D01*
X2106036Y406400D01*
X2107052Y407416D01*
X2106036D01*
X2105020Y408432D01*
X2104004Y407416D01*
X2102988D01*
X2104004Y406400D01*
X2102988Y405384D01*
X2104004D01*
X2105020Y404368D01*
X2168520Y429768D02*
X2169536Y430784D01*
X2170552D01*
X2169536Y431800D01*
X2170552Y432816D01*
X2169536D01*
X2168520Y433832D01*
X2167504Y432816D01*
X2166488D01*
X2167504Y431800D01*
X2166488Y430784D01*
X2167504D01*
X2168520Y429768D01*
X2092320Y378968D02*
X2090288Y383032D01*
X2094352D01*
X2092320Y378968D01*
X2193920D02*
X2191888Y383032D01*
X2195952D01*
X2193920Y378968D01*
X2295520Y404368D02*
X2296536Y405384D01*
X2297552D01*
X2296536Y406400D01*
X2297552Y407416D01*
X2296536D01*
X2295520Y408432D01*
X2294504Y407416D01*
X2293488D01*
X2294504Y406400D01*
X2293488Y405384D01*
X2294504D01*
X2295520Y404368D01*
X2359020Y429768D02*
X2360036Y430784D01*
X2361052D01*
X2360036Y431800D01*
X2361052Y432816D01*
X2360036D01*
X2359020Y433832D01*
X2358004Y432816D01*
X2356988D01*
X2358004Y431800D01*
X2356988Y430784D01*
X2358004D01*
X2359020Y429768D01*
X2282820Y378968D02*
X2280788Y383032D01*
X2284852D01*
X2282820Y378968D01*
X2384420D02*
X2382388Y383032D01*
X2386452D01*
X2384420Y378968D01*
X2819400Y404368D02*
X2820416Y405384D01*
X2821432D01*
X2820416Y406400D01*
X2821432Y407416D01*
X2820416D01*
X2819400Y408432D01*
X2818384Y407416D01*
X2817368D01*
X2818384Y406400D01*
X2817368Y405384D01*
X2818384D01*
X2819400Y404368D01*
X2882900Y429768D02*
X2883916Y430784D01*
X2884932D01*
X2883916Y431800D01*
X2884932Y432816D01*
X2883916D01*
X2882900Y433832D01*
X2881884Y432816D01*
X2880868D01*
X2881884Y431800D01*
X2880868Y430784D01*
X2881884D01*
X2882900Y429768D01*
X2806700Y378968D02*
X2804668Y383032D01*
X2808732D01*
X2806700Y378968D01*
X2908300D02*
X2906268Y383032D01*
X2910332D01*
X2908300Y378968D01*
X3009900Y404368D02*
X3010916Y405384D01*
X3011932D01*
X3010916Y406400D01*
X3011932Y407416D01*
X3010916D01*
X3009900Y408432D01*
X3008884Y407416D01*
X3007868D01*
X3008884Y406400D01*
X3007868Y405384D01*
X3008884D01*
X3009900Y404368D01*
X3073400Y429768D02*
X3074416Y430784D01*
X3075432D01*
X3074416Y431800D01*
X3075432Y432816D01*
X3074416D01*
X3073400Y433832D01*
X3072384Y432816D01*
X3071368D01*
X3072384Y431800D01*
X3071368Y430784D01*
X3072384D01*
X3073400Y429768D01*
X2997200Y378968D02*
X2995168Y383032D01*
X2999232D01*
X2997200Y378968D01*
X3098800D02*
X3096768Y383032D01*
X3100832D01*
X3098800Y378968D01*
X2057402Y213868D02*
X2058418Y214884D01*
X2059435D01*
X2058418Y215900D01*
X2059435Y216916D01*
X2058418D01*
X2057402Y217932D01*
X2056387Y216916D01*
X2055370D01*
X2056387Y215900D01*
X2055370Y214884D01*
X2056387D01*
X2057402Y213868D01*
X2120903Y239268D02*
X2121918Y240284D01*
X2122935D01*
X2121918Y241300D01*
X2122935Y242316D01*
X2121918D01*
X2120903Y243332D01*
X2119886Y242316D01*
X2118871D01*
X2119886Y241300D01*
X2118871Y240284D01*
X2119886D01*
X2120903Y239268D01*
X2044702Y188468D02*
X2042670Y192532D01*
X2046734D01*
X2044702Y188468D01*
X2146302D02*
X2144270Y192532D01*
X2148335D01*
X2146302Y188468D01*
X2247900Y213868D02*
X2248916Y214884D01*
X2249932D01*
X2248916Y215900D01*
X2249932Y216916D01*
X2248916D01*
X2247900Y217932D01*
X2246884Y216916D01*
X2245868D01*
X2246884Y215900D01*
X2245868Y214884D01*
X2246884D01*
X2247900Y213868D01*
X2311400Y239268D02*
X2312416Y240284D01*
X2313432D01*
X2312416Y241300D01*
X2313432Y242316D01*
X2312416D01*
X2311400Y243332D01*
X2310384Y242316D01*
X2309368D01*
X2310384Y241300D01*
X2309368Y240284D01*
X2310384D01*
X2311400Y239268D01*
X2235200Y188468D02*
X2233168Y192532D01*
X2237232D01*
X2235200Y188468D01*
X2336800D02*
X2334768Y192532D01*
X2338832D01*
X2336800Y188468D01*
X2438400Y213868D02*
X2439416Y214884D01*
X2440432D01*
X2439416Y215900D01*
X2440432Y216916D01*
X2439416D01*
X2438400Y217932D01*
X2437384Y216916D01*
X2436368D01*
X2437384Y215900D01*
X2436368Y214884D01*
X2437384D01*
X2438400Y213868D01*
X2501900Y239268D02*
X2502916Y240284D01*
X2503932D01*
X2502916Y241300D01*
X2503932Y242316D01*
X2502916D01*
X2501900Y243332D01*
X2500884Y242316D01*
X2499868D01*
X2500884Y241300D01*
X2499868Y240284D01*
X2500884D01*
X2501900Y239268D01*
X2425700Y188468D02*
X2423668Y192532D01*
X2427732D01*
X2425700Y188468D01*
X2527300D02*
X2525268Y192532D01*
X2529332D01*
X2527300Y188468D01*
X2628900Y213868D02*
X2629916Y214884D01*
X2630932D01*
X2629916Y215900D01*
X2630932Y216916D01*
X2629916D01*
X2628900Y217932D01*
X2627884Y216916D01*
X2626868D01*
X2627884Y215900D01*
X2626868Y214884D01*
X2627884D01*
X2628900Y213868D01*
X2692400Y239268D02*
X2693416Y240284D01*
X2694432D01*
X2693416Y241300D01*
X2694432Y242316D01*
X2693416D01*
X2692400Y243332D01*
X2691384Y242316D01*
X2690368D01*
X2691384Y241300D01*
X2690368Y240284D01*
X2691384D01*
X2692400Y239268D01*
X2616200Y188468D02*
X2614168Y192532D01*
X2618232D01*
X2616200Y188468D01*
X2717800D02*
X2715768Y192532D01*
X2719832D01*
X2717800Y188468D01*
X2819400Y213868D02*
X2820416Y214884D01*
X2821432D01*
X2820416Y215900D01*
X2821432Y216916D01*
X2820416D01*
X2819400Y217932D01*
X2818384Y216916D01*
X2817368D01*
X2818384Y215900D01*
X2817368Y214884D01*
X2818384D01*
X2819400Y213868D01*
X2882900Y239268D02*
X2883916Y240284D01*
X2884932D01*
X2883916Y241300D01*
X2884932Y242316D01*
X2883916D01*
X2882900Y243332D01*
X2881884Y242316D01*
X2880868D01*
X2881884Y241300D01*
X2880868Y240284D01*
X2881884D01*
X2882900Y239268D01*
X2806700Y188468D02*
X2804668Y192532D01*
X2808732D01*
X2806700Y188468D01*
X2908300D02*
X2906268Y192532D01*
X2910332D01*
X2908300Y188468D01*
X3009900Y213868D02*
X3010916Y214884D01*
X3011932D01*
X3010916Y215900D01*
X3011932Y216916D01*
X3010916D01*
X3009900Y217932D01*
X3008884Y216916D01*
X3007868D01*
X3008884Y215900D01*
X3007868Y214884D01*
X3008884D01*
X3009900Y213868D01*
X3073400Y239268D02*
X3074416Y240284D01*
X3075432D01*
X3074416Y241300D01*
X3075432Y242316D01*
X3074416D01*
X3073400Y243332D01*
X3072384Y242316D01*
X3071368D01*
X3072384Y241300D01*
X3071368Y240284D01*
X3072384D01*
X3073400Y239268D01*
X2997200Y188468D02*
X2995168Y192532D01*
X2999232D01*
X2997200Y188468D01*
X3098800D02*
X3096768Y192532D01*
X3100832D01*
X3098800Y188468D01*
X1837968Y1414468D02*
X1838984D01*
X1840000Y1415484D01*
X1841016Y1414468D01*
X1842032D01*
Y1415484D01*
X1841016Y1416500D01*
X1842032Y1417516D01*
Y1418532D01*
X1841016D01*
X1840000Y1417516D01*
X1838984Y1418532D01*
X1837968D01*
Y1417516D01*
X1838984Y1416500D01*
X1837968Y1415484D01*
Y1414468D01*
X1857968D02*
X1858984D01*
X1860000Y1415484D01*
X1861016Y1414468D01*
X1862032D01*
Y1415484D01*
X1861016Y1416500D01*
X1862032Y1417516D01*
Y1418532D01*
X1861016D01*
X1860000Y1417516D01*
X1858984Y1418532D01*
X1857968D01*
Y1417516D01*
X1858984Y1416500D01*
X1857968Y1415484D01*
Y1414468D01*
X1660418Y1416500D02*
X1662450Y1418532D01*
X1664482Y1416500D01*
X1662450Y1414468D01*
X1660418Y1416500D01*
X1574018D02*
X1576050Y1418532D01*
X1578082Y1416500D01*
X1576050Y1414468D01*
X1574018Y1416500D01*
X1660418Y1362900D02*
X1662450Y1364932D01*
X1664482Y1362900D01*
X1662450Y1360868D01*
X1660418Y1362900D01*
X1574018D02*
X1576050Y1364932D01*
X1578082Y1362900D01*
X1576050Y1360868D01*
X1574018Y1362900D01*
X212281Y135468D02*
Y139532D01*
X216345D01*
Y135468D01*
X212281D01*
X213297Y136484D02*
Y138516D01*
X215329D01*
Y136484D01*
X213297D01*
X450403Y135468D02*
Y139532D01*
X454467D01*
Y135468D01*
X450403D01*
X451419Y136484D02*
Y138516D01*
X453451D01*
Y136484D01*
X451419D01*
X688528Y135468D02*
Y139532D01*
X692592D01*
Y135468D01*
X688528D01*
X689544Y136484D02*
Y138516D01*
X691576D01*
Y136484D01*
X689544D01*
X1402903Y135468D02*
Y139532D01*
X1406967D01*
Y135468D01*
X1402903D01*
X1403919Y136484D02*
Y138516D01*
X1405951D01*
Y136484D01*
X1403919D01*
X2093470Y135468D02*
Y139532D01*
X2097534D01*
Y135468D01*
X2093470D01*
X2094487Y136484D02*
Y138516D01*
X2096519D01*
Y136484D01*
X2094487D01*
X2283968Y135468D02*
Y139532D01*
X2288032D01*
Y135468D01*
X2283968D01*
X2284984Y136484D02*
Y138516D01*
X2287016D01*
Y136484D01*
X2284984D01*
X2474468Y135468D02*
Y139532D01*
X2478532D01*
Y135468D01*
X2474468D01*
X2475484Y136484D02*
Y138516D01*
X2477516D01*
Y136484D01*
X2475484D01*
X2664968Y135468D02*
Y139532D01*
X2669032D01*
Y135468D01*
X2664968D01*
X2665984Y136484D02*
Y138516D01*
X2668016D01*
Y136484D01*
X2665984D01*
X998088Y325968D02*
Y330032D01*
X1002152D01*
Y325968D01*
X998088D01*
X999104Y326984D02*
Y329016D01*
X1001136D01*
Y326984D01*
X999104D01*
X2593528Y325968D02*
Y330032D01*
X2597592D01*
Y325968D01*
X2593528D01*
X2594544Y326984D02*
Y329016D01*
X2596576D01*
Y326984D01*
X2594544D01*
X2331588Y325968D02*
Y330032D01*
X2335652D01*
Y325968D01*
X2331588D01*
X2332604Y326984D02*
Y329016D01*
X2334636D01*
Y326984D01*
X2332604D01*
X2141088Y325968D02*
Y330032D01*
X2145152D01*
Y325968D01*
X2141088D01*
X2142104Y326984D02*
Y329016D01*
X2144136D01*
Y326984D01*
X2142104D01*
X1950588Y325968D02*
Y330032D01*
X1954652D01*
Y325968D01*
X1950588D01*
X1951604Y326984D02*
Y329016D01*
X1953636D01*
Y326984D01*
X1951604D01*
X1760088Y325968D02*
Y330032D01*
X1764152D01*
Y325968D01*
X1760088D01*
X1761104Y326984D02*
Y329016D01*
X1763136D01*
Y326984D01*
X1761104D01*
X2855468Y135468D02*
Y139532D01*
X2859532D01*
Y135468D01*
X2855468D01*
X2856484Y136484D02*
Y138516D01*
X2858516D01*
Y136484D01*
X2856484D01*
X3045968Y135468D02*
Y139532D01*
X3050032D01*
Y135468D01*
X3045968D01*
X3046984Y136484D02*
Y138516D01*
X3049016D01*
Y136484D01*
X3046984D01*
X3045968Y325968D02*
Y330032D01*
X3050032D01*
Y325968D01*
X3045968D01*
X3046984Y326984D02*
Y329016D01*
X3049016D01*
Y326984D01*
X3046984D01*
X2855468Y325968D02*
Y330032D01*
X2859532D01*
Y325968D01*
X2855468D01*
X2856484Y326984D02*
Y329016D01*
X2858516D01*
Y326984D01*
X2856484D01*
X1569588Y325968D02*
Y330032D01*
X1573652D01*
Y325968D01*
X1569588D01*
X1570604Y326984D02*
Y329016D01*
X1572636D01*
Y326984D01*
X1570604D01*
X1379088Y325968D02*
Y330032D01*
X1383152D01*
Y325968D01*
X1379088D01*
X1380104Y326984D02*
Y329016D01*
X1382136D01*
Y326984D01*
X1380104D01*
X1188588Y325968D02*
Y330032D01*
X1192652D01*
Y325968D01*
X1188588D01*
X1189604Y326984D02*
Y329016D01*
X1191636D01*
Y326984D01*
X1189604D01*
X1855348Y516468D02*
Y520532D01*
X1859412D01*
Y516468D01*
X1855348D01*
X1856364Y517484D02*
Y519516D01*
X1858396D01*
Y517484D01*
X1856364D01*
X807588Y325968D02*
Y330032D01*
X811652D01*
Y325968D01*
X807588D01*
X808604Y326984D02*
Y329016D01*
X810636D01*
Y326984D01*
X808604D01*
X307530Y325968D02*
Y330032D01*
X311595D01*
Y325968D01*
X307530D01*
X308547Y326984D02*
Y329016D01*
X310578D01*
Y326984D01*
X308547D01*
X617090Y325968D02*
Y330032D01*
X621155D01*
Y325968D01*
X617090D01*
X618106Y326984D02*
Y329016D01*
X620139D01*
Y326984D01*
X618106D01*
X1283848Y516468D02*
Y520532D01*
X1287912D01*
Y516468D01*
X1283848D01*
X1284864Y517484D02*
Y519516D01*
X1286896D01*
Y517484D01*
X1284864D01*
X1093348Y516468D02*
Y520532D01*
X1097412D01*
Y516468D01*
X1093348D01*
X1094364Y517484D02*
Y519516D01*
X1096396D01*
Y517484D01*
X1094364D01*
X902848Y516468D02*
Y520532D01*
X906912D01*
Y516468D01*
X902848D01*
X903864Y517484D02*
Y519516D01*
X905896D01*
Y517484D01*
X903864D01*
X1664848Y516468D02*
Y520532D01*
X1668912D01*
Y516468D01*
X1664848D01*
X1665864Y517484D02*
Y519516D01*
X1667896D01*
Y517484D01*
X1665864D01*
X1474348Y516468D02*
Y520532D01*
X1478412D01*
Y516468D01*
X1474348D01*
X1475364Y517484D02*
Y519516D01*
X1477396D01*
Y517484D01*
X1475364D01*
X712348Y516468D02*
Y520532D01*
X716412D01*
Y516468D01*
X712348D01*
X713364Y517484D02*
Y519516D01*
X715396D01*
Y517484D01*
X713364D01*
X521848Y516468D02*
Y520532D01*
X525912D01*
Y516468D01*
X521848D01*
X522864Y517484D02*
Y519516D01*
X524896D01*
Y517484D01*
X522864D01*
X259905Y516468D02*
Y520532D01*
X263969D01*
Y516468D01*
X259905D01*
X260921Y517484D02*
Y519516D01*
X262953D01*
Y517484D01*
X260921D01*
X2045848Y516468D02*
Y520532D01*
X2049912D01*
Y516468D01*
X2045848D01*
X2046864Y517484D02*
Y519516D01*
X2048896D01*
Y517484D01*
X2046864D01*
X2426848Y516468D02*
Y520532D01*
X2430912D01*
Y516468D01*
X2426848D01*
X2427864Y517484D02*
Y519516D01*
X2429896D01*
Y517484D01*
X2427864D01*
X2236348Y516468D02*
Y520532D01*
X2240412D01*
Y516468D01*
X2236348D01*
X2237364Y517484D02*
Y519516D01*
X2239396D01*
Y517484D01*
X2237364D01*
X2736411Y516468D02*
Y520532D01*
X2740475D01*
Y516468D01*
X2736411D01*
X2737426Y517484D02*
Y519516D01*
X2739459D01*
Y517484D01*
X2737426D01*
X3045968Y516468D02*
Y520532D01*
X3050032D01*
Y516468D01*
X3045968D01*
X3046984Y517484D02*
Y519516D01*
X3049016D01*
Y517484D01*
X3046984D01*
X3045968Y706968D02*
Y711032D01*
X3050032D01*
Y706968D01*
X3045968D01*
X3046984Y707984D02*
Y710016D01*
X3049016D01*
Y707984D01*
X3046984D01*
X2807848Y706968D02*
Y711032D01*
X2811912D01*
Y706968D01*
X2807848D01*
X2808864Y707984D02*
Y710016D01*
X2810896D01*
Y707984D01*
X2808864D01*
X2569718Y706968D02*
Y711032D01*
X2573782D01*
Y706968D01*
X2569718D01*
X2570734Y707984D02*
Y710016D01*
X2572766D01*
Y707984D01*
X2570734D01*
X1807718Y706968D02*
Y711032D01*
X1811782D01*
Y706968D01*
X1807718D01*
X1808734Y707984D02*
Y710016D01*
X1810766D01*
Y707984D01*
X1808734D01*
X1617218Y706968D02*
Y711032D01*
X1621282D01*
Y706968D01*
X1617218D01*
X1618234Y707984D02*
Y710016D01*
X1620266D01*
Y707984D01*
X1618234D01*
X1426718Y706968D02*
Y711032D01*
X1430782D01*
Y706968D01*
X1426718D01*
X1427734Y707984D02*
Y710016D01*
X1429766D01*
Y707984D01*
X1427734D01*
X664718Y706968D02*
Y711032D01*
X668782D01*
Y706968D01*
X664718D01*
X665734Y707984D02*
Y710016D01*
X667766D01*
Y707984D01*
X665734D01*
X1236218Y706968D02*
Y711032D01*
X1240282D01*
Y706968D01*
X1236218D01*
X1237234Y707984D02*
Y710016D01*
X1239266D01*
Y707984D01*
X1237234D01*
X1045718Y706968D02*
Y711032D01*
X1049782D01*
Y706968D01*
X1045718D01*
X1046734Y707984D02*
Y710016D01*
X1048766D01*
Y707984D01*
X1046734D01*
X855218Y706968D02*
Y711032D01*
X859282D01*
Y706968D01*
X855218D01*
X856234Y707984D02*
Y710016D01*
X858266D01*
Y707984D01*
X856234D01*
X2379218Y706968D02*
Y711032D01*
X2383282D01*
Y706968D01*
X2379218D01*
X2380234Y707984D02*
Y710016D01*
X2382266D01*
Y707984D01*
X2380234D01*
X2188718Y706968D02*
Y711032D01*
X2192782D01*
Y706968D01*
X2188718D01*
X2189734Y707984D02*
Y710016D01*
X2191766D01*
Y707984D01*
X2189734D01*
X1998218Y706968D02*
Y711032D01*
X2002282D01*
Y706968D01*
X1998218D01*
X1999234Y707984D02*
Y710016D01*
X2001266D01*
Y707984D01*
X1999234D01*
X2093470Y897468D02*
Y901532D01*
X2097534D01*
Y897468D01*
X2093470D01*
X2094487Y898484D02*
Y900516D01*
X2096519D01*
Y898484D01*
X2094487D01*
X2760218Y897468D02*
Y901532D01*
X2764282D01*
Y897468D01*
X2760218D01*
X2761234Y898484D02*
Y900516D01*
X2763266D01*
Y898484D01*
X2761234D01*
X474218Y706968D02*
Y711032D01*
X478282D01*
Y706968D01*
X474218D01*
X475234Y707984D02*
Y710016D01*
X477266D01*
Y707984D01*
X475234D01*
X188468Y897468D02*
Y901532D01*
X192532D01*
Y897468D01*
X188468D01*
X189484Y898484D02*
Y900516D01*
X191516D01*
Y898484D01*
X189484D01*
X236093Y706968D02*
Y711032D01*
X240157D01*
Y706968D01*
X236093D01*
X237109Y707984D02*
Y710016D01*
X239141D01*
Y707984D01*
X237109D01*
X378968Y897468D02*
Y901532D01*
X383032D01*
Y897468D01*
X378968D01*
X379984Y898484D02*
Y900516D01*
X382016D01*
Y898484D01*
X379984D01*
X950468Y897468D02*
Y901532D01*
X954532D01*
Y897468D01*
X950468D01*
X951484Y898484D02*
Y900516D01*
X953516D01*
Y898484D01*
X951484D01*
X759968Y897468D02*
Y901532D01*
X764032D01*
Y897468D01*
X759968D01*
X760984Y898484D02*
Y900516D01*
X763016D01*
Y898484D01*
X760984D01*
X569468Y897468D02*
Y901532D01*
X573532D01*
Y897468D01*
X569468D01*
X570484Y898484D02*
Y900516D01*
X572516D01*
Y898484D01*
X570484D01*
X1521968Y897468D02*
Y901532D01*
X1526032D01*
Y897468D01*
X1521968D01*
X1522984Y898484D02*
Y900516D01*
X1525016D01*
Y898484D01*
X1522984D01*
X1712468Y897468D02*
Y901532D01*
X1716532D01*
Y897468D01*
X1712468D01*
X1713484Y898484D02*
Y900516D01*
X1715516D01*
Y898484D01*
X1713484D01*
X2474468Y897468D02*
Y901532D01*
X2478532D01*
Y897468D01*
X2474468D01*
X2475484Y898484D02*
Y900516D01*
X2477516D01*
Y898484D01*
X2475484D01*
X3045968Y897468D02*
Y901532D01*
X3050032D01*
Y897468D01*
X3045968D01*
X3046984Y898484D02*
Y900516D01*
X3049016D01*
Y898484D01*
X3046984D01*
X2283968Y897468D02*
Y901532D01*
X2288032D01*
Y897468D01*
X2283968D01*
X2284984Y898484D02*
Y900516D01*
X2287016D01*
Y898484D01*
X2284984D01*
X1902968Y897468D02*
Y901532D01*
X1907032D01*
Y897468D01*
X1902968D01*
X1903984Y898484D02*
Y900516D01*
X1906016D01*
Y898484D01*
X1903984D01*
X1331468Y897468D02*
Y901532D01*
X1335532D01*
Y897468D01*
X1331468D01*
X1332484Y898484D02*
Y900516D01*
X1334516D01*
Y898484D01*
X1332484D01*
X1140968Y897468D02*
Y901532D01*
X1145032D01*
Y897468D01*
X1140968D01*
X1141984Y898484D02*
Y900516D01*
X1144016D01*
Y898484D01*
X1141984D01*
X2855468Y1087968D02*
Y1092032D01*
X2859532D01*
Y1087968D01*
X2855468D01*
X2856484Y1088984D02*
Y1091016D01*
X2858516D01*
Y1088984D01*
X2856484D01*
X2474468Y1087968D02*
Y1092032D01*
X2478532D01*
Y1087968D01*
X2474468D01*
X2475484Y1088984D02*
Y1091016D01*
X2477516D01*
Y1088984D01*
X2475484D01*
X950468Y1087968D02*
Y1092032D01*
X954532D01*
Y1087968D01*
X950468D01*
X951484Y1088984D02*
Y1091016D01*
X953516D01*
Y1088984D01*
X951484D01*
X2283968Y1087968D02*
Y1092032D01*
X2288032D01*
Y1087968D01*
X2283968D01*
X2284984Y1088984D02*
Y1091016D01*
X2287016D01*
Y1088984D01*
X2284984D01*
X1902968Y1087968D02*
Y1092032D01*
X1907032D01*
Y1087968D01*
X1902968D01*
X1903984Y1088984D02*
Y1091016D01*
X1906016D01*
Y1088984D01*
X1903984D01*
X2093468Y1087968D02*
Y1092032D01*
X2097532D01*
Y1087968D01*
X2093468D01*
X2094484Y1088984D02*
Y1091016D01*
X2096516D01*
Y1088984D01*
X2094484D01*
X1140968Y1087968D02*
Y1092032D01*
X1145032D01*
Y1087968D01*
X1140968D01*
X1141984Y1088984D02*
Y1091016D01*
X1144016D01*
Y1088984D01*
X1141984D01*
X1521968Y1087968D02*
Y1092032D01*
X1526032D01*
Y1087968D01*
X1521968D01*
X1522984Y1088984D02*
Y1091016D01*
X1525016D01*
Y1088984D01*
X1522984D01*
X759968Y1087968D02*
Y1092032D01*
X764032D01*
Y1087968D01*
X759968D01*
X760984Y1088984D02*
Y1091016D01*
X763016D01*
Y1088984D01*
X760984D01*
X378968Y1087968D02*
Y1092032D01*
X383032D01*
Y1087968D01*
X378968D01*
X379984Y1088984D02*
Y1091016D01*
X382016D01*
Y1088984D01*
X379984D01*
X3045968Y1087968D02*
Y1092032D01*
X3050032D01*
Y1087968D01*
X3045968D01*
X3046984Y1088984D02*
Y1091016D01*
X3049016D01*
Y1088984D01*
X3046984D01*
X2664969Y1087968D02*
Y1092032D01*
X2669033D01*
Y1087968D01*
X2664969D01*
X2665984Y1088984D02*
Y1091016D01*
X2668016D01*
Y1088984D01*
X2665984D01*
X1712468Y1087968D02*
Y1092032D01*
X1716532D01*
Y1087968D01*
X1712468D01*
X1713484Y1088984D02*
Y1091016D01*
X1715516D01*
Y1088984D01*
X1713484D01*
X1331468Y1087968D02*
Y1092032D01*
X1335532D01*
Y1087968D01*
X1331468D01*
X1332484Y1088984D02*
Y1091016D01*
X1334516D01*
Y1088984D01*
X1332484D01*
X569468Y1087968D02*
Y1092032D01*
X573532D01*
Y1087968D01*
X569468D01*
X570484Y1088984D02*
Y1091016D01*
X572516D01*
Y1088984D01*
X570484D01*
X188468Y1087968D02*
Y1092032D01*
X192532D01*
Y1087968D01*
X188468D01*
X189484Y1088984D02*
Y1091016D01*
X191516D01*
Y1088984D01*
X189484D01*
X1632500Y1307783D02*
X1630468Y1311847D01*
X1634532D01*
X1632500Y1307783D01*
Y1308799D02*
X1631484Y1310831D01*
X1633516D01*
X1632500Y1308799D01*
X1591786Y1310198D02*
X1589754Y1314262D01*
X1593819D01*
X1591786Y1310198D01*
Y1311214D02*
X1590771Y1313246D01*
X1592802D01*
X1591786Y1311214D01*
X3086500Y326440D02*
X3084468Y330504D01*
X3088532D01*
X3086500Y326440D01*
Y327456D02*
X3085484Y329488D01*
X3087516D01*
X3086500Y327456D01*
X2999813Y285468D02*
X2997781Y289532D01*
X3001845D01*
X2999813Y285468D01*
Y286484D02*
X2998797Y288516D01*
X3000829D01*
X2999813Y286484D01*
X2691997Y333168D02*
X2689965Y337232D01*
X2694029D01*
X2691997Y333168D01*
Y334184D02*
X2690981Y336216D01*
X2693013D01*
X2691997Y334184D01*
X2536043Y295468D02*
X2534011Y299532D01*
X2538075D01*
X2536043Y295468D01*
Y296484D02*
X2535027Y298516D01*
X2537059D01*
X2536043Y296484D01*
X177500Y1342968D02*
X178516Y1343984D01*
X179532D01*
X178516Y1345000D01*
X179532Y1346016D01*
X178516D01*
X177500Y1347032D01*
X176484Y1346016D01*
X175468D01*
X176484Y1345000D01*
X175468Y1343984D01*
X176484D01*
X177500Y1342968D01*
Y1343984D02*
X178008Y1344492D01*
X178516D01*
X178008Y1345000D01*
X178516Y1345508D01*
X178008D01*
X177500Y1346016D01*
X176992Y1345508D01*
X176484D01*
X176992Y1345000D01*
X176484Y1344492D01*
X176992D01*
X177500Y1343984D01*
X214312Y67968D02*
X215329Y68984D01*
X216345D01*
X215329Y70000D01*
X216345Y71016D01*
X215329D01*
X214312Y72032D01*
X213297Y71016D01*
X212281D01*
X213297Y70000D01*
X212281Y68984D01*
X213297D01*
X214312Y67968D01*
Y68984D02*
X214820Y69492D01*
X215329D01*
X214820Y70000D01*
X215329Y70508D01*
X214820D01*
X214312Y71016D01*
X213804Y70508D01*
X213297D01*
X213804Y70000D01*
X213297Y69492D01*
X213804D01*
X214312Y68984D01*
X3030000Y69238D02*
X3031016Y70254D01*
X3032032D01*
X3031016Y71270D01*
X3032032Y72286D01*
X3031016D01*
X3030000Y73302D01*
X3028984Y72286D01*
X3027968D01*
X3028984Y71270D01*
X3027968Y70254D01*
X3028984D01*
X3030000Y69238D01*
Y70254D02*
X3030508Y70762D01*
X3031016D01*
X3030508Y71270D01*
X3031016Y71778D01*
X3030508D01*
X3030000Y72286D01*
X3029492Y71778D01*
X3028984D01*
X3029492Y71270D01*
X3028984Y70762D01*
X3029492D01*
X3030000Y70254D01*
Y1367968D02*
X3031016Y1368984D01*
X3032032D01*
X3031016Y1370000D01*
X3032032Y1371016D01*
X3031016D01*
X3030000Y1372032D01*
X3028984Y1371016D01*
X3027968D01*
X3028984Y1370000D01*
X3027968Y1368984D01*
X3028984D01*
X3030000Y1367968D01*
Y1368984D02*
X3030508Y1369492D01*
X3031016D01*
X3030508Y1370000D01*
X3031016Y1370508D01*
X3030508D01*
X3030000Y1371016D01*
X3029492Y1370508D01*
X3028984D01*
X3029492Y1370000D01*
X3028984Y1369492D01*
X3029492D01*
X3030000Y1368984D01*
X372968Y1411968D02*
X373984Y1414000D01*
X372968Y1416032D01*
X375000Y1415016D01*
X377032Y1416032D01*
X376016Y1414000D01*
X377032Y1411968D01*
X375000Y1412984D01*
X372968Y1411968D01*
X373984Y1412984D02*
X374492Y1414000D01*
X373984Y1415016D01*
X375000Y1414508D01*
X376016Y1415016D01*
X375508Y1414000D01*
X376016Y1412984D01*
X375000Y1413492D01*
X373984Y1412984D01*
X222968Y1084968D02*
X223984Y1087000D01*
X222968Y1089032D01*
X225000Y1088016D01*
X227032Y1089032D01*
X226016Y1087000D01*
X227032Y1084968D01*
X225000Y1085984D01*
X222968Y1084968D01*
X223984Y1085984D02*
X224492Y1087000D01*
X223984Y1088016D01*
X225000Y1087508D01*
X226016Y1088016D01*
X225508Y1087000D01*
X226016Y1085984D01*
X225000Y1086492D01*
X223984Y1085984D01*
X213868Y1047968D02*
X214884Y1050000D01*
X213868Y1052032D01*
X215900Y1051016D01*
X217932Y1052032D01*
X216916Y1050000D01*
X217932Y1047968D01*
X215900Y1048984D01*
X213868Y1047968D01*
X214884Y1048984D02*
X215392Y1050000D01*
X214884Y1051016D01*
X215900Y1050508D01*
X216916Y1051016D01*
X216408Y1050000D01*
X216916Y1048984D01*
X215900Y1049492D01*
X214884Y1048984D01*
X3086500Y135468D02*
X3084468Y139532D01*
X3088532D01*
X3086500Y135468D01*
Y136484D02*
X3085484Y138516D01*
X3087516D01*
X3086500Y136484D01*
X2896000Y135468D02*
X2893968Y139532D01*
X2898032D01*
X2896000Y135468D01*
Y136484D02*
X2894984Y138516D01*
X2897016D01*
X2896000Y136484D01*
X2985691Y140968D02*
X2983659Y145032D01*
X2987723D01*
X2985691Y140968D01*
Y141984D02*
X2984675Y144016D01*
X2986707D01*
X2985691Y141984D01*
X2795190Y140968D02*
X2793158Y145032D01*
X2797222D01*
X2795190Y140968D01*
Y141984D02*
X2794174Y144016D01*
X2796206D01*
X2795190Y141984D01*
X2705500Y135468D02*
X2703468Y139532D01*
X2707532D01*
X2705500Y135468D01*
Y136484D02*
X2704484Y138516D01*
X2706516D01*
X2705500Y136484D01*
X2515000Y135468D02*
X2512968Y139532D01*
X2517032D01*
X2515000Y135468D01*
Y136484D02*
X2513984Y138516D01*
X2516016D01*
X2515000Y136484D01*
X2604691Y140968D02*
X2602659Y145032D01*
X2606723D01*
X2604691Y140968D01*
Y141984D02*
X2603675Y144016D01*
X2605707D01*
X2604691Y141984D01*
X2414190Y140968D02*
X2412158Y145032D01*
X2416222D01*
X2414190Y140968D01*
Y141984D02*
X2413174Y144016D01*
X2415206D01*
X2414190Y141984D01*
X2324503Y135468D02*
X2322471Y139532D01*
X2326534D01*
X2324503Y135468D01*
Y136484D02*
X2323486Y138516D01*
X2325518D01*
X2324503Y136484D01*
X2134002Y135468D02*
X2131970Y139532D01*
X2136034D01*
X2134002Y135468D01*
Y136484D02*
X2132986Y138516D01*
X2135018D01*
X2134002Y136484D01*
X2223690Y140968D02*
X2221658Y145032D01*
X2225722D01*
X2223690Y140968D01*
Y141984D02*
X2222674Y144016D01*
X2224706D01*
X2223690Y141984D01*
X2033190Y140968D02*
X2031158Y145032D01*
X2035222D01*
X2033190Y140968D01*
Y141984D02*
X2032174Y144016D01*
X2034206D01*
X2033190Y141984D01*
X1443435Y135468D02*
X1441403Y139532D01*
X1445467D01*
X1443435Y135468D01*
Y136484D02*
X1442419Y138516D01*
X1444451D01*
X1443435Y136484D01*
X1342630Y140968D02*
X1340598Y145032D01*
X1344662D01*
X1342630Y140968D01*
Y141984D02*
X1341614Y144016D01*
X1343646D01*
X1342630Y141984D01*
X729060Y135468D02*
X727028Y139532D01*
X731092D01*
X729060Y135468D01*
Y136484D02*
X728044Y138516D01*
X730076D01*
X729060Y136484D01*
X628250Y140968D02*
X626218Y145032D01*
X630282D01*
X628250Y140968D01*
Y141984D02*
X627234Y144016D01*
X629266D01*
X628250Y141984D01*
X490935Y135468D02*
X488903Y139532D01*
X492967D01*
X490935Y135468D01*
Y136484D02*
X489919Y138516D01*
X491951D01*
X490935Y136484D01*
X390130Y140968D02*
X388098Y145032D01*
X392162D01*
X390130Y140968D01*
Y141984D02*
X389114Y144016D01*
X391146D01*
X390130Y141984D01*
X252812Y135468D02*
X250780Y139532D01*
X254844D01*
X252812Y135468D01*
Y136484D02*
X251796Y138516D01*
X253828D01*
X252812Y136484D01*
X3110310Y703968D02*
X3108278Y708032D01*
X3112342D01*
X3110310Y703968D01*
Y704984D02*
X3109294Y707016D01*
X3111326D01*
X3110310Y704984D01*
X2985690Y521968D02*
X2983658Y526032D01*
X2987722D01*
X2985690Y521968D01*
Y522984D02*
X2984674Y525016D01*
X2986706D01*
X2985690Y522984D01*
X2687643Y517968D02*
X2685611Y522032D01*
X2689675D01*
X2687643Y517968D01*
Y518984D02*
X2686627Y521016D01*
X2688659D01*
X2687643Y518984D01*
X2467380Y516468D02*
X2465348Y520532D01*
X2469412D01*
X2467380Y516468D01*
Y517484D02*
X2466364Y519516D01*
X2468396D01*
X2467380Y517484D01*
X2276880Y516468D02*
X2274848Y520532D01*
X2278912D01*
X2276880Y516468D01*
Y517484D02*
X2275864Y519516D01*
X2277896D01*
X2276880Y517484D01*
X2366570Y521968D02*
X2364538Y526032D01*
X2368602D01*
X2366570Y521968D01*
Y522984D02*
X2365554Y525016D01*
X2367586D01*
X2366570Y522984D01*
X2176070Y521968D02*
X2174038Y526032D01*
X2178102D01*
X2176070Y521968D01*
Y522984D02*
X2175054Y525016D01*
X2177086D01*
X2176070Y522984D01*
X2086378Y516468D02*
X2084346Y520532D01*
X2088409D01*
X2086378Y516468D01*
Y517484D02*
X2085361Y519516D01*
X2087393D01*
X2086378Y517484D01*
X1895877Y516468D02*
X1893845Y520532D01*
X1897909D01*
X1895877Y516468D01*
Y517484D02*
X1894861Y519516D01*
X1896893D01*
X1895877Y517484D01*
X1985570Y521968D02*
X1983538Y526032D01*
X1987602D01*
X1985570Y521968D01*
Y522984D02*
X1984554Y525016D01*
X1986586D01*
X1985570Y522984D01*
X1795070Y521968D02*
X1793038Y526032D01*
X1797102D01*
X1795070Y521968D01*
Y522984D02*
X1794054Y525016D01*
X1796086D01*
X1795070Y522984D01*
X1705378Y516468D02*
X1703345Y520532D01*
X1707410D01*
X1705378Y516468D01*
Y517484D02*
X1704362Y519516D01*
X1706393D01*
X1705378Y517484D01*
X1514877Y516468D02*
X1512845Y520532D01*
X1516909D01*
X1514877Y516468D01*
Y517484D02*
X1513861Y519516D01*
X1515893D01*
X1514877Y517484D01*
X1604570Y521968D02*
X1602538Y526032D01*
X1606602D01*
X1604570Y521968D01*
Y522984D02*
X1603554Y525016D01*
X1605586D01*
X1604570Y522984D01*
X1414070Y521968D02*
X1412038Y526032D01*
X1416102D01*
X1414070Y521968D01*
Y522984D02*
X1413054Y525016D01*
X1415086D01*
X1414070Y522984D01*
X1324377Y516468D02*
X1322345Y520532D01*
X1326409D01*
X1324377Y516468D01*
Y517484D02*
X1323362Y519516D01*
X1325394D01*
X1324377Y517484D01*
X1133877Y516468D02*
X1131845Y520532D01*
X1135909D01*
X1133877Y516468D01*
Y517484D02*
X1132861Y519516D01*
X1134893D01*
X1133877Y517484D01*
X1223570Y521968D02*
X1221538Y526032D01*
X1225602D01*
X1223570Y521968D01*
Y522984D02*
X1222554Y525016D01*
X1224586D01*
X1223570Y522984D01*
X1033070Y521968D02*
X1031038Y526032D01*
X1035102D01*
X1033070Y521968D01*
Y522984D02*
X1032054Y525016D01*
X1034086D01*
X1033070Y522984D01*
X943380Y516468D02*
X941348Y520532D01*
X945412D01*
X943380Y516468D01*
Y517484D02*
X942364Y519516D01*
X944396D01*
X943380Y517484D01*
X752880Y516468D02*
X750848Y520532D01*
X754912D01*
X752880Y516468D01*
Y517484D02*
X751864Y519516D01*
X753896D01*
X752880Y517484D01*
X842570Y521968D02*
X840538Y526032D01*
X844602D01*
X842570Y521968D01*
Y522984D02*
X841554Y525016D01*
X843586D01*
X842570Y522984D01*
X652070Y521968D02*
X650038Y526032D01*
X654102D01*
X652070Y521968D01*
Y522984D02*
X651054Y525016D01*
X653086D01*
X652070Y522984D01*
X461570Y521968D02*
X459538Y526032D01*
X463602D01*
X461570Y521968D01*
Y522984D02*
X460554Y525016D01*
X462586D01*
X461570Y522984D01*
X222621Y516468D02*
X220589Y520532D01*
X224653D01*
X222621Y516468D01*
Y517484D02*
X221605Y519516D01*
X223637D01*
X222621Y517484D01*
X2776942Y516468D02*
X2774910Y520532D01*
X2778974D01*
X2776942Y516468D01*
Y517484D02*
X2775927Y519516D01*
X2777958D01*
X2776942Y517484D01*
X318690Y902968D02*
X316658Y907032D01*
X320722D01*
X318690Y902968D01*
Y903984D02*
X317674Y906016D01*
X319706D01*
X318690Y903984D01*
X141106Y897116D02*
X139074Y901180D01*
X143138D01*
X141106Y897116D01*
Y898132D02*
X140090Y900164D01*
X142122D01*
X141106Y898132D01*
X699100Y902968D02*
X697068Y907032D01*
X701132D01*
X699100Y902968D01*
Y903984D02*
X698084Y906016D01*
X700116D01*
X699100Y903984D01*
X508600Y902968D02*
X506568Y907032D01*
X510632D01*
X508600Y902968D01*
Y903984D02*
X507584Y906016D01*
X509616D01*
X508600Y903984D01*
X1080438Y902968D02*
X1078406Y907032D01*
X1082470D01*
X1080438Y902968D01*
Y903984D02*
X1079422Y906016D01*
X1081454D01*
X1080438Y903984D01*
X889938Y902968D02*
X887906Y907032D01*
X891970D01*
X889938Y902968D01*
Y903984D02*
X888922Y906016D01*
X890954D01*
X889938Y903984D01*
X1461690Y902968D02*
X1459658Y907032D01*
X1463722D01*
X1461690Y902968D01*
Y903984D02*
X1460674Y906016D01*
X1462706D01*
X1461690Y903984D01*
X1271190Y902968D02*
X1269158Y907032D01*
X1273222D01*
X1271190Y902968D01*
Y903984D02*
X1270174Y906016D01*
X1272206D01*
X1271190Y903984D01*
X1842438Y902968D02*
X1840406Y907032D01*
X1844470D01*
X1842438Y902968D01*
Y903984D02*
X1841422Y906016D01*
X1843454D01*
X1842438Y903984D01*
X1651938Y902968D02*
X1649906Y907032D01*
X1653970D01*
X1651938Y902968D01*
Y903984D02*
X1650922Y906016D01*
X1652954D01*
X1651938Y903984D01*
X2033190Y902968D02*
X2031158Y907032D01*
X2035222D01*
X2033190Y902968D01*
Y903984D02*
X2032174Y906016D01*
X2034206D01*
X2033190Y903984D01*
X2223690Y902968D02*
X2221658Y907032D01*
X2225722D01*
X2223690Y902968D01*
Y903984D02*
X2222674Y906016D01*
X2224706D01*
X2223690Y903984D01*
X2414190Y902968D02*
X2412158Y907032D01*
X2416222D01*
X2414190Y902968D01*
Y903984D02*
X2413174Y906016D01*
X2415206D01*
X2414190Y903984D01*
X2699940Y902968D02*
X2697908Y907032D01*
X2701972D01*
X2699940Y902968D01*
Y903984D02*
X2698924Y906016D01*
X2700956D01*
X2699940Y903984D01*
X2985690Y902968D02*
X2983658Y907032D01*
X2987722D01*
X2985690Y902968D01*
Y903984D02*
X2984674Y906016D01*
X2986707D01*
X2985690Y903984D01*
X3086500Y897116D02*
X3084468Y901180D01*
X3088532D01*
X3086500Y897116D01*
Y898132D02*
X3085484Y900164D01*
X3087516D01*
X3086500Y898132D01*
X2800750Y897468D02*
X2798718Y901532D01*
X2802782D01*
X2800750Y897468D01*
Y898484D02*
X2799734Y900516D01*
X2801766D01*
X2800750Y898484D01*
X2515000Y897468D02*
X2512968Y901532D01*
X2517032D01*
X2515000Y897468D01*
Y898484D02*
X2513984Y900516D01*
X2516016D01*
X2515000Y898484D01*
X2133997Y897468D02*
X2131965Y901532D01*
X2136029D01*
X2133997Y897468D01*
Y898484D02*
X2132981Y900516D01*
X2135013D01*
X2133997Y898484D01*
X2324495Y897468D02*
X2322463Y901532D01*
X2326527D01*
X2324495Y897468D01*
Y898484D02*
X2323479Y900516D01*
X2325511D01*
X2324495Y898484D01*
X1753000Y897468D02*
X1750968Y901532D01*
X1755032D01*
X1753000Y897468D01*
Y898484D02*
X1751984Y900516D01*
X1754016D01*
X1753000Y898484D01*
X1943497Y897468D02*
X1941465Y901532D01*
X1945529D01*
X1943497Y897468D01*
Y898484D02*
X1942481Y900516D01*
X1944513D01*
X1943497Y898484D01*
X1372000Y897468D02*
X1369968Y901532D01*
X1374032D01*
X1372000Y897468D01*
Y898484D02*
X1370984Y900516D01*
X1373016D01*
X1372000Y898484D01*
X1562497Y897468D02*
X1560465Y901532D01*
X1564529D01*
X1562497Y897468D01*
Y898484D02*
X1561481Y900516D01*
X1563513D01*
X1562497Y898484D01*
X991000Y897468D02*
X988968Y901532D01*
X993032D01*
X991000Y897468D01*
Y898484D02*
X989984Y900516D01*
X992016D01*
X991000Y898484D01*
X1181497Y897468D02*
X1179465Y901532D01*
X1183529D01*
X1181497Y897468D01*
Y898484D02*
X1180481Y900516D01*
X1182513D01*
X1181497Y898484D01*
X610000Y897468D02*
X607968Y901532D01*
X612032D01*
X610000Y897468D01*
Y898484D02*
X608984Y900516D01*
X611016D01*
X610000Y898484D01*
X800497Y897468D02*
X798465Y901532D01*
X802529D01*
X800497Y897468D01*
Y898484D02*
X799481Y900516D01*
X801513D01*
X800497Y898484D01*
X271462Y897468D02*
X269431Y901532D01*
X273494D01*
X271462Y897468D01*
Y898484D02*
X270446Y900516D01*
X272479D01*
X271462Y898484D01*
X461960Y897468D02*
X459928Y901532D01*
X463992D01*
X461960Y897468D01*
Y898484D02*
X460944Y900516D01*
X462976D01*
X461960Y898484D01*
X3110310Y1082968D02*
X3108278Y1087032D01*
X3112342D01*
X3110310Y1082968D01*
Y1083984D02*
X3109294Y1086016D01*
X3111326D01*
X3110310Y1083984D01*
X2938210Y1103968D02*
X2936178Y1108032D01*
X2940242D01*
X2938210Y1103968D01*
Y1104984D02*
X2937194Y1107016D01*
X2939226D01*
X2938210Y1104984D01*
X2557460Y1107439D02*
X2555428Y1111504D01*
X2559492D01*
X2557460Y1107439D01*
Y1108456D02*
X2556444Y1110488D01*
X2558476D01*
X2557460Y1108456D01*
X2747960Y1107439D02*
X2745928Y1111504D01*
X2749992D01*
X2747960Y1107439D01*
Y1108456D02*
X2746944Y1110488D01*
X2748976D01*
X2747960Y1108456D01*
X2176210Y1103968D02*
X2174178Y1108032D01*
X2178242D01*
X2176210Y1103968D01*
Y1104984D02*
X2175194Y1107016D01*
X2177226D01*
X2176210Y1104984D01*
X2366707Y1103968D02*
X2364675Y1108032D01*
X2368739D01*
X2366707Y1103968D01*
Y1104984D02*
X2365692Y1107016D01*
X2367724D01*
X2366707Y1104984D01*
X1795460Y1103968D02*
X1793428Y1108032D01*
X1797492D01*
X1795460Y1103968D01*
Y1104984D02*
X1794444Y1107016D01*
X1796476D01*
X1795460Y1104984D01*
X1985957Y1103968D02*
X1983925Y1108032D01*
X1987989D01*
X1985957Y1103968D01*
Y1104984D02*
X1984941Y1107016D01*
X1986973D01*
X1985957Y1104984D01*
X1414460Y1103968D02*
X1412428Y1108032D01*
X1416492D01*
X1414460Y1103968D01*
Y1104984D02*
X1413444Y1107016D01*
X1415476D01*
X1414460Y1104984D01*
X1604957Y1103968D02*
X1602925Y1108032D01*
X1606989D01*
X1604957Y1103968D01*
Y1104984D02*
X1603941Y1107016D01*
X1605973D01*
X1604957Y1104984D01*
X1033460Y1103968D02*
X1031428Y1108032D01*
X1035492D01*
X1033460Y1103968D01*
Y1104984D02*
X1032444Y1107016D01*
X1034476D01*
X1033460Y1104984D01*
X1223957Y1103968D02*
X1221925Y1108032D01*
X1225989D01*
X1223957Y1103968D01*
Y1104984D02*
X1222941Y1107016D01*
X1224973D01*
X1223957Y1104984D01*
X652210Y1103968D02*
X650178Y1108032D01*
X654242D01*
X652210Y1103968D01*
Y1104984D02*
X651194Y1107016D01*
X653226D01*
X652210Y1104984D01*
X842707Y1103968D02*
X840675Y1108032D01*
X844739D01*
X842707Y1103968D01*
Y1104984D02*
X841691Y1107016D01*
X843723D01*
X842707Y1104984D01*
X461960Y1103968D02*
X459928Y1108032D01*
X463992D01*
X461960Y1103968D01*
Y1104984D02*
X460944Y1107016D01*
X462976D01*
X461960Y1104984D01*
X271462Y1103968D02*
X269431Y1108032D01*
X273494D01*
X271462Y1103968D01*
Y1104984D02*
X270446Y1107016D01*
X272479D01*
X271462Y1104984D01*
X169368Y404368D02*
X170384Y406400D01*
X169368Y408432D01*
X171400Y407416D01*
X173432Y408432D01*
X172416Y406400D01*
X173432Y404368D01*
X171400Y405384D01*
X169368Y404368D01*
X170384Y405384D02*
X170892Y406400D01*
X170384Y407416D01*
X171400Y406908D01*
X172416Y407416D01*
X171908Y406400D01*
X172416Y405384D01*
X171400Y405892D01*
X170384Y405384D01*
X137668Y412168D02*
X138684Y414200D01*
X137668Y416232D01*
X139700Y415216D01*
X141732Y416232D01*
X140716Y414200D01*
X141732Y412168D01*
X139700Y413184D01*
X137668Y412168D01*
X138684Y413184D02*
X139192Y414200D01*
X138684Y415216D01*
X139700Y414708D01*
X140716Y415216D01*
X140208Y414200D01*
X140716Y413184D01*
X139700Y413692D01*
X138684Y413184D01*
X285306Y1166368D02*
X286322Y1168400D01*
X285306Y1170432D01*
X287337Y1169416D01*
X289370Y1170432D01*
X288354Y1168400D01*
X289370Y1166368D01*
X287337Y1167384D01*
X285306Y1166368D01*
X286322Y1167384D02*
X286829Y1168400D01*
X286322Y1169416D01*
X287337Y1168908D01*
X288354Y1169416D01*
X287845Y1168400D01*
X288354Y1167384D01*
X287337Y1167892D01*
X286322Y1167384D01*
X240468Y1166368D02*
X241484Y1168400D01*
X240468Y1170432D01*
X242500Y1169416D01*
X244532Y1170432D01*
X243516Y1168400D01*
X244532Y1166368D01*
X242500Y1167384D01*
X240468Y1166368D01*
X241484Y1167384D02*
X241992Y1168400D01*
X241484Y1169416D01*
X242500Y1168908D01*
X243516Y1169416D01*
X243008Y1168400D01*
X243516Y1167384D01*
X242500Y1167892D01*
X241484Y1167384D01*
X570000Y1366918D02*
X567968Y1370982D01*
X572032D01*
X570000Y1366918D01*
Y1367934D02*
X568984Y1369966D01*
X571016D01*
X570000Y1367934D01*
Y1421648D02*
X567968Y1425712D01*
X572032D01*
X570000Y1421648D01*
Y1422664D02*
X568984Y1424696D01*
X571016D01*
X570000Y1422664D01*
X410468Y1335468D02*
X411484Y1337500D01*
X410468Y1339532D01*
X412500Y1338516D01*
X414532Y1339532D01*
X413516Y1337500D01*
X414532Y1335468D01*
X412500Y1336484D01*
X410468Y1335468D01*
X411484Y1336484D02*
X411992Y1337500D01*
X411484Y1338516D01*
X412500Y1338008D01*
X413516Y1338516D01*
X413008Y1337500D01*
X413516Y1336484D01*
X412500Y1336992D01*
X411484Y1336484D01*
X399603Y1427968D02*
X400619Y1430000D01*
X399603Y1432032D01*
X401635Y1431016D01*
X403667Y1432032D01*
X402651Y1430000D01*
X403667Y1427968D01*
X401635Y1428984D01*
X399603Y1427968D01*
X400619Y1428984D02*
X401127Y1430000D01*
X400619Y1431016D01*
X401635Y1430508D01*
X402651Y1431016D01*
X402143Y1430000D01*
X402651Y1428984D01*
X401635Y1429492D01*
X400619Y1428984D01*
X505468Y1406340D02*
X506484Y1408372D01*
X505468Y1410404D01*
X507500Y1409388D01*
X509532Y1410404D01*
X508516Y1408372D01*
X509532Y1406340D01*
X507500Y1407356D01*
X505468Y1406340D01*
X506484Y1407356D02*
X506992Y1408372D01*
X506484Y1409388D01*
X507500Y1408880D01*
X508516Y1409388D01*
X508008Y1408372D01*
X508516Y1407356D01*
X507500Y1407864D01*
X506484Y1407356D01*
X471048Y1426168D02*
X472064Y1428200D01*
X471048Y1430232D01*
X473080Y1429216D01*
X475112Y1430232D01*
X474096Y1428200D01*
X475112Y1426168D01*
X473080Y1427184D01*
X471048Y1426168D01*
X472064Y1427184D02*
X472572Y1428200D01*
X472064Y1429216D01*
X473080Y1428708D01*
X474096Y1429216D01*
X473588Y1428200D01*
X474096Y1427184D01*
X473080Y1427692D01*
X472064Y1427184D01*
X505468Y1325331D02*
X506484Y1327363D01*
X505468Y1329395D01*
X507500Y1328379D01*
X509532Y1329395D01*
X508516Y1327363D01*
X509532Y1325331D01*
X507500Y1326347D01*
X505468Y1325331D01*
X506484Y1326347D02*
X506992Y1327363D01*
X506484Y1328379D01*
X507500Y1327871D01*
X508516Y1328379D01*
X508008Y1327363D01*
X508516Y1326347D01*
X507500Y1326855D01*
X506484Y1326347D01*
X442294Y1126234D02*
Y1125218D01*
X444326D01*
Y1126234D01*
X445342D01*
Y1128266D01*
X444326D01*
Y1129282D01*
X442294D01*
Y1128266D01*
X441278D01*
Y1126234D01*
X442294D01*
X442802Y1126742D02*
Y1126234D01*
X443818D01*
Y1126742D01*
X444326D01*
Y1127758D01*
X443818D01*
Y1128266D01*
X442802D01*
Y1127758D01*
X442294D01*
Y1126742D01*
X442802D01*
X1339402Y833968D02*
X1340418Y836000D01*
X1339402Y838032D01*
X1341434Y837016D01*
X1343466Y838032D01*
X1342450Y836000D01*
X1343466Y833968D01*
X1341434Y834984D01*
X1339402Y833968D01*
X1340418Y834984D02*
X1340926Y836000D01*
X1340418Y837016D01*
X1341434Y836508D01*
X1342450Y837016D01*
X1341942Y836000D01*
X1342450Y834984D01*
X1341434Y835492D01*
X1340418Y834984D01*
X1311402Y861968D02*
X1312418Y864000D01*
X1311402Y866032D01*
X1313434Y865016D01*
X1315466Y866032D01*
X1314450Y864000D01*
X1315466Y861968D01*
X1313434Y862984D01*
X1311402Y861968D01*
X1312418Y862984D02*
X1312926Y864000D01*
X1312418Y865016D01*
X1313434Y864508D01*
X1314450Y865016D01*
X1313942Y864000D01*
X1314450Y862984D01*
X1313434Y863492D01*
X1312418Y862984D01*
X2073968Y861405D02*
X2074984Y863437D01*
X2073968Y865469D01*
X2076000Y864453D01*
X2078032Y865469D01*
X2077016Y863437D01*
X2078032Y861405D01*
X2076000Y862421D01*
X2073968Y861405D01*
X2074984Y862421D02*
X2075492Y863437D01*
X2074984Y864453D01*
X2076000Y863945D01*
X2077016Y864453D01*
X2076508Y863437D01*
X2077016Y862421D01*
X2076000Y862929D01*
X2074984Y862421D01*
X2100968Y834405D02*
X2101984Y836437D01*
X2100968Y838469D01*
X2103000Y837453D01*
X2105032Y838469D01*
X2104016Y836437D01*
X2105032Y834405D01*
X2103000Y835421D01*
X2100968Y834405D01*
X2101984Y835421D02*
X2102492Y836437D01*
X2101984Y837453D01*
X2103000Y836945D01*
X2104016Y837453D01*
X2103508Y836437D01*
X2104016Y835421D01*
X2103000Y835929D01*
X2101984Y835421D01*
X1372418Y1310018D02*
X1373434D01*
X1374450Y1311034D01*
X1375466Y1310018D01*
X1376482D01*
Y1311034D01*
X1375466Y1312050D01*
X1376482Y1313066D01*
Y1314082D01*
X1375466D01*
X1374450Y1313066D01*
X1373434Y1314082D01*
X1372418D01*
Y1313066D01*
X1373434Y1312050D01*
X1372418Y1311034D01*
Y1310018D01*
X1373434Y1311034D02*
X1373942D01*
X1374450Y1311542D01*
X1374958Y1311034D01*
X1375466D01*
Y1311542D01*
X1374958Y1312050D01*
X1375466Y1312558D01*
Y1313066D01*
X1374958D01*
X1374450Y1312558D01*
X1373942Y1313066D01*
X1373434D01*
Y1312558D01*
X1373942Y1312050D01*
X1373434Y1311542D01*
Y1311034D01*
X1360468Y1333218D02*
X1361484D01*
X1362500Y1334234D01*
X1363516Y1333218D01*
X1364532D01*
Y1334234D01*
X1363516Y1335250D01*
X1364532Y1336266D01*
Y1337282D01*
X1363516D01*
X1362500Y1336266D01*
X1361484Y1337282D01*
X1360468D01*
Y1336266D01*
X1361484Y1335250D01*
X1360468Y1334234D01*
Y1333218D01*
X1361484Y1334234D02*
X1361992D01*
X1362500Y1334742D01*
X1363008Y1334234D01*
X1363516D01*
Y1334742D01*
X1363008Y1335250D01*
X1363516Y1335758D01*
Y1336266D01*
X1363008D01*
X1362500Y1335758D01*
X1361992Y1336266D01*
X1361484D01*
Y1335758D01*
X1361992Y1335250D01*
X1361484Y1334742D01*
Y1334234D01*
X2571484Y436294D02*
Y435278D01*
X2573516D01*
Y436294D01*
X2574532D01*
Y438326D01*
X2573516D01*
Y439342D01*
X2571484D01*
Y438326D01*
X2570468D01*
Y436294D01*
X2571484D01*
X2571992Y436802D02*
Y436294D01*
X2573008D01*
Y436802D01*
X2573516D01*
Y437818D01*
X2573008D01*
Y438326D01*
X2571992D01*
Y437818D01*
X2571484D01*
Y436802D01*
X2571992D01*
X2332784Y449484D02*
Y448468D01*
X2334816D01*
Y449484D01*
X2335832D01*
Y451516D01*
X2334816D01*
Y452532D01*
X2332784D01*
Y451516D01*
X2331768D01*
Y449484D01*
X2332784D01*
X2333292Y449992D02*
Y449484D01*
X2334308D01*
Y449992D01*
X2334816D01*
Y451008D01*
X2334308D01*
Y451516D01*
X2333292D01*
Y451008D01*
X2332784D01*
Y449992D01*
X2333292D01*
X1951694Y449234D02*
Y448218D01*
X1953726D01*
Y449234D01*
X1954742D01*
Y451266D01*
X1953726D01*
Y452282D01*
X1951694D01*
Y451266D01*
X1950678D01*
Y449234D01*
X1951694D01*
X1952202Y449742D02*
Y449234D01*
X1953218D01*
Y449742D01*
X1953726D01*
Y450758D01*
X1953218D01*
Y451266D01*
X1952202D01*
Y450758D01*
X1951694D01*
Y449742D01*
X1952202D01*
X2119574Y436544D02*
Y435528D01*
X2121606D01*
Y436544D01*
X2122622D01*
Y438576D01*
X2121606D01*
Y439592D01*
X2119574D01*
Y438576D01*
X2118558D01*
Y436544D01*
X2119574D01*
X2120082Y437052D02*
Y436544D01*
X2121098D01*
Y437052D01*
X2121606D01*
Y438068D01*
X2121098D01*
Y438576D01*
X2120082D01*
Y438068D01*
X2119574D01*
Y437052D01*
X2120082D01*
X1570784Y449484D02*
Y448468D01*
X1572816D01*
Y449484D01*
X1573832D01*
Y451516D01*
X1572816D01*
Y452532D01*
X1570784D01*
Y451516D01*
X1569768D01*
Y449484D01*
X1570784D01*
X1571292Y449992D02*
Y449484D01*
X1572308D01*
Y449992D01*
X1572816D01*
Y451008D01*
X1572308D01*
Y451516D01*
X1571292D01*
Y451008D01*
X1570784D01*
Y449992D01*
X1571292D01*
X1738664Y436794D02*
Y435778D01*
X1740696D01*
Y436794D01*
X1741712D01*
Y438826D01*
X1740696D01*
Y439842D01*
X1738664D01*
Y438826D01*
X1737648D01*
Y436794D01*
X1738664D01*
X1739172Y437302D02*
Y436794D01*
X1740188D01*
Y437302D01*
X1740696D01*
Y438318D01*
X1740188D01*
Y438826D01*
X1739172D01*
Y438318D01*
X1738664D01*
Y437302D01*
X1739172D01*
X1189694Y449234D02*
Y448218D01*
X1191726D01*
Y449234D01*
X1192742D01*
Y451266D01*
X1191726D01*
Y452282D01*
X1189694D01*
Y451266D01*
X1188678D01*
Y449234D01*
X1189694D01*
X1190202Y449742D02*
Y449234D01*
X1191218D01*
Y449742D01*
X1191726D01*
Y450758D01*
X1191218D01*
Y451266D01*
X1190202D01*
Y450758D01*
X1189694D01*
Y449742D01*
X1190202D01*
X1357574Y436544D02*
Y435528D01*
X1359606D01*
Y436544D01*
X1360622D01*
Y438576D01*
X1359606D01*
Y439592D01*
X1357574D01*
Y438576D01*
X1356558D01*
Y436544D01*
X1357574D01*
X1358082Y437052D02*
Y436544D01*
X1359098D01*
Y437052D01*
X1359606D01*
Y438068D01*
X1359098D01*
Y438576D01*
X1358082D01*
Y438068D01*
X1357574D01*
Y437052D01*
X1358082D01*
X976484Y436294D02*
Y435278D01*
X978516D01*
Y436294D01*
X979532D01*
Y438326D01*
X978516D01*
Y439342D01*
X976484D01*
Y438326D01*
X975468D01*
Y436294D01*
X976484D01*
X976992Y436802D02*
Y436294D01*
X978008D01*
Y436802D01*
X978516D01*
Y437818D01*
X978008D01*
Y438326D01*
X976992D01*
Y437818D01*
X976484D01*
Y436802D01*
X976992D01*
X808604Y448984D02*
Y447968D01*
X810636D01*
Y448984D01*
X811652D01*
Y451016D01*
X810636D01*
Y452032D01*
X808604D01*
Y451016D01*
X807588D01*
Y448984D01*
X808604D01*
X809112Y449492D02*
Y448984D01*
X810128D01*
Y449492D01*
X810636D01*
Y450508D01*
X810128D01*
Y451016D01*
X809112D01*
Y450508D01*
X808604D01*
Y449492D01*
X809112D01*
X2482402Y833968D02*
X2483418Y836000D01*
X2482402Y838032D01*
X2484434Y837016D01*
X2486466Y838032D01*
X2485450Y836000D01*
X2486466Y833968D01*
X2484434Y834984D01*
X2482402Y833968D01*
X2483418Y834984D02*
X2483926Y836000D01*
X2483418Y837016D01*
X2484434Y836508D01*
X2485450Y837016D01*
X2484942Y836000D01*
X2485450Y834984D01*
X2484434Y835492D01*
X2483418Y834984D01*
X2464402Y851968D02*
X2465418Y854000D01*
X2464402Y856032D01*
X2466434Y855016D01*
X2468466Y856032D01*
X2467450Y854000D01*
X2468466Y851968D01*
X2466434Y852984D01*
X2464402Y851968D01*
X2465418Y852984D02*
X2465926Y854000D01*
X2465418Y855016D01*
X2466434Y854508D01*
X2467450Y855016D01*
X2466942Y854000D01*
X2467450Y852984D01*
X2466434Y853492D01*
X2465418Y852984D01*
X2563534Y818984D02*
Y817968D01*
X2565566D01*
Y818984D01*
X2566582D01*
Y821016D01*
X2565566D01*
Y822032D01*
X2563534D01*
Y821016D01*
X2562518D01*
Y818984D01*
X2563534D01*
X2564042Y819492D02*
Y818984D01*
X2565058D01*
Y819492D01*
X2565566D01*
Y820508D01*
X2565058D01*
Y821016D01*
X2564042D01*
Y820508D01*
X2563534D01*
Y819492D01*
X2564042D01*
X2182534Y818984D02*
Y817968D01*
X2184566D01*
Y818984D01*
X2185582D01*
Y821016D01*
X2184566D01*
Y822032D01*
X2182534D01*
Y821016D01*
X2181518D01*
Y818984D01*
X2182534D01*
X2183042Y819492D02*
Y818984D01*
X2184058D01*
Y819492D01*
X2184566D01*
Y820508D01*
X2184058D01*
Y821016D01*
X2183042D01*
Y820508D01*
X2182534D01*
Y819492D01*
X2183042D01*
X1801534Y818984D02*
Y817968D01*
X1803566D01*
Y818984D01*
X1804582D01*
Y821016D01*
X1803566D01*
Y822032D01*
X1801534D01*
Y821016D01*
X1800518D01*
Y818984D01*
X1801534D01*
X1802042Y819492D02*
Y818984D01*
X1803058D01*
Y819492D01*
X1803566D01*
Y820508D01*
X1803058D01*
Y821016D01*
X1802042D01*
Y820508D01*
X1801534D01*
Y819492D01*
X1802042D01*
X1420534Y818984D02*
Y817968D01*
X1422566D01*
Y818984D01*
X1423582D01*
Y821016D01*
X1422566D01*
Y822032D01*
X1420534D01*
Y821016D01*
X1419518D01*
Y818984D01*
X1420534D01*
X1421042Y819492D02*
Y818984D01*
X1422058D01*
Y819492D01*
X1422566D01*
Y820508D01*
X1422058D01*
Y821016D01*
X1421042D01*
Y820508D01*
X1420534D01*
Y819492D01*
X1421042D01*
X1038984Y818984D02*
Y817968D01*
X1041016D01*
Y818984D01*
X1042032D01*
Y821016D01*
X1041016D01*
Y822032D01*
X1038984D01*
Y821016D01*
X1037968D01*
Y818984D01*
X1038984D01*
X1039492Y819492D02*
Y818984D01*
X1040508D01*
Y819492D01*
X1041016D01*
Y820508D01*
X1040508D01*
Y821016D01*
X1039492D01*
Y820508D01*
X1038984D01*
Y819492D01*
X1039492D01*
X658984Y818534D02*
Y817518D01*
X661016D01*
Y818534D01*
X662032D01*
Y820566D01*
X661016D01*
Y821582D01*
X658984D01*
Y820566D01*
X657968D01*
Y818534D01*
X658984D01*
X659492Y819042D02*
Y818534D01*
X660508D01*
Y819042D01*
X661016D01*
Y820058D01*
X660508D01*
Y820566D01*
X659492D01*
Y820058D01*
X658984D01*
Y819042D01*
X659492D01*
X2342134Y818984D02*
Y817968D01*
X2344166D01*
Y818984D01*
X2345182D01*
Y821016D01*
X2344166D01*
Y822032D01*
X2342134D01*
Y821016D01*
X2341118D01*
Y818984D01*
X2342134D01*
X2342642Y819492D02*
Y818984D01*
X2343658D01*
Y819492D01*
X2344166D01*
Y820508D01*
X2343658D01*
Y821016D01*
X2342642D01*
Y820508D01*
X2342134D01*
Y819492D01*
X2342642D01*
X1961134Y818984D02*
Y817968D01*
X1963166D01*
Y818984D01*
X1964182D01*
Y821016D01*
X1963166D01*
Y822032D01*
X1961134D01*
Y821016D01*
X1960118D01*
Y818984D01*
X1961134D01*
X1961642Y819492D02*
Y818984D01*
X1962658D01*
Y819492D01*
X1963166D01*
Y820508D01*
X1962658D01*
Y821016D01*
X1961642D01*
Y820508D01*
X1961134D01*
Y819492D01*
X1961642D01*
X1580134Y818984D02*
Y817968D01*
X1582166D01*
Y818984D01*
X1583182D01*
Y821016D01*
X1582166D01*
Y822032D01*
X1580134D01*
Y821016D01*
X1579118D01*
Y818984D01*
X1580134D01*
X1580642Y819492D02*
Y818984D01*
X1581658D01*
Y819492D01*
X1582166D01*
Y820508D01*
X1581658D01*
Y821016D01*
X1580642D01*
Y820508D01*
X1580134D01*
Y819492D01*
X1580642D01*
X1199134Y818984D02*
Y817968D01*
X1201166D01*
Y818984D01*
X1202182D01*
Y821016D01*
X1201166D01*
Y822032D01*
X1199134D01*
Y821016D01*
X1198118D01*
Y818984D01*
X1199134D01*
X1199642Y819492D02*
Y818984D01*
X1200658D01*
Y819492D01*
X1201166D01*
Y820508D01*
X1200658D01*
Y821016D01*
X1199642D01*
Y820508D01*
X1199134D01*
Y819492D01*
X1199642D01*
X818134Y818984D02*
Y817968D01*
X820166D01*
Y818984D01*
X821182D01*
Y821016D01*
X820166D01*
Y822032D01*
X818134D01*
Y821016D01*
X817118D01*
Y818984D01*
X818134D01*
X818642Y819492D02*
Y818984D01*
X819658D01*
Y819492D01*
X820166D01*
Y820508D01*
X819658D01*
Y821016D01*
X818642D01*
Y820508D01*
X818134D01*
Y819492D01*
X818642D01*
X601734Y833984D02*
Y832968D01*
X603766D01*
Y833984D01*
X604782D01*
Y836016D01*
X603766D01*
Y837032D01*
X601734D01*
Y836016D01*
X600718D01*
Y833984D01*
X601734D01*
X602242Y834492D02*
Y833984D01*
X603258D01*
Y834492D01*
X603766D01*
Y835508D01*
X603258D01*
Y836016D01*
X602242D01*
Y835508D01*
X601734D01*
Y834492D01*
X602242D01*
X823294Y1126234D02*
Y1125218D01*
X825326D01*
Y1126234D01*
X826342D01*
Y1128266D01*
X825326D01*
Y1129282D01*
X823294D01*
Y1128266D01*
X822278D01*
Y1126234D01*
X823294D01*
X823802Y1126742D02*
Y1126234D01*
X824818D01*
Y1126742D01*
X825326D01*
Y1127758D01*
X824818D01*
Y1128266D01*
X823802D01*
Y1127758D01*
X823294D01*
Y1126742D01*
X823802D01*
X1204294Y1126234D02*
Y1125218D01*
X1206326D01*
Y1126234D01*
X1207342D01*
Y1128266D01*
X1206326D01*
Y1129282D01*
X1204294D01*
Y1128266D01*
X1203278D01*
Y1126234D01*
X1204294D01*
X1204802Y1126742D02*
Y1126234D01*
X1205818D01*
Y1126742D01*
X1206326D01*
Y1127758D01*
X1205818D01*
Y1128266D01*
X1204802D01*
Y1127758D01*
X1204294D01*
Y1126742D01*
X1204802D01*
X1585294Y1126234D02*
Y1125218D01*
X1587326D01*
Y1126234D01*
X1588342D01*
Y1128266D01*
X1587326D01*
Y1129282D01*
X1585294D01*
Y1128266D01*
X1584278D01*
Y1126234D01*
X1585294D01*
X1585802Y1126742D02*
Y1126234D01*
X1586818D01*
Y1126742D01*
X1587326D01*
Y1127758D01*
X1586818D01*
Y1128266D01*
X1585802D01*
Y1127758D01*
X1585294D01*
Y1126742D01*
X1585802D01*
X1966294Y1126234D02*
Y1125218D01*
X1968326D01*
Y1126234D01*
X1969342D01*
Y1128266D01*
X1968326D01*
Y1129282D01*
X1966294D01*
Y1128266D01*
X1965278D01*
Y1126234D01*
X1966294D01*
X1966802Y1126742D02*
Y1126234D01*
X1967818D01*
Y1126742D01*
X1968326D01*
Y1127758D01*
X1967818D01*
Y1128266D01*
X1966802D01*
Y1127758D01*
X1966294D01*
Y1126742D01*
X1966802D01*
X2347294Y1126234D02*
Y1125218D01*
X2349326D01*
Y1126234D01*
X2350342D01*
Y1128266D01*
X2349326D01*
Y1129282D01*
X2347294D01*
Y1128266D01*
X2346278D01*
Y1126234D01*
X2347294D01*
X2347802Y1126742D02*
Y1126234D01*
X2348818D01*
Y1126742D01*
X2349326D01*
Y1127758D01*
X2348818D01*
Y1128266D01*
X2347802D01*
Y1127758D01*
X2347294D01*
Y1126742D01*
X2347802D01*
X2728294Y1126234D02*
Y1125218D01*
X2730326D01*
Y1126234D01*
X2731342D01*
Y1128266D01*
X2730326D01*
Y1129282D01*
X2728294D01*
Y1128266D01*
X2727278D01*
Y1126234D01*
X2728294D01*
X2728802Y1126742D02*
Y1126234D01*
X2729818D01*
Y1126742D01*
X2730326D01*
Y1127758D01*
X2729818D01*
Y1128266D01*
X2728802D01*
Y1127758D01*
X2728294D01*
Y1126742D01*
X2728802D01*
X3109294Y1126234D02*
Y1125218D01*
X3111326D01*
Y1126234D01*
X3112342D01*
Y1128266D01*
X3111326D01*
Y1129282D01*
X3109294D01*
Y1128266D01*
X3108278D01*
Y1126234D01*
X3109294D01*
X3109802Y1126742D02*
Y1126234D01*
X3110818D01*
Y1126742D01*
X3111326D01*
Y1127758D01*
X3110818D01*
Y1128266D01*
X3109802D01*
Y1127758D01*
X3109294D01*
Y1126742D01*
X3109802D01*
D130*
X383032Y1143000D02*
G03*
X383032Y1143000I-2032J0D01*
G01*
X2573782Y762000D02*
G03*
X2573782Y762000I-2032J0D01*
G01*
X692597Y190500D02*
G03*
X692597Y190500I-2032J0D01*
G01*
X454467D02*
G03*
X454467Y190500I-2032J0D01*
G01*
X216345D02*
G03*
X216345Y190500I-2032J0D01*
G01*
X311595Y381000D02*
G03*
X311595Y381000I-2032J0D01*
G01*
X263969Y571500D02*
G03*
X263969Y571500I-2032J0D01*
G01*
X240157Y762000D02*
G03*
X240157Y762000I-2032J0D01*
G01*
X2764282Y952500D02*
G03*
X2764282Y952500I-2032J0D01*
G01*
X2811907Y762000D02*
G03*
X2811907Y762000I-2032J0D01*
G01*
X2740475Y571500D02*
G03*
X2740475Y571500I-2032J0D01*
G01*
X2597589Y381000D02*
G03*
X2597589Y381000I-2032J0D01*
G01*
X1406967Y190500D02*
G03*
X1406967Y190500I-2032J0D01*
G01*
X192532Y1143000D02*
G03*
X192532Y1143000I-2032J0D01*
G01*
X573532D02*
G03*
X573532Y1143000I-2032J0D01*
G01*
X764032D02*
G03*
X764032Y1143000I-2032J0D01*
G01*
X954532D02*
G03*
X954532Y1143000I-2032J0D01*
G01*
X1145032D02*
G03*
X1145032Y1143000I-2032J0D01*
G01*
X1335532D02*
G03*
X1335532Y1143000I-2032J0D01*
G01*
X1526032D02*
G03*
X1526032Y1143000I-2032J0D01*
G01*
X1716532D02*
G03*
X1716532Y1143000I-2032J0D01*
G01*
X1907032D02*
G03*
X1907032Y1143000I-2032J0D01*
G01*
X2097532D02*
G03*
X2097532Y1143000I-2032J0D01*
G01*
X2288032D02*
G03*
X2288032Y1143000I-2032J0D01*
G01*
X2478532D02*
G03*
X2478532Y1143000I-2032J0D01*
G01*
X2669032D02*
G03*
X2669032Y1143000I-2032J0D01*
G01*
X2859532D02*
G03*
X2859532Y1143000I-2032J0D01*
G01*
X3050032D02*
G03*
X3050032Y1143000I-2032J0D01*
G01*
X383032Y952500D02*
G03*
X383032Y952500I-2032J0D01*
G01*
X192532D02*
G03*
X192532Y952500I-2032J0D01*
G01*
X573532D02*
G03*
X573532Y952500I-2032J0D01*
G01*
X764032D02*
G03*
X764032Y952500I-2032J0D01*
G01*
X954532D02*
G03*
X954532Y952500I-2032J0D01*
G01*
X1145032D02*
G03*
X1145032Y952500I-2032J0D01*
G01*
X1335532D02*
G03*
X1335532Y952500I-2032J0D01*
G01*
X1526032D02*
G03*
X1526032Y952500I-2032J0D01*
G01*
X1716532D02*
G03*
X1716532Y952500I-2032J0D01*
G01*
X1907032D02*
G03*
X1907032Y952500I-2032J0D01*
G01*
X2097532D02*
G03*
X2097532Y952500I-2032J0D01*
G01*
X2288032D02*
G03*
X2288032Y952500I-2032J0D01*
G01*
X2478532D02*
G03*
X2478532Y952500I-2032J0D01*
G01*
X3050032D02*
G03*
X3050032Y952500I-2032J0D01*
G01*
X478282Y762000D02*
G03*
X478282Y762000I-2032J0D01*
G01*
X668782D02*
G03*
X668782Y762000I-2032J0D01*
G01*
X859282D02*
G03*
X859282Y762000I-2032J0D01*
G01*
X1049782D02*
G03*
X1049782Y762000I-2032J0D01*
G01*
X1240282D02*
G03*
X1240282Y762000I-2032J0D01*
G01*
X1430782D02*
G03*
X1430782Y762000I-2032J0D01*
G01*
X1621282D02*
G03*
X1621282Y762000I-2032J0D01*
G01*
X1811782D02*
G03*
X1811782Y762000I-2032J0D01*
G01*
X2002282D02*
G03*
X2002282Y762000I-2032J0D01*
G01*
X2192782D02*
G03*
X2192782Y762000I-2032J0D01*
G01*
X2383282D02*
G03*
X2383282Y762000I-2032J0D01*
G01*
X3050032D02*
G03*
X3050032Y762000I-2032J0D01*
G01*
X525912Y571500D02*
G03*
X525912Y571500I-2032J0D01*
G01*
X716412D02*
G03*
X716412Y571500I-2032J0D01*
G01*
X906912D02*
G03*
X906912Y571500I-2032J0D01*
G01*
X1097412D02*
G03*
X1097412Y571500I-2032J0D01*
G01*
X1287912D02*
G03*
X1287912Y571500I-2032J0D01*
G01*
X1478412D02*
G03*
X1478412Y571500I-2032J0D01*
G01*
X1668912D02*
G03*
X1668912Y571500I-2032J0D01*
G01*
X1859412D02*
G03*
X1859412Y571500I-2032J0D01*
G01*
X2049912D02*
G03*
X2049912Y571500I-2032J0D01*
G01*
X2240412D02*
G03*
X2240412Y571500I-2032J0D01*
G01*
X2430912D02*
G03*
X2430912Y571500I-2032J0D01*
G01*
X3050032D02*
G03*
X3050032Y571500I-2032J0D01*
G01*
X621155Y381000D02*
G03*
X621155Y381000I-2032J0D01*
G01*
X811652D02*
G03*
X811652Y381000I-2032J0D01*
G01*
X1002152D02*
G03*
X1002152Y381000I-2032J0D01*
G01*
X1192652D02*
G03*
X1192652Y381000I-2032J0D01*
G01*
X1383152D02*
G03*
X1383152Y381000I-2032J0D01*
G01*
X1573652D02*
G03*
X1573652Y381000I-2032J0D01*
G01*
X1764152D02*
G03*
X1764152Y381000I-2032J0D01*
G01*
X1954652D02*
G03*
X1954652Y381000I-2032J0D01*
G01*
X2145152D02*
G03*
X2145152Y381000I-2032J0D01*
G01*
X2335652D02*
G03*
X2335652Y381000I-2032J0D01*
G01*
X2859532D02*
G03*
X2859532Y381000I-2032J0D01*
G01*
X3050032D02*
G03*
X3050032Y381000I-2032J0D01*
G01*
X2097534Y190500D02*
G03*
X2097534Y190500I-2032J0D01*
G01*
X2288032D02*
G03*
X2288032Y190500I-2032J0D01*
G01*
X2478532D02*
G03*
X2478532Y190500I-2032J0D01*
G01*
X2669032D02*
G03*
X2669032Y190500I-2032J0D01*
G01*
X2859532D02*
G03*
X2859532Y190500I-2032J0D01*
G01*
X3050032D02*
G03*
X3050032Y190500I-2032J0D01*
G01*
X1262032Y1339340D02*
G03*
X1262032Y1339340I-2032J0D01*
G01*
X1084532Y1339187D02*
G03*
X1084532Y1339187I-2032J0D01*
G01*
X1130742Y1329250D02*
G03*
X1130742Y1329250I-2032J0D01*
G01*
X562032Y1378500D02*
G03*
X562032Y1378500I-2032J0D01*
G01*
X596532Y1474500D02*
G03*
X596532Y1474500I-2032J0D01*
G01*
X584532Y1462500D02*
G03*
X584532Y1462500I-2032J0D01*
G01*
X469532Y1422500D02*
G03*
X469532Y1422500I-2032J0D01*
G01*
X267142Y174750D02*
G03*
X267142Y174750I-2032J0D01*
G01*
X505272D02*
G03*
X505272Y174750I-2032J0D01*
G01*
X465032Y1417500D02*
G03*
X465032Y1417500I-2032J0D01*
G01*
X394532Y1398500D02*
G03*
X394532Y1398500I-2032J0D01*
G01*
X362392Y365250D02*
G03*
X362392Y365250I-2032J0D01*
G01*
X399373Y1393500D02*
G03*
X399373Y1393500I-2032J0D01*
G01*
X403667Y1388500D02*
G03*
X403667Y1388500I-2032J0D01*
G01*
X756791Y438069D02*
G03*
X756791Y438069I-2032J0D01*
G01*
X314772Y555750D02*
G03*
X314772Y555750I-2032J0D01*
G01*
X408432Y1383500D02*
G03*
X408432Y1383500I-2032J0D01*
G01*
X417032Y1363286D02*
G03*
X417032Y1363286I-2032J0D01*
G01*
Y1358714D02*
G03*
X417032Y1358714I-2032J0D01*
G01*
X576712Y555750D02*
G03*
X576712Y555750I-2032J0D01*
G01*
X304532Y785000D02*
G03*
X304532Y785000I-2032J0D01*
G01*
X413982Y1328500D02*
G03*
X413982Y1328500I-2032J0D01*
G01*
X452467Y1240000D02*
G03*
X452467Y1240000I-2032J0D01*
G01*
X529082Y746250D02*
G03*
X529082Y746250I-2032J0D01*
G01*
X457032Y1235000D02*
G03*
X457032Y1235000I-2032J0D01*
G01*
X314532Y1042262D02*
G03*
X314532Y1042262I-2032J0D01*
G01*
X461118Y1230000D02*
G03*
X461118Y1230000I-2032J0D01*
G01*
X433832Y936750D02*
G03*
X433832Y936750I-2032J0D01*
G01*
X507032Y1348500D02*
G03*
X507032Y1348500I-2032J0D01*
G01*
X537032Y1320000D02*
G03*
X537032Y1320000I-2032J0D01*
G01*
X413982Y1348500D02*
G03*
X413982Y1348500I-2032J0D01*
G01*
X402906Y1404126D02*
G03*
X402906Y1404126I-2032J0D01*
G01*
X1097032Y1270250D02*
G03*
X1097032Y1270250I-2032J0D01*
G01*
X541532Y1390500D02*
G03*
X541532Y1390500I-2032J0D01*
G01*
X699532Y1378500D02*
G03*
X699532Y1378500I-2032J0D01*
G01*
Y1390500D02*
G03*
X699532Y1390500I-2032J0D01*
G01*
Y1402500D02*
G03*
X699532Y1402500I-2032J0D01*
G01*
X502032Y1414500D02*
G03*
X502032Y1414500I-2032J0D01*
G01*
X699532D02*
G03*
X699532Y1414500I-2032J0D01*
G01*
X1618996Y1310000D02*
G03*
X1618996Y1310000I-2032J0D01*
G01*
X1623568D02*
G03*
X1623568Y1310000I-2032J0D01*
G01*
X657742Y1365000D02*
G03*
X657742Y1365000I-2032J0D01*
G01*
X899532Y1491000D02*
G03*
X899532Y1491000I-2032J0D01*
G01*
X647032Y1370000D02*
G03*
X647032Y1370000I-2032J0D01*
G01*
X899532Y1470000D02*
G03*
X899532Y1470000I-2032J0D01*
G01*
X1247032Y1357749D02*
G03*
X1247032Y1357749I-2032J0D01*
G01*
X1623568Y1365300D02*
G03*
X1623568Y1365300I-2032J0D01*
G01*
X1618996Y1331000D02*
G03*
X1618996Y1331000I-2032J0D01*
G01*
X1623568D02*
G03*
X1623568Y1331000I-2032J0D01*
G01*
X1618996Y1365300D02*
G03*
X1618996Y1365300I-2032J0D01*
G01*
X1149130Y1318152D02*
G03*
X1149130Y1318152I-2032J0D01*
G01*
X1254532Y1368950D02*
G03*
X1254532Y1368950I-2032J0D01*
G01*
X1648782Y1345000D02*
G03*
X1648782Y1345000I-2032J0D01*
G01*
X1628753Y1365300D02*
G03*
X1628753Y1365300I-2032J0D01*
G01*
D131*
X1261016Y1339340D02*
G03*
X1261016Y1339340I-1016J0D01*
G01*
X1083516Y1339187D02*
G03*
X1083516Y1339187I-1016J0D01*
G01*
X1129726Y1329250D02*
G03*
X1129726Y1329250I-1016J0D01*
G01*
X561016Y1378500D02*
G03*
X561016Y1378500I-1016J0D01*
G01*
X595516Y1474500D02*
G03*
X595516Y1474500I-1016J0D01*
G01*
X583516Y1462500D02*
G03*
X583516Y1462500I-1016J0D01*
G01*
X468516Y1422500D02*
G03*
X468516Y1422500I-1016J0D01*
G01*
X266126Y174750D02*
G03*
X266126Y174750I-1016J0D01*
G01*
X504256D02*
G03*
X504256Y174750I-1016J0D01*
G01*
X464016Y1417500D02*
G03*
X464016Y1417500I-1016J0D01*
G01*
X393516Y1398500D02*
G03*
X393516Y1398500I-1016J0D01*
G01*
X361376Y365250D02*
G03*
X361376Y365250I-1016J0D01*
G01*
X398357Y1393500D02*
G03*
X398357Y1393500I-1016J0D01*
G01*
X402651Y1388500D02*
G03*
X402651Y1388500I-1016J0D01*
G01*
X755775Y438069D02*
G03*
X755775Y438069I-1016J0D01*
G01*
X313756Y555750D02*
G03*
X313756Y555750I-1016J0D01*
G01*
X407416Y1383500D02*
G03*
X407416Y1383500I-1016J0D01*
G01*
X416016Y1363286D02*
G03*
X416016Y1363286I-1016J0D01*
G01*
Y1358714D02*
G03*
X416016Y1358714I-1016J0D01*
G01*
X575696Y555750D02*
G03*
X575696Y555750I-1016J0D01*
G01*
X303516Y785000D02*
G03*
X303516Y785000I-1016J0D01*
G01*
X412966Y1328500D02*
G03*
X412966Y1328500I-1016J0D01*
G01*
X451451Y1240000D02*
G03*
X451451Y1240000I-1016J0D01*
G01*
X528066Y746250D02*
G03*
X528066Y746250I-1016J0D01*
G01*
X456016Y1235000D02*
G03*
X456016Y1235000I-1016J0D01*
G01*
X313516Y1042262D02*
G03*
X313516Y1042262I-1016J0D01*
G01*
X460102Y1230000D02*
G03*
X460102Y1230000I-1016J0D01*
G01*
X432816Y936750D02*
G03*
X432816Y936750I-1016J0D01*
G01*
X506016Y1348500D02*
G03*
X506016Y1348500I-1016J0D01*
G01*
X536016Y1320000D02*
G03*
X536016Y1320000I-1016J0D01*
G01*
X412966Y1348500D02*
G03*
X412966Y1348500I-1016J0D01*
G01*
X401890Y1404126D02*
G03*
X401890Y1404126I-1016J0D01*
G01*
X1096016Y1270250D02*
G03*
X1096016Y1270250I-1016J0D01*
G01*
X540516Y1390500D02*
G03*
X540516Y1390500I-1016J0D01*
G01*
X698516Y1378500D02*
G03*
X698516Y1378500I-1016J0D01*
G01*
Y1390500D02*
G03*
X698516Y1390500I-1016J0D01*
G01*
Y1402500D02*
G03*
X698516Y1402500I-1016J0D01*
G01*
X501016Y1414500D02*
G03*
X501016Y1414500I-1016J0D01*
G01*
X698516D02*
G03*
X698516Y1414500I-1016J0D01*
G01*
X1617980Y1310000D02*
G03*
X1617980Y1310000I-1016J0D01*
G01*
X1622552D02*
G03*
X1622552Y1310000I-1016J0D01*
G01*
X656726Y1365000D02*
G03*
X656726Y1365000I-1016J0D01*
G01*
X898516Y1491000D02*
G03*
X898516Y1491000I-1016J0D01*
G01*
X646016Y1370000D02*
G03*
X646016Y1370000I-1016J0D01*
G01*
X898516Y1470000D02*
G03*
X898516Y1470000I-1016J0D01*
G01*
X1246016Y1357749D02*
G03*
X1246016Y1357749I-1016J0D01*
G01*
X1622552Y1365300D02*
G03*
X1622552Y1365300I-1016J0D01*
G01*
X1617980Y1331000D02*
G03*
X1617980Y1331000I-1016J0D01*
G01*
X1622552D02*
G03*
X1622552Y1331000I-1016J0D01*
G01*
X1617980Y1365300D02*
G03*
X1617980Y1365300I-1016J0D01*
G01*
X1148114Y1318152D02*
G03*
X1148114Y1318152I-1016J0D01*
G01*
X1253516Y1368950D02*
G03*
X1253516Y1368950I-1016J0D01*
G01*
X1647766Y1345000D02*
G03*
X1647766Y1345000I-1016J0D01*
G01*
X1627737Y1365300D02*
G03*
X1627737Y1365300I-1016J0D01*
G01*
M02*
