G04*
G04 #@! TF.GenerationSoftware,Altium Limited,Altium Designer,19.0.15 (446)*
G04*
G04 Layer_Color=32896*
%FSLAX44Y44*%
%MOMM*%
G71*
G01*
G75*
%ADD10C,0.1270*%
%ADD116C,0.2000*%
%ADD123C,0.0010*%
%ADD124C,0.0500*%
G36*
X1301999Y1288548D02*
Y1316519D01*
X1286742D01*
Y1288548D01*
X1301999D01*
D02*
G37*
D10*
X433300Y1249700D02*
Y1280300D01*
X415700D02*
X433300D01*
X415700Y1249700D02*
Y1280300D01*
Y1249700D02*
X433300D01*
Y1280300D01*
X415700D02*
X433300D01*
X415700Y1249700D02*
Y1280300D01*
Y1249700D02*
X433300D01*
X1879500Y1354000D02*
Y1430000D01*
X1820500D02*
X1879500D01*
X1820500Y1354000D02*
Y1430000D01*
Y1354000D02*
X1879500D01*
Y1430000D01*
X1820500D02*
X1879500D01*
X1820500Y1354000D02*
Y1430000D01*
Y1354000D02*
X1879500D01*
D116*
X450500Y1275000D02*
G03*
X450500Y1275000I-1000J0D01*
G01*
D02*
G03*
X450500Y1275000I-1000J0D01*
G01*
X1841000Y1435500D02*
G03*
X1841000Y1435500I-1000J0D01*
G01*
D02*
G03*
X1841000Y1435500I-1000J0D01*
G01*
D123*
X1662450Y1427000D02*
G03*
X1659450Y1424000I0J-3000D01*
G01*
X1665450D02*
G03*
X1662450Y1427000I-3000J0D01*
G01*
Y1406000D02*
G03*
X1665450Y1409000I0J3000D01*
G01*
X1659450D02*
G03*
X1662450Y1406000I3000J0D01*
G01*
X1576050Y1427000D02*
G03*
X1573050Y1424000I0J-3000D01*
G01*
X1579050D02*
G03*
X1576050Y1427000I-3000J0D01*
G01*
Y1406000D02*
G03*
X1579050Y1409000I0J3000D01*
G01*
X1573050D02*
G03*
X1576050Y1406000I3000J0D01*
G01*
X1662450Y1370900D02*
G03*
X1659450Y1367900I0J-3000D01*
G01*
X1665450D02*
G03*
X1662450Y1370900I-3000J0D01*
G01*
Y1354900D02*
G03*
X1665450Y1357900I0J3000D01*
G01*
X1659450D02*
G03*
X1662450Y1354900I3000J0D01*
G01*
X1576050Y1370900D02*
G03*
X1573050Y1367900I0J-3000D01*
G01*
X1579050D02*
G03*
X1576050Y1370900I-3000J0D01*
G01*
Y1354900D02*
G03*
X1579050Y1357900I0J3000D01*
G01*
X1573050D02*
G03*
X1576050Y1354900I3000J0D01*
G01*
X1659450Y1409000D02*
Y1424000D01*
X1665450Y1409000D02*
Y1424000D01*
X1573050Y1409000D02*
Y1424000D01*
X1579050Y1409000D02*
Y1424000D01*
X1659450Y1357900D02*
Y1367900D01*
X1665450Y1357900D02*
Y1367900D01*
X1573050Y1357900D02*
Y1367900D01*
X1579050Y1357900D02*
Y1367900D01*
D124*
X1235158Y1340700D02*
Y1366100D01*
X1214838Y1340700D02*
X1235158D01*
X1214838D02*
Y1366100D01*
X1235158D01*
Y1340700D02*
Y1366100D01*
X1214838Y1340700D02*
X1235158D01*
X1214838D02*
Y1366100D01*
X1235158D01*
X1568250Y1349900D02*
Y1438400D01*
X1670250D01*
Y1349900D02*
Y1438400D01*
X1568250Y1349900D02*
X1670250D01*
M02*
