G04*
G04 #@! TF.GenerationSoftware,Altium Limited,Altium Designer,19.0.15 (446)*
G04*
G04 Layer_Color=8388736*
%FSLAX44Y44*%
%MOMM*%
G71*
G01*
G75*
%ADD13C,2.4000*%
%ADD14C,4.0640*%
%ADD15C,1.7018*%
%ADD16C,2.4892*%
%ADD17C,3.9878*%
%ADD18C,3.0480*%
%ADD19R,1.4112X1.4112*%
%ADD20C,1.4112*%
%ADD21C,0.8032*%
%ADD22C,0.3048*%
%ADD23C,0.7000*%
%ADD24C,1.5000*%
%ADD25C,0.5588*%
%ADD26C,0.5842*%
%ADD27C,0.5080*%
%ADD28C,0.4318*%
%ADD29C,0.4300*%
G36*
X1569550Y1367900D02*
Y1357900D01*
Y1357730D01*
X1569568Y1357390D01*
X1569603Y1357051D01*
X1569657Y1356715D01*
X1569727Y1356382D01*
X1569816Y1356053D01*
X1569921Y1355730D01*
X1570043Y1355412D01*
X1570181Y1355101D01*
X1570336Y1354797D01*
X1570506Y1354503D01*
X1570691Y1354217D01*
X1570891Y1353942D01*
X1571106Y1353677D01*
X1571333Y1353424D01*
X1571574Y1353183D01*
X1571827Y1352956D01*
X1572092Y1352742D01*
X1572367Y1352541D01*
X1572653Y1352356D01*
X1572947Y1352186D01*
X1573251Y1352031D01*
X1573562Y1351893D01*
X1573880Y1351771D01*
X1574203Y1351665D01*
X1574532Y1351577D01*
X1574865Y1351507D01*
X1575201Y1351453D01*
X1575540Y1351418D01*
X1575880Y1351400D01*
X1576050D01*
X1576220D01*
X1576560Y1351418D01*
X1576899Y1351453D01*
X1577235Y1351507D01*
X1577568Y1351577D01*
X1577897Y1351665D01*
X1578221Y1351771D01*
X1578538Y1351893D01*
X1578849Y1352031D01*
X1579153Y1352186D01*
X1579447Y1352356D01*
X1579733Y1352541D01*
X1580008Y1352741D01*
X1580273Y1352956D01*
X1580526Y1353183D01*
X1580766Y1353424D01*
X1580994Y1353677D01*
X1581208Y1353942D01*
X1581409Y1354217D01*
X1581594Y1354503D01*
X1581764Y1354797D01*
X1581919Y1355101D01*
X1582057Y1355412D01*
X1582179Y1355730D01*
X1582285Y1356053D01*
X1582373Y1356382D01*
X1582443Y1356715D01*
X1582497Y1357051D01*
X1582532Y1357390D01*
X1582550Y1357730D01*
Y1357900D01*
Y1367900D01*
Y1368070D01*
X1582532Y1368410D01*
X1582497Y1368749D01*
X1582443Y1369085D01*
X1582373Y1369418D01*
X1582285Y1369747D01*
X1582179Y1370070D01*
X1582057Y1370388D01*
X1581919Y1370699D01*
X1581764Y1371003D01*
X1581594Y1371297D01*
X1581409Y1371583D01*
X1581209Y1371858D01*
X1580994Y1372123D01*
X1580767Y1372376D01*
X1580526Y1372616D01*
X1580273Y1372844D01*
X1580008Y1373058D01*
X1579733Y1373259D01*
X1579447Y1373444D01*
X1579153Y1373614D01*
X1578849Y1373769D01*
X1578538Y1373907D01*
X1578221Y1374029D01*
X1577897Y1374135D01*
X1577568Y1374223D01*
X1577235Y1374293D01*
X1576899Y1374347D01*
X1576560Y1374382D01*
X1576220Y1374400D01*
X1576050D01*
X1575880D01*
X1575540Y1374382D01*
X1575201Y1374347D01*
X1574865Y1374293D01*
X1574532Y1374223D01*
X1574203Y1374135D01*
X1573880Y1374029D01*
X1573562Y1373907D01*
X1573251Y1373769D01*
X1572947Y1373614D01*
X1572653Y1373444D01*
X1572367Y1373259D01*
X1572092Y1373059D01*
X1571827Y1372844D01*
X1571574Y1372617D01*
X1571333Y1372376D01*
X1571106Y1372123D01*
X1570892Y1371858D01*
X1570691Y1371583D01*
X1570506Y1371297D01*
X1570336Y1371003D01*
X1570181Y1370699D01*
X1570043Y1370388D01*
X1569921Y1370070D01*
X1569816Y1369747D01*
X1569727Y1369418D01*
X1569657Y1369085D01*
X1569603Y1368749D01*
X1569568Y1368410D01*
X1569550Y1368070D01*
Y1367900D01*
D01*
D02*
G37*
G36*
Y1424500D02*
Y1408500D01*
X1569554Y1408368D01*
X1569583Y1408042D01*
X1569629Y1407717D01*
X1569691Y1407396D01*
X1569770Y1407078D01*
X1569866Y1406765D01*
X1569978Y1406457D01*
X1570106Y1406155D01*
X1570250Y1405861D01*
X1570409Y1405574D01*
X1570582Y1405296D01*
X1570770Y1405028D01*
X1570972Y1404770D01*
X1571187Y1404523D01*
X1571414Y1404287D01*
X1571654Y1404064D01*
X1571905Y1403853D01*
X1572166Y1403656D01*
X1572438Y1403473D01*
X1572719Y1403304D01*
X1573008Y1403150D01*
X1573305Y1403012D01*
X1573609Y1402889D01*
X1573918Y1402782D01*
X1574233Y1402692D01*
X1574552Y1402619D01*
X1574875Y1402562D01*
X1575200Y1402522D01*
X1575527Y1402499D01*
X1575855Y1402493D01*
X1576050Y1402500D01*
X1576245Y1402493D01*
X1576573Y1402499D01*
X1576900Y1402522D01*
X1577225Y1402562D01*
X1577547Y1402619D01*
X1577867Y1402692D01*
X1578181Y1402782D01*
X1578491Y1402889D01*
X1578795Y1403012D01*
X1579092Y1403150D01*
X1579381Y1403304D01*
X1579662Y1403473D01*
X1579933Y1403656D01*
X1580195Y1403853D01*
X1580446Y1404064D01*
X1580686Y1404287D01*
X1580913Y1404523D01*
X1581128Y1404770D01*
X1581330Y1405028D01*
X1581518Y1405296D01*
X1581691Y1405574D01*
X1581850Y1405861D01*
X1581994Y1406155D01*
X1582122Y1406457D01*
X1582234Y1406765D01*
X1582330Y1407078D01*
X1582409Y1407396D01*
X1582471Y1407717D01*
X1582517Y1408042D01*
X1582545Y1408368D01*
X1582550Y1408500D01*
Y1424500D01*
X1582545Y1424632D01*
X1582517Y1424958D01*
X1582471Y1425283D01*
X1582409Y1425604D01*
X1582330Y1425922D01*
X1582234Y1426235D01*
X1582122Y1426543D01*
X1581994Y1426845D01*
X1581850Y1427139D01*
X1581691Y1427426D01*
X1581518Y1427704D01*
X1581330Y1427972D01*
X1581128Y1428230D01*
X1580913Y1428477D01*
X1580686Y1428713D01*
X1580446Y1428936D01*
X1580195Y1429147D01*
X1579934Y1429344D01*
X1579662Y1429527D01*
X1579381Y1429696D01*
X1579092Y1429850D01*
X1578795Y1429988D01*
X1578491Y1430111D01*
X1578182Y1430217D01*
X1577867Y1430308D01*
X1577547Y1430381D01*
X1577225Y1430438D01*
X1576900Y1430478D01*
X1576573Y1430501D01*
X1576245Y1430507D01*
X1576050Y1430500D01*
X1575855Y1430507D01*
X1575527Y1430501D01*
X1575200Y1430478D01*
X1574875Y1430438D01*
X1574553Y1430381D01*
X1574233Y1430308D01*
X1573918Y1430218D01*
X1573609Y1430111D01*
X1573305Y1429988D01*
X1573008Y1429850D01*
X1572719Y1429696D01*
X1572438Y1429527D01*
X1572166Y1429344D01*
X1571905Y1429147D01*
X1571654Y1428936D01*
X1571414Y1428713D01*
X1571187Y1428477D01*
X1570972Y1428230D01*
X1570770Y1427972D01*
X1570582Y1427704D01*
X1570409Y1427426D01*
X1570250Y1427139D01*
X1570106Y1426845D01*
X1569978Y1426543D01*
X1569866Y1426236D01*
X1569770Y1425922D01*
X1569691Y1425604D01*
X1569629Y1425283D01*
X1569583Y1424958D01*
X1569554Y1424632D01*
X1569550Y1424500D01*
D01*
D02*
G37*
G36*
X1655950Y1367900D02*
Y1357900D01*
Y1357730D01*
X1655968Y1357390D01*
X1656003Y1357051D01*
X1656057Y1356715D01*
X1656127Y1356382D01*
X1656216Y1356053D01*
X1656321Y1355730D01*
X1656443Y1355412D01*
X1656581Y1355101D01*
X1656736Y1354797D01*
X1656906Y1354503D01*
X1657091Y1354217D01*
X1657291Y1353942D01*
X1657506Y1353677D01*
X1657733Y1353424D01*
X1657974Y1353183D01*
X1658227Y1352956D01*
X1658492Y1352742D01*
X1658767Y1352541D01*
X1659053Y1352356D01*
X1659347Y1352186D01*
X1659651Y1352031D01*
X1659962Y1351893D01*
X1660280Y1351771D01*
X1660603Y1351665D01*
X1660932Y1351577D01*
X1661265Y1351507D01*
X1661601Y1351453D01*
X1661940Y1351418D01*
X1662280Y1351400D01*
X1662450D01*
X1662620D01*
X1662960Y1351418D01*
X1663299Y1351453D01*
X1663635Y1351507D01*
X1663968Y1351577D01*
X1664297Y1351665D01*
X1664621Y1351771D01*
X1664938Y1351893D01*
X1665249Y1352031D01*
X1665553Y1352186D01*
X1665847Y1352356D01*
X1666133Y1352541D01*
X1666408Y1352741D01*
X1666673Y1352956D01*
X1666926Y1353183D01*
X1667166Y1353424D01*
X1667394Y1353677D01*
X1667608Y1353942D01*
X1667809Y1354217D01*
X1667994Y1354503D01*
X1668164Y1354797D01*
X1668319Y1355101D01*
X1668457Y1355412D01*
X1668579Y1355730D01*
X1668685Y1356053D01*
X1668773Y1356382D01*
X1668843Y1356715D01*
X1668897Y1357051D01*
X1668932Y1357390D01*
X1668950Y1357730D01*
Y1357900D01*
Y1367900D01*
Y1368070D01*
X1668932Y1368410D01*
X1668897Y1368749D01*
X1668843Y1369085D01*
X1668773Y1369418D01*
X1668685Y1369747D01*
X1668579Y1370070D01*
X1668457Y1370388D01*
X1668319Y1370699D01*
X1668164Y1371003D01*
X1667994Y1371297D01*
X1667809Y1371583D01*
X1667609Y1371858D01*
X1667394Y1372123D01*
X1667167Y1372376D01*
X1666926Y1372616D01*
X1666673Y1372844D01*
X1666408Y1373058D01*
X1666133Y1373259D01*
X1665847Y1373444D01*
X1665553Y1373614D01*
X1665249Y1373769D01*
X1664938Y1373907D01*
X1664621Y1374029D01*
X1664297Y1374135D01*
X1663968Y1374223D01*
X1663635Y1374293D01*
X1663299Y1374347D01*
X1662960Y1374382D01*
X1662620Y1374400D01*
X1662450D01*
X1662280D01*
X1661940Y1374382D01*
X1661601Y1374347D01*
X1661265Y1374293D01*
X1660932Y1374223D01*
X1660603Y1374135D01*
X1660280Y1374029D01*
X1659962Y1373907D01*
X1659651Y1373769D01*
X1659347Y1373614D01*
X1659053Y1373444D01*
X1658767Y1373259D01*
X1658492Y1373059D01*
X1658227Y1372844D01*
X1657974Y1372617D01*
X1657733Y1372376D01*
X1657506Y1372123D01*
X1657292Y1371858D01*
X1657091Y1371583D01*
X1656906Y1371297D01*
X1656736Y1371003D01*
X1656581Y1370699D01*
X1656443Y1370388D01*
X1656321Y1370070D01*
X1656216Y1369747D01*
X1656127Y1369418D01*
X1656057Y1369085D01*
X1656003Y1368749D01*
X1655968Y1368410D01*
X1655950Y1368070D01*
Y1367900D01*
D01*
D02*
G37*
G36*
Y1424500D02*
Y1408500D01*
X1655954Y1408368D01*
X1655983Y1408042D01*
X1656029Y1407717D01*
X1656091Y1407396D01*
X1656170Y1407078D01*
X1656266Y1406765D01*
X1656378Y1406457D01*
X1656506Y1406155D01*
X1656650Y1405861D01*
X1656809Y1405574D01*
X1656982Y1405296D01*
X1657170Y1405028D01*
X1657372Y1404770D01*
X1657587Y1404523D01*
X1657814Y1404287D01*
X1658054Y1404064D01*
X1658305Y1403853D01*
X1658566Y1403656D01*
X1658838Y1403473D01*
X1659119Y1403304D01*
X1659408Y1403150D01*
X1659705Y1403012D01*
X1660009Y1402889D01*
X1660318Y1402782D01*
X1660633Y1402692D01*
X1660952Y1402619D01*
X1661275Y1402562D01*
X1661600Y1402522D01*
X1661927Y1402499D01*
X1662255Y1402493D01*
X1662450Y1402500D01*
X1662645Y1402493D01*
X1662973Y1402499D01*
X1663300Y1402522D01*
X1663625Y1402562D01*
X1663947Y1402619D01*
X1664267Y1402692D01*
X1664581Y1402782D01*
X1664891Y1402889D01*
X1665195Y1403012D01*
X1665492Y1403150D01*
X1665781Y1403304D01*
X1666062Y1403473D01*
X1666333Y1403656D01*
X1666595Y1403853D01*
X1666846Y1404064D01*
X1667086Y1404287D01*
X1667313Y1404523D01*
X1667528Y1404770D01*
X1667730Y1405028D01*
X1667918Y1405296D01*
X1668091Y1405574D01*
X1668250Y1405861D01*
X1668394Y1406155D01*
X1668522Y1406457D01*
X1668634Y1406765D01*
X1668730Y1407078D01*
X1668809Y1407396D01*
X1668871Y1407717D01*
X1668917Y1408042D01*
X1668945Y1408368D01*
X1668950Y1408500D01*
Y1424500D01*
X1668945Y1424632D01*
X1668917Y1424958D01*
X1668871Y1425283D01*
X1668809Y1425604D01*
X1668730Y1425922D01*
X1668634Y1426235D01*
X1668522Y1426543D01*
X1668394Y1426845D01*
X1668250Y1427139D01*
X1668091Y1427426D01*
X1667918Y1427704D01*
X1667730Y1427972D01*
X1667528Y1428230D01*
X1667313Y1428477D01*
X1667086Y1428713D01*
X1666846Y1428936D01*
X1666595Y1429147D01*
X1666334Y1429344D01*
X1666062Y1429527D01*
X1665781Y1429696D01*
X1665492Y1429850D01*
X1665195Y1429988D01*
X1664891Y1430111D01*
X1664582Y1430217D01*
X1664267Y1430308D01*
X1663947Y1430381D01*
X1663625Y1430438D01*
X1663300Y1430478D01*
X1662973Y1430501D01*
X1662645Y1430507D01*
X1662450Y1430500D01*
X1662255Y1430507D01*
X1661927Y1430501D01*
X1661600Y1430478D01*
X1661275Y1430438D01*
X1660953Y1430381D01*
X1660633Y1430308D01*
X1660318Y1430218D01*
X1660009Y1430111D01*
X1659705Y1429988D01*
X1659408Y1429850D01*
X1659119Y1429696D01*
X1658838Y1429527D01*
X1658566Y1429344D01*
X1658305Y1429147D01*
X1658054Y1428936D01*
X1657814Y1428713D01*
X1657587Y1428477D01*
X1657372Y1428230D01*
X1657170Y1427972D01*
X1656982Y1427704D01*
X1656809Y1427426D01*
X1656650Y1427139D01*
X1656506Y1426845D01*
X1656378Y1426543D01*
X1656266Y1426236D01*
X1656170Y1425922D01*
X1656091Y1425604D01*
X1656029Y1425283D01*
X1655983Y1424958D01*
X1655954Y1424632D01*
X1655950Y1424500D01*
D01*
D02*
G37*
D13*
X130000Y50000D02*
D03*
X3100000D02*
D03*
Y1400000D02*
D03*
X130000D02*
D03*
D14*
X381000Y1143000D02*
D03*
X2571750Y762000D02*
D03*
X690565Y190500D02*
D03*
X452435D02*
D03*
X214312D02*
D03*
X309562Y381000D02*
D03*
X261938Y571500D02*
D03*
X238125Y762000D02*
D03*
X2762250Y952500D02*
D03*
X2809875Y762000D02*
D03*
X2738443Y571500D02*
D03*
X2595557Y381000D02*
D03*
X1404935Y190500D02*
D03*
X190500Y1143000D02*
D03*
X571500D02*
D03*
X762000D02*
D03*
X952500D02*
D03*
X1143000D02*
D03*
X1333500D02*
D03*
X1524000D02*
D03*
X1714500D02*
D03*
X1905000D02*
D03*
X2095500D02*
D03*
X2286000D02*
D03*
X2476500D02*
D03*
X2667000D02*
D03*
X2857500D02*
D03*
X3048000D02*
D03*
X381000Y952500D02*
D03*
X190500D02*
D03*
X571500D02*
D03*
X762000D02*
D03*
X952500D02*
D03*
X1143000D02*
D03*
X1333500D02*
D03*
X1524000D02*
D03*
X1714500D02*
D03*
X1905000D02*
D03*
X2095500D02*
D03*
X2286000D02*
D03*
X2476500D02*
D03*
X3048000D02*
D03*
X476250Y762000D02*
D03*
X666750D02*
D03*
X857250D02*
D03*
X1047750D02*
D03*
X1238250D02*
D03*
X1428750D02*
D03*
X1619250D02*
D03*
X1809750D02*
D03*
X2000250D02*
D03*
X2190750D02*
D03*
X2381250D02*
D03*
X3048000D02*
D03*
X523880Y571500D02*
D03*
X714380D02*
D03*
X904880D02*
D03*
X1095380D02*
D03*
X1285880D02*
D03*
X1476380D02*
D03*
X1666880D02*
D03*
X1857380D02*
D03*
X2047880D02*
D03*
X2238380D02*
D03*
X2428880D02*
D03*
X3048000D02*
D03*
X619123Y381000D02*
D03*
X809620D02*
D03*
X1000120D02*
D03*
X1190620D02*
D03*
X1381120D02*
D03*
X1571620D02*
D03*
X1762120D02*
D03*
X1952620D02*
D03*
X2143120D02*
D03*
X2333620D02*
D03*
X2857500D02*
D03*
X3048000D02*
D03*
X2095502Y190500D02*
D03*
X2286000D02*
D03*
X2476500D02*
D03*
X2667000D02*
D03*
X2857500D02*
D03*
X3048000D02*
D03*
D15*
X431800Y1143000D02*
D03*
X330200D02*
D03*
X2622550Y762000D02*
D03*
X2520950D02*
D03*
X639765Y190500D02*
D03*
X741365D02*
D03*
X401635D02*
D03*
X503235D02*
D03*
X163512D02*
D03*
X265112D02*
D03*
X360363Y381000D02*
D03*
X258762D02*
D03*
X312738Y571500D02*
D03*
X211138D02*
D03*
X288925Y762000D02*
D03*
X187325D02*
D03*
X2711450Y952500D02*
D03*
X2813050D02*
D03*
X2860675Y762000D02*
D03*
X2759075D02*
D03*
X2789243Y571500D02*
D03*
X2687643D02*
D03*
X2646357Y381000D02*
D03*
X2544757D02*
D03*
X1455735Y190500D02*
D03*
X1354135D02*
D03*
X139700Y1143000D02*
D03*
X241300D02*
D03*
X520700D02*
D03*
X622300D02*
D03*
X711200D02*
D03*
X812800D02*
D03*
X901700D02*
D03*
X1003300D02*
D03*
X1092200D02*
D03*
X1193800D02*
D03*
X1282700D02*
D03*
X1384300D02*
D03*
X1473200D02*
D03*
X1574800D02*
D03*
X1663700D02*
D03*
X1765300D02*
D03*
X1854200D02*
D03*
X1955800D02*
D03*
X2044700D02*
D03*
X2146300D02*
D03*
X2235200D02*
D03*
X2336800D02*
D03*
X2425700D02*
D03*
X2527300D02*
D03*
X2616200D02*
D03*
X2717800D02*
D03*
X2806700D02*
D03*
X2908300D02*
D03*
X2997200D02*
D03*
X3098800D02*
D03*
X330200Y952500D02*
D03*
X431800D02*
D03*
X139700D02*
D03*
X241300D02*
D03*
X520700D02*
D03*
X622300D02*
D03*
X711200D02*
D03*
X812800D02*
D03*
X901700D02*
D03*
X1003300D02*
D03*
X1092200D02*
D03*
X1193800D02*
D03*
X1282700D02*
D03*
X1384300D02*
D03*
X1473200D02*
D03*
X1574800D02*
D03*
X1663700D02*
D03*
X1765300D02*
D03*
X1854200D02*
D03*
X1955800D02*
D03*
X2044700D02*
D03*
X2146300D02*
D03*
X2235200D02*
D03*
X2336800D02*
D03*
X2425700D02*
D03*
X2527300D02*
D03*
X2997200D02*
D03*
X3098800D02*
D03*
X425450Y762000D02*
D03*
X527050D02*
D03*
X615950D02*
D03*
X717550D02*
D03*
X806450D02*
D03*
X908050D02*
D03*
X996950D02*
D03*
X1098550D02*
D03*
X1187450D02*
D03*
X1289050D02*
D03*
X1377950D02*
D03*
X1479550D02*
D03*
X1568450D02*
D03*
X1670050D02*
D03*
X1758950D02*
D03*
X1860550D02*
D03*
X1949450D02*
D03*
X2051050D02*
D03*
X2139950D02*
D03*
X2241550D02*
D03*
X2330450D02*
D03*
X2432050D02*
D03*
X2997200D02*
D03*
X3098800D02*
D03*
X473080Y571500D02*
D03*
X574680D02*
D03*
X663580D02*
D03*
X765180D02*
D03*
X854080D02*
D03*
X955680D02*
D03*
X1044580D02*
D03*
X1146180D02*
D03*
X1235080D02*
D03*
X1336680D02*
D03*
X1425580D02*
D03*
X1527180D02*
D03*
X1616080D02*
D03*
X1717680D02*
D03*
X1806580D02*
D03*
X1908180D02*
D03*
X1997080D02*
D03*
X2098680D02*
D03*
X2187580D02*
D03*
X2289180D02*
D03*
X2378080D02*
D03*
X2479680D02*
D03*
X2997200D02*
D03*
X3098800D02*
D03*
X568322Y381000D02*
D03*
X669922D02*
D03*
X758820D02*
D03*
X860420D02*
D03*
X949320D02*
D03*
X1050920D02*
D03*
X1139820D02*
D03*
X1241420D02*
D03*
X1330320D02*
D03*
X1431920D02*
D03*
X1520820D02*
D03*
X1622420D02*
D03*
X1711320D02*
D03*
X1812920D02*
D03*
X1901820D02*
D03*
X2003420D02*
D03*
X2092320D02*
D03*
X2193920D02*
D03*
X2282820D02*
D03*
X2384420D02*
D03*
X2806700D02*
D03*
X2908300D02*
D03*
X2997200D02*
D03*
X3098800D02*
D03*
X2044702Y190500D02*
D03*
X2146302D02*
D03*
X2235200D02*
D03*
X2336800D02*
D03*
X2425700D02*
D03*
X2527300D02*
D03*
X2616200D02*
D03*
X2717800D02*
D03*
X2806700D02*
D03*
X2908300D02*
D03*
X2997200D02*
D03*
X3098800D02*
D03*
D16*
X406400Y1193800D02*
D03*
X342900Y1168400D02*
D03*
X2597150Y812800D02*
D03*
X2533650Y787400D02*
D03*
X652465Y215900D02*
D03*
X715965Y241300D02*
D03*
X414335Y215900D02*
D03*
X477835Y241300D02*
D03*
X176213Y215900D02*
D03*
X239713Y241300D02*
D03*
X334963Y431800D02*
D03*
X271462Y406400D02*
D03*
X287337Y622300D02*
D03*
X223838Y596900D02*
D03*
X263525Y812800D02*
D03*
X200025Y787400D02*
D03*
X2724150Y977900D02*
D03*
X2787650Y1003300D02*
D03*
X2835275Y812800D02*
D03*
X2771775Y787400D02*
D03*
X2763842Y622300D02*
D03*
X2700343Y596900D02*
D03*
X2620957Y431800D02*
D03*
X2557457Y406400D02*
D03*
X1430335Y241300D02*
D03*
X1366835Y215900D02*
D03*
X152400Y1168400D02*
D03*
X215900Y1193800D02*
D03*
X533400Y1168400D02*
D03*
X596900Y1193800D02*
D03*
X723900Y1168400D02*
D03*
X787400Y1193800D02*
D03*
X914400Y1168400D02*
D03*
X977900Y1193800D02*
D03*
X1104900Y1168400D02*
D03*
X1168400Y1193800D02*
D03*
X1295400Y1168400D02*
D03*
X1358900Y1193800D02*
D03*
X1485900Y1168400D02*
D03*
X1549400Y1193800D02*
D03*
X1676400Y1168400D02*
D03*
X1739900Y1193800D02*
D03*
X1866900Y1168400D02*
D03*
X1930400Y1193800D02*
D03*
X2057400Y1168400D02*
D03*
X2120900Y1193800D02*
D03*
X2247900Y1168400D02*
D03*
X2311400Y1193800D02*
D03*
X2438400Y1168400D02*
D03*
X2501900Y1193800D02*
D03*
X2628900Y1168400D02*
D03*
X2692400Y1193800D02*
D03*
X2819400Y1168400D02*
D03*
X2882900Y1193800D02*
D03*
X3009900Y1168400D02*
D03*
X3073400Y1193800D02*
D03*
X342900Y977900D02*
D03*
X406400Y1003300D02*
D03*
X152400Y977900D02*
D03*
X215900Y1003300D02*
D03*
X533400Y977900D02*
D03*
X596900Y1003300D02*
D03*
X723900Y977900D02*
D03*
X787400Y1003300D02*
D03*
X914400Y977900D02*
D03*
X977900Y1003300D02*
D03*
X1104900Y977900D02*
D03*
X1168400Y1003300D02*
D03*
X1295400Y977900D02*
D03*
X1358900Y1003300D02*
D03*
X1485900Y977900D02*
D03*
X1549400Y1003300D02*
D03*
X1676400Y977900D02*
D03*
X1739900Y1003300D02*
D03*
X1866900Y977900D02*
D03*
X1930400Y1003300D02*
D03*
X2057400Y977900D02*
D03*
X2120900Y1003300D02*
D03*
X2247900Y977900D02*
D03*
X2311400Y1003300D02*
D03*
X2438400Y977900D02*
D03*
X2501900Y1003300D02*
D03*
X3009900Y977900D02*
D03*
X3073400Y1003300D02*
D03*
X438150Y787400D02*
D03*
X501650Y812800D02*
D03*
X628650Y787400D02*
D03*
X692150Y812800D02*
D03*
X819150Y787400D02*
D03*
X882650Y812800D02*
D03*
X1009650Y787400D02*
D03*
X1073150Y812800D02*
D03*
X1200150Y787400D02*
D03*
X1263650Y812800D02*
D03*
X1390650Y787400D02*
D03*
X1454150Y812800D02*
D03*
X1581150Y787400D02*
D03*
X1644650Y812800D02*
D03*
X1771650Y787400D02*
D03*
X1835150Y812800D02*
D03*
X1962150Y787400D02*
D03*
X2025650Y812800D02*
D03*
X2152650Y787400D02*
D03*
X2216150Y812800D02*
D03*
X2343150Y787400D02*
D03*
X2406650Y812800D02*
D03*
X3009900Y787400D02*
D03*
X3073400Y812800D02*
D03*
X485780Y596900D02*
D03*
X549280Y622300D02*
D03*
X676280Y596900D02*
D03*
X739780Y622300D02*
D03*
X866780Y596900D02*
D03*
X930280Y622300D02*
D03*
X1057280Y596900D02*
D03*
X1120780Y622300D02*
D03*
X1247780Y596900D02*
D03*
X1311280Y622300D02*
D03*
X1438280Y596900D02*
D03*
X1501780Y622300D02*
D03*
X1628780Y596900D02*
D03*
X1692280Y622300D02*
D03*
X1819280Y596900D02*
D03*
X1882780Y622300D02*
D03*
X2009780Y596900D02*
D03*
X2073280Y622300D02*
D03*
X2200280Y596900D02*
D03*
X2263780Y622300D02*
D03*
X2390780Y596900D02*
D03*
X2454280Y622300D02*
D03*
X3009900Y596900D02*
D03*
X3073400Y622300D02*
D03*
X581022Y406400D02*
D03*
X644522Y431800D02*
D03*
X771520Y406400D02*
D03*
X835020Y431800D02*
D03*
X962020Y406400D02*
D03*
X1025520Y431800D02*
D03*
X1152520Y406400D02*
D03*
X1216020Y431800D02*
D03*
X1343020Y406400D02*
D03*
X1406520Y431800D02*
D03*
X1533520Y406400D02*
D03*
X1597020Y431800D02*
D03*
X1724020Y406400D02*
D03*
X1787520Y431800D02*
D03*
X1914520Y406400D02*
D03*
X1978020Y431800D02*
D03*
X2105020Y406400D02*
D03*
X2168520Y431800D02*
D03*
X2295520Y406400D02*
D03*
X2359020Y431800D02*
D03*
X2819400Y406400D02*
D03*
X2882900Y431800D02*
D03*
X3009900Y406400D02*
D03*
X3073400Y431800D02*
D03*
X2057402Y215900D02*
D03*
X2120903Y241300D02*
D03*
X2247900Y215900D02*
D03*
X2311400Y241300D02*
D03*
X2438400Y215900D02*
D03*
X2501900Y241300D02*
D03*
X2628900Y215900D02*
D03*
X2692400Y241300D02*
D03*
X2819400Y215900D02*
D03*
X2882900Y241300D02*
D03*
X3009900Y215900D02*
D03*
X3073400Y241300D02*
D03*
D17*
X190182Y463550D02*
D03*
X428942D02*
D03*
X2881630Y1035050D02*
D03*
X2642870D02*
D03*
X2619062Y654050D02*
D03*
X2857823D02*
D03*
X904935Y273050D02*
D03*
X1904935D02*
D03*
D18*
X190182Y311150D02*
D03*
X428942D02*
D03*
X2881630Y882650D02*
D03*
X2642870D02*
D03*
X2619062Y501650D02*
D03*
X2857823D02*
D03*
X904935Y120650D02*
D03*
X1904935D02*
D03*
D19*
X1840000Y1416500D02*
D03*
D20*
X1860000D02*
D03*
D21*
X1662450D02*
D03*
X1576050D02*
D03*
X1662450Y1362900D02*
D03*
X1576050D02*
D03*
D22*
X1260000Y1339340D02*
D03*
X1082500Y1339187D02*
D03*
X1128710Y1329250D02*
D03*
X560000Y1378500D02*
D03*
X594500Y1474500D02*
D03*
X582500Y1462500D02*
D03*
X467500Y1422500D02*
D03*
X265110Y174750D02*
D03*
X463000Y1417500D02*
D03*
X392500Y1398500D02*
D03*
X397341Y1393500D02*
D03*
X401635Y1388500D02*
D03*
X406400Y1383500D02*
D03*
X415000Y1363286D02*
D03*
Y1358714D02*
D03*
X411950Y1328500D02*
D03*
X505000Y1348500D02*
D03*
X535000Y1320000D02*
D03*
X411950Y1348500D02*
D03*
X400874Y1404126D02*
D03*
X1095000Y1270250D02*
D03*
X539500Y1390500D02*
D03*
X697500Y1378500D02*
D03*
Y1390500D02*
D03*
Y1402500D02*
D03*
X500000Y1414500D02*
D03*
X697500D02*
D03*
X1616964Y1310000D02*
D03*
X1621536D02*
D03*
X655710Y1365000D02*
D03*
X897500Y1491000D02*
D03*
X645000Y1370000D02*
D03*
X897500Y1470000D02*
D03*
X1245000Y1357749D02*
D03*
X1621536Y1365300D02*
D03*
X1616964Y1331000D02*
D03*
X1621536D02*
D03*
X1616964Y1365300D02*
D03*
X1147098Y1318152D02*
D03*
X1252500Y1368950D02*
D03*
X1646750Y1345000D02*
D03*
X1626721Y1365300D02*
D03*
D23*
X1632500Y1309815D02*
D03*
X1591786Y1312230D02*
D03*
X3086500Y328472D02*
D03*
X2999813Y287500D02*
D03*
X2691997Y335200D02*
D03*
X2536043Y297500D02*
D03*
X3086500Y137500D02*
D03*
X2896000D02*
D03*
X2985691Y143000D02*
D03*
X2795190D02*
D03*
X2705500Y137500D02*
D03*
X2515000D02*
D03*
X2604691Y143000D02*
D03*
X2414190D02*
D03*
X2324503Y137500D02*
D03*
X2134002D02*
D03*
X2223690Y143000D02*
D03*
X2033190D02*
D03*
X1443435Y137500D02*
D03*
X1342630Y143000D02*
D03*
X729060Y137500D02*
D03*
X628250Y143000D02*
D03*
X490935Y137500D02*
D03*
X390130Y143000D02*
D03*
X252812Y137500D02*
D03*
X3110310Y706000D02*
D03*
X2985690Y524000D02*
D03*
X2687643Y520000D02*
D03*
X2467380Y518500D02*
D03*
X2276880D02*
D03*
X2366570Y524000D02*
D03*
X2176070D02*
D03*
X2086378Y518500D02*
D03*
X1895877D02*
D03*
X1985570Y524000D02*
D03*
X1795070D02*
D03*
X1705378Y518500D02*
D03*
X1514877D02*
D03*
X1604570Y524000D02*
D03*
X1414070D02*
D03*
X1324377Y518500D02*
D03*
X1133877D02*
D03*
X1223570Y524000D02*
D03*
X1033070D02*
D03*
X943380Y518500D02*
D03*
X752880D02*
D03*
X842570Y524000D02*
D03*
X652070D02*
D03*
X461570D02*
D03*
X222621Y518500D02*
D03*
X2776942D02*
D03*
X318690Y905000D02*
D03*
X141106Y899148D02*
D03*
X699100Y905000D02*
D03*
X508600D02*
D03*
X1080438D02*
D03*
X889938D02*
D03*
X1461690D02*
D03*
X1271190D02*
D03*
X1842438D02*
D03*
X1651938D02*
D03*
X2033190D02*
D03*
X2223690D02*
D03*
X2414190D02*
D03*
X2699940D02*
D03*
X2985690D02*
D03*
X3086500Y899148D02*
D03*
X2800750Y899500D02*
D03*
X2515000D02*
D03*
X2133997D02*
D03*
X2324495D02*
D03*
X1753000Y899500D02*
D03*
X1943497D02*
D03*
X1372000D02*
D03*
X1562497D02*
D03*
X991000D02*
D03*
X1181497D02*
D03*
X610000D02*
D03*
X800497D02*
D03*
X271462D02*
D03*
X461960D02*
D03*
X3110310Y1085000D02*
D03*
X2938210Y1106000D02*
D03*
X2557460Y1109472D02*
D03*
X2747960D02*
D03*
X2176210Y1106000D02*
D03*
X2366707D02*
D03*
X1795460D02*
D03*
X1985957D02*
D03*
X1414460D02*
D03*
X1604957D02*
D03*
X1033460D02*
D03*
X1223957D02*
D03*
X652210D02*
D03*
X842707D02*
D03*
X461960D02*
D03*
X271462D02*
D03*
X570000Y1368950D02*
D03*
Y1423680D02*
D03*
D24*
X177500Y1345000D02*
D03*
X214312Y70000D02*
D03*
X3030000Y71270D02*
D03*
Y1370000D02*
D03*
D25*
X375000Y1414000D02*
D03*
X225000Y1087000D02*
D03*
X215900Y1050000D02*
D03*
X171400Y406400D02*
D03*
X139700Y414200D02*
D03*
X287337Y1168400D02*
D03*
X242500D02*
D03*
X1341434Y836000D02*
D03*
X1313434Y864000D02*
D03*
X2076000Y863437D02*
D03*
X2103000Y836437D02*
D03*
X2484434Y836000D02*
D03*
X2466434Y854000D02*
D03*
D26*
X412500Y1337500D02*
D03*
X401635Y1430000D02*
D03*
X507500Y1408372D02*
D03*
X473080Y1428200D02*
D03*
X507500Y1327363D02*
D03*
D27*
X503240Y174750D02*
D03*
X360360Y365250D02*
D03*
X754759Y438069D02*
D03*
X312740Y555750D02*
D03*
X574680D02*
D03*
X302500Y785000D02*
D03*
X450435Y1240000D02*
D03*
X527050Y746250D02*
D03*
X455000Y1235000D02*
D03*
X312500Y1042262D02*
D03*
X459086Y1230000D02*
D03*
X431800Y936750D02*
D03*
D28*
X443310Y1127250D02*
D03*
X2572500Y437310D02*
D03*
X2333800Y450500D02*
D03*
X1952710Y450250D02*
D03*
X2120590Y437560D02*
D03*
X1571800Y450500D02*
D03*
X1739680Y437810D02*
D03*
X1190710Y450250D02*
D03*
X1358590Y437560D02*
D03*
X977500Y437310D02*
D03*
X809620Y450000D02*
D03*
X2564550Y820000D02*
D03*
X2183550D02*
D03*
X1802550D02*
D03*
X1421550D02*
D03*
X1040000D02*
D03*
X660000Y819550D02*
D03*
X2343150Y820000D02*
D03*
X1962150D02*
D03*
X1581150D02*
D03*
X1200150D02*
D03*
X819150D02*
D03*
X602750Y835000D02*
D03*
X824310Y1127250D02*
D03*
X1205310D02*
D03*
X1586310D02*
D03*
X1967310D02*
D03*
X2348310D02*
D03*
X2729310D02*
D03*
X3110310D02*
D03*
D29*
X1374450Y1312050D02*
D03*
X1362500Y1335250D02*
D03*
M02*
