G04*
G04 #@! TF.GenerationSoftware,Altium Limited,Altium Designer,19.0.15 (446)*
G04*
G04 Layer_Color=16711935*
%FSLAX44Y44*%
%MOMM*%
G71*
G01*
G75*
%ADD115C,0.1000*%
%ADD117C,0.0000*%
%ADD125C,0.0254*%
%ADD126R,0.6187X2.9200*%
%ADD127R,4.6000X1.0222*%
D115*
X660200Y1303500D02*
G03*
X660200Y1303500I-5000J0D01*
G01*
X1257500Y1342500D02*
Y1353000D01*
X1242500Y1342500D02*
Y1353000D01*
Y1342500D02*
X1257500D01*
X1242500Y1353000D02*
X1257500D01*
X898500Y1450750D02*
X909000D01*
X898500Y1456250D02*
X909000D01*
X898500Y1450750D02*
Y1456250D01*
X909000Y1450750D02*
Y1456250D01*
X614250Y1479250D02*
X631750D01*
X614250Y1469750D02*
X631750D01*
Y1479250D01*
X614250Y1469750D02*
Y1479250D01*
X650250Y1430750D02*
X660750D01*
X650250Y1436250D02*
X660750D01*
X650250Y1430750D02*
Y1436250D01*
X660750Y1430750D02*
Y1436250D01*
X664250Y1445750D02*
Y1455250D01*
X646750Y1445750D02*
Y1455250D01*
X664250D01*
X646750Y1445750D02*
X664250D01*
X650250Y1471750D02*
X660750D01*
X650250Y1477250D02*
X660750D01*
X650250Y1471750D02*
Y1477250D01*
X660750Y1471750D02*
Y1477250D01*
X684500Y1459750D02*
X695000D01*
X684500Y1465250D02*
X695000D01*
X684500Y1459750D02*
Y1465250D01*
X695000Y1459750D02*
Y1465250D01*
X684500Y1483750D02*
X695000D01*
X684500Y1489250D02*
X695000D01*
X684500Y1483750D02*
Y1489250D01*
X695000Y1483750D02*
Y1489250D01*
X716750Y1303250D02*
Y1312750D01*
X734250Y1303250D02*
Y1312750D01*
X716750Y1303250D02*
X734250D01*
X716750Y1312750D02*
X734250D01*
X754500Y1305250D02*
X765000D01*
X754500Y1310750D02*
X765000D01*
X754500Y1305250D02*
Y1310750D01*
X765000Y1305250D02*
Y1310750D01*
X872750Y1472750D02*
X883250D01*
X872750Y1467250D02*
X883250D01*
Y1472750D01*
X872750Y1467250D02*
Y1472750D01*
Y1493750D02*
X883250D01*
X872750Y1488250D02*
X883250D01*
Y1493750D01*
X872750Y1488250D02*
Y1493750D01*
X599250Y1296500D02*
X661750D01*
X599250Y1359500D02*
X661750D01*
Y1296500D02*
Y1359500D01*
X599250Y1296500D02*
Y1359500D01*
X423450Y1303400D02*
Y1308600D01*
X433750Y1303400D02*
Y1308600D01*
X423450Y1303400D02*
X433750D01*
X423450Y1308600D02*
X433750D01*
X423450Y1320900D02*
Y1326100D01*
X433750Y1320900D02*
Y1326100D01*
X423450Y1320900D02*
X433750D01*
X423450Y1326100D02*
X433750D01*
X430350Y1420900D02*
Y1426100D01*
X440650Y1420900D02*
Y1426100D01*
X430350Y1420900D02*
X440650D01*
X430350Y1426100D02*
X440650D01*
X415750Y1454750D02*
Y1472250D01*
X425250Y1454750D02*
Y1472250D01*
X415750D02*
X425250D01*
X415750Y1454750D02*
X425250D01*
X492550Y1320900D02*
Y1326100D01*
X482250Y1320900D02*
Y1326100D01*
X492550D01*
X482250Y1320900D02*
X492550D01*
X518150Y1395900D02*
Y1401100D01*
X507850Y1395900D02*
Y1401100D01*
X518150D01*
X507850Y1395900D02*
X518150D01*
X439000Y1450500D02*
X472000D01*
X439000Y1476500D02*
X472000D01*
X439000Y1450500D02*
Y1476500D01*
X472000Y1450500D02*
Y1476500D01*
X495250Y1454750D02*
Y1472250D01*
X485750Y1454750D02*
Y1472250D01*
Y1454750D02*
X495250D01*
X485750Y1472250D02*
X495250D01*
X364905Y1323750D02*
Y1333250D01*
X347405Y1323750D02*
Y1333250D01*
X364905D01*
X347405Y1323750D02*
X364905D01*
Y1363750D02*
Y1373250D01*
X347405Y1363750D02*
Y1373250D01*
X364905D01*
X347405Y1363750D02*
X364905D01*
X382850Y1370900D02*
Y1376100D01*
X393150Y1370900D02*
Y1376100D01*
X382850Y1370900D02*
X393150D01*
X382850Y1376100D02*
X393150D01*
X1203350Y1350150D02*
X1206650D01*
X1203350Y1343849D02*
X1206650D01*
X1203350D02*
Y1350150D01*
X1206650Y1343849D02*
Y1350150D01*
X1137548Y1326650D02*
Y1331850D01*
X1147848Y1326650D02*
Y1331850D01*
X1137548Y1326650D02*
X1147848D01*
X1137548Y1331850D02*
X1147848D01*
X1112452Y1326650D02*
Y1331850D01*
X1102152Y1326650D02*
Y1331850D01*
X1112452D01*
X1102152Y1326650D02*
X1112452D01*
X1103402Y1318000D02*
X1113902D01*
X1103402Y1312500D02*
X1113902D01*
Y1318000D01*
X1103402Y1312500D02*
Y1318000D01*
X1085250Y1285000D02*
Y1295500D01*
X1079750Y1285000D02*
Y1295500D01*
Y1285000D02*
X1085250D01*
X1079750Y1295500D02*
X1085250D01*
X1064750Y1285000D02*
Y1295500D01*
X1070250Y1285000D02*
Y1295500D01*
X1064750D02*
X1070250D01*
X1064750Y1285000D02*
X1070250D01*
X1180100Y1309999D02*
Y1327500D01*
X1189600Y1309999D02*
Y1327500D01*
X1180100D02*
X1189600D01*
X1180100Y1309999D02*
X1189600D01*
X1085250Y1315750D02*
Y1326250D01*
X1079750Y1315750D02*
Y1326250D01*
Y1315750D02*
X1085250D01*
X1079750Y1326250D02*
X1085250D01*
X1175960Y1362400D02*
X1193850D01*
X1175960Y1340400D02*
X1193850D01*
X1175960D02*
Y1362400D01*
X1193850Y1340400D02*
Y1362400D01*
X1107000Y1344300D02*
X1153000D01*
X1107000Y1373500D02*
X1153000D01*
X1107000Y1344300D02*
Y1373500D01*
X1153000Y1344300D02*
Y1373500D01*
X1009500Y1276750D02*
Y1352750D01*
X1055500Y1276750D02*
Y1352750D01*
X1009500D02*
X1055500D01*
X1009500Y1276750D02*
X1055500D01*
X1458750Y1307749D02*
Y1318250D01*
X1453250Y1307749D02*
Y1318250D01*
Y1307749D02*
X1458750D01*
X1453250Y1318250D02*
X1458750D01*
X1390000Y1315750D02*
X1400500D01*
X1390000Y1310250D02*
X1400500D01*
Y1315750D01*
X1390000Y1310250D02*
Y1315750D01*
X1325450Y1290500D02*
X1330950D01*
X1325450Y1279999D02*
X1330950D01*
X1325450D02*
Y1290500D01*
X1330950Y1279999D02*
Y1290500D01*
X1297830Y1325150D02*
Y1330350D01*
X1308130Y1325150D02*
Y1330350D01*
X1297830Y1325150D02*
X1308130D01*
X1297830Y1330350D02*
X1308130D01*
X1303348Y1260750D02*
X1313848D01*
X1303348Y1266249D02*
X1313848D01*
X1303348Y1260750D02*
Y1266249D01*
X1313848Y1260750D02*
Y1266249D01*
X1258350Y1368999D02*
X1261650D01*
X1258350Y1362700D02*
X1261650D01*
X1258350D02*
Y1368999D01*
X1261650Y1362700D02*
Y1368999D01*
X1254670Y1309450D02*
Y1314650D01*
X1264970Y1309450D02*
Y1314650D01*
X1254670Y1309450D02*
X1264970D01*
X1254670Y1314650D02*
X1264970D01*
X1473750Y1319250D02*
Y1329749D01*
X1468250Y1319250D02*
Y1329749D01*
Y1319250D02*
X1473750D01*
X1468250Y1329749D02*
X1473750D01*
X1334000Y1320550D02*
X1361000D01*
X1334000Y1303549D02*
X1361000D01*
Y1320550D01*
X1334000Y1303549D02*
Y1320550D01*
X1279580Y1364250D02*
X1306580D01*
X1279580Y1381250D02*
X1306580D01*
X1279580Y1364250D02*
Y1381250D01*
X1306580Y1364250D02*
Y1381250D01*
X1296380Y1281549D02*
X1306880D01*
X1296380Y1276050D02*
X1306880D01*
Y1281549D01*
X1296380Y1276050D02*
Y1281549D01*
X1279580Y1339250D02*
X1306580D01*
X1279580Y1356250D02*
X1306580D01*
X1279580Y1339250D02*
Y1356250D01*
X1306580Y1339250D02*
Y1356250D01*
X1539750Y1325000D02*
Y1335500D01*
X1545250Y1325000D02*
Y1335500D01*
X1539750D02*
X1545250D01*
X1539750Y1325000D02*
X1545250D01*
X1530250D02*
Y1335500D01*
X1524750Y1325000D02*
Y1335500D01*
Y1325000D02*
X1530250D01*
X1524750Y1335500D02*
X1530250D01*
X1589000Y1324250D02*
Y1334750D01*
X1594500Y1324250D02*
Y1334750D01*
X1589000D02*
X1594500D01*
X1589000Y1324250D02*
X1594500D01*
X1644000D02*
Y1334750D01*
X1649500Y1324250D02*
Y1334750D01*
X1644000D02*
X1649500D01*
X1644000Y1324250D02*
X1649500D01*
X1602000Y1338250D02*
X1611500D01*
X1602000Y1320750D02*
X1611500D01*
X1602000D02*
Y1338250D01*
X1611500Y1320750D02*
Y1338250D01*
X1627000D02*
X1636500D01*
X1627000Y1320750D02*
X1636500D01*
X1627000D02*
Y1338250D01*
X1636500Y1320750D02*
Y1338250D01*
X154600Y120750D02*
Y131050D01*
X149400Y120750D02*
Y131050D01*
Y120750D02*
X154600D01*
X149400Y131050D02*
X154600D01*
X2035790Y120750D02*
Y131050D01*
X2030590Y120750D02*
Y131050D01*
Y120750D02*
X2035790D01*
X2030590Y131050D02*
X2035790D01*
X1345230Y120750D02*
Y131050D01*
X1340030Y120750D02*
Y131050D01*
Y120750D02*
X1345230D01*
X1340030Y131050D02*
X1345230D01*
X630850Y120750D02*
Y131050D01*
X625650Y120750D02*
Y131050D01*
Y120750D02*
X630850D01*
X625650Y131050D02*
X630850D01*
X392730Y120750D02*
Y131050D01*
X387530Y120750D02*
Y131050D01*
Y120750D02*
X392730D01*
X387530Y131050D02*
X392730D01*
X2416790Y120750D02*
Y131050D01*
X2411590Y120750D02*
Y131050D01*
Y120750D02*
X2416790D01*
X2411590Y131050D02*
X2416790D01*
X2226290Y120750D02*
Y131050D01*
X2221090Y120750D02*
Y131050D01*
Y120750D02*
X2226290D01*
X2221090Y131050D02*
X2226290D01*
X2607290Y120750D02*
Y131050D01*
X2602090Y120750D02*
Y131050D01*
Y120750D02*
X2607290D01*
X2602090Y131050D02*
X2607290D01*
X2988290Y120750D02*
Y131050D01*
X2983090Y120750D02*
Y131050D01*
Y120750D02*
X2988290D01*
X2983090Y131050D02*
X2988290D01*
X2797790Y120750D02*
Y131050D01*
X2792590Y120750D02*
Y131050D01*
Y120750D02*
X2797790D01*
X2792590Y131050D02*
X2797790D01*
X2655270Y334450D02*
Y344750D01*
X2660470Y334450D02*
Y344750D01*
X2655270D02*
X2660470D01*
X2655270Y334450D02*
X2660470D01*
X2917210D02*
Y344750D01*
X2922410Y334450D02*
Y344750D01*
X2917210D02*
X2922410D01*
X2917210Y334450D02*
X2922410D01*
X3107710D02*
Y344750D01*
X3112910Y334450D02*
Y344750D01*
X3107710D02*
X3112910D01*
X3107710Y334450D02*
X3112910D01*
X2012330D02*
Y344750D01*
X2017530Y334450D02*
Y344750D01*
X2012330D02*
X2017530D01*
X2012330Y334450D02*
X2017530D01*
X2202830D02*
Y344750D01*
X2208030Y334450D02*
Y344750D01*
X2202830D02*
X2208030D01*
X2202830Y334450D02*
X2208030D01*
X2393330D02*
Y344750D01*
X2398530Y334450D02*
Y344750D01*
X2393330D02*
X2398530D01*
X2393330Y334450D02*
X2398530D01*
X1440830D02*
Y344750D01*
X1446030Y334450D02*
Y344750D01*
X1440830D02*
X1446030D01*
X1440830Y334450D02*
X1446030D01*
X1631330D02*
Y344750D01*
X1636530Y334450D02*
Y344750D01*
X1631330D02*
X1636530D01*
X1631330Y334450D02*
X1636530D01*
X1821830D02*
Y344750D01*
X1827030Y334450D02*
Y344750D01*
X1821830D02*
X1827030D01*
X1821830Y334450D02*
X1827030D01*
X1250330D02*
Y344750D01*
X1255530Y334450D02*
Y344750D01*
X1250330D02*
X1255530D01*
X1250330Y334450D02*
X1255530D01*
X869330D02*
Y344750D01*
X874530Y334450D02*
Y344750D01*
X869330D02*
X874530D01*
X869330Y334450D02*
X874530D01*
X202230Y501750D02*
Y512050D01*
X197030Y501750D02*
Y512050D01*
Y501750D02*
X202230D01*
X197030Y512050D02*
X202230D01*
X369270Y334450D02*
Y344750D01*
X374470Y334450D02*
Y344750D01*
X369270D02*
X374470D01*
X369270Y334450D02*
X374470D01*
X678830D02*
Y344750D01*
X684030Y334450D02*
Y344750D01*
X678830D02*
X684030D01*
X678830Y334450D02*
X684030D01*
X1035670Y501750D02*
Y512050D01*
X1030470Y501750D02*
Y512050D01*
Y501750D02*
X1035670D01*
X1030470Y512050D02*
X1035670D01*
X845170Y501750D02*
Y512050D01*
X839970Y501750D02*
Y512050D01*
Y501750D02*
X845170D01*
X839970Y512050D02*
X845170D01*
X654670Y501750D02*
Y512050D01*
X649470Y501750D02*
Y512050D01*
Y501750D02*
X654670D01*
X649470Y512050D02*
X654670D01*
X464170Y501750D02*
Y512050D01*
X458970Y501750D02*
Y512050D01*
Y501750D02*
X464170D01*
X458970Y512050D02*
X464170D01*
X1607170Y501750D02*
Y512050D01*
X1601970Y501750D02*
Y512050D01*
Y501750D02*
X1607170D01*
X1601970Y512050D02*
X1607170D01*
X1416670Y501750D02*
Y512050D01*
X1411470Y501750D02*
Y512050D01*
Y501750D02*
X1416670D01*
X1411470Y512050D02*
X1416670D01*
X1226170Y501750D02*
Y512050D01*
X1220970Y501750D02*
Y512050D01*
Y501750D02*
X1226170D01*
X1220970Y512050D02*
X1226170D01*
X1797670Y501750D02*
Y512050D01*
X1792470Y501750D02*
Y512050D01*
Y501750D02*
X1797670D01*
X1792470Y512050D02*
X1797670D01*
X1988170Y501750D02*
Y512050D01*
X1982970Y501750D02*
Y512050D01*
Y501750D02*
X1988170D01*
X1982970Y512050D02*
X1988170D01*
X2178670Y501750D02*
Y512050D01*
X2173470Y501750D02*
Y512050D01*
Y501750D02*
X2178670D01*
X2173470Y512050D02*
X2178670D01*
X2988290Y501750D02*
Y512050D01*
X2983090Y501750D02*
Y512050D01*
Y501750D02*
X2988290D01*
X2983090Y512050D02*
X2988290D01*
X2678730Y501750D02*
Y512050D01*
X2673530Y501750D02*
Y512050D01*
Y501750D02*
X2678730D01*
X2673530Y512050D02*
X2678730D01*
X2369170Y501750D02*
Y512050D01*
X2363970Y501750D02*
Y512050D01*
Y501750D02*
X2369170D01*
X2363970Y512050D02*
X2369170D01*
X2440960Y715450D02*
Y725750D01*
X2446160Y715450D02*
Y725750D01*
X2440960D02*
X2446160D01*
X2440960Y715450D02*
X2446160D01*
X2631460D02*
Y725750D01*
X2636660Y715450D02*
Y725750D01*
X2631460D02*
X2636660D01*
X2631460Y715450D02*
X2636660D01*
X2869590D02*
Y725750D01*
X2874790Y715450D02*
Y725750D01*
X2869590D02*
X2874790D01*
X2869590Y715450D02*
X2874790D01*
X3107710D02*
Y725750D01*
X3112910Y715450D02*
Y725750D01*
X3107710D02*
X3112910D01*
X3107710Y715450D02*
X3112910D01*
X1869460D02*
Y725750D01*
X1874660Y715450D02*
Y725750D01*
X1869460D02*
X1874660D01*
X1869460Y715450D02*
X1874660D01*
X2059960D02*
Y725750D01*
X2065160Y715450D02*
Y725750D01*
X2059960D02*
X2065160D01*
X2059960Y715450D02*
X2065160D01*
X2250460D02*
Y725750D01*
X2255660Y715450D02*
Y725750D01*
X2250460D02*
X2255660D01*
X2250460Y715450D02*
X2255660D01*
X916960D02*
Y725750D01*
X922160Y715450D02*
Y725750D01*
X916960D02*
X922160D01*
X916960Y715450D02*
X922160D01*
X1107460D02*
Y725750D01*
X1112660Y715450D02*
Y725750D01*
X1107460D02*
X1112660D01*
X1107460Y715450D02*
X1112660D01*
X1297960D02*
Y725750D01*
X1303160Y715450D02*
Y725750D01*
X1297960D02*
X1303160D01*
X1297960Y715450D02*
X1303160D01*
X1488460D02*
Y725750D01*
X1493660Y715450D02*
Y725750D01*
X1488460D02*
X1493660D01*
X1488460Y715450D02*
X1493660D01*
X1678960D02*
Y725750D01*
X1684160Y715450D02*
Y725750D01*
X1678960D02*
X1684160D01*
X1678960Y715450D02*
X1684160D01*
X726460D02*
Y725750D01*
X731660Y715450D02*
Y725750D01*
X726460D02*
X731660D01*
X726460Y715450D02*
X731660D01*
X130790Y882750D02*
Y893050D01*
X125590Y882750D02*
Y893050D01*
Y882750D02*
X130790D01*
X125590Y893050D02*
X130790D01*
X297830Y715450D02*
Y725750D01*
X303030Y715450D02*
Y725750D01*
X297830D02*
X303030D01*
X297830Y715450D02*
X303030D01*
X535960D02*
Y725750D01*
X541160Y715450D02*
Y725750D01*
X535960D02*
X541160D01*
X535960Y715450D02*
X541160D01*
X702290Y882750D02*
Y893050D01*
X697090Y882750D02*
Y893050D01*
Y882750D02*
X702290D01*
X697090Y893050D02*
X702290D01*
X511790Y882750D02*
Y893050D01*
X506590Y882750D02*
Y893050D01*
Y882750D02*
X511790D01*
X506590Y893050D02*
X511790D01*
X321290Y882750D02*
Y893050D01*
X316090Y882750D02*
Y893050D01*
Y882750D02*
X321290D01*
X316090Y893050D02*
X321290D01*
X1273790Y882750D02*
Y893050D01*
X1268590Y882750D02*
Y893050D01*
Y882750D02*
X1273790D01*
X1268590Y893050D02*
X1273790D01*
X1083290Y882750D02*
Y893050D01*
X1078090Y882750D02*
Y893050D01*
Y882750D02*
X1083290D01*
X1078090Y893050D02*
X1083290D01*
X892790Y882750D02*
Y893050D01*
X887590Y882750D02*
Y893050D01*
Y882750D02*
X892790D01*
X887590Y893050D02*
X892790D01*
X2035790Y882750D02*
Y893050D01*
X2030590Y882750D02*
Y893050D01*
Y882750D02*
X2035790D01*
X2030590Y893050D02*
X2035790D01*
X1845290Y882750D02*
Y893050D01*
X1840090Y882750D02*
Y893050D01*
Y882750D02*
X1845290D01*
X1840090Y893050D02*
X1845290D01*
X1654790Y882750D02*
Y893050D01*
X1649590Y882750D02*
Y893050D01*
Y882750D02*
X1654790D01*
X1649590Y893050D02*
X1654790D01*
X1464290Y882750D02*
Y893050D01*
X1459090Y882750D02*
Y893050D01*
Y882750D02*
X1464290D01*
X1459090Y893050D02*
X1464290D01*
X2702540Y882750D02*
Y893050D01*
X2697340Y882750D02*
Y893050D01*
Y882750D02*
X2702540D01*
X2697340Y893050D02*
X2702540D01*
X2416790Y882750D02*
Y893050D01*
X2411590Y882750D02*
Y893050D01*
Y882750D02*
X2416790D01*
X2411590Y893050D02*
X2416790D01*
X2226290Y882750D02*
Y893050D01*
X2221090Y882750D02*
Y893050D01*
Y882750D02*
X2226290D01*
X2221090Y893050D02*
X2226290D01*
X2988290Y882750D02*
Y893050D01*
X2983090Y882750D02*
Y893050D01*
Y882750D02*
X2988290D01*
X2983090Y893050D02*
X2988290D01*
X2726710Y1096450D02*
Y1106750D01*
X2731910Y1096450D02*
Y1106750D01*
X2726710D02*
X2731910D01*
X2726710Y1096450D02*
X2731910D01*
X2917210D02*
Y1106750D01*
X2922410Y1096450D02*
Y1106750D01*
X2917210D02*
X2922410D01*
X2917210Y1096450D02*
X2922410D01*
X3107710D02*
Y1106750D01*
X3112910Y1096450D02*
Y1106750D01*
X3107710D02*
X3112910D01*
X3107710Y1096450D02*
X3112910D01*
X2155210D02*
Y1106750D01*
X2160410Y1096450D02*
Y1106750D01*
X2155210D02*
X2160410D01*
X2155210Y1096450D02*
X2160410D01*
X2345710D02*
Y1106750D01*
X2350910Y1096450D02*
Y1106750D01*
X2345710D02*
X2350910D01*
X2345710Y1096450D02*
X2350910D01*
X2536210D02*
Y1106750D01*
X2541410Y1096450D02*
Y1106750D01*
X2536210D02*
X2541410D01*
X2536210Y1096450D02*
X2541410D01*
X1583710D02*
Y1106750D01*
X1588910Y1096450D02*
Y1106750D01*
X1583710D02*
X1588910D01*
X1583710Y1096450D02*
X1588910D01*
X1774210D02*
Y1106750D01*
X1779410Y1096450D02*
Y1106750D01*
X1774210D02*
X1779410D01*
X1774210Y1096450D02*
X1779410D01*
X1964710D02*
Y1106750D01*
X1969910Y1096450D02*
Y1106750D01*
X1964710D02*
X1969910D01*
X1964710Y1096450D02*
X1969910D01*
X821710D02*
Y1106750D01*
X826910Y1096450D02*
Y1106750D01*
X821710D02*
X826910D01*
X821710Y1096450D02*
X826910D01*
X1012210D02*
Y1106750D01*
X1017410Y1096450D02*
Y1106750D01*
X1012210D02*
X1017410D01*
X1012210Y1096450D02*
X1017410D01*
X1202710D02*
Y1106750D01*
X1207910Y1096450D02*
Y1106750D01*
X1202710D02*
X1207910D01*
X1202710Y1096450D02*
X1207910D01*
X1393210D02*
Y1106750D01*
X1398410Y1096450D02*
Y1106750D01*
X1393210D02*
X1398410D01*
X1393210Y1096450D02*
X1398410D01*
X440710D02*
Y1106750D01*
X445910Y1096450D02*
Y1106750D01*
X440710D02*
X445910D01*
X440710Y1096450D02*
X445910D01*
X631210D02*
Y1106750D01*
X636410Y1096450D02*
Y1106750D01*
X631210D02*
X636410D01*
X631210Y1096450D02*
X636410D01*
X250212D02*
Y1106750D01*
X255413Y1096450D02*
Y1106750D01*
X250212D02*
X255413D01*
X250212Y1096450D02*
X255413D01*
X1059830Y334450D02*
X1065030D01*
X1059830Y344750D02*
X1065030D01*
Y334450D02*
Y344750D01*
X1059830Y334450D02*
Y344750D01*
X2232590Y366750D02*
Y395250D01*
X2215590Y366750D02*
Y395250D01*
Y366750D02*
X2232590D01*
X2215590Y395250D02*
X2232590D01*
X2946965Y366750D02*
Y395250D01*
X2929965Y366750D02*
Y395250D01*
Y366750D02*
X2946965D01*
X2929965Y395250D02*
X2946965D01*
X2685020Y366750D02*
Y395250D01*
X2668020Y366750D02*
Y395250D01*
Y366750D02*
X2685020D01*
X2668020Y395250D02*
X2685020D01*
X1470590Y366750D02*
Y395250D01*
X1453590Y366750D02*
Y395250D01*
Y366750D02*
X1470590D01*
X1453590Y395250D02*
X1470590D01*
X1089590Y366750D02*
Y395250D01*
X1072590Y366750D02*
Y395250D01*
Y366750D02*
X1089590D01*
X1072590Y395250D02*
X1089590D01*
X708590Y366750D02*
Y395250D01*
X691590Y366750D02*
Y395250D01*
Y366750D02*
X708590D01*
X691590Y395250D02*
X708590D01*
X1851590Y366750D02*
Y395250D01*
X1834590Y366750D02*
Y395250D01*
Y366750D02*
X1851590D01*
X1834590Y395250D02*
X1851590D01*
X3137460Y366750D02*
Y395250D01*
X3120460Y366750D02*
Y395250D01*
Y366750D02*
X3137460D01*
X3120460Y395250D02*
X3137460D01*
X2423090Y366750D02*
Y395250D01*
X2406090Y366750D02*
Y395250D01*
Y366750D02*
X2423090D01*
X2406090Y395250D02*
X2423090D01*
X399020Y366750D02*
Y395250D01*
X382020Y366750D02*
Y395250D01*
Y366750D02*
X399020D01*
X382020Y395250D02*
X399020D01*
X1661090Y366750D02*
Y395250D01*
X1644090Y366750D02*
Y395250D01*
Y366750D02*
X1661090D01*
X1644090Y395250D02*
X1661090D01*
X1280090Y366750D02*
Y395250D01*
X1263090Y366750D02*
Y395250D01*
Y366750D02*
X1280090D01*
X1263090Y395250D02*
X1280090D01*
X2042090Y366750D02*
Y395250D01*
X2025090Y366750D02*
Y395250D01*
Y366750D02*
X2042090D01*
X2025090Y395250D02*
X2042090D01*
X899090Y366750D02*
Y395250D01*
X882090Y366750D02*
Y395250D01*
Y366750D02*
X899090D01*
X882090Y395250D02*
X899090D01*
X1756340Y557250D02*
Y585750D01*
X1739340Y557250D02*
Y585750D01*
Y557250D02*
X1756340D01*
X1739340Y585750D02*
X1756340D01*
X2518340Y557250D02*
Y585750D01*
X2501340Y557250D02*
Y585750D01*
Y557250D02*
X2518340D01*
X2501340Y585750D02*
X2518340D01*
X2137340Y557250D02*
Y585750D01*
X2120340Y557250D02*
Y585750D01*
Y557250D02*
X2137340D01*
X2120340Y585750D02*
X2137340D01*
X613340Y557250D02*
Y585750D01*
X596340Y557250D02*
Y585750D01*
Y557250D02*
X613340D01*
X596340Y585750D02*
X613340D01*
X1375340Y557250D02*
Y585750D01*
X1358340Y557250D02*
Y585750D01*
Y557250D02*
X1375340D01*
X1358340Y585750D02*
X1375340D01*
X994340Y557250D02*
Y585750D01*
X977340Y557250D02*
Y585750D01*
Y557250D02*
X994340D01*
X977340Y585750D02*
X994340D01*
X851460Y938250D02*
Y966750D01*
X834460Y938250D02*
Y966750D01*
Y938250D02*
X851460D01*
X834460Y966750D02*
X851460D01*
X470460Y938250D02*
Y966750D01*
X453460Y938250D02*
Y966750D01*
Y938250D02*
X470460D01*
X453460Y966750D02*
X470460D01*
X2946960Y176250D02*
Y204750D01*
X2929960Y176250D02*
Y204750D01*
Y176250D02*
X2946960D01*
X2929960Y204750D02*
X2946960D01*
X2565970Y176250D02*
Y204750D01*
X2548970Y176250D02*
Y204750D01*
Y176250D02*
X2565970D01*
X2548970Y204750D02*
X2565970D01*
X2184970Y176250D02*
Y204750D01*
X2167970Y176250D02*
Y204750D01*
Y176250D02*
X2184970D01*
X2167970Y204750D02*
X2184970D01*
X1494410Y176250D02*
Y204750D01*
X1477410Y176250D02*
Y204750D01*
Y176250D02*
X1494410D01*
X1477410Y204750D02*
X1494410D01*
X780020Y176250D02*
Y204750D01*
X763020Y176250D02*
Y204750D01*
Y176250D02*
X780020D01*
X763020Y204750D02*
X780020D01*
X303770Y176250D02*
Y204750D01*
X286770Y176250D02*
Y204750D01*
Y176250D02*
X303770D01*
X286770Y204750D02*
X303770D01*
X3137460Y176250D02*
Y204750D01*
X3120460Y176250D02*
Y204750D01*
Y176250D02*
X3137460D01*
X3120460Y204750D02*
X3137460D01*
X2756457Y176250D02*
Y204750D01*
X2739458Y176250D02*
Y204750D01*
Y176250D02*
X2756457D01*
X2739458Y204750D02*
X2756457D01*
X2375460Y176250D02*
Y204750D01*
X2358460Y176250D02*
Y204750D01*
Y176250D02*
X2375460D01*
X2358460Y204750D02*
X2375460D01*
X541900Y176250D02*
Y204750D01*
X524900Y176250D02*
Y204750D01*
Y176250D02*
X541900D01*
X524900Y204750D02*
X541900D01*
X2327840Y557250D02*
Y585750D01*
X2310840Y557250D02*
Y585750D01*
Y557250D02*
X2327840D01*
X2310840Y585750D02*
X2327840D01*
X1946840Y557250D02*
Y585750D01*
X1929840Y557250D02*
Y585750D01*
Y557250D02*
X1946840D01*
X1929840Y585750D02*
X1946840D01*
X1565840Y557250D02*
Y585750D01*
X1548840Y557250D02*
Y585750D01*
Y557250D02*
X1565840D01*
X1548840Y585750D02*
X1565840D01*
X1184840Y557250D02*
Y585750D01*
X1167840Y557250D02*
Y585750D01*
Y557250D02*
X1184840D01*
X1167840Y585750D02*
X1184840D01*
X803840Y557250D02*
Y585750D01*
X786840Y557250D02*
Y585750D01*
Y557250D02*
X803840D01*
X786840Y585750D02*
X803840D01*
X351400Y557250D02*
Y585750D01*
X334400Y557250D02*
Y585750D01*
Y557250D02*
X351400D01*
X334400Y585750D02*
X351400D01*
X3137460Y557250D02*
Y585750D01*
X3120460Y557250D02*
Y585750D01*
Y557250D02*
X3137460D01*
X3120460Y585750D02*
X3137460D01*
X2827900Y557250D02*
Y585750D01*
X2810900Y557250D02*
Y585750D01*
Y557250D02*
X2827900D01*
X2810900Y585750D02*
X2827900D01*
X2470710Y747750D02*
Y776250D01*
X2453710Y747750D02*
Y776250D01*
Y747750D02*
X2470710D01*
X2453710Y776250D02*
X2470710D01*
X1137210Y747750D02*
Y776250D01*
X1120210Y747750D02*
Y776250D01*
Y747750D02*
X1137210D01*
X1120210Y776250D02*
X1137210D01*
X756210Y747750D02*
Y776250D01*
X739210Y747750D02*
Y776250D01*
Y747750D02*
X756210D01*
X739210Y776250D02*
X756210D01*
X1899210Y747750D02*
Y776250D01*
X1882210Y747750D02*
Y776250D01*
Y747750D02*
X1899210D01*
X1882210Y776250D02*
X1899210D01*
X1518210Y747750D02*
Y776250D01*
X1501210Y747750D02*
Y776250D01*
Y747750D02*
X1518210D01*
X1501210Y776250D02*
X1518210D01*
X327580Y747750D02*
Y776250D01*
X310580Y747750D02*
Y776250D01*
Y747750D02*
X327580D01*
X310580Y776250D02*
X327580D01*
X1708710Y747750D02*
Y776250D01*
X1691710Y747750D02*
Y776250D01*
Y747750D02*
X1708710D01*
X1691710Y776250D02*
X1708710D01*
X1327710Y747750D02*
Y776250D01*
X1310710Y747750D02*
Y776250D01*
Y747750D02*
X1327710D01*
X1310710Y776250D02*
X1327710D01*
X3137460Y747750D02*
Y776250D01*
X3120460Y747750D02*
Y776250D01*
Y747750D02*
X3137460D01*
X3120460Y776250D02*
X3137460D01*
X565710Y747750D02*
Y776250D01*
X548710Y747750D02*
Y776250D01*
Y747750D02*
X565710D01*
X548710Y776250D02*
X565710D01*
X2089710Y747750D02*
Y776250D01*
X2072710Y747750D02*
Y776250D01*
Y747750D02*
X2089710D01*
X2072710Y776250D02*
X2089710D01*
X2280210Y747750D02*
Y776250D01*
X2263210Y747750D02*
Y776250D01*
Y747750D02*
X2280210D01*
X2263210Y776250D02*
X2280210D01*
X2899340Y747750D02*
Y776250D01*
X2882340Y747750D02*
Y776250D01*
Y747750D02*
X2899340D01*
X2882340Y776250D02*
X2899340D01*
X946710Y747750D02*
Y776250D01*
X929710Y747750D02*
Y776250D01*
Y747750D02*
X946710D01*
X929710Y776250D02*
X946710D01*
X2661210Y747750D02*
Y776250D01*
X2644210Y747750D02*
Y776250D01*
Y747750D02*
X2661210D01*
X2644210Y776250D02*
X2661210D01*
X1803960Y938250D02*
Y966750D01*
X1786960Y938250D02*
Y966750D01*
Y938250D02*
X1803960D01*
X1786960Y966750D02*
X1803960D01*
X2565960Y938250D02*
Y966750D01*
X2548960Y938250D02*
Y966750D01*
Y938250D02*
X2565960D01*
X2548960Y966750D02*
X2565960D01*
X2184960Y938250D02*
Y966750D01*
X2167960Y938250D02*
Y966750D01*
Y938250D02*
X2184960D01*
X2167960Y966750D02*
X2184960D01*
X660960Y938250D02*
Y966750D01*
X643960Y938250D02*
Y966750D01*
Y938250D02*
X660960D01*
X643960Y966750D02*
X660960D01*
X1422960Y938250D02*
Y966750D01*
X1405960Y938250D02*
Y966750D01*
Y938250D02*
X1422960D01*
X1405960Y966750D02*
X1422960D01*
X1041960Y938250D02*
Y966750D01*
X1024960Y938250D02*
Y966750D01*
Y938250D02*
X1041960D01*
X1024960Y966750D02*
X1041960D01*
X2375460Y938250D02*
Y966750D01*
X2358460Y938250D02*
Y966750D01*
Y938250D02*
X2375460D01*
X2358460Y966750D02*
X2375460D01*
X2851710Y938250D02*
Y966750D01*
X2834710Y938250D02*
Y966750D01*
Y938250D02*
X2851710D01*
X2834710Y966750D02*
X2851710D01*
X3137460Y938250D02*
Y966750D01*
X3120460Y938250D02*
Y966750D01*
Y938250D02*
X3137460D01*
X3120460Y966750D02*
X3137460D01*
X1232460Y938250D02*
Y966750D01*
X1215460Y938250D02*
Y966750D01*
Y938250D02*
X1232460D01*
X1215460Y966750D02*
X1232460D01*
X279962Y938250D02*
Y966750D01*
X262963Y938250D02*
Y966750D01*
Y938250D02*
X279962D01*
X262963Y966750D02*
X279962D01*
X1994460Y938250D02*
Y966750D01*
X1977460Y938250D02*
Y966750D01*
Y938250D02*
X1994460D01*
X1977460Y966750D02*
X1994460D01*
X1613460Y938250D02*
Y966750D01*
X1596460Y938250D02*
Y966750D01*
Y938250D02*
X1613460D01*
X1596460Y966750D02*
X1613460D01*
X2565960Y1128750D02*
Y1157250D01*
X2548960Y1128750D02*
Y1157250D01*
Y1128750D02*
X2565960D01*
X2548960Y1157250D02*
X2565960D01*
X1803960Y1128750D02*
Y1157250D01*
X1786960Y1128750D02*
Y1157250D01*
Y1128750D02*
X1803960D01*
X1786960Y1157250D02*
X1803960D01*
X2946960Y1128750D02*
Y1157250D01*
X2929960Y1128750D02*
Y1157250D01*
Y1128750D02*
X2946960D01*
X2929960Y1157250D02*
X2946960D01*
X1422960Y1128750D02*
Y1157250D01*
X1405960Y1128750D02*
Y1157250D01*
Y1128750D02*
X1422960D01*
X1405960Y1157250D02*
X1422960D01*
X2184960Y1128750D02*
Y1157250D01*
X2167960Y1128750D02*
Y1157250D01*
Y1128750D02*
X2184960D01*
X2167960Y1157250D02*
X2184960D01*
X1041960Y1128750D02*
Y1157250D01*
X1024960Y1128750D02*
Y1157250D01*
Y1128750D02*
X1041960D01*
X1024960Y1157250D02*
X1041960D01*
X660960Y1128750D02*
Y1157250D01*
X643960Y1128750D02*
Y1157250D01*
Y1128750D02*
X660960D01*
X643960Y1157250D02*
X660960D01*
X1994460Y1128750D02*
Y1157250D01*
X1977460Y1128750D02*
Y1157250D01*
Y1128750D02*
X1994460D01*
X1977460Y1157250D02*
X1994460D01*
X2756460Y1128750D02*
Y1157250D01*
X2739460Y1128750D02*
Y1157250D01*
Y1128750D02*
X2756460D01*
X2739460Y1157250D02*
X2756460D01*
X2375460Y1128750D02*
Y1157250D01*
X2358460Y1128750D02*
Y1157250D01*
Y1128750D02*
X2375460D01*
X2358460Y1157250D02*
X2375460D01*
X3137460Y1128750D02*
Y1157250D01*
X3120460Y1128750D02*
Y1157250D01*
Y1128750D02*
X3137460D01*
X3120460Y1157250D02*
X3137460D01*
X470460Y1128750D02*
Y1157250D01*
X453460Y1128750D02*
Y1157250D01*
Y1128750D02*
X470460D01*
X453460Y1157250D02*
X470460D01*
X1232460Y1128750D02*
Y1157250D01*
X1215460Y1128750D02*
Y1157250D01*
Y1128750D02*
X1232460D01*
X1215460Y1157250D02*
X1232460D01*
X1613460Y1128750D02*
Y1157250D01*
X1596460Y1128750D02*
Y1157250D01*
Y1128750D02*
X1613460D01*
X1596460Y1157250D02*
X1613460D01*
X851460Y1128750D02*
Y1157250D01*
X834460Y1128750D02*
Y1157250D01*
Y1128750D02*
X851460D01*
X834460Y1157250D02*
X851460D01*
X279962Y1128750D02*
Y1157250D01*
X262963Y1128750D02*
Y1157250D01*
Y1128750D02*
X279962D01*
X262963Y1157250D02*
X279962D01*
D117*
X1434318Y1321509D02*
G03*
X1434318Y1321509I-1270J0D01*
G01*
X1505178Y1338759D02*
G03*
X1505178Y1338759I-1270J0D01*
G01*
D125*
X1422126Y1324049D02*
X1435588D01*
X1422126Y1301951D02*
Y1324049D01*
Y1301951D02*
X1435588D01*
Y1324049D01*
X1417808Y1315032D02*
X1422126D01*
X1417808Y1310968D02*
Y1315032D01*
Y1310968D02*
X1422126D01*
Y1315032D01*
X1435588Y1304468D02*
X1439906D01*
Y1308532D01*
X1435588D02*
X1439906D01*
X1435588Y1304468D02*
Y1308532D01*
Y1317467D02*
X1439906D01*
Y1321532D01*
X1435588D02*
X1439906D01*
X1435588Y1317467D02*
Y1321532D01*
X1492986Y1341299D02*
X1506448D01*
X1492986Y1319201D02*
Y1341299D01*
Y1319201D02*
X1506448D01*
Y1341299D01*
X1488668Y1332282D02*
X1492986D01*
X1488668Y1328218D02*
Y1332282D01*
Y1328218D02*
X1492986D01*
Y1332282D01*
X1506448Y1321717D02*
X1510766D01*
Y1325781D01*
X1506448D02*
X1510766D01*
X1506448Y1321717D02*
Y1325781D01*
Y1334718D02*
X1510766D01*
Y1338782D01*
X1506448D02*
X1510766D01*
X1506448Y1334718D02*
Y1338782D01*
D126*
X1110094Y1358900D02*
D03*
D127*
X1032500Y1281861D02*
D03*
M02*
